G04 #@! TF.FileFunction,Legend,Bot*
%FSLAX46Y46*%
G04 Gerber Fmt 4.6, Leading zero omitted, Abs format (unit mm)*
G04 Created by KiCad (PCBNEW 4.0.7) date 06/26/19 05:05:19*
%MOMM*%
%LPD*%
G01*
G04 APERTURE LIST*
%ADD10C,0.100000*%
%ADD11C,0.120000*%
%ADD12C,0.150000*%
G04 APERTURE END LIST*
D10*
D11*
X87860600Y-85933400D02*
X87860600Y-85003400D01*
X87860600Y-82773400D02*
X87860600Y-83703400D01*
X87860600Y-82773400D02*
X91020600Y-82773400D01*
X87860600Y-85933400D02*
X89320600Y-85933400D01*
X104366600Y-71089400D02*
X104366600Y-72019400D01*
X104366600Y-74249400D02*
X104366600Y-73319400D01*
X104366600Y-74249400D02*
X101206600Y-74249400D01*
X104366600Y-71089400D02*
X102906600Y-71089400D01*
X92682600Y-67685800D02*
X92682600Y-68615800D01*
X92682600Y-70845800D02*
X92682600Y-69915800D01*
X92682600Y-70845800D02*
X89522600Y-70845800D01*
X92682600Y-67685800D02*
X91222600Y-67685800D01*
X82610400Y-94148800D02*
X83810400Y-94148800D01*
X83810400Y-92388800D02*
X82610400Y-92388800D01*
X82712000Y-89703800D02*
X83912000Y-89703800D01*
X83912000Y-87943800D02*
X82712000Y-87943800D01*
X77790600Y-82940000D02*
X76590600Y-82940000D01*
X76590600Y-84700000D02*
X77790600Y-84700000D01*
X105147000Y-65522400D02*
X105147000Y-64322400D01*
X103387000Y-64322400D02*
X103387000Y-65522400D01*
X99964800Y-67471400D02*
X98764800Y-67471400D01*
X98764800Y-69231400D02*
X99964800Y-69231400D01*
D12*
X88715838Y-82401019D02*
X88811076Y-82353400D01*
X88906314Y-82258162D01*
X89049171Y-82115305D01*
X89144410Y-82067686D01*
X89239648Y-82067686D01*
X89192029Y-82305781D02*
X89287267Y-82258162D01*
X89382505Y-82162924D01*
X89430124Y-81972448D01*
X89430124Y-81639114D01*
X89382505Y-81448638D01*
X89287267Y-81353400D01*
X89192029Y-81305781D01*
X89001552Y-81305781D01*
X88906314Y-81353400D01*
X88811076Y-81448638D01*
X88763457Y-81639114D01*
X88763457Y-81972448D01*
X88811076Y-82162924D01*
X88906314Y-82258162D01*
X89001552Y-82305781D01*
X89192029Y-82305781D01*
X87906314Y-81305781D02*
X88096791Y-81305781D01*
X88192029Y-81353400D01*
X88239648Y-81401019D01*
X88334886Y-81543876D01*
X88382505Y-81734352D01*
X88382505Y-82115305D01*
X88334886Y-82210543D01*
X88287267Y-82258162D01*
X88192029Y-82305781D01*
X88001552Y-82305781D01*
X87906314Y-82258162D01*
X87858695Y-82210543D01*
X87811076Y-82115305D01*
X87811076Y-81877210D01*
X87858695Y-81781971D01*
X87906314Y-81734352D01*
X88001552Y-81686733D01*
X88192029Y-81686733D01*
X88287267Y-81734352D01*
X88334886Y-81781971D01*
X88382505Y-81877210D01*
X103701838Y-75717019D02*
X103797076Y-75669400D01*
X103892314Y-75574162D01*
X104035171Y-75431305D01*
X104130410Y-75383686D01*
X104225648Y-75383686D01*
X104178029Y-75621781D02*
X104273267Y-75574162D01*
X104368505Y-75478924D01*
X104416124Y-75288448D01*
X104416124Y-74955114D01*
X104368505Y-74764638D01*
X104273267Y-74669400D01*
X104178029Y-74621781D01*
X103987552Y-74621781D01*
X103892314Y-74669400D01*
X103797076Y-74764638D01*
X103749457Y-74955114D01*
X103749457Y-75288448D01*
X103797076Y-75478924D01*
X103892314Y-75574162D01*
X103987552Y-75621781D01*
X104178029Y-75621781D01*
X103178029Y-75050352D02*
X103273267Y-75002733D01*
X103320886Y-74955114D01*
X103368505Y-74859876D01*
X103368505Y-74812257D01*
X103320886Y-74717019D01*
X103273267Y-74669400D01*
X103178029Y-74621781D01*
X102987552Y-74621781D01*
X102892314Y-74669400D01*
X102844695Y-74717019D01*
X102797076Y-74812257D01*
X102797076Y-74859876D01*
X102844695Y-74955114D01*
X102892314Y-75002733D01*
X102987552Y-75050352D01*
X103178029Y-75050352D01*
X103273267Y-75097971D01*
X103320886Y-75145590D01*
X103368505Y-75240829D01*
X103368505Y-75431305D01*
X103320886Y-75526543D01*
X103273267Y-75574162D01*
X103178029Y-75621781D01*
X102987552Y-75621781D01*
X102892314Y-75574162D01*
X102844695Y-75526543D01*
X102797076Y-75431305D01*
X102797076Y-75240829D01*
X102844695Y-75145590D01*
X102892314Y-75097971D01*
X102987552Y-75050352D01*
X92494028Y-72313419D02*
X92589266Y-72265800D01*
X92684504Y-72170562D01*
X92827361Y-72027705D01*
X92922600Y-71980086D01*
X93017838Y-71980086D01*
X92970219Y-72218181D02*
X93065457Y-72170562D01*
X93160695Y-72075324D01*
X93208314Y-71884848D01*
X93208314Y-71551514D01*
X93160695Y-71361038D01*
X93065457Y-71265800D01*
X92970219Y-71218181D01*
X92779742Y-71218181D01*
X92684504Y-71265800D01*
X92589266Y-71361038D01*
X92541647Y-71551514D01*
X92541647Y-71884848D01*
X92589266Y-72075324D01*
X92684504Y-72170562D01*
X92779742Y-72218181D01*
X92970219Y-72218181D01*
X91589266Y-72218181D02*
X92160695Y-72218181D01*
X91874981Y-72218181D02*
X91874981Y-71218181D01*
X91970219Y-71361038D01*
X92065457Y-71456276D01*
X92160695Y-71503895D01*
X90970219Y-71218181D02*
X90874980Y-71218181D01*
X90779742Y-71265800D01*
X90732123Y-71313419D01*
X90684504Y-71408657D01*
X90636885Y-71599133D01*
X90636885Y-71837229D01*
X90684504Y-72027705D01*
X90732123Y-72122943D01*
X90779742Y-72170562D01*
X90874980Y-72218181D01*
X90970219Y-72218181D01*
X91065457Y-72170562D01*
X91113076Y-72122943D01*
X91160695Y-72027705D01*
X91208314Y-71837229D01*
X91208314Y-71599133D01*
X91160695Y-71408657D01*
X91113076Y-71313419D01*
X91065457Y-71265800D01*
X90970219Y-71218181D01*
X83853257Y-92021181D02*
X84186591Y-91544990D01*
X84424686Y-92021181D02*
X84424686Y-91021181D01*
X84043733Y-91021181D01*
X83948495Y-91068800D01*
X83900876Y-91116419D01*
X83853257Y-91211657D01*
X83853257Y-91354514D01*
X83900876Y-91449752D01*
X83948495Y-91497371D01*
X84043733Y-91544990D01*
X84424686Y-91544990D01*
X82900876Y-92021181D02*
X83472305Y-92021181D01*
X83186591Y-92021181D02*
X83186591Y-91021181D01*
X83281829Y-91164038D01*
X83377067Y-91259276D01*
X83472305Y-91306895D01*
X82281829Y-91021181D02*
X82186590Y-91021181D01*
X82091352Y-91068800D01*
X82043733Y-91116419D01*
X81996114Y-91211657D01*
X81948495Y-91402133D01*
X81948495Y-91640229D01*
X81996114Y-91830705D01*
X82043733Y-91925943D01*
X82091352Y-91973562D01*
X82186590Y-92021181D01*
X82281829Y-92021181D01*
X82377067Y-91973562D01*
X82424686Y-91925943D01*
X82472305Y-91830705D01*
X82519924Y-91640229D01*
X82519924Y-91402133D01*
X82472305Y-91211657D01*
X82424686Y-91116419D01*
X82377067Y-91068800D01*
X82281829Y-91021181D01*
X83954857Y-87576181D02*
X84288191Y-87099990D01*
X84526286Y-87576181D02*
X84526286Y-86576181D01*
X84145333Y-86576181D01*
X84050095Y-86623800D01*
X84002476Y-86671419D01*
X83954857Y-86766657D01*
X83954857Y-86909514D01*
X84002476Y-87004752D01*
X84050095Y-87052371D01*
X84145333Y-87099990D01*
X84526286Y-87099990D01*
X83002476Y-87576181D02*
X83573905Y-87576181D01*
X83288191Y-87576181D02*
X83288191Y-86576181D01*
X83383429Y-86719038D01*
X83478667Y-86814276D01*
X83573905Y-86861895D01*
X82621524Y-86671419D02*
X82573905Y-86623800D01*
X82478667Y-86576181D01*
X82240571Y-86576181D01*
X82145333Y-86623800D01*
X82097714Y-86671419D01*
X82050095Y-86766657D01*
X82050095Y-86861895D01*
X82097714Y-87004752D01*
X82669143Y-87576181D01*
X82050095Y-87576181D01*
X77833457Y-85972381D02*
X78166791Y-85496190D01*
X78404886Y-85972381D02*
X78404886Y-84972381D01*
X78023933Y-84972381D01*
X77928695Y-85020000D01*
X77881076Y-85067619D01*
X77833457Y-85162857D01*
X77833457Y-85305714D01*
X77881076Y-85400952D01*
X77928695Y-85448571D01*
X78023933Y-85496190D01*
X78404886Y-85496190D01*
X76881076Y-85972381D02*
X77452505Y-85972381D01*
X77166791Y-85972381D02*
X77166791Y-84972381D01*
X77262029Y-85115238D01*
X77357267Y-85210476D01*
X77452505Y-85258095D01*
X76547743Y-84972381D02*
X75881076Y-84972381D01*
X76309648Y-85972381D01*
X103019381Y-64279543D02*
X102543190Y-63946209D01*
X103019381Y-63708114D02*
X102019381Y-63708114D01*
X102019381Y-64089067D01*
X102067000Y-64184305D01*
X102114619Y-64231924D01*
X102209857Y-64279543D01*
X102352714Y-64279543D01*
X102447952Y-64231924D01*
X102495571Y-64184305D01*
X102543190Y-64089067D01*
X102543190Y-63708114D01*
X102114619Y-64660495D02*
X102067000Y-64708114D01*
X102019381Y-64803352D01*
X102019381Y-65041448D01*
X102067000Y-65136686D01*
X102114619Y-65184305D01*
X102209857Y-65231924D01*
X102305095Y-65231924D01*
X102447952Y-65184305D01*
X103019381Y-64612876D01*
X103019381Y-65231924D01*
X102352714Y-66089067D02*
X103019381Y-66089067D01*
X101971762Y-65850971D02*
X102686048Y-65612876D01*
X102686048Y-66231924D01*
X100007657Y-70503781D02*
X100340991Y-70027590D01*
X100579086Y-70503781D02*
X100579086Y-69503781D01*
X100198133Y-69503781D01*
X100102895Y-69551400D01*
X100055276Y-69599019D01*
X100007657Y-69694257D01*
X100007657Y-69837114D01*
X100055276Y-69932352D01*
X100102895Y-69979971D01*
X100198133Y-70027590D01*
X100579086Y-70027590D01*
X99626705Y-69599019D02*
X99579086Y-69551400D01*
X99483848Y-69503781D01*
X99245752Y-69503781D01*
X99150514Y-69551400D01*
X99102895Y-69599019D01*
X99055276Y-69694257D01*
X99055276Y-69789495D01*
X99102895Y-69932352D01*
X99674324Y-70503781D01*
X99055276Y-70503781D01*
X98150514Y-69503781D02*
X98626705Y-69503781D01*
X98674324Y-69979971D01*
X98626705Y-69932352D01*
X98531467Y-69884733D01*
X98293371Y-69884733D01*
X98198133Y-69932352D01*
X98150514Y-69979971D01*
X98102895Y-70075210D01*
X98102895Y-70313305D01*
X98150514Y-70408543D01*
X98198133Y-70456162D01*
X98293371Y-70503781D01*
X98531467Y-70503781D01*
X98626705Y-70456162D01*
X98674324Y-70408543D01*
M02*
