G04 #@! TF.GenerationSoftware,KiCad,Pcbnew,5.1.3-ffb9f22~84~ubuntu16.04.1*
G04 #@! TF.CreationDate,2019-08-02T01:01:17-03:00*
G04 #@! TF.ProjectId,buck30v15v,6275636b-3330-4763-9135-762e6b696361,rev?*
G04 #@! TF.SameCoordinates,Original*
G04 #@! TF.FileFunction,Copper,L1,Top*
G04 #@! TF.FilePolarity,Positive*
%FSLAX46Y46*%
G04 Gerber Fmt 4.6, Leading zero omitted, Abs format (unit mm)*
G04 Created by KiCad (PCBNEW 5.1.3-ffb9f22~84~ubuntu16.04.1) date 2019-08-02 01:01:17*
%MOMM*%
%LPD*%
G04 APERTURE LIST*
%ADD10C,0.300000*%
%ADD11R,2.000000X2.000000*%
%ADD12C,2.000000*%
%ADD13C,1.600000*%
%ADD14O,2.000000X2.000000*%
%ADD15R,2.200000X2.200000*%
%ADD16O,2.200000X2.200000*%
%ADD17R,1.800000X1.800000*%
%ADD18C,1.800000*%
%ADD19C,2.600000*%
%ADD20R,2.600000X2.600000*%
%ADD21C,3.000000*%
%ADD22C,1.500000*%
%ADD23R,1.500000X1.500000*%
%ADD24O,1.600000X1.600000*%
%ADD25C,2.400000*%
%ADD26O,2.400000X2.400000*%
%ADD27C,1.440000*%
%ADD28R,1.800000X1.275000*%
%ADD29O,1.800000X1.275000*%
%ADD30C,3.100000*%
%ADD31C,1.000000*%
%ADD32C,0.250000*%
%ADD33C,1.250000*%
%ADD34C,0.254000*%
G04 APERTURE END LIST*
D10*
X34382857Y-35442857D02*
X34597142Y-35514285D01*
X34668571Y-35585714D01*
X34740000Y-35728571D01*
X34740000Y-35942857D01*
X34668571Y-36085714D01*
X34597142Y-36157142D01*
X34454285Y-36228571D01*
X33882857Y-36228571D01*
X33882857Y-34728571D01*
X34382857Y-34728571D01*
X34525714Y-34800000D01*
X34597142Y-34871428D01*
X34668571Y-35014285D01*
X34668571Y-35157142D01*
X34597142Y-35300000D01*
X34525714Y-35371428D01*
X34382857Y-35442857D01*
X33882857Y-35442857D01*
X36025714Y-35228571D02*
X36025714Y-36228571D01*
X35382857Y-35228571D02*
X35382857Y-36014285D01*
X35454285Y-36157142D01*
X35597142Y-36228571D01*
X35811428Y-36228571D01*
X35954285Y-36157142D01*
X36025714Y-36085714D01*
X37382857Y-36157142D02*
X37240000Y-36228571D01*
X36954285Y-36228571D01*
X36811428Y-36157142D01*
X36740000Y-36085714D01*
X36668571Y-35942857D01*
X36668571Y-35514285D01*
X36740000Y-35371428D01*
X36811428Y-35300000D01*
X36954285Y-35228571D01*
X37240000Y-35228571D01*
X37382857Y-35300000D01*
X38025714Y-36228571D02*
X38025714Y-34728571D01*
X38168571Y-35657142D02*
X38597142Y-36228571D01*
X38597142Y-35228571D02*
X38025714Y-35800000D01*
X40311428Y-36157142D02*
X40525714Y-36228571D01*
X40882857Y-36228571D01*
X41025714Y-36157142D01*
X41097142Y-36085714D01*
X41168571Y-35942857D01*
X41168571Y-35800000D01*
X41097142Y-35657142D01*
X41025714Y-35585714D01*
X40882857Y-35514285D01*
X40597142Y-35442857D01*
X40454285Y-35371428D01*
X40382857Y-35300000D01*
X40311428Y-35157142D01*
X40311428Y-35014285D01*
X40382857Y-34871428D01*
X40454285Y-34800000D01*
X40597142Y-34728571D01*
X40954285Y-34728571D01*
X41168571Y-34800000D01*
X41811428Y-36228571D02*
X41811428Y-34728571D01*
X42311428Y-35800000D01*
X42811428Y-34728571D01*
X42811428Y-36228571D01*
X43525714Y-36228571D02*
X43525714Y-34728571D01*
X44097142Y-34728571D01*
X44240000Y-34800000D01*
X44311428Y-34871428D01*
X44382857Y-35014285D01*
X44382857Y-35228571D01*
X44311428Y-35371428D01*
X44240000Y-35442857D01*
X44097142Y-35514285D01*
X43525714Y-35514285D01*
X44954285Y-36157142D02*
X45168571Y-36228571D01*
X45525714Y-36228571D01*
X45668571Y-36157142D01*
X45740000Y-36085714D01*
X45811428Y-35942857D01*
X45811428Y-35800000D01*
X45740000Y-35657142D01*
X45668571Y-35585714D01*
X45525714Y-35514285D01*
X45240000Y-35442857D01*
X45097142Y-35371428D01*
X45025714Y-35300000D01*
X44954285Y-35157142D01*
X44954285Y-35014285D01*
X45025714Y-34871428D01*
X45097142Y-34800000D01*
X45240000Y-34728571D01*
X45597142Y-34728571D01*
X45811428Y-34800000D01*
X46454285Y-36085714D02*
X46525714Y-36157142D01*
X46454285Y-36228571D01*
X46382857Y-36157142D01*
X46454285Y-36085714D01*
X46454285Y-36228571D01*
X46454285Y-35300000D02*
X46525714Y-35371428D01*
X46454285Y-35442857D01*
X46382857Y-35371428D01*
X46454285Y-35300000D01*
X46454285Y-35442857D01*
X48168571Y-34728571D02*
X49097142Y-34728571D01*
X48597142Y-35300000D01*
X48811428Y-35300000D01*
X48954285Y-35371428D01*
X49025714Y-35442857D01*
X49097142Y-35585714D01*
X49097142Y-35942857D01*
X49025714Y-36085714D01*
X48954285Y-36157142D01*
X48811428Y-36228571D01*
X48382857Y-36228571D01*
X48240000Y-36157142D01*
X48168571Y-36085714D01*
X50025714Y-34728571D02*
X50168571Y-34728571D01*
X50311428Y-34800000D01*
X50382857Y-34871428D01*
X50454285Y-35014285D01*
X50525714Y-35300000D01*
X50525714Y-35657142D01*
X50454285Y-35942857D01*
X50382857Y-36085714D01*
X50311428Y-36157142D01*
X50168571Y-36228571D01*
X50025714Y-36228571D01*
X49882857Y-36157142D01*
X49811428Y-36085714D01*
X49740000Y-35942857D01*
X49668571Y-35657142D01*
X49668571Y-35300000D01*
X49740000Y-35014285D01*
X49811428Y-34871428D01*
X49882857Y-34800000D01*
X50025714Y-34728571D01*
X51025714Y-35228571D02*
X51382857Y-36228571D01*
X51740000Y-35228571D01*
X53240000Y-35228571D02*
X53811428Y-35228571D01*
X53454285Y-34728571D02*
X53454285Y-36014285D01*
X53525714Y-36157142D01*
X53668571Y-36228571D01*
X53811428Y-36228571D01*
X54525714Y-36228571D02*
X54382857Y-36157142D01*
X54311428Y-36085714D01*
X54240000Y-35942857D01*
X54240000Y-35514285D01*
X54311428Y-35371428D01*
X54382857Y-35300000D01*
X54525714Y-35228571D01*
X54740000Y-35228571D01*
X54882857Y-35300000D01*
X54954285Y-35371428D01*
X55025714Y-35514285D01*
X55025714Y-35942857D01*
X54954285Y-36085714D01*
X54882857Y-36157142D01*
X54740000Y-36228571D01*
X54525714Y-36228571D01*
X57597142Y-36228571D02*
X56740000Y-36228571D01*
X57168571Y-36228571D02*
X57168571Y-34728571D01*
X57025714Y-34942857D01*
X56882857Y-35085714D01*
X56740000Y-35157142D01*
X58954285Y-34728571D02*
X58240000Y-34728571D01*
X58168571Y-35442857D01*
X58240000Y-35371428D01*
X58382857Y-35300000D01*
X58740000Y-35300000D01*
X58882857Y-35371428D01*
X58954285Y-35442857D01*
X59025714Y-35585714D01*
X59025714Y-35942857D01*
X58954285Y-36085714D01*
X58882857Y-36157142D01*
X58740000Y-36228571D01*
X58382857Y-36228571D01*
X58240000Y-36157142D01*
X58168571Y-36085714D01*
X59525714Y-35228571D02*
X59882857Y-36228571D01*
X60240000Y-35228571D01*
X38382857Y-38778571D02*
X37668571Y-38778571D01*
X37668571Y-37278571D01*
X38882857Y-38778571D02*
X38882857Y-37778571D01*
X38882857Y-37278571D02*
X38811428Y-37350000D01*
X38882857Y-37421428D01*
X38954285Y-37350000D01*
X38882857Y-37278571D01*
X38882857Y-37421428D01*
X40239999Y-38778571D02*
X40239999Y-37992857D01*
X40168571Y-37850000D01*
X40025714Y-37778571D01*
X39739999Y-37778571D01*
X39597142Y-37850000D01*
X40239999Y-38707142D02*
X40097142Y-38778571D01*
X39739999Y-38778571D01*
X39597142Y-38707142D01*
X39525714Y-38564285D01*
X39525714Y-38421428D01*
X39597142Y-38278571D01*
X39739999Y-38207142D01*
X40097142Y-38207142D01*
X40239999Y-38135714D01*
X41597142Y-37778571D02*
X41597142Y-38778571D01*
X40954285Y-37778571D02*
X40954285Y-38564285D01*
X41025714Y-38707142D01*
X41168571Y-38778571D01*
X41382857Y-38778571D01*
X41525714Y-38707142D01*
X41597142Y-38635714D01*
X42954285Y-38778571D02*
X42954285Y-37278571D01*
X42954285Y-38707142D02*
X42811428Y-38778571D01*
X42525714Y-38778571D01*
X42382857Y-38707142D01*
X42311428Y-38635714D01*
X42239999Y-38492857D01*
X42239999Y-38064285D01*
X42311428Y-37921428D01*
X42382857Y-37850000D01*
X42525714Y-37778571D01*
X42811428Y-37778571D01*
X42954285Y-37850000D01*
X44311428Y-38778571D02*
X44311428Y-37992857D01*
X44240000Y-37850000D01*
X44097142Y-37778571D01*
X43811428Y-37778571D01*
X43668571Y-37850000D01*
X44311428Y-38707142D02*
X44168571Y-38778571D01*
X43811428Y-38778571D01*
X43668571Y-38707142D01*
X43597142Y-38564285D01*
X43597142Y-38421428D01*
X43668571Y-38278571D01*
X43811428Y-38207142D01*
X44168571Y-38207142D01*
X44311428Y-38135714D01*
X44811428Y-37778571D02*
X45382857Y-37778571D01*
X45025714Y-37278571D02*
X45025714Y-38564285D01*
X45097142Y-38707142D01*
X45240000Y-38778571D01*
X45382857Y-38778571D01*
X47025714Y-38207142D02*
X48168571Y-38207142D01*
X50025714Y-38778571D02*
X50025714Y-37278571D01*
X50525714Y-38350000D01*
X51025714Y-37278571D01*
X51025714Y-38778571D01*
X52382857Y-37778571D02*
X52382857Y-38778571D01*
X51740000Y-37778571D02*
X51740000Y-38564285D01*
X51811428Y-38707142D01*
X51954285Y-38778571D01*
X52168571Y-38778571D01*
X52311428Y-38707142D01*
X52382857Y-38635714D01*
X53097142Y-37778571D02*
X53097142Y-38778571D01*
X53097142Y-37921428D02*
X53168571Y-37850000D01*
X53311428Y-37778571D01*
X53525714Y-37778571D01*
X53668571Y-37850000D01*
X53740000Y-37992857D01*
X53740000Y-38778571D01*
X53025714Y-37421428D02*
X53097142Y-37350000D01*
X53240000Y-37278571D01*
X53525714Y-37421428D01*
X53668571Y-37350000D01*
X53740000Y-37278571D01*
X54668571Y-38778571D02*
X54525714Y-38707142D01*
X54454285Y-38635714D01*
X54382857Y-38492857D01*
X54382857Y-38064285D01*
X54454285Y-37921428D01*
X54525714Y-37850000D01*
X54668571Y-37778571D01*
X54882857Y-37778571D01*
X55025714Y-37850000D01*
X55097142Y-37921428D01*
X55168571Y-38064285D01*
X55168571Y-38492857D01*
X55097142Y-38635714D01*
X55025714Y-38707142D01*
X54882857Y-38778571D01*
X54668571Y-38778571D01*
X55668571Y-37778571D02*
X56454285Y-37778571D01*
X55668571Y-38778571D01*
X56454285Y-38778571D01*
X44668571Y-40542857D02*
X44168571Y-40542857D01*
X44168571Y-41328571D02*
X44168571Y-39828571D01*
X44882857Y-39828571D01*
X45454285Y-41328571D02*
X45454285Y-39828571D01*
X46168571Y-39828571D02*
X46168571Y-41042857D01*
X46240000Y-41185714D01*
X46311428Y-41257142D01*
X46454285Y-41328571D01*
X46740000Y-41328571D01*
X46882857Y-41257142D01*
X46954285Y-41185714D01*
X47025714Y-41042857D01*
X47025714Y-39828571D01*
X48240000Y-40542857D02*
X48454285Y-40614285D01*
X48525714Y-40685714D01*
X48597142Y-40828571D01*
X48597142Y-41042857D01*
X48525714Y-41185714D01*
X48454285Y-41257142D01*
X48311428Y-41328571D01*
X47740000Y-41328571D01*
X47740000Y-39828571D01*
X48240000Y-39828571D01*
X48382857Y-39900000D01*
X48454285Y-39971428D01*
X48525714Y-40114285D01*
X48525714Y-40257142D01*
X48454285Y-40400000D01*
X48382857Y-40471428D01*
X48240000Y-40542857D01*
X47740000Y-40542857D01*
X49168571Y-40900000D02*
X49882857Y-40900000D01*
X49025714Y-41328571D02*
X49525714Y-39828571D01*
X50025714Y-41328571D01*
D11*
X94500000Y-42000000D03*
D12*
X94500000Y-37000000D03*
D13*
X105000000Y-42000000D03*
X105000000Y-37000000D03*
D12*
X94500000Y-71500000D03*
D11*
X89500000Y-71500000D03*
D13*
X94500000Y-82000000D03*
X89500000Y-82000000D03*
D11*
X103500000Y-51000000D03*
D14*
X108580000Y-51000000D03*
D15*
X122500000Y-78500000D03*
D16*
X122500000Y-68340000D03*
D17*
X59000000Y-95500000D03*
D18*
X56460000Y-95500000D03*
D19*
X122936000Y-117348000D03*
D20*
X117856000Y-117348000D03*
X62992000Y-117348000D03*
D19*
X68072000Y-117348000D03*
D21*
X62500000Y-81500000D03*
X57500000Y-81500000D03*
X52500000Y-81500000D03*
X47500000Y-81500000D03*
X62500000Y-54000000D03*
X57500000Y-54000000D03*
X52500000Y-54000000D03*
X47500000Y-54000000D03*
X42500000Y-81500000D03*
X67500000Y-81500000D03*
X67550000Y-54000000D03*
X42500000Y-54000000D03*
D22*
X114500000Y-59460000D03*
X114500000Y-56920000D03*
D23*
X114500000Y-62000000D03*
D24*
X71500000Y-108200000D03*
D13*
X71500000Y-95500000D03*
X90000000Y-108000000D03*
D24*
X90000000Y-95300000D03*
X64500000Y-108200000D03*
D13*
X64500000Y-95500000D03*
D25*
X32004000Y-105664000D03*
D26*
X59944000Y-105664000D03*
D13*
X122500000Y-96000000D03*
D24*
X122500000Y-83300000D03*
D13*
X130500000Y-72500000D03*
D24*
X130500000Y-59800000D03*
X122500000Y-51800000D03*
D13*
X122500000Y-64500000D03*
D27*
X78000000Y-108000000D03*
X80540000Y-108000000D03*
X83080000Y-108000000D03*
D28*
X94500000Y-52500000D03*
D29*
X94500000Y-54200000D03*
X94500000Y-55900000D03*
X94500000Y-57600000D03*
X94500000Y-59300000D03*
D21*
X54864000Y-117348000D03*
X32264000Y-117348000D03*
D30*
X25000000Y-120000000D03*
X25000000Y-33500000D03*
X141500000Y-33500000D03*
X141500000Y-120000000D03*
D13*
X115500000Y-51000000D03*
X115500000Y-37000000D03*
X100500000Y-71500000D03*
X74676000Y-117348000D03*
X111760000Y-117348000D03*
X103500000Y-59000000D03*
X90500000Y-59500000D03*
X118500000Y-59800000D03*
X85500000Y-58000000D03*
X80500000Y-102500000D03*
X89000000Y-57600000D03*
D31*
X90500000Y-59500000D02*
X90500000Y-64000000D01*
X90500000Y-64000000D02*
X118500000Y-64000000D01*
X118500000Y-64000000D02*
X118500000Y-61000000D01*
X118500000Y-59800000D02*
X118500000Y-61000000D01*
D32*
X90700000Y-59300000D02*
X90500000Y-59500000D01*
D33*
X83500000Y-58000000D02*
X85500000Y-58000000D01*
X83500000Y-102500000D02*
X83500000Y-58000000D01*
X80500000Y-102500000D02*
X83500000Y-102500000D01*
D32*
X87500000Y-58000000D02*
X87900000Y-57600000D01*
D33*
X85500000Y-58000000D02*
X87500000Y-58000000D01*
D32*
X87500000Y-57968630D02*
X87868630Y-57600000D01*
D33*
X87868630Y-57600000D02*
X89000000Y-57600000D01*
D32*
X87500000Y-58000000D02*
X87500000Y-57968630D01*
D34*
G36*
X58155805Y-105252195D02*
G01*
X58272568Y-105537000D01*
X59817000Y-105537000D01*
X59817000Y-105517000D01*
X60071000Y-105517000D01*
X60071000Y-105537000D01*
X61615432Y-105537000D01*
X61732195Y-105252195D01*
X61694220Y-105127000D01*
X136016476Y-105127000D01*
X135945521Y-122373000D01*
X30055524Y-122373000D01*
X30070252Y-118793299D01*
X30223476Y-119022615D01*
X30589385Y-119388524D01*
X31019649Y-119676017D01*
X31497732Y-119874046D01*
X32005263Y-119975000D01*
X32522737Y-119975000D01*
X33030268Y-119874046D01*
X33508351Y-119676017D01*
X33938615Y-119388524D01*
X34304524Y-119022615D01*
X34592017Y-118592351D01*
X34790046Y-118114268D01*
X34891000Y-117606737D01*
X34891000Y-117089263D01*
X52237000Y-117089263D01*
X52237000Y-117606737D01*
X52337954Y-118114268D01*
X52535983Y-118592351D01*
X52823476Y-119022615D01*
X53189385Y-119388524D01*
X53619649Y-119676017D01*
X54097732Y-119874046D01*
X54605263Y-119975000D01*
X55122737Y-119975000D01*
X55630268Y-119874046D01*
X56108351Y-119676017D01*
X56538615Y-119388524D01*
X56904524Y-119022615D01*
X57192017Y-118592351D01*
X57390046Y-118114268D01*
X57491000Y-117606737D01*
X57491000Y-117089263D01*
X57390046Y-116581732D01*
X57192017Y-116103649D01*
X57154834Y-116048000D01*
X60559547Y-116048000D01*
X60559547Y-118648000D01*
X60581307Y-118868931D01*
X60645750Y-119081371D01*
X60750400Y-119277157D01*
X60891235Y-119448765D01*
X61062843Y-119589600D01*
X61258629Y-119694250D01*
X61471069Y-119758693D01*
X61692000Y-119780453D01*
X64292000Y-119780453D01*
X64512931Y-119758693D01*
X64725371Y-119694250D01*
X64921157Y-119589600D01*
X65092765Y-119448765D01*
X65233600Y-119277157D01*
X65338250Y-119081371D01*
X65402693Y-118868931D01*
X65419604Y-118697224D01*
X66902381Y-118697224D01*
X67034317Y-118992312D01*
X67375045Y-119163159D01*
X67742557Y-119264250D01*
X68122729Y-119291701D01*
X68500951Y-119244457D01*
X68862690Y-119124333D01*
X69109683Y-118992312D01*
X69241619Y-118697224D01*
X69192395Y-118648000D01*
X115917928Y-118648000D01*
X115930188Y-118772482D01*
X115966498Y-118892180D01*
X116025463Y-119002494D01*
X116104815Y-119099185D01*
X116201506Y-119178537D01*
X116311820Y-119237502D01*
X116431518Y-119273812D01*
X116556000Y-119286072D01*
X117570250Y-119283000D01*
X117729000Y-119124250D01*
X117729000Y-117475000D01*
X117983000Y-117475000D01*
X117983000Y-119124250D01*
X118141750Y-119283000D01*
X119156000Y-119286072D01*
X119280482Y-119273812D01*
X119400180Y-119237502D01*
X119510494Y-119178537D01*
X119607185Y-119099185D01*
X119686537Y-119002494D01*
X119745502Y-118892180D01*
X119781812Y-118772482D01*
X119794072Y-118648000D01*
X119791000Y-117633750D01*
X119632250Y-117475000D01*
X117983000Y-117475000D01*
X117729000Y-117475000D01*
X116079750Y-117475000D01*
X115921000Y-117633750D01*
X115917928Y-118648000D01*
X69192395Y-118648000D01*
X68072000Y-117527605D01*
X66902381Y-118697224D01*
X65419604Y-118697224D01*
X65424453Y-118648000D01*
X65424453Y-117398729D01*
X66128299Y-117398729D01*
X66175543Y-117776951D01*
X66295667Y-118138690D01*
X66427688Y-118385683D01*
X66722776Y-118517619D01*
X67892395Y-117348000D01*
X68251605Y-117348000D01*
X69421224Y-118517619D01*
X69716312Y-118385683D01*
X69887159Y-118044955D01*
X69988250Y-117677443D01*
X70015701Y-117297271D01*
X69968457Y-116919049D01*
X69848333Y-116557310D01*
X69716312Y-116310317D01*
X69421224Y-116178381D01*
X68251605Y-117348000D01*
X67892395Y-117348000D01*
X66722776Y-116178381D01*
X66427688Y-116310317D01*
X66256841Y-116651045D01*
X66155750Y-117018557D01*
X66128299Y-117398729D01*
X65424453Y-117398729D01*
X65424453Y-116048000D01*
X65419605Y-115998776D01*
X66902381Y-115998776D01*
X68072000Y-117168395D01*
X69192395Y-116048000D01*
X115917928Y-116048000D01*
X115921000Y-117062250D01*
X116079750Y-117221000D01*
X117729000Y-117221000D01*
X117729000Y-115571750D01*
X117983000Y-115571750D01*
X117983000Y-117221000D01*
X119632250Y-117221000D01*
X119744289Y-117108961D01*
X120509000Y-117108961D01*
X120509000Y-117587039D01*
X120602268Y-118055930D01*
X120785221Y-118497615D01*
X121050826Y-118895122D01*
X121388878Y-119233174D01*
X121786385Y-119498779D01*
X122228070Y-119681732D01*
X122696961Y-119775000D01*
X123175039Y-119775000D01*
X123643930Y-119681732D01*
X124085615Y-119498779D01*
X124483122Y-119233174D01*
X124821174Y-118895122D01*
X125086779Y-118497615D01*
X125269732Y-118055930D01*
X125363000Y-117587039D01*
X125363000Y-117108961D01*
X125269732Y-116640070D01*
X125086779Y-116198385D01*
X124821174Y-115800878D01*
X124483122Y-115462826D01*
X124085615Y-115197221D01*
X123643930Y-115014268D01*
X123175039Y-114921000D01*
X122696961Y-114921000D01*
X122228070Y-115014268D01*
X121786385Y-115197221D01*
X121388878Y-115462826D01*
X121050826Y-115800878D01*
X120785221Y-116198385D01*
X120602268Y-116640070D01*
X120509000Y-117108961D01*
X119744289Y-117108961D01*
X119791000Y-117062250D01*
X119794072Y-116048000D01*
X119781812Y-115923518D01*
X119745502Y-115803820D01*
X119686537Y-115693506D01*
X119607185Y-115596815D01*
X119510494Y-115517463D01*
X119400180Y-115458498D01*
X119280482Y-115422188D01*
X119156000Y-115409928D01*
X118141750Y-115413000D01*
X117983000Y-115571750D01*
X117729000Y-115571750D01*
X117570250Y-115413000D01*
X116556000Y-115409928D01*
X116431518Y-115422188D01*
X116311820Y-115458498D01*
X116201506Y-115517463D01*
X116104815Y-115596815D01*
X116025463Y-115693506D01*
X115966498Y-115803820D01*
X115930188Y-115923518D01*
X115917928Y-116048000D01*
X69192395Y-116048000D01*
X69241619Y-115998776D01*
X69109683Y-115703688D01*
X68768955Y-115532841D01*
X68401443Y-115431750D01*
X68021271Y-115404299D01*
X67643049Y-115451543D01*
X67281310Y-115571667D01*
X67034317Y-115703688D01*
X66902381Y-115998776D01*
X65419605Y-115998776D01*
X65402693Y-115827069D01*
X65338250Y-115614629D01*
X65233600Y-115418843D01*
X65092765Y-115247235D01*
X64921157Y-115106400D01*
X64725371Y-115001750D01*
X64512931Y-114937307D01*
X64292000Y-114915547D01*
X61692000Y-114915547D01*
X61471069Y-114937307D01*
X61258629Y-115001750D01*
X61062843Y-115106400D01*
X60891235Y-115247235D01*
X60750400Y-115418843D01*
X60645750Y-115614629D01*
X60581307Y-115827069D01*
X60559547Y-116048000D01*
X57154834Y-116048000D01*
X56904524Y-115673385D01*
X56538615Y-115307476D01*
X56108351Y-115019983D01*
X55630268Y-114821954D01*
X55122737Y-114721000D01*
X54605263Y-114721000D01*
X54097732Y-114821954D01*
X53619649Y-115019983D01*
X53189385Y-115307476D01*
X52823476Y-115673385D01*
X52535983Y-116103649D01*
X52337954Y-116581732D01*
X52237000Y-117089263D01*
X34891000Y-117089263D01*
X34790046Y-116581732D01*
X34592017Y-116103649D01*
X34304524Y-115673385D01*
X33938615Y-115307476D01*
X33508351Y-115019983D01*
X33030268Y-114821954D01*
X32522737Y-114721000D01*
X32005263Y-114721000D01*
X31497732Y-114821954D01*
X31019649Y-115019983D01*
X30589385Y-115307476D01*
X30223476Y-115673385D01*
X30082218Y-115884792D01*
X30112399Y-108549040D01*
X63108091Y-108549040D01*
X63202930Y-108813881D01*
X63347615Y-109055131D01*
X63536586Y-109263519D01*
X63762580Y-109431037D01*
X64016913Y-109551246D01*
X64150961Y-109591904D01*
X64373000Y-109469915D01*
X64373000Y-108327000D01*
X64627000Y-108327000D01*
X64627000Y-109469915D01*
X64849039Y-109591904D01*
X64983087Y-109551246D01*
X65237420Y-109431037D01*
X65463414Y-109263519D01*
X65652385Y-109055131D01*
X65797070Y-108813881D01*
X65891909Y-108549040D01*
X65770624Y-108327000D01*
X64627000Y-108327000D01*
X64373000Y-108327000D01*
X63229376Y-108327000D01*
X63108091Y-108549040D01*
X30112399Y-108549040D01*
X30113835Y-108200000D01*
X69563677Y-108200000D01*
X69600883Y-108577758D01*
X69711071Y-108940999D01*
X69890006Y-109275763D01*
X70130813Y-109569187D01*
X70424237Y-109809994D01*
X70759001Y-109988929D01*
X71122242Y-110099117D01*
X71405342Y-110127000D01*
X71594658Y-110127000D01*
X71877758Y-110099117D01*
X72240999Y-109988929D01*
X72575763Y-109809994D01*
X72869187Y-109569187D01*
X73109994Y-109275763D01*
X73288929Y-108940999D01*
X73399117Y-108577758D01*
X73436323Y-108200000D01*
X73399117Y-107822242D01*
X73397857Y-107818086D01*
X76153000Y-107818086D01*
X76153000Y-108181914D01*
X76223979Y-108538750D01*
X76363210Y-108874883D01*
X76565341Y-109177394D01*
X76822606Y-109434659D01*
X77125117Y-109636790D01*
X77461250Y-109776021D01*
X77818086Y-109847000D01*
X78181914Y-109847000D01*
X78538750Y-109776021D01*
X78874883Y-109636790D01*
X79177394Y-109434659D01*
X79270000Y-109342053D01*
X79362606Y-109434659D01*
X79665117Y-109636790D01*
X80001250Y-109776021D01*
X80358086Y-109847000D01*
X80721914Y-109847000D01*
X81078750Y-109776021D01*
X81414883Y-109636790D01*
X81717394Y-109434659D01*
X81810000Y-109342053D01*
X81902606Y-109434659D01*
X82205117Y-109636790D01*
X82541250Y-109776021D01*
X82898086Y-109847000D01*
X83261914Y-109847000D01*
X83618750Y-109776021D01*
X83954883Y-109636790D01*
X84257394Y-109434659D01*
X84514659Y-109177394D01*
X84716790Y-108874883D01*
X84856021Y-108538750D01*
X84927000Y-108181914D01*
X84927000Y-107818086D01*
X84925433Y-107810207D01*
X88073000Y-107810207D01*
X88073000Y-108189793D01*
X88147053Y-108562085D01*
X88292315Y-108912777D01*
X88503201Y-109228391D01*
X88771609Y-109496799D01*
X89087223Y-109707685D01*
X89437915Y-109852947D01*
X89810207Y-109927000D01*
X90189793Y-109927000D01*
X90562085Y-109852947D01*
X90912777Y-109707685D01*
X91228391Y-109496799D01*
X91496799Y-109228391D01*
X91707685Y-108912777D01*
X91852947Y-108562085D01*
X91927000Y-108189793D01*
X91927000Y-107810207D01*
X91852947Y-107437915D01*
X91707685Y-107087223D01*
X91496799Y-106771609D01*
X91228391Y-106503201D01*
X90912777Y-106292315D01*
X90562085Y-106147053D01*
X90189793Y-106073000D01*
X89810207Y-106073000D01*
X89437915Y-106147053D01*
X89087223Y-106292315D01*
X88771609Y-106503201D01*
X88503201Y-106771609D01*
X88292315Y-107087223D01*
X88147053Y-107437915D01*
X88073000Y-107810207D01*
X84925433Y-107810207D01*
X84856021Y-107461250D01*
X84716790Y-107125117D01*
X84514659Y-106822606D01*
X84257394Y-106565341D01*
X83954883Y-106363210D01*
X83618750Y-106223979D01*
X83261914Y-106153000D01*
X82898086Y-106153000D01*
X82541250Y-106223979D01*
X82205117Y-106363210D01*
X81902606Y-106565341D01*
X81810000Y-106657947D01*
X81717394Y-106565341D01*
X81414883Y-106363210D01*
X81078750Y-106223979D01*
X80721914Y-106153000D01*
X80358086Y-106153000D01*
X80001250Y-106223979D01*
X79665117Y-106363210D01*
X79362606Y-106565341D01*
X79270000Y-106657947D01*
X79177394Y-106565341D01*
X78874883Y-106363210D01*
X78538750Y-106223979D01*
X78181914Y-106153000D01*
X77818086Y-106153000D01*
X77461250Y-106223979D01*
X77125117Y-106363210D01*
X76822606Y-106565341D01*
X76565341Y-106822606D01*
X76363210Y-107125117D01*
X76223979Y-107461250D01*
X76153000Y-107818086D01*
X73397857Y-107818086D01*
X73288929Y-107459001D01*
X73109994Y-107124237D01*
X72869187Y-106830813D01*
X72575763Y-106590006D01*
X72240999Y-106411071D01*
X71877758Y-106300883D01*
X71594658Y-106273000D01*
X71405342Y-106273000D01*
X71122242Y-106300883D01*
X70759001Y-106411071D01*
X70424237Y-106590006D01*
X70130813Y-106830813D01*
X69890006Y-107124237D01*
X69711071Y-107459001D01*
X69600883Y-107822242D01*
X69563677Y-108200000D01*
X30113835Y-108200000D01*
X30118646Y-107030857D01*
X30196501Y-107147376D01*
X30520624Y-107471499D01*
X30901752Y-107726160D01*
X31325239Y-107901574D01*
X31774811Y-107991000D01*
X32233189Y-107991000D01*
X32682761Y-107901574D01*
X32804954Y-107850960D01*
X63108091Y-107850960D01*
X63229376Y-108073000D01*
X64373000Y-108073000D01*
X64373000Y-106930085D01*
X64627000Y-106930085D01*
X64627000Y-108073000D01*
X65770624Y-108073000D01*
X65891909Y-107850960D01*
X65797070Y-107586119D01*
X65652385Y-107344869D01*
X65463414Y-107136481D01*
X65237420Y-106968963D01*
X64983087Y-106848754D01*
X64849039Y-106808096D01*
X64627000Y-106930085D01*
X64373000Y-106930085D01*
X64150961Y-106808096D01*
X64016913Y-106848754D01*
X63762580Y-106968963D01*
X63536586Y-107136481D01*
X63347615Y-107344869D01*
X63202930Y-107586119D01*
X63108091Y-107850960D01*
X32804954Y-107850960D01*
X33106248Y-107726160D01*
X33487376Y-107471499D01*
X33811499Y-107147376D01*
X34066160Y-106766248D01*
X34241574Y-106342761D01*
X34294675Y-106075805D01*
X58155805Y-106075805D01*
X58228379Y-106315066D01*
X58388361Y-106637257D01*
X58608125Y-106922046D01*
X58879226Y-107158489D01*
X59191246Y-107337500D01*
X59532194Y-107452199D01*
X59817000Y-107335854D01*
X59817000Y-105791000D01*
X60071000Y-105791000D01*
X60071000Y-107335854D01*
X60355806Y-107452199D01*
X60696754Y-107337500D01*
X61008774Y-107158489D01*
X61279875Y-106922046D01*
X61499639Y-106637257D01*
X61659621Y-106315066D01*
X61732195Y-106075805D01*
X61615432Y-105791000D01*
X60071000Y-105791000D01*
X59817000Y-105791000D01*
X58272568Y-105791000D01*
X58155805Y-106075805D01*
X34294675Y-106075805D01*
X34331000Y-105893189D01*
X34331000Y-105434811D01*
X34269772Y-105127000D01*
X58193780Y-105127000D01*
X58155805Y-105252195D01*
X58155805Y-105252195D01*
G37*
X58155805Y-105252195D02*
X58272568Y-105537000D01*
X59817000Y-105537000D01*
X59817000Y-105517000D01*
X60071000Y-105517000D01*
X60071000Y-105537000D01*
X61615432Y-105537000D01*
X61732195Y-105252195D01*
X61694220Y-105127000D01*
X136016476Y-105127000D01*
X135945521Y-122373000D01*
X30055524Y-122373000D01*
X30070252Y-118793299D01*
X30223476Y-119022615D01*
X30589385Y-119388524D01*
X31019649Y-119676017D01*
X31497732Y-119874046D01*
X32005263Y-119975000D01*
X32522737Y-119975000D01*
X33030268Y-119874046D01*
X33508351Y-119676017D01*
X33938615Y-119388524D01*
X34304524Y-119022615D01*
X34592017Y-118592351D01*
X34790046Y-118114268D01*
X34891000Y-117606737D01*
X34891000Y-117089263D01*
X52237000Y-117089263D01*
X52237000Y-117606737D01*
X52337954Y-118114268D01*
X52535983Y-118592351D01*
X52823476Y-119022615D01*
X53189385Y-119388524D01*
X53619649Y-119676017D01*
X54097732Y-119874046D01*
X54605263Y-119975000D01*
X55122737Y-119975000D01*
X55630268Y-119874046D01*
X56108351Y-119676017D01*
X56538615Y-119388524D01*
X56904524Y-119022615D01*
X57192017Y-118592351D01*
X57390046Y-118114268D01*
X57491000Y-117606737D01*
X57491000Y-117089263D01*
X57390046Y-116581732D01*
X57192017Y-116103649D01*
X57154834Y-116048000D01*
X60559547Y-116048000D01*
X60559547Y-118648000D01*
X60581307Y-118868931D01*
X60645750Y-119081371D01*
X60750400Y-119277157D01*
X60891235Y-119448765D01*
X61062843Y-119589600D01*
X61258629Y-119694250D01*
X61471069Y-119758693D01*
X61692000Y-119780453D01*
X64292000Y-119780453D01*
X64512931Y-119758693D01*
X64725371Y-119694250D01*
X64921157Y-119589600D01*
X65092765Y-119448765D01*
X65233600Y-119277157D01*
X65338250Y-119081371D01*
X65402693Y-118868931D01*
X65419604Y-118697224D01*
X66902381Y-118697224D01*
X67034317Y-118992312D01*
X67375045Y-119163159D01*
X67742557Y-119264250D01*
X68122729Y-119291701D01*
X68500951Y-119244457D01*
X68862690Y-119124333D01*
X69109683Y-118992312D01*
X69241619Y-118697224D01*
X69192395Y-118648000D01*
X115917928Y-118648000D01*
X115930188Y-118772482D01*
X115966498Y-118892180D01*
X116025463Y-119002494D01*
X116104815Y-119099185D01*
X116201506Y-119178537D01*
X116311820Y-119237502D01*
X116431518Y-119273812D01*
X116556000Y-119286072D01*
X117570250Y-119283000D01*
X117729000Y-119124250D01*
X117729000Y-117475000D01*
X117983000Y-117475000D01*
X117983000Y-119124250D01*
X118141750Y-119283000D01*
X119156000Y-119286072D01*
X119280482Y-119273812D01*
X119400180Y-119237502D01*
X119510494Y-119178537D01*
X119607185Y-119099185D01*
X119686537Y-119002494D01*
X119745502Y-118892180D01*
X119781812Y-118772482D01*
X119794072Y-118648000D01*
X119791000Y-117633750D01*
X119632250Y-117475000D01*
X117983000Y-117475000D01*
X117729000Y-117475000D01*
X116079750Y-117475000D01*
X115921000Y-117633750D01*
X115917928Y-118648000D01*
X69192395Y-118648000D01*
X68072000Y-117527605D01*
X66902381Y-118697224D01*
X65419604Y-118697224D01*
X65424453Y-118648000D01*
X65424453Y-117398729D01*
X66128299Y-117398729D01*
X66175543Y-117776951D01*
X66295667Y-118138690D01*
X66427688Y-118385683D01*
X66722776Y-118517619D01*
X67892395Y-117348000D01*
X68251605Y-117348000D01*
X69421224Y-118517619D01*
X69716312Y-118385683D01*
X69887159Y-118044955D01*
X69988250Y-117677443D01*
X70015701Y-117297271D01*
X69968457Y-116919049D01*
X69848333Y-116557310D01*
X69716312Y-116310317D01*
X69421224Y-116178381D01*
X68251605Y-117348000D01*
X67892395Y-117348000D01*
X66722776Y-116178381D01*
X66427688Y-116310317D01*
X66256841Y-116651045D01*
X66155750Y-117018557D01*
X66128299Y-117398729D01*
X65424453Y-117398729D01*
X65424453Y-116048000D01*
X65419605Y-115998776D01*
X66902381Y-115998776D01*
X68072000Y-117168395D01*
X69192395Y-116048000D01*
X115917928Y-116048000D01*
X115921000Y-117062250D01*
X116079750Y-117221000D01*
X117729000Y-117221000D01*
X117729000Y-115571750D01*
X117983000Y-115571750D01*
X117983000Y-117221000D01*
X119632250Y-117221000D01*
X119744289Y-117108961D01*
X120509000Y-117108961D01*
X120509000Y-117587039D01*
X120602268Y-118055930D01*
X120785221Y-118497615D01*
X121050826Y-118895122D01*
X121388878Y-119233174D01*
X121786385Y-119498779D01*
X122228070Y-119681732D01*
X122696961Y-119775000D01*
X123175039Y-119775000D01*
X123643930Y-119681732D01*
X124085615Y-119498779D01*
X124483122Y-119233174D01*
X124821174Y-118895122D01*
X125086779Y-118497615D01*
X125269732Y-118055930D01*
X125363000Y-117587039D01*
X125363000Y-117108961D01*
X125269732Y-116640070D01*
X125086779Y-116198385D01*
X124821174Y-115800878D01*
X124483122Y-115462826D01*
X124085615Y-115197221D01*
X123643930Y-115014268D01*
X123175039Y-114921000D01*
X122696961Y-114921000D01*
X122228070Y-115014268D01*
X121786385Y-115197221D01*
X121388878Y-115462826D01*
X121050826Y-115800878D01*
X120785221Y-116198385D01*
X120602268Y-116640070D01*
X120509000Y-117108961D01*
X119744289Y-117108961D01*
X119791000Y-117062250D01*
X119794072Y-116048000D01*
X119781812Y-115923518D01*
X119745502Y-115803820D01*
X119686537Y-115693506D01*
X119607185Y-115596815D01*
X119510494Y-115517463D01*
X119400180Y-115458498D01*
X119280482Y-115422188D01*
X119156000Y-115409928D01*
X118141750Y-115413000D01*
X117983000Y-115571750D01*
X117729000Y-115571750D01*
X117570250Y-115413000D01*
X116556000Y-115409928D01*
X116431518Y-115422188D01*
X116311820Y-115458498D01*
X116201506Y-115517463D01*
X116104815Y-115596815D01*
X116025463Y-115693506D01*
X115966498Y-115803820D01*
X115930188Y-115923518D01*
X115917928Y-116048000D01*
X69192395Y-116048000D01*
X69241619Y-115998776D01*
X69109683Y-115703688D01*
X68768955Y-115532841D01*
X68401443Y-115431750D01*
X68021271Y-115404299D01*
X67643049Y-115451543D01*
X67281310Y-115571667D01*
X67034317Y-115703688D01*
X66902381Y-115998776D01*
X65419605Y-115998776D01*
X65402693Y-115827069D01*
X65338250Y-115614629D01*
X65233600Y-115418843D01*
X65092765Y-115247235D01*
X64921157Y-115106400D01*
X64725371Y-115001750D01*
X64512931Y-114937307D01*
X64292000Y-114915547D01*
X61692000Y-114915547D01*
X61471069Y-114937307D01*
X61258629Y-115001750D01*
X61062843Y-115106400D01*
X60891235Y-115247235D01*
X60750400Y-115418843D01*
X60645750Y-115614629D01*
X60581307Y-115827069D01*
X60559547Y-116048000D01*
X57154834Y-116048000D01*
X56904524Y-115673385D01*
X56538615Y-115307476D01*
X56108351Y-115019983D01*
X55630268Y-114821954D01*
X55122737Y-114721000D01*
X54605263Y-114721000D01*
X54097732Y-114821954D01*
X53619649Y-115019983D01*
X53189385Y-115307476D01*
X52823476Y-115673385D01*
X52535983Y-116103649D01*
X52337954Y-116581732D01*
X52237000Y-117089263D01*
X34891000Y-117089263D01*
X34790046Y-116581732D01*
X34592017Y-116103649D01*
X34304524Y-115673385D01*
X33938615Y-115307476D01*
X33508351Y-115019983D01*
X33030268Y-114821954D01*
X32522737Y-114721000D01*
X32005263Y-114721000D01*
X31497732Y-114821954D01*
X31019649Y-115019983D01*
X30589385Y-115307476D01*
X30223476Y-115673385D01*
X30082218Y-115884792D01*
X30112399Y-108549040D01*
X63108091Y-108549040D01*
X63202930Y-108813881D01*
X63347615Y-109055131D01*
X63536586Y-109263519D01*
X63762580Y-109431037D01*
X64016913Y-109551246D01*
X64150961Y-109591904D01*
X64373000Y-109469915D01*
X64373000Y-108327000D01*
X64627000Y-108327000D01*
X64627000Y-109469915D01*
X64849039Y-109591904D01*
X64983087Y-109551246D01*
X65237420Y-109431037D01*
X65463414Y-109263519D01*
X65652385Y-109055131D01*
X65797070Y-108813881D01*
X65891909Y-108549040D01*
X65770624Y-108327000D01*
X64627000Y-108327000D01*
X64373000Y-108327000D01*
X63229376Y-108327000D01*
X63108091Y-108549040D01*
X30112399Y-108549040D01*
X30113835Y-108200000D01*
X69563677Y-108200000D01*
X69600883Y-108577758D01*
X69711071Y-108940999D01*
X69890006Y-109275763D01*
X70130813Y-109569187D01*
X70424237Y-109809994D01*
X70759001Y-109988929D01*
X71122242Y-110099117D01*
X71405342Y-110127000D01*
X71594658Y-110127000D01*
X71877758Y-110099117D01*
X72240999Y-109988929D01*
X72575763Y-109809994D01*
X72869187Y-109569187D01*
X73109994Y-109275763D01*
X73288929Y-108940999D01*
X73399117Y-108577758D01*
X73436323Y-108200000D01*
X73399117Y-107822242D01*
X73397857Y-107818086D01*
X76153000Y-107818086D01*
X76153000Y-108181914D01*
X76223979Y-108538750D01*
X76363210Y-108874883D01*
X76565341Y-109177394D01*
X76822606Y-109434659D01*
X77125117Y-109636790D01*
X77461250Y-109776021D01*
X77818086Y-109847000D01*
X78181914Y-109847000D01*
X78538750Y-109776021D01*
X78874883Y-109636790D01*
X79177394Y-109434659D01*
X79270000Y-109342053D01*
X79362606Y-109434659D01*
X79665117Y-109636790D01*
X80001250Y-109776021D01*
X80358086Y-109847000D01*
X80721914Y-109847000D01*
X81078750Y-109776021D01*
X81414883Y-109636790D01*
X81717394Y-109434659D01*
X81810000Y-109342053D01*
X81902606Y-109434659D01*
X82205117Y-109636790D01*
X82541250Y-109776021D01*
X82898086Y-109847000D01*
X83261914Y-109847000D01*
X83618750Y-109776021D01*
X83954883Y-109636790D01*
X84257394Y-109434659D01*
X84514659Y-109177394D01*
X84716790Y-108874883D01*
X84856021Y-108538750D01*
X84927000Y-108181914D01*
X84927000Y-107818086D01*
X84925433Y-107810207D01*
X88073000Y-107810207D01*
X88073000Y-108189793D01*
X88147053Y-108562085D01*
X88292315Y-108912777D01*
X88503201Y-109228391D01*
X88771609Y-109496799D01*
X89087223Y-109707685D01*
X89437915Y-109852947D01*
X89810207Y-109927000D01*
X90189793Y-109927000D01*
X90562085Y-109852947D01*
X90912777Y-109707685D01*
X91228391Y-109496799D01*
X91496799Y-109228391D01*
X91707685Y-108912777D01*
X91852947Y-108562085D01*
X91927000Y-108189793D01*
X91927000Y-107810207D01*
X91852947Y-107437915D01*
X91707685Y-107087223D01*
X91496799Y-106771609D01*
X91228391Y-106503201D01*
X90912777Y-106292315D01*
X90562085Y-106147053D01*
X90189793Y-106073000D01*
X89810207Y-106073000D01*
X89437915Y-106147053D01*
X89087223Y-106292315D01*
X88771609Y-106503201D01*
X88503201Y-106771609D01*
X88292315Y-107087223D01*
X88147053Y-107437915D01*
X88073000Y-107810207D01*
X84925433Y-107810207D01*
X84856021Y-107461250D01*
X84716790Y-107125117D01*
X84514659Y-106822606D01*
X84257394Y-106565341D01*
X83954883Y-106363210D01*
X83618750Y-106223979D01*
X83261914Y-106153000D01*
X82898086Y-106153000D01*
X82541250Y-106223979D01*
X82205117Y-106363210D01*
X81902606Y-106565341D01*
X81810000Y-106657947D01*
X81717394Y-106565341D01*
X81414883Y-106363210D01*
X81078750Y-106223979D01*
X80721914Y-106153000D01*
X80358086Y-106153000D01*
X80001250Y-106223979D01*
X79665117Y-106363210D01*
X79362606Y-106565341D01*
X79270000Y-106657947D01*
X79177394Y-106565341D01*
X78874883Y-106363210D01*
X78538750Y-106223979D01*
X78181914Y-106153000D01*
X77818086Y-106153000D01*
X77461250Y-106223979D01*
X77125117Y-106363210D01*
X76822606Y-106565341D01*
X76565341Y-106822606D01*
X76363210Y-107125117D01*
X76223979Y-107461250D01*
X76153000Y-107818086D01*
X73397857Y-107818086D01*
X73288929Y-107459001D01*
X73109994Y-107124237D01*
X72869187Y-106830813D01*
X72575763Y-106590006D01*
X72240999Y-106411071D01*
X71877758Y-106300883D01*
X71594658Y-106273000D01*
X71405342Y-106273000D01*
X71122242Y-106300883D01*
X70759001Y-106411071D01*
X70424237Y-106590006D01*
X70130813Y-106830813D01*
X69890006Y-107124237D01*
X69711071Y-107459001D01*
X69600883Y-107822242D01*
X69563677Y-108200000D01*
X30113835Y-108200000D01*
X30118646Y-107030857D01*
X30196501Y-107147376D01*
X30520624Y-107471499D01*
X30901752Y-107726160D01*
X31325239Y-107901574D01*
X31774811Y-107991000D01*
X32233189Y-107991000D01*
X32682761Y-107901574D01*
X32804954Y-107850960D01*
X63108091Y-107850960D01*
X63229376Y-108073000D01*
X64373000Y-108073000D01*
X64373000Y-106930085D01*
X64627000Y-106930085D01*
X64627000Y-108073000D01*
X65770624Y-108073000D01*
X65891909Y-107850960D01*
X65797070Y-107586119D01*
X65652385Y-107344869D01*
X65463414Y-107136481D01*
X65237420Y-106968963D01*
X64983087Y-106848754D01*
X64849039Y-106808096D01*
X64627000Y-106930085D01*
X64373000Y-106930085D01*
X64150961Y-106808096D01*
X64016913Y-106848754D01*
X63762580Y-106968963D01*
X63536586Y-107136481D01*
X63347615Y-107344869D01*
X63202930Y-107586119D01*
X63108091Y-107850960D01*
X32804954Y-107850960D01*
X33106248Y-107726160D01*
X33487376Y-107471499D01*
X33811499Y-107147376D01*
X34066160Y-106766248D01*
X34241574Y-106342761D01*
X34294675Y-106075805D01*
X58155805Y-106075805D01*
X58228379Y-106315066D01*
X58388361Y-106637257D01*
X58608125Y-106922046D01*
X58879226Y-107158489D01*
X59191246Y-107337500D01*
X59532194Y-107452199D01*
X59817000Y-107335854D01*
X59817000Y-105791000D01*
X60071000Y-105791000D01*
X60071000Y-107335854D01*
X60355806Y-107452199D01*
X60696754Y-107337500D01*
X61008774Y-107158489D01*
X61279875Y-106922046D01*
X61499639Y-106637257D01*
X61659621Y-106315066D01*
X61732195Y-106075805D01*
X61615432Y-105791000D01*
X60071000Y-105791000D01*
X59817000Y-105791000D01*
X58272568Y-105791000D01*
X58155805Y-106075805D01*
X34294675Y-106075805D01*
X34331000Y-105893189D01*
X34331000Y-105434811D01*
X34269772Y-105127000D01*
X58193780Y-105127000D01*
X58155805Y-105252195D01*
G36*
X87873000Y-66500000D02*
G01*
X87875440Y-66524776D01*
X87882667Y-66548601D01*
X87894403Y-66570557D01*
X87910197Y-66589803D01*
X87929443Y-66605597D01*
X87951399Y-66617333D01*
X87975224Y-66624560D01*
X88000000Y-66627000D01*
X121076857Y-66627000D01*
X120917654Y-66757654D01*
X120639358Y-67096759D01*
X120432565Y-67483641D01*
X120305223Y-67903432D01*
X120262225Y-68340000D01*
X120305223Y-68776568D01*
X120432565Y-69196359D01*
X120639358Y-69583241D01*
X120917654Y-69922346D01*
X121256759Y-70200642D01*
X121643641Y-70407435D01*
X122063432Y-70534777D01*
X122390599Y-70567000D01*
X122609401Y-70567000D01*
X122936568Y-70534777D01*
X123356359Y-70407435D01*
X123743241Y-70200642D01*
X124082346Y-69922346D01*
X124360642Y-69583241D01*
X124567435Y-69196359D01*
X124694777Y-68776568D01*
X124737775Y-68340000D01*
X124694777Y-67903432D01*
X124567435Y-67483641D01*
X124360642Y-67096759D01*
X124082346Y-66757654D01*
X123923143Y-66627000D01*
X136017000Y-66627000D01*
X136017000Y-104873000D01*
X86127000Y-104873000D01*
X86127000Y-95649040D01*
X88608091Y-95649040D01*
X88702930Y-95913881D01*
X88847615Y-96155131D01*
X89036586Y-96363519D01*
X89262580Y-96531037D01*
X89516913Y-96651246D01*
X89650961Y-96691904D01*
X89873000Y-96569915D01*
X89873000Y-95427000D01*
X90127000Y-95427000D01*
X90127000Y-96569915D01*
X90349039Y-96691904D01*
X90483087Y-96651246D01*
X90737420Y-96531037D01*
X90963414Y-96363519D01*
X91152385Y-96155131D01*
X91297070Y-95913881D01*
X91334195Y-95810207D01*
X120573000Y-95810207D01*
X120573000Y-96189793D01*
X120647053Y-96562085D01*
X120792315Y-96912777D01*
X121003201Y-97228391D01*
X121271609Y-97496799D01*
X121587223Y-97707685D01*
X121937915Y-97852947D01*
X122310207Y-97927000D01*
X122689793Y-97927000D01*
X123062085Y-97852947D01*
X123412777Y-97707685D01*
X123728391Y-97496799D01*
X123996799Y-97228391D01*
X124207685Y-96912777D01*
X124352947Y-96562085D01*
X124427000Y-96189793D01*
X124427000Y-95810207D01*
X124352947Y-95437915D01*
X124207685Y-95087223D01*
X123996799Y-94771609D01*
X123728391Y-94503201D01*
X123412777Y-94292315D01*
X123062085Y-94147053D01*
X122689793Y-94073000D01*
X122310207Y-94073000D01*
X121937915Y-94147053D01*
X121587223Y-94292315D01*
X121271609Y-94503201D01*
X121003201Y-94771609D01*
X120792315Y-95087223D01*
X120647053Y-95437915D01*
X120573000Y-95810207D01*
X91334195Y-95810207D01*
X91391909Y-95649040D01*
X91270624Y-95427000D01*
X90127000Y-95427000D01*
X89873000Y-95427000D01*
X88729376Y-95427000D01*
X88608091Y-95649040D01*
X86127000Y-95649040D01*
X86127000Y-94950960D01*
X88608091Y-94950960D01*
X88729376Y-95173000D01*
X89873000Y-95173000D01*
X89873000Y-94030085D01*
X90127000Y-94030085D01*
X90127000Y-95173000D01*
X91270624Y-95173000D01*
X91391909Y-94950960D01*
X91297070Y-94686119D01*
X91152385Y-94444869D01*
X90963414Y-94236481D01*
X90737420Y-94068963D01*
X90483087Y-93948754D01*
X90349039Y-93908096D01*
X90127000Y-94030085D01*
X89873000Y-94030085D01*
X89650961Y-93908096D01*
X89516913Y-93948754D01*
X89262580Y-94068963D01*
X89036586Y-94236481D01*
X88847615Y-94444869D01*
X88702930Y-94686119D01*
X88608091Y-94950960D01*
X86127000Y-94950960D01*
X86127000Y-81810207D01*
X87573000Y-81810207D01*
X87573000Y-82189793D01*
X87647053Y-82562085D01*
X87792315Y-82912777D01*
X88003201Y-83228391D01*
X88271609Y-83496799D01*
X88587223Y-83707685D01*
X88937915Y-83852947D01*
X89310207Y-83927000D01*
X89689793Y-83927000D01*
X90062085Y-83852947D01*
X90412777Y-83707685D01*
X90728391Y-83496799D01*
X90996799Y-83228391D01*
X91154280Y-82992702D01*
X93686903Y-82992702D01*
X93758486Y-83236671D01*
X94013996Y-83357571D01*
X94288184Y-83426300D01*
X94570512Y-83440217D01*
X94850130Y-83398787D01*
X95116292Y-83303603D01*
X95123032Y-83300000D01*
X120563677Y-83300000D01*
X120600883Y-83677758D01*
X120711071Y-84040999D01*
X120890006Y-84375763D01*
X121130813Y-84669187D01*
X121424237Y-84909994D01*
X121759001Y-85088929D01*
X122122242Y-85199117D01*
X122405342Y-85227000D01*
X122594658Y-85227000D01*
X122877758Y-85199117D01*
X123240999Y-85088929D01*
X123575763Y-84909994D01*
X123869187Y-84669187D01*
X124109994Y-84375763D01*
X124288929Y-84040999D01*
X124399117Y-83677758D01*
X124436323Y-83300000D01*
X124399117Y-82922242D01*
X124288929Y-82559001D01*
X124109994Y-82224237D01*
X123869187Y-81930813D01*
X123575763Y-81690006D01*
X123240999Y-81511071D01*
X122877758Y-81400883D01*
X122594658Y-81373000D01*
X122405342Y-81373000D01*
X122122242Y-81400883D01*
X121759001Y-81511071D01*
X121424237Y-81690006D01*
X121130813Y-81930813D01*
X120890006Y-82224237D01*
X120711071Y-82559001D01*
X120600883Y-82922242D01*
X120563677Y-83300000D01*
X95123032Y-83300000D01*
X95241514Y-83236671D01*
X95313097Y-82992702D01*
X94500000Y-82179605D01*
X93686903Y-82992702D01*
X91154280Y-82992702D01*
X91207685Y-82912777D01*
X91352947Y-82562085D01*
X91427000Y-82189793D01*
X91427000Y-82070512D01*
X93059783Y-82070512D01*
X93101213Y-82350130D01*
X93196397Y-82616292D01*
X93263329Y-82741514D01*
X93507298Y-82813097D01*
X94320395Y-82000000D01*
X94679605Y-82000000D01*
X95492702Y-82813097D01*
X95736671Y-82741514D01*
X95857571Y-82486004D01*
X95926300Y-82211816D01*
X95940217Y-81929488D01*
X95898787Y-81649870D01*
X95803603Y-81383708D01*
X95736671Y-81258486D01*
X95492702Y-81186903D01*
X94679605Y-82000000D01*
X94320395Y-82000000D01*
X93507298Y-81186903D01*
X93263329Y-81258486D01*
X93142429Y-81513996D01*
X93073700Y-81788184D01*
X93059783Y-82070512D01*
X91427000Y-82070512D01*
X91427000Y-81810207D01*
X91352947Y-81437915D01*
X91207685Y-81087223D01*
X91154281Y-81007298D01*
X93686903Y-81007298D01*
X94500000Y-81820395D01*
X95313097Y-81007298D01*
X95241514Y-80763329D01*
X94986004Y-80642429D01*
X94711816Y-80573700D01*
X94429488Y-80559783D01*
X94149870Y-80601213D01*
X93883708Y-80696397D01*
X93758486Y-80763329D01*
X93686903Y-81007298D01*
X91154281Y-81007298D01*
X90996799Y-80771609D01*
X90728391Y-80503201D01*
X90412777Y-80292315D01*
X90062085Y-80147053D01*
X89689793Y-80073000D01*
X89310207Y-80073000D01*
X88937915Y-80147053D01*
X88587223Y-80292315D01*
X88271609Y-80503201D01*
X88003201Y-80771609D01*
X87792315Y-81087223D01*
X87647053Y-81437915D01*
X87573000Y-81810207D01*
X86127000Y-81810207D01*
X86127000Y-77400000D01*
X120267547Y-77400000D01*
X120267547Y-79600000D01*
X120289307Y-79820931D01*
X120353750Y-80033371D01*
X120458400Y-80229157D01*
X120599235Y-80400765D01*
X120770843Y-80541600D01*
X120966629Y-80646250D01*
X121179069Y-80710693D01*
X121400000Y-80732453D01*
X123600000Y-80732453D01*
X123820931Y-80710693D01*
X124033371Y-80646250D01*
X124229157Y-80541600D01*
X124400765Y-80400765D01*
X124541600Y-80229157D01*
X124646250Y-80033371D01*
X124710693Y-79820931D01*
X124732453Y-79600000D01*
X124732453Y-77400000D01*
X124710693Y-77179069D01*
X124646250Y-76966629D01*
X124541600Y-76770843D01*
X124400765Y-76599235D01*
X124229157Y-76458400D01*
X124033371Y-76353750D01*
X123820931Y-76289307D01*
X123600000Y-76267547D01*
X121400000Y-76267547D01*
X121179069Y-76289307D01*
X120966629Y-76353750D01*
X120770843Y-76458400D01*
X120599235Y-76599235D01*
X120458400Y-76770843D01*
X120353750Y-76966629D01*
X120289307Y-77179069D01*
X120267547Y-77400000D01*
X86127000Y-77400000D01*
X86127000Y-70500000D01*
X87367547Y-70500000D01*
X87367547Y-72500000D01*
X87389307Y-72720931D01*
X87453750Y-72933371D01*
X87558400Y-73129157D01*
X87699235Y-73300765D01*
X87870843Y-73441600D01*
X88066629Y-73546250D01*
X88279069Y-73610693D01*
X88500000Y-73632453D01*
X90500000Y-73632453D01*
X90720931Y-73610693D01*
X90933371Y-73546250D01*
X91129157Y-73441600D01*
X91300765Y-73300765D01*
X91441600Y-73129157D01*
X91546250Y-72933371D01*
X91610693Y-72720931D01*
X91619115Y-72635413D01*
X93544192Y-72635413D01*
X93639956Y-72899814D01*
X93929571Y-73040704D01*
X94241108Y-73122384D01*
X94562595Y-73141718D01*
X94881675Y-73097961D01*
X95186088Y-72992795D01*
X95360044Y-72899814D01*
X95455808Y-72635413D01*
X94500000Y-71679605D01*
X93544192Y-72635413D01*
X91619115Y-72635413D01*
X91632453Y-72500000D01*
X91632453Y-71562595D01*
X92858282Y-71562595D01*
X92902039Y-71881675D01*
X93007205Y-72186088D01*
X93100186Y-72360044D01*
X93364587Y-72455808D01*
X94320395Y-71500000D01*
X94679605Y-71500000D01*
X95635413Y-72455808D01*
X95899814Y-72360044D01*
X95924058Y-72310207D01*
X128573000Y-72310207D01*
X128573000Y-72689793D01*
X128647053Y-73062085D01*
X128792315Y-73412777D01*
X129003201Y-73728391D01*
X129271609Y-73996799D01*
X129587223Y-74207685D01*
X129937915Y-74352947D01*
X130310207Y-74427000D01*
X130689793Y-74427000D01*
X131062085Y-74352947D01*
X131412777Y-74207685D01*
X131728391Y-73996799D01*
X131996799Y-73728391D01*
X132207685Y-73412777D01*
X132352947Y-73062085D01*
X132427000Y-72689793D01*
X132427000Y-72310207D01*
X132352947Y-71937915D01*
X132207685Y-71587223D01*
X131996799Y-71271609D01*
X131728391Y-71003201D01*
X131412777Y-70792315D01*
X131062085Y-70647053D01*
X130689793Y-70573000D01*
X130310207Y-70573000D01*
X129937915Y-70647053D01*
X129587223Y-70792315D01*
X129271609Y-71003201D01*
X129003201Y-71271609D01*
X128792315Y-71587223D01*
X128647053Y-71937915D01*
X128573000Y-72310207D01*
X95924058Y-72310207D01*
X96040704Y-72070429D01*
X96122384Y-71758892D01*
X96141718Y-71437405D01*
X96097961Y-71118325D01*
X95992795Y-70813912D01*
X95899814Y-70639956D01*
X95635413Y-70544192D01*
X94679605Y-71500000D01*
X94320395Y-71500000D01*
X93364587Y-70544192D01*
X93100186Y-70639956D01*
X92959296Y-70929571D01*
X92877616Y-71241108D01*
X92858282Y-71562595D01*
X91632453Y-71562595D01*
X91632453Y-70500000D01*
X91619116Y-70364587D01*
X93544192Y-70364587D01*
X94500000Y-71320395D01*
X95455808Y-70364587D01*
X95360044Y-70100186D01*
X95070429Y-69959296D01*
X94758892Y-69877616D01*
X94437405Y-69858282D01*
X94118325Y-69902039D01*
X93813912Y-70007205D01*
X93639956Y-70100186D01*
X93544192Y-70364587D01*
X91619116Y-70364587D01*
X91610693Y-70279069D01*
X91546250Y-70066629D01*
X91441600Y-69870843D01*
X91300765Y-69699235D01*
X91129157Y-69558400D01*
X90933371Y-69453750D01*
X90720931Y-69389307D01*
X90500000Y-69367547D01*
X88500000Y-69367547D01*
X88279069Y-69389307D01*
X88066629Y-69453750D01*
X87870843Y-69558400D01*
X87699235Y-69699235D01*
X87558400Y-69870843D01*
X87453750Y-70066629D01*
X87389307Y-70279069D01*
X87367547Y-70500000D01*
X86127000Y-70500000D01*
X86127000Y-60627000D01*
X87873000Y-60627000D01*
X87873000Y-66500000D01*
X87873000Y-66500000D01*
G37*
X87873000Y-66500000D02*
X87875440Y-66524776D01*
X87882667Y-66548601D01*
X87894403Y-66570557D01*
X87910197Y-66589803D01*
X87929443Y-66605597D01*
X87951399Y-66617333D01*
X87975224Y-66624560D01*
X88000000Y-66627000D01*
X121076857Y-66627000D01*
X120917654Y-66757654D01*
X120639358Y-67096759D01*
X120432565Y-67483641D01*
X120305223Y-67903432D01*
X120262225Y-68340000D01*
X120305223Y-68776568D01*
X120432565Y-69196359D01*
X120639358Y-69583241D01*
X120917654Y-69922346D01*
X121256759Y-70200642D01*
X121643641Y-70407435D01*
X122063432Y-70534777D01*
X122390599Y-70567000D01*
X122609401Y-70567000D01*
X122936568Y-70534777D01*
X123356359Y-70407435D01*
X123743241Y-70200642D01*
X124082346Y-69922346D01*
X124360642Y-69583241D01*
X124567435Y-69196359D01*
X124694777Y-68776568D01*
X124737775Y-68340000D01*
X124694777Y-67903432D01*
X124567435Y-67483641D01*
X124360642Y-67096759D01*
X124082346Y-66757654D01*
X123923143Y-66627000D01*
X136017000Y-66627000D01*
X136017000Y-104873000D01*
X86127000Y-104873000D01*
X86127000Y-95649040D01*
X88608091Y-95649040D01*
X88702930Y-95913881D01*
X88847615Y-96155131D01*
X89036586Y-96363519D01*
X89262580Y-96531037D01*
X89516913Y-96651246D01*
X89650961Y-96691904D01*
X89873000Y-96569915D01*
X89873000Y-95427000D01*
X90127000Y-95427000D01*
X90127000Y-96569915D01*
X90349039Y-96691904D01*
X90483087Y-96651246D01*
X90737420Y-96531037D01*
X90963414Y-96363519D01*
X91152385Y-96155131D01*
X91297070Y-95913881D01*
X91334195Y-95810207D01*
X120573000Y-95810207D01*
X120573000Y-96189793D01*
X120647053Y-96562085D01*
X120792315Y-96912777D01*
X121003201Y-97228391D01*
X121271609Y-97496799D01*
X121587223Y-97707685D01*
X121937915Y-97852947D01*
X122310207Y-97927000D01*
X122689793Y-97927000D01*
X123062085Y-97852947D01*
X123412777Y-97707685D01*
X123728391Y-97496799D01*
X123996799Y-97228391D01*
X124207685Y-96912777D01*
X124352947Y-96562085D01*
X124427000Y-96189793D01*
X124427000Y-95810207D01*
X124352947Y-95437915D01*
X124207685Y-95087223D01*
X123996799Y-94771609D01*
X123728391Y-94503201D01*
X123412777Y-94292315D01*
X123062085Y-94147053D01*
X122689793Y-94073000D01*
X122310207Y-94073000D01*
X121937915Y-94147053D01*
X121587223Y-94292315D01*
X121271609Y-94503201D01*
X121003201Y-94771609D01*
X120792315Y-95087223D01*
X120647053Y-95437915D01*
X120573000Y-95810207D01*
X91334195Y-95810207D01*
X91391909Y-95649040D01*
X91270624Y-95427000D01*
X90127000Y-95427000D01*
X89873000Y-95427000D01*
X88729376Y-95427000D01*
X88608091Y-95649040D01*
X86127000Y-95649040D01*
X86127000Y-94950960D01*
X88608091Y-94950960D01*
X88729376Y-95173000D01*
X89873000Y-95173000D01*
X89873000Y-94030085D01*
X90127000Y-94030085D01*
X90127000Y-95173000D01*
X91270624Y-95173000D01*
X91391909Y-94950960D01*
X91297070Y-94686119D01*
X91152385Y-94444869D01*
X90963414Y-94236481D01*
X90737420Y-94068963D01*
X90483087Y-93948754D01*
X90349039Y-93908096D01*
X90127000Y-94030085D01*
X89873000Y-94030085D01*
X89650961Y-93908096D01*
X89516913Y-93948754D01*
X89262580Y-94068963D01*
X89036586Y-94236481D01*
X88847615Y-94444869D01*
X88702930Y-94686119D01*
X88608091Y-94950960D01*
X86127000Y-94950960D01*
X86127000Y-81810207D01*
X87573000Y-81810207D01*
X87573000Y-82189793D01*
X87647053Y-82562085D01*
X87792315Y-82912777D01*
X88003201Y-83228391D01*
X88271609Y-83496799D01*
X88587223Y-83707685D01*
X88937915Y-83852947D01*
X89310207Y-83927000D01*
X89689793Y-83927000D01*
X90062085Y-83852947D01*
X90412777Y-83707685D01*
X90728391Y-83496799D01*
X90996799Y-83228391D01*
X91154280Y-82992702D01*
X93686903Y-82992702D01*
X93758486Y-83236671D01*
X94013996Y-83357571D01*
X94288184Y-83426300D01*
X94570512Y-83440217D01*
X94850130Y-83398787D01*
X95116292Y-83303603D01*
X95123032Y-83300000D01*
X120563677Y-83300000D01*
X120600883Y-83677758D01*
X120711071Y-84040999D01*
X120890006Y-84375763D01*
X121130813Y-84669187D01*
X121424237Y-84909994D01*
X121759001Y-85088929D01*
X122122242Y-85199117D01*
X122405342Y-85227000D01*
X122594658Y-85227000D01*
X122877758Y-85199117D01*
X123240999Y-85088929D01*
X123575763Y-84909994D01*
X123869187Y-84669187D01*
X124109994Y-84375763D01*
X124288929Y-84040999D01*
X124399117Y-83677758D01*
X124436323Y-83300000D01*
X124399117Y-82922242D01*
X124288929Y-82559001D01*
X124109994Y-82224237D01*
X123869187Y-81930813D01*
X123575763Y-81690006D01*
X123240999Y-81511071D01*
X122877758Y-81400883D01*
X122594658Y-81373000D01*
X122405342Y-81373000D01*
X122122242Y-81400883D01*
X121759001Y-81511071D01*
X121424237Y-81690006D01*
X121130813Y-81930813D01*
X120890006Y-82224237D01*
X120711071Y-82559001D01*
X120600883Y-82922242D01*
X120563677Y-83300000D01*
X95123032Y-83300000D01*
X95241514Y-83236671D01*
X95313097Y-82992702D01*
X94500000Y-82179605D01*
X93686903Y-82992702D01*
X91154280Y-82992702D01*
X91207685Y-82912777D01*
X91352947Y-82562085D01*
X91427000Y-82189793D01*
X91427000Y-82070512D01*
X93059783Y-82070512D01*
X93101213Y-82350130D01*
X93196397Y-82616292D01*
X93263329Y-82741514D01*
X93507298Y-82813097D01*
X94320395Y-82000000D01*
X94679605Y-82000000D01*
X95492702Y-82813097D01*
X95736671Y-82741514D01*
X95857571Y-82486004D01*
X95926300Y-82211816D01*
X95940217Y-81929488D01*
X95898787Y-81649870D01*
X95803603Y-81383708D01*
X95736671Y-81258486D01*
X95492702Y-81186903D01*
X94679605Y-82000000D01*
X94320395Y-82000000D01*
X93507298Y-81186903D01*
X93263329Y-81258486D01*
X93142429Y-81513996D01*
X93073700Y-81788184D01*
X93059783Y-82070512D01*
X91427000Y-82070512D01*
X91427000Y-81810207D01*
X91352947Y-81437915D01*
X91207685Y-81087223D01*
X91154281Y-81007298D01*
X93686903Y-81007298D01*
X94500000Y-81820395D01*
X95313097Y-81007298D01*
X95241514Y-80763329D01*
X94986004Y-80642429D01*
X94711816Y-80573700D01*
X94429488Y-80559783D01*
X94149870Y-80601213D01*
X93883708Y-80696397D01*
X93758486Y-80763329D01*
X93686903Y-81007298D01*
X91154281Y-81007298D01*
X90996799Y-80771609D01*
X90728391Y-80503201D01*
X90412777Y-80292315D01*
X90062085Y-80147053D01*
X89689793Y-80073000D01*
X89310207Y-80073000D01*
X88937915Y-80147053D01*
X88587223Y-80292315D01*
X88271609Y-80503201D01*
X88003201Y-80771609D01*
X87792315Y-81087223D01*
X87647053Y-81437915D01*
X87573000Y-81810207D01*
X86127000Y-81810207D01*
X86127000Y-77400000D01*
X120267547Y-77400000D01*
X120267547Y-79600000D01*
X120289307Y-79820931D01*
X120353750Y-80033371D01*
X120458400Y-80229157D01*
X120599235Y-80400765D01*
X120770843Y-80541600D01*
X120966629Y-80646250D01*
X121179069Y-80710693D01*
X121400000Y-80732453D01*
X123600000Y-80732453D01*
X123820931Y-80710693D01*
X124033371Y-80646250D01*
X124229157Y-80541600D01*
X124400765Y-80400765D01*
X124541600Y-80229157D01*
X124646250Y-80033371D01*
X124710693Y-79820931D01*
X124732453Y-79600000D01*
X124732453Y-77400000D01*
X124710693Y-77179069D01*
X124646250Y-76966629D01*
X124541600Y-76770843D01*
X124400765Y-76599235D01*
X124229157Y-76458400D01*
X124033371Y-76353750D01*
X123820931Y-76289307D01*
X123600000Y-76267547D01*
X121400000Y-76267547D01*
X121179069Y-76289307D01*
X120966629Y-76353750D01*
X120770843Y-76458400D01*
X120599235Y-76599235D01*
X120458400Y-76770843D01*
X120353750Y-76966629D01*
X120289307Y-77179069D01*
X120267547Y-77400000D01*
X86127000Y-77400000D01*
X86127000Y-70500000D01*
X87367547Y-70500000D01*
X87367547Y-72500000D01*
X87389307Y-72720931D01*
X87453750Y-72933371D01*
X87558400Y-73129157D01*
X87699235Y-73300765D01*
X87870843Y-73441600D01*
X88066629Y-73546250D01*
X88279069Y-73610693D01*
X88500000Y-73632453D01*
X90500000Y-73632453D01*
X90720931Y-73610693D01*
X90933371Y-73546250D01*
X91129157Y-73441600D01*
X91300765Y-73300765D01*
X91441600Y-73129157D01*
X91546250Y-72933371D01*
X91610693Y-72720931D01*
X91619115Y-72635413D01*
X93544192Y-72635413D01*
X93639956Y-72899814D01*
X93929571Y-73040704D01*
X94241108Y-73122384D01*
X94562595Y-73141718D01*
X94881675Y-73097961D01*
X95186088Y-72992795D01*
X95360044Y-72899814D01*
X95455808Y-72635413D01*
X94500000Y-71679605D01*
X93544192Y-72635413D01*
X91619115Y-72635413D01*
X91632453Y-72500000D01*
X91632453Y-71562595D01*
X92858282Y-71562595D01*
X92902039Y-71881675D01*
X93007205Y-72186088D01*
X93100186Y-72360044D01*
X93364587Y-72455808D01*
X94320395Y-71500000D01*
X94679605Y-71500000D01*
X95635413Y-72455808D01*
X95899814Y-72360044D01*
X95924058Y-72310207D01*
X128573000Y-72310207D01*
X128573000Y-72689793D01*
X128647053Y-73062085D01*
X128792315Y-73412777D01*
X129003201Y-73728391D01*
X129271609Y-73996799D01*
X129587223Y-74207685D01*
X129937915Y-74352947D01*
X130310207Y-74427000D01*
X130689793Y-74427000D01*
X131062085Y-74352947D01*
X131412777Y-74207685D01*
X131728391Y-73996799D01*
X131996799Y-73728391D01*
X132207685Y-73412777D01*
X132352947Y-73062085D01*
X132427000Y-72689793D01*
X132427000Y-72310207D01*
X132352947Y-71937915D01*
X132207685Y-71587223D01*
X131996799Y-71271609D01*
X131728391Y-71003201D01*
X131412777Y-70792315D01*
X131062085Y-70647053D01*
X130689793Y-70573000D01*
X130310207Y-70573000D01*
X129937915Y-70647053D01*
X129587223Y-70792315D01*
X129271609Y-71003201D01*
X129003201Y-71271609D01*
X128792315Y-71587223D01*
X128647053Y-71937915D01*
X128573000Y-72310207D01*
X95924058Y-72310207D01*
X96040704Y-72070429D01*
X96122384Y-71758892D01*
X96141718Y-71437405D01*
X96097961Y-71118325D01*
X95992795Y-70813912D01*
X95899814Y-70639956D01*
X95635413Y-70544192D01*
X94679605Y-71500000D01*
X94320395Y-71500000D01*
X93364587Y-70544192D01*
X93100186Y-70639956D01*
X92959296Y-70929571D01*
X92877616Y-71241108D01*
X92858282Y-71562595D01*
X91632453Y-71562595D01*
X91632453Y-70500000D01*
X91619116Y-70364587D01*
X93544192Y-70364587D01*
X94500000Y-71320395D01*
X95455808Y-70364587D01*
X95360044Y-70100186D01*
X95070429Y-69959296D01*
X94758892Y-69877616D01*
X94437405Y-69858282D01*
X94118325Y-69902039D01*
X93813912Y-70007205D01*
X93639956Y-70100186D01*
X93544192Y-70364587D01*
X91619116Y-70364587D01*
X91610693Y-70279069D01*
X91546250Y-70066629D01*
X91441600Y-69870843D01*
X91300765Y-69699235D01*
X91129157Y-69558400D01*
X90933371Y-69453750D01*
X90720931Y-69389307D01*
X90500000Y-69367547D01*
X88500000Y-69367547D01*
X88279069Y-69389307D01*
X88066629Y-69453750D01*
X87870843Y-69558400D01*
X87699235Y-69699235D01*
X87558400Y-69870843D01*
X87453750Y-70066629D01*
X87389307Y-70279069D01*
X87367547Y-70500000D01*
X86127000Y-70500000D01*
X86127000Y-60627000D01*
X87873000Y-60627000D01*
X87873000Y-66500000D01*
G36*
X121271609Y-65996799D02*
G01*
X121587223Y-66207685D01*
X121701491Y-66255016D01*
X121643641Y-66272565D01*
X121458005Y-66371790D01*
X121127000Y-66372664D01*
X121127000Y-65852190D01*
X121271609Y-65996799D01*
X121271609Y-65996799D01*
G37*
X121271609Y-65996799D02*
X121587223Y-66207685D01*
X121701491Y-66255016D01*
X121643641Y-66272565D01*
X121458005Y-66371790D01*
X121127000Y-66372664D01*
X121127000Y-65852190D01*
X121271609Y-65996799D01*
G36*
X136017000Y-66333335D02*
G01*
X123531748Y-66366312D01*
X123356359Y-66272565D01*
X123298509Y-66255016D01*
X123412777Y-66207685D01*
X123728391Y-65996799D01*
X123996799Y-65728391D01*
X124207685Y-65412777D01*
X124352947Y-65062085D01*
X124427000Y-64689793D01*
X124427000Y-64310207D01*
X124352947Y-63937915D01*
X124207685Y-63587223D01*
X123996799Y-63271609D01*
X123728391Y-63003201D01*
X123412777Y-62792315D01*
X123062085Y-62647053D01*
X122689793Y-62573000D01*
X122310207Y-62573000D01*
X121937915Y-62647053D01*
X121587223Y-62792315D01*
X121271609Y-63003201D01*
X121127000Y-63147810D01*
X121127000Y-59800000D01*
X128563677Y-59800000D01*
X128600883Y-60177758D01*
X128711071Y-60540999D01*
X128890006Y-60875763D01*
X129130813Y-61169187D01*
X129424237Y-61409994D01*
X129759001Y-61588929D01*
X130122242Y-61699117D01*
X130405342Y-61727000D01*
X130594658Y-61727000D01*
X130877758Y-61699117D01*
X131240999Y-61588929D01*
X131575763Y-61409994D01*
X131869187Y-61169187D01*
X132109994Y-60875763D01*
X132288929Y-60540999D01*
X132399117Y-60177758D01*
X132436323Y-59800000D01*
X132399117Y-59422242D01*
X132288929Y-59059001D01*
X132109994Y-58724237D01*
X131869187Y-58430813D01*
X131575763Y-58190006D01*
X131240999Y-58011071D01*
X130877758Y-57900883D01*
X130594658Y-57873000D01*
X130405342Y-57873000D01*
X130122242Y-57900883D01*
X129759001Y-58011071D01*
X129424237Y-58190006D01*
X129130813Y-58430813D01*
X128890006Y-58724237D01*
X128711071Y-59059001D01*
X128600883Y-59422242D01*
X128563677Y-59800000D01*
X121127000Y-59800000D01*
X121127000Y-57500000D01*
X121124560Y-57475224D01*
X121117333Y-57451399D01*
X121105597Y-57429443D01*
X121089803Y-57410197D01*
X121070557Y-57394403D01*
X121048601Y-57382667D01*
X121024776Y-57375440D01*
X121000000Y-57373000D01*
X116500000Y-57373000D01*
X116475224Y-57375440D01*
X116451399Y-57382667D01*
X116429443Y-57394403D01*
X116410197Y-57410197D01*
X116394403Y-57429443D01*
X116382667Y-57451399D01*
X116375440Y-57475224D01*
X116373000Y-57500000D01*
X116373000Y-59255023D01*
X116304868Y-58912499D01*
X116163376Y-58570907D01*
X115957961Y-58263482D01*
X115696518Y-58002039D01*
X115509930Y-57877364D01*
X115573451Y-57813843D01*
X115456995Y-57697387D01*
X115695860Y-57631863D01*
X115811760Y-57384884D01*
X115877250Y-57120040D01*
X115889812Y-56847508D01*
X115848965Y-56577762D01*
X115756277Y-56321168D01*
X115695860Y-56208137D01*
X115456993Y-56142612D01*
X114679605Y-56920000D01*
X114693748Y-56934143D01*
X114514143Y-57113748D01*
X114500000Y-57099605D01*
X114485858Y-57113748D01*
X114306253Y-56934143D01*
X114320395Y-56920000D01*
X113543007Y-56142612D01*
X113304140Y-56208137D01*
X113188240Y-56455116D01*
X113122750Y-56719960D01*
X113110188Y-56992492D01*
X113151035Y-57262238D01*
X113243723Y-57518832D01*
X113304140Y-57631863D01*
X113543005Y-57697387D01*
X113426549Y-57813843D01*
X113490070Y-57877364D01*
X113303482Y-58002039D01*
X113042039Y-58263482D01*
X112836624Y-58570907D01*
X112695132Y-58912499D01*
X112623000Y-59275132D01*
X112623000Y-59644868D01*
X112695132Y-60007501D01*
X112836624Y-60349093D01*
X112924046Y-60479928D01*
X112808400Y-60620843D01*
X112703750Y-60816629D01*
X112639307Y-61029069D01*
X112617547Y-61250000D01*
X112617547Y-61373000D01*
X93627000Y-61373000D01*
X93627000Y-60958704D01*
X93891598Y-61038969D01*
X94150821Y-61064500D01*
X94849179Y-61064500D01*
X95108402Y-61038969D01*
X95441012Y-60938073D01*
X95747547Y-60774226D01*
X96016226Y-60553726D01*
X96236726Y-60285047D01*
X96400573Y-59978512D01*
X96501469Y-59645902D01*
X96535537Y-59300000D01*
X96501469Y-58954098D01*
X96400573Y-58621488D01*
X96308910Y-58450000D01*
X96400573Y-58278512D01*
X96501469Y-57945902D01*
X96535537Y-57600000D01*
X96501469Y-57254098D01*
X96400573Y-56921488D01*
X96236726Y-56614953D01*
X96016226Y-56346274D01*
X95970571Y-56308806D01*
X95986737Y-56269633D01*
X95993191Y-56223505D01*
X95868985Y-56027000D01*
X95562755Y-56027000D01*
X95441012Y-55961927D01*
X95236866Y-55900000D01*
X95441012Y-55838073D01*
X95562755Y-55773000D01*
X95868985Y-55773000D01*
X95962728Y-55624690D01*
X114056209Y-55607718D01*
X113901168Y-55663723D01*
X113788137Y-55724140D01*
X113722612Y-55963007D01*
X114500000Y-56740395D01*
X115277388Y-55963007D01*
X115211863Y-55724140D01*
X114964884Y-55608240D01*
X114959348Y-55606871D01*
X136017000Y-55587119D01*
X136017000Y-66333335D01*
X136017000Y-66333335D01*
G37*
X136017000Y-66333335D02*
X123531748Y-66366312D01*
X123356359Y-66272565D01*
X123298509Y-66255016D01*
X123412777Y-66207685D01*
X123728391Y-65996799D01*
X123996799Y-65728391D01*
X124207685Y-65412777D01*
X124352947Y-65062085D01*
X124427000Y-64689793D01*
X124427000Y-64310207D01*
X124352947Y-63937915D01*
X124207685Y-63587223D01*
X123996799Y-63271609D01*
X123728391Y-63003201D01*
X123412777Y-62792315D01*
X123062085Y-62647053D01*
X122689793Y-62573000D01*
X122310207Y-62573000D01*
X121937915Y-62647053D01*
X121587223Y-62792315D01*
X121271609Y-63003201D01*
X121127000Y-63147810D01*
X121127000Y-59800000D01*
X128563677Y-59800000D01*
X128600883Y-60177758D01*
X128711071Y-60540999D01*
X128890006Y-60875763D01*
X129130813Y-61169187D01*
X129424237Y-61409994D01*
X129759001Y-61588929D01*
X130122242Y-61699117D01*
X130405342Y-61727000D01*
X130594658Y-61727000D01*
X130877758Y-61699117D01*
X131240999Y-61588929D01*
X131575763Y-61409994D01*
X131869187Y-61169187D01*
X132109994Y-60875763D01*
X132288929Y-60540999D01*
X132399117Y-60177758D01*
X132436323Y-59800000D01*
X132399117Y-59422242D01*
X132288929Y-59059001D01*
X132109994Y-58724237D01*
X131869187Y-58430813D01*
X131575763Y-58190006D01*
X131240999Y-58011071D01*
X130877758Y-57900883D01*
X130594658Y-57873000D01*
X130405342Y-57873000D01*
X130122242Y-57900883D01*
X129759001Y-58011071D01*
X129424237Y-58190006D01*
X129130813Y-58430813D01*
X128890006Y-58724237D01*
X128711071Y-59059001D01*
X128600883Y-59422242D01*
X128563677Y-59800000D01*
X121127000Y-59800000D01*
X121127000Y-57500000D01*
X121124560Y-57475224D01*
X121117333Y-57451399D01*
X121105597Y-57429443D01*
X121089803Y-57410197D01*
X121070557Y-57394403D01*
X121048601Y-57382667D01*
X121024776Y-57375440D01*
X121000000Y-57373000D01*
X116500000Y-57373000D01*
X116475224Y-57375440D01*
X116451399Y-57382667D01*
X116429443Y-57394403D01*
X116410197Y-57410197D01*
X116394403Y-57429443D01*
X116382667Y-57451399D01*
X116375440Y-57475224D01*
X116373000Y-57500000D01*
X116373000Y-59255023D01*
X116304868Y-58912499D01*
X116163376Y-58570907D01*
X115957961Y-58263482D01*
X115696518Y-58002039D01*
X115509930Y-57877364D01*
X115573451Y-57813843D01*
X115456995Y-57697387D01*
X115695860Y-57631863D01*
X115811760Y-57384884D01*
X115877250Y-57120040D01*
X115889812Y-56847508D01*
X115848965Y-56577762D01*
X115756277Y-56321168D01*
X115695860Y-56208137D01*
X115456993Y-56142612D01*
X114679605Y-56920000D01*
X114693748Y-56934143D01*
X114514143Y-57113748D01*
X114500000Y-57099605D01*
X114485858Y-57113748D01*
X114306253Y-56934143D01*
X114320395Y-56920000D01*
X113543007Y-56142612D01*
X113304140Y-56208137D01*
X113188240Y-56455116D01*
X113122750Y-56719960D01*
X113110188Y-56992492D01*
X113151035Y-57262238D01*
X113243723Y-57518832D01*
X113304140Y-57631863D01*
X113543005Y-57697387D01*
X113426549Y-57813843D01*
X113490070Y-57877364D01*
X113303482Y-58002039D01*
X113042039Y-58263482D01*
X112836624Y-58570907D01*
X112695132Y-58912499D01*
X112623000Y-59275132D01*
X112623000Y-59644868D01*
X112695132Y-60007501D01*
X112836624Y-60349093D01*
X112924046Y-60479928D01*
X112808400Y-60620843D01*
X112703750Y-60816629D01*
X112639307Y-61029069D01*
X112617547Y-61250000D01*
X112617547Y-61373000D01*
X93627000Y-61373000D01*
X93627000Y-60958704D01*
X93891598Y-61038969D01*
X94150821Y-61064500D01*
X94849179Y-61064500D01*
X95108402Y-61038969D01*
X95441012Y-60938073D01*
X95747547Y-60774226D01*
X96016226Y-60553726D01*
X96236726Y-60285047D01*
X96400573Y-59978512D01*
X96501469Y-59645902D01*
X96535537Y-59300000D01*
X96501469Y-58954098D01*
X96400573Y-58621488D01*
X96308910Y-58450000D01*
X96400573Y-58278512D01*
X96501469Y-57945902D01*
X96535537Y-57600000D01*
X96501469Y-57254098D01*
X96400573Y-56921488D01*
X96236726Y-56614953D01*
X96016226Y-56346274D01*
X95970571Y-56308806D01*
X95986737Y-56269633D01*
X95993191Y-56223505D01*
X95868985Y-56027000D01*
X95562755Y-56027000D01*
X95441012Y-55961927D01*
X95236866Y-55900000D01*
X95441012Y-55838073D01*
X95562755Y-55773000D01*
X95868985Y-55773000D01*
X95962728Y-55624690D01*
X114056209Y-55607718D01*
X113901168Y-55663723D01*
X113788137Y-55724140D01*
X113722612Y-55963007D01*
X114500000Y-56740395D01*
X115277388Y-55963007D01*
X115211863Y-55724140D01*
X114964884Y-55608240D01*
X114959348Y-55606871D01*
X136017000Y-55587119D01*
X136017000Y-66333335D01*
G36*
X116373000Y-61154023D02*
G01*
X116360693Y-61029069D01*
X116296250Y-60816629D01*
X116191600Y-60620843D01*
X116075954Y-60479928D01*
X116163376Y-60349093D01*
X116304868Y-60007501D01*
X116373000Y-59664977D01*
X116373000Y-61154023D01*
X116373000Y-61154023D01*
G37*
X116373000Y-61154023D02*
X116360693Y-61029069D01*
X116296250Y-60816629D01*
X116191600Y-60620843D01*
X116075954Y-60479928D01*
X116163376Y-60349093D01*
X116304868Y-60007501D01*
X116373000Y-59664977D01*
X116373000Y-61154023D01*
G36*
X93252453Y-60774226D02*
G01*
X93373000Y-60838660D01*
X93373000Y-61373000D01*
X93127000Y-61373000D01*
X93127000Y-60671269D01*
X93252453Y-60774226D01*
X93252453Y-60774226D01*
G37*
X93252453Y-60774226D02*
X93373000Y-60838660D01*
X93373000Y-61373000D01*
X93127000Y-61373000D01*
X93127000Y-60671269D01*
X93252453Y-60774226D01*
G36*
X93127000Y-56033352D02*
G01*
X93127000Y-56027002D01*
X93131014Y-56027002D01*
X93127000Y-56033352D01*
X93127000Y-56033352D01*
G37*
X93127000Y-56033352D02*
X93127000Y-56027002D01*
X93131014Y-56027002D01*
X93127000Y-56033352D01*
G36*
X93131014Y-55772998D02*
G01*
X93127000Y-55772998D01*
X93127000Y-55766648D01*
X93131014Y-55772998D01*
X93131014Y-55772998D01*
G37*
X93131014Y-55772998D02*
X93127000Y-55772998D01*
X93127000Y-55766648D01*
X93131014Y-55772998D01*
G36*
X136017000Y-105029000D02*
G01*
X61664494Y-105029000D01*
X61659621Y-105012934D01*
X61499639Y-104690743D01*
X61279875Y-104405954D01*
X61008774Y-104169511D01*
X60696754Y-103990500D01*
X60355806Y-103875801D01*
X60071000Y-103992146D01*
X60071000Y-105029000D01*
X59817000Y-105029000D01*
X59817000Y-103992146D01*
X59532194Y-103875801D01*
X59191246Y-103990500D01*
X58879226Y-104169511D01*
X58608125Y-104405954D01*
X58388361Y-104690743D01*
X58228379Y-105012934D01*
X58223506Y-105029000D01*
X34250279Y-105029000D01*
X34241574Y-104985239D01*
X34066160Y-104561752D01*
X33811499Y-104180624D01*
X33487376Y-103856501D01*
X33106248Y-103601840D01*
X32682761Y-103426426D01*
X32233189Y-103337000D01*
X31774811Y-103337000D01*
X31325239Y-103426426D01*
X30901752Y-103601840D01*
X30520624Y-103856501D01*
X30196501Y-104180624D01*
X30099000Y-104326545D01*
X30099000Y-102310207D01*
X78573000Y-102310207D01*
X78573000Y-102689793D01*
X78647053Y-103062085D01*
X78792315Y-103412777D01*
X79003201Y-103728391D01*
X79271609Y-103996799D01*
X79587223Y-104207685D01*
X79937915Y-104352947D01*
X80310207Y-104427000D01*
X80689793Y-104427000D01*
X81062085Y-104352947D01*
X81305792Y-104252000D01*
X83413931Y-104252000D01*
X83500000Y-104260477D01*
X83586068Y-104252000D01*
X83586069Y-104252000D01*
X83843452Y-104226650D01*
X84173705Y-104126469D01*
X84478069Y-103963783D01*
X84744845Y-103744845D01*
X84963783Y-103478069D01*
X85126469Y-103173705D01*
X85226650Y-102843452D01*
X85260477Y-102500000D01*
X85252000Y-102413931D01*
X85252000Y-95649040D01*
X88608091Y-95649040D01*
X88702930Y-95913881D01*
X88847615Y-96155131D01*
X89036586Y-96363519D01*
X89262580Y-96531037D01*
X89516913Y-96651246D01*
X89650961Y-96691904D01*
X89873000Y-96569915D01*
X89873000Y-95427000D01*
X90127000Y-95427000D01*
X90127000Y-96569915D01*
X90349039Y-96691904D01*
X90483087Y-96651246D01*
X90737420Y-96531037D01*
X90963414Y-96363519D01*
X91152385Y-96155131D01*
X91297070Y-95913881D01*
X91334195Y-95810207D01*
X120573000Y-95810207D01*
X120573000Y-96189793D01*
X120647053Y-96562085D01*
X120792315Y-96912777D01*
X121003201Y-97228391D01*
X121271609Y-97496799D01*
X121587223Y-97707685D01*
X121937915Y-97852947D01*
X122310207Y-97927000D01*
X122689793Y-97927000D01*
X123062085Y-97852947D01*
X123412777Y-97707685D01*
X123728391Y-97496799D01*
X123996799Y-97228391D01*
X124207685Y-96912777D01*
X124352947Y-96562085D01*
X124427000Y-96189793D01*
X124427000Y-95810207D01*
X124352947Y-95437915D01*
X124207685Y-95087223D01*
X123996799Y-94771609D01*
X123728391Y-94503201D01*
X123412777Y-94292315D01*
X123062085Y-94147053D01*
X122689793Y-94073000D01*
X122310207Y-94073000D01*
X121937915Y-94147053D01*
X121587223Y-94292315D01*
X121271609Y-94503201D01*
X121003201Y-94771609D01*
X120792315Y-95087223D01*
X120647053Y-95437915D01*
X120573000Y-95810207D01*
X91334195Y-95810207D01*
X91391909Y-95649040D01*
X91270624Y-95427000D01*
X90127000Y-95427000D01*
X89873000Y-95427000D01*
X88729376Y-95427000D01*
X88608091Y-95649040D01*
X85252000Y-95649040D01*
X85252000Y-94950960D01*
X88608091Y-94950960D01*
X88729376Y-95173000D01*
X89873000Y-95173000D01*
X89873000Y-94030085D01*
X90127000Y-94030085D01*
X90127000Y-95173000D01*
X91270624Y-95173000D01*
X91391909Y-94950960D01*
X91297070Y-94686119D01*
X91152385Y-94444869D01*
X90963414Y-94236481D01*
X90737420Y-94068963D01*
X90483087Y-93948754D01*
X90349039Y-93908096D01*
X90127000Y-94030085D01*
X89873000Y-94030085D01*
X89650961Y-93908096D01*
X89516913Y-93948754D01*
X89262580Y-94068963D01*
X89036586Y-94236481D01*
X88847615Y-94444869D01*
X88702930Y-94686119D01*
X88608091Y-94950960D01*
X85252000Y-94950960D01*
X85252000Y-81810207D01*
X87573000Y-81810207D01*
X87573000Y-82189793D01*
X87647053Y-82562085D01*
X87792315Y-82912777D01*
X88003201Y-83228391D01*
X88271609Y-83496799D01*
X88587223Y-83707685D01*
X88937915Y-83852947D01*
X89310207Y-83927000D01*
X89689793Y-83927000D01*
X90062085Y-83852947D01*
X90412777Y-83707685D01*
X90728391Y-83496799D01*
X90996799Y-83228391D01*
X91154280Y-82992702D01*
X93686903Y-82992702D01*
X93758486Y-83236671D01*
X94013996Y-83357571D01*
X94288184Y-83426300D01*
X94570512Y-83440217D01*
X94850130Y-83398787D01*
X95116292Y-83303603D01*
X95123032Y-83300000D01*
X120563677Y-83300000D01*
X120600883Y-83677758D01*
X120711071Y-84040999D01*
X120890006Y-84375763D01*
X121130813Y-84669187D01*
X121424237Y-84909994D01*
X121759001Y-85088929D01*
X122122242Y-85199117D01*
X122405342Y-85227000D01*
X122594658Y-85227000D01*
X122877758Y-85199117D01*
X123240999Y-85088929D01*
X123575763Y-84909994D01*
X123869187Y-84669187D01*
X124109994Y-84375763D01*
X124288929Y-84040999D01*
X124399117Y-83677758D01*
X124436323Y-83300000D01*
X124399117Y-82922242D01*
X124288929Y-82559001D01*
X124109994Y-82224237D01*
X123869187Y-81930813D01*
X123575763Y-81690006D01*
X123240999Y-81511071D01*
X122877758Y-81400883D01*
X122594658Y-81373000D01*
X122405342Y-81373000D01*
X122122242Y-81400883D01*
X121759001Y-81511071D01*
X121424237Y-81690006D01*
X121130813Y-81930813D01*
X120890006Y-82224237D01*
X120711071Y-82559001D01*
X120600883Y-82922242D01*
X120563677Y-83300000D01*
X95123032Y-83300000D01*
X95241514Y-83236671D01*
X95313097Y-82992702D01*
X94500000Y-82179605D01*
X93686903Y-82992702D01*
X91154280Y-82992702D01*
X91207685Y-82912777D01*
X91352947Y-82562085D01*
X91427000Y-82189793D01*
X91427000Y-82070512D01*
X93059783Y-82070512D01*
X93101213Y-82350130D01*
X93196397Y-82616292D01*
X93263329Y-82741514D01*
X93507298Y-82813097D01*
X94320395Y-82000000D01*
X94679605Y-82000000D01*
X95492702Y-82813097D01*
X95736671Y-82741514D01*
X95857571Y-82486004D01*
X95926300Y-82211816D01*
X95940217Y-81929488D01*
X95898787Y-81649870D01*
X95803603Y-81383708D01*
X95736671Y-81258486D01*
X95492702Y-81186903D01*
X94679605Y-82000000D01*
X94320395Y-82000000D01*
X93507298Y-81186903D01*
X93263329Y-81258486D01*
X93142429Y-81513996D01*
X93073700Y-81788184D01*
X93059783Y-82070512D01*
X91427000Y-82070512D01*
X91427000Y-81810207D01*
X91352947Y-81437915D01*
X91207685Y-81087223D01*
X91154281Y-81007298D01*
X93686903Y-81007298D01*
X94500000Y-81820395D01*
X95313097Y-81007298D01*
X95241514Y-80763329D01*
X94986004Y-80642429D01*
X94711816Y-80573700D01*
X94429488Y-80559783D01*
X94149870Y-80601213D01*
X93883708Y-80696397D01*
X93758486Y-80763329D01*
X93686903Y-81007298D01*
X91154281Y-81007298D01*
X90996799Y-80771609D01*
X90728391Y-80503201D01*
X90412777Y-80292315D01*
X90062085Y-80147053D01*
X89689793Y-80073000D01*
X89310207Y-80073000D01*
X88937915Y-80147053D01*
X88587223Y-80292315D01*
X88271609Y-80503201D01*
X88003201Y-80771609D01*
X87792315Y-81087223D01*
X87647053Y-81437915D01*
X87573000Y-81810207D01*
X85252000Y-81810207D01*
X85252000Y-77400000D01*
X120267547Y-77400000D01*
X120267547Y-79600000D01*
X120289307Y-79820931D01*
X120353750Y-80033371D01*
X120458400Y-80229157D01*
X120599235Y-80400765D01*
X120770843Y-80541600D01*
X120966629Y-80646250D01*
X121179069Y-80710693D01*
X121400000Y-80732453D01*
X123600000Y-80732453D01*
X123820931Y-80710693D01*
X124033371Y-80646250D01*
X124229157Y-80541600D01*
X124400765Y-80400765D01*
X124541600Y-80229157D01*
X124646250Y-80033371D01*
X124710693Y-79820931D01*
X124732453Y-79600000D01*
X124732453Y-77400000D01*
X124710693Y-77179069D01*
X124646250Y-76966629D01*
X124541600Y-76770843D01*
X124400765Y-76599235D01*
X124229157Y-76458400D01*
X124033371Y-76353750D01*
X123820931Y-76289307D01*
X123600000Y-76267547D01*
X121400000Y-76267547D01*
X121179069Y-76289307D01*
X120966629Y-76353750D01*
X120770843Y-76458400D01*
X120599235Y-76599235D01*
X120458400Y-76770843D01*
X120353750Y-76966629D01*
X120289307Y-77179069D01*
X120267547Y-77400000D01*
X85252000Y-77400000D01*
X85252000Y-70500000D01*
X87367547Y-70500000D01*
X87367547Y-72500000D01*
X87389307Y-72720931D01*
X87453750Y-72933371D01*
X87558400Y-73129157D01*
X87699235Y-73300765D01*
X87870843Y-73441600D01*
X88066629Y-73546250D01*
X88279069Y-73610693D01*
X88500000Y-73632453D01*
X90500000Y-73632453D01*
X90720931Y-73610693D01*
X90933371Y-73546250D01*
X91129157Y-73441600D01*
X91300765Y-73300765D01*
X91441600Y-73129157D01*
X91546250Y-72933371D01*
X91610693Y-72720931D01*
X91619115Y-72635413D01*
X93544192Y-72635413D01*
X93639956Y-72899814D01*
X93929571Y-73040704D01*
X94241108Y-73122384D01*
X94562595Y-73141718D01*
X94881675Y-73097961D01*
X95186088Y-72992795D01*
X95360044Y-72899814D01*
X95455808Y-72635413D01*
X94500000Y-71679605D01*
X93544192Y-72635413D01*
X91619115Y-72635413D01*
X91632453Y-72500000D01*
X91632453Y-71562595D01*
X92858282Y-71562595D01*
X92902039Y-71881675D01*
X93007205Y-72186088D01*
X93100186Y-72360044D01*
X93364587Y-72455808D01*
X94320395Y-71500000D01*
X94679605Y-71500000D01*
X95635413Y-72455808D01*
X95899814Y-72360044D01*
X95924058Y-72310207D01*
X128573000Y-72310207D01*
X128573000Y-72689793D01*
X128647053Y-73062085D01*
X128792315Y-73412777D01*
X129003201Y-73728391D01*
X129271609Y-73996799D01*
X129587223Y-74207685D01*
X129937915Y-74352947D01*
X130310207Y-74427000D01*
X130689793Y-74427000D01*
X131062085Y-74352947D01*
X131412777Y-74207685D01*
X131728391Y-73996799D01*
X131996799Y-73728391D01*
X132207685Y-73412777D01*
X132352947Y-73062085D01*
X132427000Y-72689793D01*
X132427000Y-72310207D01*
X132352947Y-71937915D01*
X132207685Y-71587223D01*
X131996799Y-71271609D01*
X131728391Y-71003201D01*
X131412777Y-70792315D01*
X131062085Y-70647053D01*
X130689793Y-70573000D01*
X130310207Y-70573000D01*
X129937915Y-70647053D01*
X129587223Y-70792315D01*
X129271609Y-71003201D01*
X129003201Y-71271609D01*
X128792315Y-71587223D01*
X128647053Y-71937915D01*
X128573000Y-72310207D01*
X95924058Y-72310207D01*
X96040704Y-72070429D01*
X96122384Y-71758892D01*
X96141718Y-71437405D01*
X96097961Y-71118325D01*
X95992795Y-70813912D01*
X95899814Y-70639956D01*
X95635413Y-70544192D01*
X94679605Y-71500000D01*
X94320395Y-71500000D01*
X93364587Y-70544192D01*
X93100186Y-70639956D01*
X92959296Y-70929571D01*
X92877616Y-71241108D01*
X92858282Y-71562595D01*
X91632453Y-71562595D01*
X91632453Y-70500000D01*
X91619116Y-70364587D01*
X93544192Y-70364587D01*
X94500000Y-71320395D01*
X95455808Y-70364587D01*
X95360044Y-70100186D01*
X95070429Y-69959296D01*
X94758892Y-69877616D01*
X94437405Y-69858282D01*
X94118325Y-69902039D01*
X93813912Y-70007205D01*
X93639956Y-70100186D01*
X93544192Y-70364587D01*
X91619116Y-70364587D01*
X91610693Y-70279069D01*
X91546250Y-70066629D01*
X91441600Y-69870843D01*
X91300765Y-69699235D01*
X91129157Y-69558400D01*
X90933371Y-69453750D01*
X90720931Y-69389307D01*
X90500000Y-69367547D01*
X88500000Y-69367547D01*
X88279069Y-69389307D01*
X88066629Y-69453750D01*
X87870843Y-69558400D01*
X87699235Y-69699235D01*
X87558400Y-69870843D01*
X87453750Y-70066629D01*
X87389307Y-70279069D01*
X87367547Y-70500000D01*
X85252000Y-70500000D01*
X85252000Y-68340000D01*
X120262225Y-68340000D01*
X120305223Y-68776568D01*
X120432565Y-69196359D01*
X120639358Y-69583241D01*
X120917654Y-69922346D01*
X121256759Y-70200642D01*
X121643641Y-70407435D01*
X122063432Y-70534777D01*
X122390599Y-70567000D01*
X122609401Y-70567000D01*
X122936568Y-70534777D01*
X123356359Y-70407435D01*
X123743241Y-70200642D01*
X124082346Y-69922346D01*
X124360642Y-69583241D01*
X124567435Y-69196359D01*
X124694777Y-68776568D01*
X124737775Y-68340000D01*
X124694777Y-67903432D01*
X124567435Y-67483641D01*
X124360642Y-67096759D01*
X124082346Y-66757654D01*
X123743241Y-66479358D01*
X123356359Y-66272565D01*
X123298509Y-66255016D01*
X123412777Y-66207685D01*
X123728391Y-65996799D01*
X123996799Y-65728391D01*
X124207685Y-65412777D01*
X124352947Y-65062085D01*
X124427000Y-64689793D01*
X124427000Y-64310207D01*
X124352947Y-63937915D01*
X124207685Y-63587223D01*
X123996799Y-63271609D01*
X123728391Y-63003201D01*
X123412777Y-62792315D01*
X123062085Y-62647053D01*
X122689793Y-62573000D01*
X122310207Y-62573000D01*
X121937915Y-62647053D01*
X121587223Y-62792315D01*
X121271609Y-63003201D01*
X121003201Y-63271609D01*
X120792315Y-63587223D01*
X120647053Y-63937915D01*
X120573000Y-64310207D01*
X120573000Y-64689793D01*
X120647053Y-65062085D01*
X120792315Y-65412777D01*
X121003201Y-65728391D01*
X121271609Y-65996799D01*
X121587223Y-66207685D01*
X121701491Y-66255016D01*
X121643641Y-66272565D01*
X121256759Y-66479358D01*
X120917654Y-66757654D01*
X120639358Y-67096759D01*
X120432565Y-67483641D01*
X120305223Y-67903432D01*
X120262225Y-68340000D01*
X85252000Y-68340000D01*
X85252000Y-59915422D01*
X85310207Y-59927000D01*
X85689793Y-59927000D01*
X86062085Y-59852947D01*
X86305792Y-59752000D01*
X87586069Y-59752000D01*
X87843452Y-59726650D01*
X88173705Y-59626469D01*
X88478069Y-59463783D01*
X88480863Y-59461490D01*
X88573000Y-59479817D01*
X88573000Y-59689793D01*
X88647053Y-60062085D01*
X88792315Y-60412777D01*
X88873000Y-60533531D01*
X88873001Y-63920065D01*
X88865128Y-64000000D01*
X88896542Y-64318948D01*
X88989575Y-64625638D01*
X89140654Y-64908286D01*
X89343971Y-65156029D01*
X89591714Y-65359346D01*
X89874362Y-65510425D01*
X90181052Y-65603458D01*
X90420075Y-65627000D01*
X90500000Y-65634872D01*
X90579925Y-65627000D01*
X118420075Y-65627000D01*
X118500000Y-65634872D01*
X118579925Y-65627000D01*
X118818948Y-65603458D01*
X119125638Y-65510425D01*
X119408286Y-65359346D01*
X119656029Y-65156029D01*
X119859346Y-64908286D01*
X120010425Y-64625638D01*
X120103458Y-64318948D01*
X120134872Y-64000000D01*
X120127000Y-63920075D01*
X120127000Y-60833531D01*
X120207685Y-60712777D01*
X120352947Y-60362085D01*
X120427000Y-59989793D01*
X120427000Y-59800000D01*
X128563677Y-59800000D01*
X128600883Y-60177758D01*
X128711071Y-60540999D01*
X128890006Y-60875763D01*
X129130813Y-61169187D01*
X129424237Y-61409994D01*
X129759001Y-61588929D01*
X130122242Y-61699117D01*
X130405342Y-61727000D01*
X130594658Y-61727000D01*
X130877758Y-61699117D01*
X131240999Y-61588929D01*
X131575763Y-61409994D01*
X131869187Y-61169187D01*
X132109994Y-60875763D01*
X132288929Y-60540999D01*
X132399117Y-60177758D01*
X132436323Y-59800000D01*
X132399117Y-59422242D01*
X132288929Y-59059001D01*
X132109994Y-58724237D01*
X131869187Y-58430813D01*
X131575763Y-58190006D01*
X131240999Y-58011071D01*
X130877758Y-57900883D01*
X130594658Y-57873000D01*
X130405342Y-57873000D01*
X130122242Y-57900883D01*
X129759001Y-58011071D01*
X129424237Y-58190006D01*
X129130813Y-58430813D01*
X128890006Y-58724237D01*
X128711071Y-59059001D01*
X128600883Y-59422242D01*
X128563677Y-59800000D01*
X120427000Y-59800000D01*
X120427000Y-59610207D01*
X120352947Y-59237915D01*
X120207685Y-58887223D01*
X119996799Y-58571609D01*
X119728391Y-58303201D01*
X119412777Y-58092315D01*
X119062085Y-57947053D01*
X118689793Y-57873000D01*
X118310207Y-57873000D01*
X117937915Y-57947053D01*
X117587223Y-58092315D01*
X117271609Y-58303201D01*
X117003201Y-58571609D01*
X116792315Y-58887223D01*
X116647053Y-59237915D01*
X116573000Y-59610207D01*
X116573000Y-59989793D01*
X116647053Y-60362085D01*
X116792315Y-60712777D01*
X116873000Y-60833531D01*
X116873000Y-61079925D01*
X116873001Y-61079935D01*
X116873001Y-62373000D01*
X116382453Y-62373000D01*
X116382453Y-61250000D01*
X116360693Y-61029069D01*
X116296250Y-60816629D01*
X116191600Y-60620843D01*
X116075954Y-60479928D01*
X116163376Y-60349093D01*
X116304868Y-60007501D01*
X116377000Y-59644868D01*
X116377000Y-59275132D01*
X116304868Y-58912499D01*
X116163376Y-58570907D01*
X115957961Y-58263482D01*
X115696518Y-58002039D01*
X115509930Y-57877364D01*
X115573451Y-57813843D01*
X115456995Y-57697387D01*
X115695860Y-57631863D01*
X115811760Y-57384884D01*
X115877250Y-57120040D01*
X115889812Y-56847508D01*
X115848965Y-56577762D01*
X115756277Y-56321168D01*
X115695860Y-56208137D01*
X115456993Y-56142612D01*
X114679605Y-56920000D01*
X114693748Y-56934143D01*
X114514143Y-57113748D01*
X114500000Y-57099605D01*
X114485858Y-57113748D01*
X114306253Y-56934143D01*
X114320395Y-56920000D01*
X113543007Y-56142612D01*
X113304140Y-56208137D01*
X113188240Y-56455116D01*
X113122750Y-56719960D01*
X113110188Y-56992492D01*
X113151035Y-57262238D01*
X113243723Y-57518832D01*
X113304140Y-57631863D01*
X113543005Y-57697387D01*
X113426549Y-57813843D01*
X113490070Y-57877364D01*
X113303482Y-58002039D01*
X113042039Y-58263482D01*
X112836624Y-58570907D01*
X112695132Y-58912499D01*
X112623000Y-59275132D01*
X112623000Y-59644868D01*
X112695132Y-60007501D01*
X112836624Y-60349093D01*
X112924046Y-60479928D01*
X112808400Y-60620843D01*
X112703750Y-60816629D01*
X112639307Y-61029069D01*
X112617547Y-61250000D01*
X112617547Y-62373000D01*
X92127000Y-62373000D01*
X92127000Y-60533531D01*
X92207685Y-60412777D01*
X92352947Y-60062085D01*
X92427000Y-59689793D01*
X92427000Y-59310207D01*
X92352947Y-58937915D01*
X92207685Y-58587223D01*
X91996799Y-58271609D01*
X91728391Y-58003201D01*
X91412777Y-57792315D01*
X91062085Y-57647053D01*
X90927000Y-57620183D01*
X90927000Y-57410207D01*
X90852947Y-57037915D01*
X90707685Y-56687223D01*
X90496799Y-56371609D01*
X90228391Y-56103201D01*
X89912777Y-55892315D01*
X89562085Y-55747053D01*
X89189793Y-55673000D01*
X88810207Y-55673000D01*
X88437915Y-55747053D01*
X88194208Y-55848000D01*
X87782561Y-55848000D01*
X87525178Y-55873350D01*
X87194925Y-55973531D01*
X86890561Y-56136217D01*
X86754353Y-56248000D01*
X86305792Y-56248000D01*
X86062085Y-56147053D01*
X85689793Y-56073000D01*
X85310207Y-56073000D01*
X84937915Y-56147053D01*
X84694208Y-56248000D01*
X83586069Y-56248000D01*
X83500000Y-56239523D01*
X83413932Y-56248000D01*
X83413931Y-56248000D01*
X83156548Y-56273350D01*
X82826295Y-56373531D01*
X82521931Y-56536217D01*
X82255155Y-56755155D01*
X82036217Y-57021931D01*
X81873531Y-57326295D01*
X81773350Y-57656548D01*
X81739523Y-58000000D01*
X81748001Y-58086079D01*
X81748000Y-100748000D01*
X81305792Y-100748000D01*
X81062085Y-100647053D01*
X80689793Y-100573000D01*
X80310207Y-100573000D01*
X79937915Y-100647053D01*
X79587223Y-100792315D01*
X79271609Y-101003201D01*
X79003201Y-101271609D01*
X78792315Y-101587223D01*
X78647053Y-101937915D01*
X78573000Y-102310207D01*
X30099000Y-102310207D01*
X30099000Y-95300358D01*
X54433000Y-95300358D01*
X54433000Y-95699642D01*
X54510896Y-96091254D01*
X54663696Y-96460145D01*
X54885526Y-96792137D01*
X55167863Y-97074474D01*
X55499855Y-97296304D01*
X55868746Y-97449104D01*
X56260358Y-97527000D01*
X56659642Y-97527000D01*
X57051254Y-97449104D01*
X57417158Y-97297541D01*
X57470843Y-97341600D01*
X57666629Y-97446250D01*
X57879069Y-97510693D01*
X58100000Y-97532453D01*
X59900000Y-97532453D01*
X60120931Y-97510693D01*
X60333371Y-97446250D01*
X60529157Y-97341600D01*
X60700765Y-97200765D01*
X60841600Y-97029157D01*
X60946250Y-96833371D01*
X61010693Y-96620931D01*
X61032453Y-96400000D01*
X61032453Y-95310207D01*
X62573000Y-95310207D01*
X62573000Y-95689793D01*
X62647053Y-96062085D01*
X62792315Y-96412777D01*
X63003201Y-96728391D01*
X63271609Y-96996799D01*
X63587223Y-97207685D01*
X63937915Y-97352947D01*
X64310207Y-97427000D01*
X64689793Y-97427000D01*
X65062085Y-97352947D01*
X65412777Y-97207685D01*
X65728391Y-96996799D01*
X65996799Y-96728391D01*
X66207685Y-96412777D01*
X66352947Y-96062085D01*
X66427000Y-95689793D01*
X66427000Y-95310207D01*
X69573000Y-95310207D01*
X69573000Y-95689793D01*
X69647053Y-96062085D01*
X69792315Y-96412777D01*
X70003201Y-96728391D01*
X70271609Y-96996799D01*
X70587223Y-97207685D01*
X70937915Y-97352947D01*
X71310207Y-97427000D01*
X71689793Y-97427000D01*
X72062085Y-97352947D01*
X72412777Y-97207685D01*
X72728391Y-96996799D01*
X72996799Y-96728391D01*
X73207685Y-96412777D01*
X73352947Y-96062085D01*
X73427000Y-95689793D01*
X73427000Y-95310207D01*
X73352947Y-94937915D01*
X73207685Y-94587223D01*
X72996799Y-94271609D01*
X72728391Y-94003201D01*
X72412777Y-93792315D01*
X72062085Y-93647053D01*
X71689793Y-93573000D01*
X71310207Y-93573000D01*
X70937915Y-93647053D01*
X70587223Y-93792315D01*
X70271609Y-94003201D01*
X70003201Y-94271609D01*
X69792315Y-94587223D01*
X69647053Y-94937915D01*
X69573000Y-95310207D01*
X66427000Y-95310207D01*
X66352947Y-94937915D01*
X66207685Y-94587223D01*
X65996799Y-94271609D01*
X65728391Y-94003201D01*
X65412777Y-93792315D01*
X65062085Y-93647053D01*
X64689793Y-93573000D01*
X64310207Y-93573000D01*
X63937915Y-93647053D01*
X63587223Y-93792315D01*
X63271609Y-94003201D01*
X63003201Y-94271609D01*
X62792315Y-94587223D01*
X62647053Y-94937915D01*
X62573000Y-95310207D01*
X61032453Y-95310207D01*
X61032453Y-94600000D01*
X61010693Y-94379069D01*
X60946250Y-94166629D01*
X60841600Y-93970843D01*
X60700765Y-93799235D01*
X60529157Y-93658400D01*
X60333371Y-93553750D01*
X60120931Y-93489307D01*
X59900000Y-93467547D01*
X58100000Y-93467547D01*
X57879069Y-93489307D01*
X57666629Y-93553750D01*
X57470843Y-93658400D01*
X57417158Y-93702459D01*
X57051254Y-93550896D01*
X56659642Y-93473000D01*
X56260358Y-93473000D01*
X55868746Y-93550896D01*
X55499855Y-93703696D01*
X55167863Y-93925526D01*
X54885526Y-94207863D01*
X54663696Y-94539855D01*
X54510896Y-94908746D01*
X54433000Y-95300358D01*
X30099000Y-95300358D01*
X30099000Y-81241263D01*
X39873000Y-81241263D01*
X39873000Y-81758737D01*
X39973954Y-82266268D01*
X40171983Y-82744351D01*
X40459476Y-83174615D01*
X40825385Y-83540524D01*
X41255649Y-83828017D01*
X41733732Y-84026046D01*
X42241263Y-84127000D01*
X42758737Y-84127000D01*
X43266268Y-84026046D01*
X43744351Y-83828017D01*
X44174615Y-83540524D01*
X44540524Y-83174615D01*
X44828017Y-82744351D01*
X45000000Y-82329148D01*
X45171983Y-82744351D01*
X45459476Y-83174615D01*
X45825385Y-83540524D01*
X46255649Y-83828017D01*
X46733732Y-84026046D01*
X47241263Y-84127000D01*
X47758737Y-84127000D01*
X48266268Y-84026046D01*
X48744351Y-83828017D01*
X49174615Y-83540524D01*
X49540524Y-83174615D01*
X49828017Y-82744351D01*
X50000000Y-82329148D01*
X50171983Y-82744351D01*
X50459476Y-83174615D01*
X50825385Y-83540524D01*
X51255649Y-83828017D01*
X51733732Y-84026046D01*
X52241263Y-84127000D01*
X52758737Y-84127000D01*
X53266268Y-84026046D01*
X53744351Y-83828017D01*
X54174615Y-83540524D01*
X54540524Y-83174615D01*
X54828017Y-82744351D01*
X55000000Y-82329148D01*
X55171983Y-82744351D01*
X55459476Y-83174615D01*
X55825385Y-83540524D01*
X56255649Y-83828017D01*
X56733732Y-84026046D01*
X57241263Y-84127000D01*
X57758737Y-84127000D01*
X58266268Y-84026046D01*
X58744351Y-83828017D01*
X59174615Y-83540524D01*
X59540524Y-83174615D01*
X59828017Y-82744351D01*
X60000000Y-82329148D01*
X60171983Y-82744351D01*
X60459476Y-83174615D01*
X60825385Y-83540524D01*
X61255649Y-83828017D01*
X61733732Y-84026046D01*
X62241263Y-84127000D01*
X62758737Y-84127000D01*
X63266268Y-84026046D01*
X63744351Y-83828017D01*
X64174615Y-83540524D01*
X64540524Y-83174615D01*
X64828017Y-82744351D01*
X65000000Y-82329148D01*
X65171983Y-82744351D01*
X65459476Y-83174615D01*
X65825385Y-83540524D01*
X66255649Y-83828017D01*
X66733732Y-84026046D01*
X67241263Y-84127000D01*
X67758737Y-84127000D01*
X68266268Y-84026046D01*
X68744351Y-83828017D01*
X69174615Y-83540524D01*
X69540524Y-83174615D01*
X69828017Y-82744351D01*
X70026046Y-82266268D01*
X70127000Y-81758737D01*
X70127000Y-81241263D01*
X70026046Y-80733732D01*
X69828017Y-80255649D01*
X69540524Y-79825385D01*
X69174615Y-79459476D01*
X68744351Y-79171983D01*
X68266268Y-78973954D01*
X67758737Y-78873000D01*
X67241263Y-78873000D01*
X66733732Y-78973954D01*
X66255649Y-79171983D01*
X65825385Y-79459476D01*
X65459476Y-79825385D01*
X65171983Y-80255649D01*
X65000000Y-80670852D01*
X64828017Y-80255649D01*
X64540524Y-79825385D01*
X64174615Y-79459476D01*
X63744351Y-79171983D01*
X63266268Y-78973954D01*
X62758737Y-78873000D01*
X62241263Y-78873000D01*
X61733732Y-78973954D01*
X61255649Y-79171983D01*
X60825385Y-79459476D01*
X60459476Y-79825385D01*
X60171983Y-80255649D01*
X60000000Y-80670852D01*
X59828017Y-80255649D01*
X59540524Y-79825385D01*
X59174615Y-79459476D01*
X58744351Y-79171983D01*
X58266268Y-78973954D01*
X57758737Y-78873000D01*
X57241263Y-78873000D01*
X56733732Y-78973954D01*
X56255649Y-79171983D01*
X55825385Y-79459476D01*
X55459476Y-79825385D01*
X55171983Y-80255649D01*
X55000000Y-80670852D01*
X54828017Y-80255649D01*
X54540524Y-79825385D01*
X54174615Y-79459476D01*
X53744351Y-79171983D01*
X53266268Y-78973954D01*
X52758737Y-78873000D01*
X52241263Y-78873000D01*
X51733732Y-78973954D01*
X51255649Y-79171983D01*
X50825385Y-79459476D01*
X50459476Y-79825385D01*
X50171983Y-80255649D01*
X50000000Y-80670852D01*
X49828017Y-80255649D01*
X49540524Y-79825385D01*
X49174615Y-79459476D01*
X48744351Y-79171983D01*
X48266268Y-78973954D01*
X47758737Y-78873000D01*
X47241263Y-78873000D01*
X46733732Y-78973954D01*
X46255649Y-79171983D01*
X45825385Y-79459476D01*
X45459476Y-79825385D01*
X45171983Y-80255649D01*
X45000000Y-80670852D01*
X44828017Y-80255649D01*
X44540524Y-79825385D01*
X44174615Y-79459476D01*
X43744351Y-79171983D01*
X43266268Y-78973954D01*
X42758737Y-78873000D01*
X42241263Y-78873000D01*
X41733732Y-78973954D01*
X41255649Y-79171983D01*
X40825385Y-79459476D01*
X40459476Y-79825385D01*
X40171983Y-80255649D01*
X39973954Y-80733732D01*
X39873000Y-81241263D01*
X30099000Y-81241263D01*
X30099000Y-53741263D01*
X39873000Y-53741263D01*
X39873000Y-54258737D01*
X39973954Y-54766268D01*
X40171983Y-55244351D01*
X40459476Y-55674615D01*
X40825385Y-56040524D01*
X41255649Y-56328017D01*
X41733732Y-56526046D01*
X42241263Y-56627000D01*
X42758737Y-56627000D01*
X43266268Y-56526046D01*
X43744351Y-56328017D01*
X44174615Y-56040524D01*
X44540524Y-55674615D01*
X44828017Y-55244351D01*
X45000000Y-54829148D01*
X45171983Y-55244351D01*
X45459476Y-55674615D01*
X45825385Y-56040524D01*
X46255649Y-56328017D01*
X46733732Y-56526046D01*
X47241263Y-56627000D01*
X47758737Y-56627000D01*
X48266268Y-56526046D01*
X48744351Y-56328017D01*
X49174615Y-56040524D01*
X49540524Y-55674615D01*
X49828017Y-55244351D01*
X50000000Y-54829148D01*
X50171983Y-55244351D01*
X50459476Y-55674615D01*
X50825385Y-56040524D01*
X51255649Y-56328017D01*
X51733732Y-56526046D01*
X52241263Y-56627000D01*
X52758737Y-56627000D01*
X53266268Y-56526046D01*
X53744351Y-56328017D01*
X54174615Y-56040524D01*
X54540524Y-55674615D01*
X54828017Y-55244351D01*
X55000000Y-54829148D01*
X55171983Y-55244351D01*
X55459476Y-55674615D01*
X55825385Y-56040524D01*
X56255649Y-56328017D01*
X56733732Y-56526046D01*
X57241263Y-56627000D01*
X57758737Y-56627000D01*
X58266268Y-56526046D01*
X58744351Y-56328017D01*
X59174615Y-56040524D01*
X59540524Y-55674615D01*
X59828017Y-55244351D01*
X60000000Y-54829148D01*
X60171983Y-55244351D01*
X60459476Y-55674615D01*
X60825385Y-56040524D01*
X61255649Y-56328017D01*
X61733732Y-56526046D01*
X62241263Y-56627000D01*
X62758737Y-56627000D01*
X63266268Y-56526046D01*
X63744351Y-56328017D01*
X64174615Y-56040524D01*
X64540524Y-55674615D01*
X64828017Y-55244351D01*
X65025000Y-54768793D01*
X65221983Y-55244351D01*
X65509476Y-55674615D01*
X65875385Y-56040524D01*
X66305649Y-56328017D01*
X66783732Y-56526046D01*
X67291263Y-56627000D01*
X67808737Y-56627000D01*
X68316268Y-56526046D01*
X68794351Y-56328017D01*
X69224615Y-56040524D01*
X69590524Y-55674615D01*
X69878017Y-55244351D01*
X70076046Y-54766268D01*
X70177000Y-54258737D01*
X70177000Y-54200000D01*
X92464463Y-54200000D01*
X92498531Y-54545902D01*
X92599427Y-54878512D01*
X92763274Y-55185047D01*
X92983774Y-55453726D01*
X93029429Y-55491194D01*
X93013263Y-55530367D01*
X93006809Y-55576495D01*
X93131015Y-55773000D01*
X93437245Y-55773000D01*
X93558988Y-55838073D01*
X93763134Y-55900000D01*
X93558988Y-55961927D01*
X93437245Y-56027000D01*
X93131015Y-56027000D01*
X93006809Y-56223505D01*
X93013263Y-56269633D01*
X93029429Y-56308806D01*
X92983774Y-56346274D01*
X92763274Y-56614953D01*
X92599427Y-56921488D01*
X92498531Y-57254098D01*
X92464463Y-57600000D01*
X92498531Y-57945902D01*
X92599427Y-58278512D01*
X92691090Y-58450000D01*
X92599427Y-58621488D01*
X92498531Y-58954098D01*
X92464463Y-59300000D01*
X92498531Y-59645902D01*
X92599427Y-59978512D01*
X92763274Y-60285047D01*
X92983774Y-60553726D01*
X93252453Y-60774226D01*
X93558988Y-60938073D01*
X93891598Y-61038969D01*
X94150821Y-61064500D01*
X94849179Y-61064500D01*
X95108402Y-61038969D01*
X95441012Y-60938073D01*
X95747547Y-60774226D01*
X96016226Y-60553726D01*
X96236726Y-60285047D01*
X96400573Y-59978512D01*
X96501469Y-59645902D01*
X96535537Y-59300000D01*
X96501469Y-58954098D01*
X96400573Y-58621488D01*
X96308910Y-58450000D01*
X96400573Y-58278512D01*
X96501469Y-57945902D01*
X96535537Y-57600000D01*
X96501469Y-57254098D01*
X96400573Y-56921488D01*
X96236726Y-56614953D01*
X96016226Y-56346274D01*
X95970571Y-56308806D01*
X95986737Y-56269633D01*
X95993191Y-56223505D01*
X95868985Y-56027000D01*
X95562755Y-56027000D01*
X95443033Y-55963007D01*
X113722612Y-55963007D01*
X114500000Y-56740395D01*
X115277388Y-55963007D01*
X115211863Y-55724140D01*
X114964884Y-55608240D01*
X114700040Y-55542750D01*
X114427508Y-55530188D01*
X114157762Y-55571035D01*
X113901168Y-55663723D01*
X113788137Y-55724140D01*
X113722612Y-55963007D01*
X95443033Y-55963007D01*
X95441012Y-55961927D01*
X95236866Y-55900000D01*
X95441012Y-55838073D01*
X95562755Y-55773000D01*
X95868985Y-55773000D01*
X95993191Y-55576495D01*
X95986737Y-55530367D01*
X95970571Y-55491194D01*
X96016226Y-55453726D01*
X96236726Y-55185047D01*
X96400573Y-54878512D01*
X96501469Y-54545902D01*
X96535537Y-54200000D01*
X96501469Y-53854098D01*
X96426667Y-53607508D01*
X96446250Y-53570871D01*
X96510693Y-53358431D01*
X96532453Y-53137500D01*
X96532453Y-51862500D01*
X96510693Y-51641569D01*
X96446250Y-51429129D01*
X96341600Y-51233343D01*
X96200765Y-51061735D01*
X96029157Y-50920900D01*
X95833371Y-50816250D01*
X95620931Y-50751807D01*
X95400000Y-50730047D01*
X93600000Y-50730047D01*
X93379069Y-50751807D01*
X93166629Y-50816250D01*
X92970843Y-50920900D01*
X92799235Y-51061735D01*
X92658400Y-51233343D01*
X92553750Y-51429129D01*
X92489307Y-51641569D01*
X92467547Y-51862500D01*
X92467547Y-53137500D01*
X92489307Y-53358431D01*
X92553750Y-53570871D01*
X92573333Y-53607508D01*
X92498531Y-53854098D01*
X92464463Y-54200000D01*
X70177000Y-54200000D01*
X70177000Y-53741263D01*
X70076046Y-53233732D01*
X69878017Y-52755649D01*
X69590524Y-52325385D01*
X69224615Y-51959476D01*
X68794351Y-51671983D01*
X68316268Y-51473954D01*
X67808737Y-51373000D01*
X67291263Y-51373000D01*
X66783732Y-51473954D01*
X66305649Y-51671983D01*
X65875385Y-51959476D01*
X65509476Y-52325385D01*
X65221983Y-52755649D01*
X65025000Y-53231207D01*
X64828017Y-52755649D01*
X64540524Y-52325385D01*
X64174615Y-51959476D01*
X63744351Y-51671983D01*
X63266268Y-51473954D01*
X62758737Y-51373000D01*
X62241263Y-51373000D01*
X61733732Y-51473954D01*
X61255649Y-51671983D01*
X60825385Y-51959476D01*
X60459476Y-52325385D01*
X60171983Y-52755649D01*
X60000000Y-53170852D01*
X59828017Y-52755649D01*
X59540524Y-52325385D01*
X59174615Y-51959476D01*
X58744351Y-51671983D01*
X58266268Y-51473954D01*
X57758737Y-51373000D01*
X57241263Y-51373000D01*
X56733732Y-51473954D01*
X56255649Y-51671983D01*
X55825385Y-51959476D01*
X55459476Y-52325385D01*
X55171983Y-52755649D01*
X55000000Y-53170852D01*
X54828017Y-52755649D01*
X54540524Y-52325385D01*
X54174615Y-51959476D01*
X53744351Y-51671983D01*
X53266268Y-51473954D01*
X52758737Y-51373000D01*
X52241263Y-51373000D01*
X51733732Y-51473954D01*
X51255649Y-51671983D01*
X50825385Y-51959476D01*
X50459476Y-52325385D01*
X50171983Y-52755649D01*
X50000000Y-53170852D01*
X49828017Y-52755649D01*
X49540524Y-52325385D01*
X49174615Y-51959476D01*
X48744351Y-51671983D01*
X48266268Y-51473954D01*
X47758737Y-51373000D01*
X47241263Y-51373000D01*
X46733732Y-51473954D01*
X46255649Y-51671983D01*
X45825385Y-51959476D01*
X45459476Y-52325385D01*
X45171983Y-52755649D01*
X45000000Y-53170852D01*
X44828017Y-52755649D01*
X44540524Y-52325385D01*
X44174615Y-51959476D01*
X43744351Y-51671983D01*
X43266268Y-51473954D01*
X42758737Y-51373000D01*
X42241263Y-51373000D01*
X41733732Y-51473954D01*
X41255649Y-51671983D01*
X40825385Y-51959476D01*
X40459476Y-52325385D01*
X40171983Y-52755649D01*
X39973954Y-53233732D01*
X39873000Y-53741263D01*
X30099000Y-53741263D01*
X30099000Y-50000000D01*
X101367547Y-50000000D01*
X101367547Y-52000000D01*
X101389307Y-52220931D01*
X101453750Y-52433371D01*
X101558400Y-52629157D01*
X101699235Y-52800765D01*
X101870843Y-52941600D01*
X102066629Y-53046250D01*
X102279069Y-53110693D01*
X102500000Y-53132453D01*
X104500000Y-53132453D01*
X104720931Y-53110693D01*
X104933371Y-53046250D01*
X105129157Y-52941600D01*
X105300765Y-52800765D01*
X105441600Y-52629157D01*
X105546250Y-52433371D01*
X105610693Y-52220931D01*
X105632453Y-52000000D01*
X105632453Y-51380434D01*
X106989876Y-51380434D01*
X107046498Y-51567107D01*
X107186601Y-51855382D01*
X107380252Y-52110785D01*
X107620008Y-52323501D01*
X107896656Y-52485356D01*
X108199565Y-52590129D01*
X108453000Y-52471315D01*
X108453000Y-51127000D01*
X108707000Y-51127000D01*
X108707000Y-52471315D01*
X108960435Y-52590129D01*
X109263344Y-52485356D01*
X109539992Y-52323501D01*
X109736630Y-52149040D01*
X121108091Y-52149040D01*
X121202930Y-52413881D01*
X121347615Y-52655131D01*
X121536586Y-52863519D01*
X121762580Y-53031037D01*
X122016913Y-53151246D01*
X122150961Y-53191904D01*
X122373000Y-53069915D01*
X122373000Y-51927000D01*
X122627000Y-51927000D01*
X122627000Y-53069915D01*
X122849039Y-53191904D01*
X122983087Y-53151246D01*
X123237420Y-53031037D01*
X123463414Y-52863519D01*
X123652385Y-52655131D01*
X123797070Y-52413881D01*
X123891909Y-52149040D01*
X123770624Y-51927000D01*
X122627000Y-51927000D01*
X122373000Y-51927000D01*
X121229376Y-51927000D01*
X121108091Y-52149040D01*
X109736630Y-52149040D01*
X109779748Y-52110785D01*
X109973399Y-51855382D01*
X110113502Y-51567107D01*
X110148731Y-51450960D01*
X121108091Y-51450960D01*
X121229376Y-51673000D01*
X122373000Y-51673000D01*
X122373000Y-50530085D01*
X122627000Y-50530085D01*
X122627000Y-51673000D01*
X123770624Y-51673000D01*
X123891909Y-51450960D01*
X123797070Y-51186119D01*
X123652385Y-50944869D01*
X123463414Y-50736481D01*
X123237420Y-50568963D01*
X122983087Y-50448754D01*
X122849039Y-50408096D01*
X122627000Y-50530085D01*
X122373000Y-50530085D01*
X122150961Y-50408096D01*
X122016913Y-50448754D01*
X121762580Y-50568963D01*
X121536586Y-50736481D01*
X121347615Y-50944869D01*
X121202930Y-51186119D01*
X121108091Y-51450960D01*
X110148731Y-51450960D01*
X110170124Y-51380434D01*
X110050777Y-51127000D01*
X108707000Y-51127000D01*
X108453000Y-51127000D01*
X107109223Y-51127000D01*
X106989876Y-51380434D01*
X105632453Y-51380434D01*
X105632453Y-50619566D01*
X106989876Y-50619566D01*
X107109223Y-50873000D01*
X108453000Y-50873000D01*
X108453000Y-49528685D01*
X108707000Y-49528685D01*
X108707000Y-50873000D01*
X110050777Y-50873000D01*
X110170124Y-50619566D01*
X110113502Y-50432893D01*
X109973399Y-50144618D01*
X109779748Y-49889215D01*
X109539992Y-49676499D01*
X109263344Y-49514644D01*
X108960435Y-49409871D01*
X108707000Y-49528685D01*
X108453000Y-49528685D01*
X108199565Y-49409871D01*
X107896656Y-49514644D01*
X107620008Y-49676499D01*
X107380252Y-49889215D01*
X107186601Y-50144618D01*
X107046498Y-50432893D01*
X106989876Y-50619566D01*
X105632453Y-50619566D01*
X105632453Y-50000000D01*
X105610693Y-49779069D01*
X105546250Y-49566629D01*
X105441600Y-49370843D01*
X105300765Y-49199235D01*
X105129157Y-49058400D01*
X104933371Y-48953750D01*
X104720931Y-48889307D01*
X104500000Y-48867547D01*
X102500000Y-48867547D01*
X102279069Y-48889307D01*
X102066629Y-48953750D01*
X101870843Y-49058400D01*
X101699235Y-49199235D01*
X101558400Y-49370843D01*
X101453750Y-49566629D01*
X101389307Y-49779069D01*
X101367547Y-50000000D01*
X30099000Y-50000000D01*
X30099000Y-33268000D01*
X32248715Y-33268000D01*
X32248715Y-43172000D01*
X61731286Y-43172000D01*
X61731286Y-41000000D01*
X92367547Y-41000000D01*
X92367547Y-43000000D01*
X92389307Y-43220931D01*
X92453750Y-43433371D01*
X92558400Y-43629157D01*
X92699235Y-43800765D01*
X92870843Y-43941600D01*
X93066629Y-44046250D01*
X93279069Y-44110693D01*
X93500000Y-44132453D01*
X95500000Y-44132453D01*
X95720931Y-44110693D01*
X95933371Y-44046250D01*
X96129157Y-43941600D01*
X96300765Y-43800765D01*
X96441600Y-43629157D01*
X96546250Y-43433371D01*
X96610693Y-43220931D01*
X96632453Y-43000000D01*
X96632453Y-41810207D01*
X103073000Y-41810207D01*
X103073000Y-42189793D01*
X103147053Y-42562085D01*
X103292315Y-42912777D01*
X103503201Y-43228391D01*
X103771609Y-43496799D01*
X104087223Y-43707685D01*
X104437915Y-43852947D01*
X104810207Y-43927000D01*
X105189793Y-43927000D01*
X105562085Y-43852947D01*
X105912777Y-43707685D01*
X106228391Y-43496799D01*
X106496799Y-43228391D01*
X106707685Y-42912777D01*
X106852947Y-42562085D01*
X106927000Y-42189793D01*
X106927000Y-41810207D01*
X106852947Y-41437915D01*
X106707685Y-41087223D01*
X106496799Y-40771609D01*
X106228391Y-40503201D01*
X105912777Y-40292315D01*
X105562085Y-40147053D01*
X105189793Y-40073000D01*
X104810207Y-40073000D01*
X104437915Y-40147053D01*
X104087223Y-40292315D01*
X103771609Y-40503201D01*
X103503201Y-40771609D01*
X103292315Y-41087223D01*
X103147053Y-41437915D01*
X103073000Y-41810207D01*
X96632453Y-41810207D01*
X96632453Y-41000000D01*
X96610693Y-40779069D01*
X96546250Y-40566629D01*
X96441600Y-40370843D01*
X96300765Y-40199235D01*
X96129157Y-40058400D01*
X95933371Y-39953750D01*
X95720931Y-39889307D01*
X95500000Y-39867547D01*
X93500000Y-39867547D01*
X93279069Y-39889307D01*
X93066629Y-39953750D01*
X92870843Y-40058400D01*
X92699235Y-40199235D01*
X92558400Y-40370843D01*
X92453750Y-40566629D01*
X92389307Y-40779069D01*
X92367547Y-41000000D01*
X61731286Y-41000000D01*
X61731286Y-38135413D01*
X93544192Y-38135413D01*
X93639956Y-38399814D01*
X93929571Y-38540704D01*
X94241108Y-38622384D01*
X94562595Y-38641718D01*
X94881675Y-38597961D01*
X95186088Y-38492795D01*
X95360044Y-38399814D01*
X95455808Y-38135413D01*
X95313097Y-37992702D01*
X104186903Y-37992702D01*
X104258486Y-38236671D01*
X104513996Y-38357571D01*
X104788184Y-38426300D01*
X105070512Y-38440217D01*
X105350130Y-38398787D01*
X105616292Y-38303603D01*
X105741514Y-38236671D01*
X105813097Y-37992702D01*
X105000000Y-37179605D01*
X104186903Y-37992702D01*
X95313097Y-37992702D01*
X94500000Y-37179605D01*
X93544192Y-38135413D01*
X61731286Y-38135413D01*
X61731286Y-37062595D01*
X92858282Y-37062595D01*
X92902039Y-37381675D01*
X93007205Y-37686088D01*
X93100186Y-37860044D01*
X93364587Y-37955808D01*
X94320395Y-37000000D01*
X94679605Y-37000000D01*
X95635413Y-37955808D01*
X95899814Y-37860044D01*
X96040704Y-37570429D01*
X96122384Y-37258892D01*
X96133713Y-37070512D01*
X103559783Y-37070512D01*
X103601213Y-37350130D01*
X103696397Y-37616292D01*
X103763329Y-37741514D01*
X104007298Y-37813097D01*
X104820395Y-37000000D01*
X105179605Y-37000000D01*
X105992702Y-37813097D01*
X106236671Y-37741514D01*
X106357571Y-37486004D01*
X106426300Y-37211816D01*
X106440217Y-36929488D01*
X106398787Y-36649870D01*
X106303603Y-36383708D01*
X106236671Y-36258486D01*
X105992702Y-36186903D01*
X105179605Y-37000000D01*
X104820395Y-37000000D01*
X104007298Y-36186903D01*
X103763329Y-36258486D01*
X103642429Y-36513996D01*
X103573700Y-36788184D01*
X103559783Y-37070512D01*
X96133713Y-37070512D01*
X96141718Y-36937405D01*
X96097961Y-36618325D01*
X95992795Y-36313912D01*
X95899814Y-36139956D01*
X95635413Y-36044192D01*
X94679605Y-37000000D01*
X94320395Y-37000000D01*
X93364587Y-36044192D01*
X93100186Y-36139956D01*
X92959296Y-36429571D01*
X92877616Y-36741108D01*
X92858282Y-37062595D01*
X61731286Y-37062595D01*
X61731286Y-35864587D01*
X93544192Y-35864587D01*
X94500000Y-36820395D01*
X95313097Y-36007298D01*
X104186903Y-36007298D01*
X105000000Y-36820395D01*
X105813097Y-36007298D01*
X105741514Y-35763329D01*
X105486004Y-35642429D01*
X105211816Y-35573700D01*
X104929488Y-35559783D01*
X104649870Y-35601213D01*
X104383708Y-35696397D01*
X104258486Y-35763329D01*
X104186903Y-36007298D01*
X95313097Y-36007298D01*
X95455808Y-35864587D01*
X95360044Y-35600186D01*
X95070429Y-35459296D01*
X94758892Y-35377616D01*
X94437405Y-35358282D01*
X94118325Y-35402039D01*
X93813912Y-35507205D01*
X93639956Y-35600186D01*
X93544192Y-35864587D01*
X61731286Y-35864587D01*
X61731286Y-33268000D01*
X32248715Y-33268000D01*
X30099000Y-33268000D01*
X30099000Y-28575000D01*
X136017000Y-28575000D01*
X136017000Y-105029000D01*
X136017000Y-105029000D01*
G37*
X136017000Y-105029000D02*
X61664494Y-105029000D01*
X61659621Y-105012934D01*
X61499639Y-104690743D01*
X61279875Y-104405954D01*
X61008774Y-104169511D01*
X60696754Y-103990500D01*
X60355806Y-103875801D01*
X60071000Y-103992146D01*
X60071000Y-105029000D01*
X59817000Y-105029000D01*
X59817000Y-103992146D01*
X59532194Y-103875801D01*
X59191246Y-103990500D01*
X58879226Y-104169511D01*
X58608125Y-104405954D01*
X58388361Y-104690743D01*
X58228379Y-105012934D01*
X58223506Y-105029000D01*
X34250279Y-105029000D01*
X34241574Y-104985239D01*
X34066160Y-104561752D01*
X33811499Y-104180624D01*
X33487376Y-103856501D01*
X33106248Y-103601840D01*
X32682761Y-103426426D01*
X32233189Y-103337000D01*
X31774811Y-103337000D01*
X31325239Y-103426426D01*
X30901752Y-103601840D01*
X30520624Y-103856501D01*
X30196501Y-104180624D01*
X30099000Y-104326545D01*
X30099000Y-102310207D01*
X78573000Y-102310207D01*
X78573000Y-102689793D01*
X78647053Y-103062085D01*
X78792315Y-103412777D01*
X79003201Y-103728391D01*
X79271609Y-103996799D01*
X79587223Y-104207685D01*
X79937915Y-104352947D01*
X80310207Y-104427000D01*
X80689793Y-104427000D01*
X81062085Y-104352947D01*
X81305792Y-104252000D01*
X83413931Y-104252000D01*
X83500000Y-104260477D01*
X83586068Y-104252000D01*
X83586069Y-104252000D01*
X83843452Y-104226650D01*
X84173705Y-104126469D01*
X84478069Y-103963783D01*
X84744845Y-103744845D01*
X84963783Y-103478069D01*
X85126469Y-103173705D01*
X85226650Y-102843452D01*
X85260477Y-102500000D01*
X85252000Y-102413931D01*
X85252000Y-95649040D01*
X88608091Y-95649040D01*
X88702930Y-95913881D01*
X88847615Y-96155131D01*
X89036586Y-96363519D01*
X89262580Y-96531037D01*
X89516913Y-96651246D01*
X89650961Y-96691904D01*
X89873000Y-96569915D01*
X89873000Y-95427000D01*
X90127000Y-95427000D01*
X90127000Y-96569915D01*
X90349039Y-96691904D01*
X90483087Y-96651246D01*
X90737420Y-96531037D01*
X90963414Y-96363519D01*
X91152385Y-96155131D01*
X91297070Y-95913881D01*
X91334195Y-95810207D01*
X120573000Y-95810207D01*
X120573000Y-96189793D01*
X120647053Y-96562085D01*
X120792315Y-96912777D01*
X121003201Y-97228391D01*
X121271609Y-97496799D01*
X121587223Y-97707685D01*
X121937915Y-97852947D01*
X122310207Y-97927000D01*
X122689793Y-97927000D01*
X123062085Y-97852947D01*
X123412777Y-97707685D01*
X123728391Y-97496799D01*
X123996799Y-97228391D01*
X124207685Y-96912777D01*
X124352947Y-96562085D01*
X124427000Y-96189793D01*
X124427000Y-95810207D01*
X124352947Y-95437915D01*
X124207685Y-95087223D01*
X123996799Y-94771609D01*
X123728391Y-94503201D01*
X123412777Y-94292315D01*
X123062085Y-94147053D01*
X122689793Y-94073000D01*
X122310207Y-94073000D01*
X121937915Y-94147053D01*
X121587223Y-94292315D01*
X121271609Y-94503201D01*
X121003201Y-94771609D01*
X120792315Y-95087223D01*
X120647053Y-95437915D01*
X120573000Y-95810207D01*
X91334195Y-95810207D01*
X91391909Y-95649040D01*
X91270624Y-95427000D01*
X90127000Y-95427000D01*
X89873000Y-95427000D01*
X88729376Y-95427000D01*
X88608091Y-95649040D01*
X85252000Y-95649040D01*
X85252000Y-94950960D01*
X88608091Y-94950960D01*
X88729376Y-95173000D01*
X89873000Y-95173000D01*
X89873000Y-94030085D01*
X90127000Y-94030085D01*
X90127000Y-95173000D01*
X91270624Y-95173000D01*
X91391909Y-94950960D01*
X91297070Y-94686119D01*
X91152385Y-94444869D01*
X90963414Y-94236481D01*
X90737420Y-94068963D01*
X90483087Y-93948754D01*
X90349039Y-93908096D01*
X90127000Y-94030085D01*
X89873000Y-94030085D01*
X89650961Y-93908096D01*
X89516913Y-93948754D01*
X89262580Y-94068963D01*
X89036586Y-94236481D01*
X88847615Y-94444869D01*
X88702930Y-94686119D01*
X88608091Y-94950960D01*
X85252000Y-94950960D01*
X85252000Y-81810207D01*
X87573000Y-81810207D01*
X87573000Y-82189793D01*
X87647053Y-82562085D01*
X87792315Y-82912777D01*
X88003201Y-83228391D01*
X88271609Y-83496799D01*
X88587223Y-83707685D01*
X88937915Y-83852947D01*
X89310207Y-83927000D01*
X89689793Y-83927000D01*
X90062085Y-83852947D01*
X90412777Y-83707685D01*
X90728391Y-83496799D01*
X90996799Y-83228391D01*
X91154280Y-82992702D01*
X93686903Y-82992702D01*
X93758486Y-83236671D01*
X94013996Y-83357571D01*
X94288184Y-83426300D01*
X94570512Y-83440217D01*
X94850130Y-83398787D01*
X95116292Y-83303603D01*
X95123032Y-83300000D01*
X120563677Y-83300000D01*
X120600883Y-83677758D01*
X120711071Y-84040999D01*
X120890006Y-84375763D01*
X121130813Y-84669187D01*
X121424237Y-84909994D01*
X121759001Y-85088929D01*
X122122242Y-85199117D01*
X122405342Y-85227000D01*
X122594658Y-85227000D01*
X122877758Y-85199117D01*
X123240999Y-85088929D01*
X123575763Y-84909994D01*
X123869187Y-84669187D01*
X124109994Y-84375763D01*
X124288929Y-84040999D01*
X124399117Y-83677758D01*
X124436323Y-83300000D01*
X124399117Y-82922242D01*
X124288929Y-82559001D01*
X124109994Y-82224237D01*
X123869187Y-81930813D01*
X123575763Y-81690006D01*
X123240999Y-81511071D01*
X122877758Y-81400883D01*
X122594658Y-81373000D01*
X122405342Y-81373000D01*
X122122242Y-81400883D01*
X121759001Y-81511071D01*
X121424237Y-81690006D01*
X121130813Y-81930813D01*
X120890006Y-82224237D01*
X120711071Y-82559001D01*
X120600883Y-82922242D01*
X120563677Y-83300000D01*
X95123032Y-83300000D01*
X95241514Y-83236671D01*
X95313097Y-82992702D01*
X94500000Y-82179605D01*
X93686903Y-82992702D01*
X91154280Y-82992702D01*
X91207685Y-82912777D01*
X91352947Y-82562085D01*
X91427000Y-82189793D01*
X91427000Y-82070512D01*
X93059783Y-82070512D01*
X93101213Y-82350130D01*
X93196397Y-82616292D01*
X93263329Y-82741514D01*
X93507298Y-82813097D01*
X94320395Y-82000000D01*
X94679605Y-82000000D01*
X95492702Y-82813097D01*
X95736671Y-82741514D01*
X95857571Y-82486004D01*
X95926300Y-82211816D01*
X95940217Y-81929488D01*
X95898787Y-81649870D01*
X95803603Y-81383708D01*
X95736671Y-81258486D01*
X95492702Y-81186903D01*
X94679605Y-82000000D01*
X94320395Y-82000000D01*
X93507298Y-81186903D01*
X93263329Y-81258486D01*
X93142429Y-81513996D01*
X93073700Y-81788184D01*
X93059783Y-82070512D01*
X91427000Y-82070512D01*
X91427000Y-81810207D01*
X91352947Y-81437915D01*
X91207685Y-81087223D01*
X91154281Y-81007298D01*
X93686903Y-81007298D01*
X94500000Y-81820395D01*
X95313097Y-81007298D01*
X95241514Y-80763329D01*
X94986004Y-80642429D01*
X94711816Y-80573700D01*
X94429488Y-80559783D01*
X94149870Y-80601213D01*
X93883708Y-80696397D01*
X93758486Y-80763329D01*
X93686903Y-81007298D01*
X91154281Y-81007298D01*
X90996799Y-80771609D01*
X90728391Y-80503201D01*
X90412777Y-80292315D01*
X90062085Y-80147053D01*
X89689793Y-80073000D01*
X89310207Y-80073000D01*
X88937915Y-80147053D01*
X88587223Y-80292315D01*
X88271609Y-80503201D01*
X88003201Y-80771609D01*
X87792315Y-81087223D01*
X87647053Y-81437915D01*
X87573000Y-81810207D01*
X85252000Y-81810207D01*
X85252000Y-77400000D01*
X120267547Y-77400000D01*
X120267547Y-79600000D01*
X120289307Y-79820931D01*
X120353750Y-80033371D01*
X120458400Y-80229157D01*
X120599235Y-80400765D01*
X120770843Y-80541600D01*
X120966629Y-80646250D01*
X121179069Y-80710693D01*
X121400000Y-80732453D01*
X123600000Y-80732453D01*
X123820931Y-80710693D01*
X124033371Y-80646250D01*
X124229157Y-80541600D01*
X124400765Y-80400765D01*
X124541600Y-80229157D01*
X124646250Y-80033371D01*
X124710693Y-79820931D01*
X124732453Y-79600000D01*
X124732453Y-77400000D01*
X124710693Y-77179069D01*
X124646250Y-76966629D01*
X124541600Y-76770843D01*
X124400765Y-76599235D01*
X124229157Y-76458400D01*
X124033371Y-76353750D01*
X123820931Y-76289307D01*
X123600000Y-76267547D01*
X121400000Y-76267547D01*
X121179069Y-76289307D01*
X120966629Y-76353750D01*
X120770843Y-76458400D01*
X120599235Y-76599235D01*
X120458400Y-76770843D01*
X120353750Y-76966629D01*
X120289307Y-77179069D01*
X120267547Y-77400000D01*
X85252000Y-77400000D01*
X85252000Y-70500000D01*
X87367547Y-70500000D01*
X87367547Y-72500000D01*
X87389307Y-72720931D01*
X87453750Y-72933371D01*
X87558400Y-73129157D01*
X87699235Y-73300765D01*
X87870843Y-73441600D01*
X88066629Y-73546250D01*
X88279069Y-73610693D01*
X88500000Y-73632453D01*
X90500000Y-73632453D01*
X90720931Y-73610693D01*
X90933371Y-73546250D01*
X91129157Y-73441600D01*
X91300765Y-73300765D01*
X91441600Y-73129157D01*
X91546250Y-72933371D01*
X91610693Y-72720931D01*
X91619115Y-72635413D01*
X93544192Y-72635413D01*
X93639956Y-72899814D01*
X93929571Y-73040704D01*
X94241108Y-73122384D01*
X94562595Y-73141718D01*
X94881675Y-73097961D01*
X95186088Y-72992795D01*
X95360044Y-72899814D01*
X95455808Y-72635413D01*
X94500000Y-71679605D01*
X93544192Y-72635413D01*
X91619115Y-72635413D01*
X91632453Y-72500000D01*
X91632453Y-71562595D01*
X92858282Y-71562595D01*
X92902039Y-71881675D01*
X93007205Y-72186088D01*
X93100186Y-72360044D01*
X93364587Y-72455808D01*
X94320395Y-71500000D01*
X94679605Y-71500000D01*
X95635413Y-72455808D01*
X95899814Y-72360044D01*
X95924058Y-72310207D01*
X128573000Y-72310207D01*
X128573000Y-72689793D01*
X128647053Y-73062085D01*
X128792315Y-73412777D01*
X129003201Y-73728391D01*
X129271609Y-73996799D01*
X129587223Y-74207685D01*
X129937915Y-74352947D01*
X130310207Y-74427000D01*
X130689793Y-74427000D01*
X131062085Y-74352947D01*
X131412777Y-74207685D01*
X131728391Y-73996799D01*
X131996799Y-73728391D01*
X132207685Y-73412777D01*
X132352947Y-73062085D01*
X132427000Y-72689793D01*
X132427000Y-72310207D01*
X132352947Y-71937915D01*
X132207685Y-71587223D01*
X131996799Y-71271609D01*
X131728391Y-71003201D01*
X131412777Y-70792315D01*
X131062085Y-70647053D01*
X130689793Y-70573000D01*
X130310207Y-70573000D01*
X129937915Y-70647053D01*
X129587223Y-70792315D01*
X129271609Y-71003201D01*
X129003201Y-71271609D01*
X128792315Y-71587223D01*
X128647053Y-71937915D01*
X128573000Y-72310207D01*
X95924058Y-72310207D01*
X96040704Y-72070429D01*
X96122384Y-71758892D01*
X96141718Y-71437405D01*
X96097961Y-71118325D01*
X95992795Y-70813912D01*
X95899814Y-70639956D01*
X95635413Y-70544192D01*
X94679605Y-71500000D01*
X94320395Y-71500000D01*
X93364587Y-70544192D01*
X93100186Y-70639956D01*
X92959296Y-70929571D01*
X92877616Y-71241108D01*
X92858282Y-71562595D01*
X91632453Y-71562595D01*
X91632453Y-70500000D01*
X91619116Y-70364587D01*
X93544192Y-70364587D01*
X94500000Y-71320395D01*
X95455808Y-70364587D01*
X95360044Y-70100186D01*
X95070429Y-69959296D01*
X94758892Y-69877616D01*
X94437405Y-69858282D01*
X94118325Y-69902039D01*
X93813912Y-70007205D01*
X93639956Y-70100186D01*
X93544192Y-70364587D01*
X91619116Y-70364587D01*
X91610693Y-70279069D01*
X91546250Y-70066629D01*
X91441600Y-69870843D01*
X91300765Y-69699235D01*
X91129157Y-69558400D01*
X90933371Y-69453750D01*
X90720931Y-69389307D01*
X90500000Y-69367547D01*
X88500000Y-69367547D01*
X88279069Y-69389307D01*
X88066629Y-69453750D01*
X87870843Y-69558400D01*
X87699235Y-69699235D01*
X87558400Y-69870843D01*
X87453750Y-70066629D01*
X87389307Y-70279069D01*
X87367547Y-70500000D01*
X85252000Y-70500000D01*
X85252000Y-68340000D01*
X120262225Y-68340000D01*
X120305223Y-68776568D01*
X120432565Y-69196359D01*
X120639358Y-69583241D01*
X120917654Y-69922346D01*
X121256759Y-70200642D01*
X121643641Y-70407435D01*
X122063432Y-70534777D01*
X122390599Y-70567000D01*
X122609401Y-70567000D01*
X122936568Y-70534777D01*
X123356359Y-70407435D01*
X123743241Y-70200642D01*
X124082346Y-69922346D01*
X124360642Y-69583241D01*
X124567435Y-69196359D01*
X124694777Y-68776568D01*
X124737775Y-68340000D01*
X124694777Y-67903432D01*
X124567435Y-67483641D01*
X124360642Y-67096759D01*
X124082346Y-66757654D01*
X123743241Y-66479358D01*
X123356359Y-66272565D01*
X123298509Y-66255016D01*
X123412777Y-66207685D01*
X123728391Y-65996799D01*
X123996799Y-65728391D01*
X124207685Y-65412777D01*
X124352947Y-65062085D01*
X124427000Y-64689793D01*
X124427000Y-64310207D01*
X124352947Y-63937915D01*
X124207685Y-63587223D01*
X123996799Y-63271609D01*
X123728391Y-63003201D01*
X123412777Y-62792315D01*
X123062085Y-62647053D01*
X122689793Y-62573000D01*
X122310207Y-62573000D01*
X121937915Y-62647053D01*
X121587223Y-62792315D01*
X121271609Y-63003201D01*
X121003201Y-63271609D01*
X120792315Y-63587223D01*
X120647053Y-63937915D01*
X120573000Y-64310207D01*
X120573000Y-64689793D01*
X120647053Y-65062085D01*
X120792315Y-65412777D01*
X121003201Y-65728391D01*
X121271609Y-65996799D01*
X121587223Y-66207685D01*
X121701491Y-66255016D01*
X121643641Y-66272565D01*
X121256759Y-66479358D01*
X120917654Y-66757654D01*
X120639358Y-67096759D01*
X120432565Y-67483641D01*
X120305223Y-67903432D01*
X120262225Y-68340000D01*
X85252000Y-68340000D01*
X85252000Y-59915422D01*
X85310207Y-59927000D01*
X85689793Y-59927000D01*
X86062085Y-59852947D01*
X86305792Y-59752000D01*
X87586069Y-59752000D01*
X87843452Y-59726650D01*
X88173705Y-59626469D01*
X88478069Y-59463783D01*
X88480863Y-59461490D01*
X88573000Y-59479817D01*
X88573000Y-59689793D01*
X88647053Y-60062085D01*
X88792315Y-60412777D01*
X88873000Y-60533531D01*
X88873001Y-63920065D01*
X88865128Y-64000000D01*
X88896542Y-64318948D01*
X88989575Y-64625638D01*
X89140654Y-64908286D01*
X89343971Y-65156029D01*
X89591714Y-65359346D01*
X89874362Y-65510425D01*
X90181052Y-65603458D01*
X90420075Y-65627000D01*
X90500000Y-65634872D01*
X90579925Y-65627000D01*
X118420075Y-65627000D01*
X118500000Y-65634872D01*
X118579925Y-65627000D01*
X118818948Y-65603458D01*
X119125638Y-65510425D01*
X119408286Y-65359346D01*
X119656029Y-65156029D01*
X119859346Y-64908286D01*
X120010425Y-64625638D01*
X120103458Y-64318948D01*
X120134872Y-64000000D01*
X120127000Y-63920075D01*
X120127000Y-60833531D01*
X120207685Y-60712777D01*
X120352947Y-60362085D01*
X120427000Y-59989793D01*
X120427000Y-59800000D01*
X128563677Y-59800000D01*
X128600883Y-60177758D01*
X128711071Y-60540999D01*
X128890006Y-60875763D01*
X129130813Y-61169187D01*
X129424237Y-61409994D01*
X129759001Y-61588929D01*
X130122242Y-61699117D01*
X130405342Y-61727000D01*
X130594658Y-61727000D01*
X130877758Y-61699117D01*
X131240999Y-61588929D01*
X131575763Y-61409994D01*
X131869187Y-61169187D01*
X132109994Y-60875763D01*
X132288929Y-60540999D01*
X132399117Y-60177758D01*
X132436323Y-59800000D01*
X132399117Y-59422242D01*
X132288929Y-59059001D01*
X132109994Y-58724237D01*
X131869187Y-58430813D01*
X131575763Y-58190006D01*
X131240999Y-58011071D01*
X130877758Y-57900883D01*
X130594658Y-57873000D01*
X130405342Y-57873000D01*
X130122242Y-57900883D01*
X129759001Y-58011071D01*
X129424237Y-58190006D01*
X129130813Y-58430813D01*
X128890006Y-58724237D01*
X128711071Y-59059001D01*
X128600883Y-59422242D01*
X128563677Y-59800000D01*
X120427000Y-59800000D01*
X120427000Y-59610207D01*
X120352947Y-59237915D01*
X120207685Y-58887223D01*
X119996799Y-58571609D01*
X119728391Y-58303201D01*
X119412777Y-58092315D01*
X119062085Y-57947053D01*
X118689793Y-57873000D01*
X118310207Y-57873000D01*
X117937915Y-57947053D01*
X117587223Y-58092315D01*
X117271609Y-58303201D01*
X117003201Y-58571609D01*
X116792315Y-58887223D01*
X116647053Y-59237915D01*
X116573000Y-59610207D01*
X116573000Y-59989793D01*
X116647053Y-60362085D01*
X116792315Y-60712777D01*
X116873000Y-60833531D01*
X116873000Y-61079925D01*
X116873001Y-61079935D01*
X116873001Y-62373000D01*
X116382453Y-62373000D01*
X116382453Y-61250000D01*
X116360693Y-61029069D01*
X116296250Y-60816629D01*
X116191600Y-60620843D01*
X116075954Y-60479928D01*
X116163376Y-60349093D01*
X116304868Y-60007501D01*
X116377000Y-59644868D01*
X116377000Y-59275132D01*
X116304868Y-58912499D01*
X116163376Y-58570907D01*
X115957961Y-58263482D01*
X115696518Y-58002039D01*
X115509930Y-57877364D01*
X115573451Y-57813843D01*
X115456995Y-57697387D01*
X115695860Y-57631863D01*
X115811760Y-57384884D01*
X115877250Y-57120040D01*
X115889812Y-56847508D01*
X115848965Y-56577762D01*
X115756277Y-56321168D01*
X115695860Y-56208137D01*
X115456993Y-56142612D01*
X114679605Y-56920000D01*
X114693748Y-56934143D01*
X114514143Y-57113748D01*
X114500000Y-57099605D01*
X114485858Y-57113748D01*
X114306253Y-56934143D01*
X114320395Y-56920000D01*
X113543007Y-56142612D01*
X113304140Y-56208137D01*
X113188240Y-56455116D01*
X113122750Y-56719960D01*
X113110188Y-56992492D01*
X113151035Y-57262238D01*
X113243723Y-57518832D01*
X113304140Y-57631863D01*
X113543005Y-57697387D01*
X113426549Y-57813843D01*
X113490070Y-57877364D01*
X113303482Y-58002039D01*
X113042039Y-58263482D01*
X112836624Y-58570907D01*
X112695132Y-58912499D01*
X112623000Y-59275132D01*
X112623000Y-59644868D01*
X112695132Y-60007501D01*
X112836624Y-60349093D01*
X112924046Y-60479928D01*
X112808400Y-60620843D01*
X112703750Y-60816629D01*
X112639307Y-61029069D01*
X112617547Y-61250000D01*
X112617547Y-62373000D01*
X92127000Y-62373000D01*
X92127000Y-60533531D01*
X92207685Y-60412777D01*
X92352947Y-60062085D01*
X92427000Y-59689793D01*
X92427000Y-59310207D01*
X92352947Y-58937915D01*
X92207685Y-58587223D01*
X91996799Y-58271609D01*
X91728391Y-58003201D01*
X91412777Y-57792315D01*
X91062085Y-57647053D01*
X90927000Y-57620183D01*
X90927000Y-57410207D01*
X90852947Y-57037915D01*
X90707685Y-56687223D01*
X90496799Y-56371609D01*
X90228391Y-56103201D01*
X89912777Y-55892315D01*
X89562085Y-55747053D01*
X89189793Y-55673000D01*
X88810207Y-55673000D01*
X88437915Y-55747053D01*
X88194208Y-55848000D01*
X87782561Y-55848000D01*
X87525178Y-55873350D01*
X87194925Y-55973531D01*
X86890561Y-56136217D01*
X86754353Y-56248000D01*
X86305792Y-56248000D01*
X86062085Y-56147053D01*
X85689793Y-56073000D01*
X85310207Y-56073000D01*
X84937915Y-56147053D01*
X84694208Y-56248000D01*
X83586069Y-56248000D01*
X83500000Y-56239523D01*
X83413932Y-56248000D01*
X83413931Y-56248000D01*
X83156548Y-56273350D01*
X82826295Y-56373531D01*
X82521931Y-56536217D01*
X82255155Y-56755155D01*
X82036217Y-57021931D01*
X81873531Y-57326295D01*
X81773350Y-57656548D01*
X81739523Y-58000000D01*
X81748001Y-58086079D01*
X81748000Y-100748000D01*
X81305792Y-100748000D01*
X81062085Y-100647053D01*
X80689793Y-100573000D01*
X80310207Y-100573000D01*
X79937915Y-100647053D01*
X79587223Y-100792315D01*
X79271609Y-101003201D01*
X79003201Y-101271609D01*
X78792315Y-101587223D01*
X78647053Y-101937915D01*
X78573000Y-102310207D01*
X30099000Y-102310207D01*
X30099000Y-95300358D01*
X54433000Y-95300358D01*
X54433000Y-95699642D01*
X54510896Y-96091254D01*
X54663696Y-96460145D01*
X54885526Y-96792137D01*
X55167863Y-97074474D01*
X55499855Y-97296304D01*
X55868746Y-97449104D01*
X56260358Y-97527000D01*
X56659642Y-97527000D01*
X57051254Y-97449104D01*
X57417158Y-97297541D01*
X57470843Y-97341600D01*
X57666629Y-97446250D01*
X57879069Y-97510693D01*
X58100000Y-97532453D01*
X59900000Y-97532453D01*
X60120931Y-97510693D01*
X60333371Y-97446250D01*
X60529157Y-97341600D01*
X60700765Y-97200765D01*
X60841600Y-97029157D01*
X60946250Y-96833371D01*
X61010693Y-96620931D01*
X61032453Y-96400000D01*
X61032453Y-95310207D01*
X62573000Y-95310207D01*
X62573000Y-95689793D01*
X62647053Y-96062085D01*
X62792315Y-96412777D01*
X63003201Y-96728391D01*
X63271609Y-96996799D01*
X63587223Y-97207685D01*
X63937915Y-97352947D01*
X64310207Y-97427000D01*
X64689793Y-97427000D01*
X65062085Y-97352947D01*
X65412777Y-97207685D01*
X65728391Y-96996799D01*
X65996799Y-96728391D01*
X66207685Y-96412777D01*
X66352947Y-96062085D01*
X66427000Y-95689793D01*
X66427000Y-95310207D01*
X69573000Y-95310207D01*
X69573000Y-95689793D01*
X69647053Y-96062085D01*
X69792315Y-96412777D01*
X70003201Y-96728391D01*
X70271609Y-96996799D01*
X70587223Y-97207685D01*
X70937915Y-97352947D01*
X71310207Y-97427000D01*
X71689793Y-97427000D01*
X72062085Y-97352947D01*
X72412777Y-97207685D01*
X72728391Y-96996799D01*
X72996799Y-96728391D01*
X73207685Y-96412777D01*
X73352947Y-96062085D01*
X73427000Y-95689793D01*
X73427000Y-95310207D01*
X73352947Y-94937915D01*
X73207685Y-94587223D01*
X72996799Y-94271609D01*
X72728391Y-94003201D01*
X72412777Y-93792315D01*
X72062085Y-93647053D01*
X71689793Y-93573000D01*
X71310207Y-93573000D01*
X70937915Y-93647053D01*
X70587223Y-93792315D01*
X70271609Y-94003201D01*
X70003201Y-94271609D01*
X69792315Y-94587223D01*
X69647053Y-94937915D01*
X69573000Y-95310207D01*
X66427000Y-95310207D01*
X66352947Y-94937915D01*
X66207685Y-94587223D01*
X65996799Y-94271609D01*
X65728391Y-94003201D01*
X65412777Y-93792315D01*
X65062085Y-93647053D01*
X64689793Y-93573000D01*
X64310207Y-93573000D01*
X63937915Y-93647053D01*
X63587223Y-93792315D01*
X63271609Y-94003201D01*
X63003201Y-94271609D01*
X62792315Y-94587223D01*
X62647053Y-94937915D01*
X62573000Y-95310207D01*
X61032453Y-95310207D01*
X61032453Y-94600000D01*
X61010693Y-94379069D01*
X60946250Y-94166629D01*
X60841600Y-93970843D01*
X60700765Y-93799235D01*
X60529157Y-93658400D01*
X60333371Y-93553750D01*
X60120931Y-93489307D01*
X59900000Y-93467547D01*
X58100000Y-93467547D01*
X57879069Y-93489307D01*
X57666629Y-93553750D01*
X57470843Y-93658400D01*
X57417158Y-93702459D01*
X57051254Y-93550896D01*
X56659642Y-93473000D01*
X56260358Y-93473000D01*
X55868746Y-93550896D01*
X55499855Y-93703696D01*
X55167863Y-93925526D01*
X54885526Y-94207863D01*
X54663696Y-94539855D01*
X54510896Y-94908746D01*
X54433000Y-95300358D01*
X30099000Y-95300358D01*
X30099000Y-81241263D01*
X39873000Y-81241263D01*
X39873000Y-81758737D01*
X39973954Y-82266268D01*
X40171983Y-82744351D01*
X40459476Y-83174615D01*
X40825385Y-83540524D01*
X41255649Y-83828017D01*
X41733732Y-84026046D01*
X42241263Y-84127000D01*
X42758737Y-84127000D01*
X43266268Y-84026046D01*
X43744351Y-83828017D01*
X44174615Y-83540524D01*
X44540524Y-83174615D01*
X44828017Y-82744351D01*
X45000000Y-82329148D01*
X45171983Y-82744351D01*
X45459476Y-83174615D01*
X45825385Y-83540524D01*
X46255649Y-83828017D01*
X46733732Y-84026046D01*
X47241263Y-84127000D01*
X47758737Y-84127000D01*
X48266268Y-84026046D01*
X48744351Y-83828017D01*
X49174615Y-83540524D01*
X49540524Y-83174615D01*
X49828017Y-82744351D01*
X50000000Y-82329148D01*
X50171983Y-82744351D01*
X50459476Y-83174615D01*
X50825385Y-83540524D01*
X51255649Y-83828017D01*
X51733732Y-84026046D01*
X52241263Y-84127000D01*
X52758737Y-84127000D01*
X53266268Y-84026046D01*
X53744351Y-83828017D01*
X54174615Y-83540524D01*
X54540524Y-83174615D01*
X54828017Y-82744351D01*
X55000000Y-82329148D01*
X55171983Y-82744351D01*
X55459476Y-83174615D01*
X55825385Y-83540524D01*
X56255649Y-83828017D01*
X56733732Y-84026046D01*
X57241263Y-84127000D01*
X57758737Y-84127000D01*
X58266268Y-84026046D01*
X58744351Y-83828017D01*
X59174615Y-83540524D01*
X59540524Y-83174615D01*
X59828017Y-82744351D01*
X60000000Y-82329148D01*
X60171983Y-82744351D01*
X60459476Y-83174615D01*
X60825385Y-83540524D01*
X61255649Y-83828017D01*
X61733732Y-84026046D01*
X62241263Y-84127000D01*
X62758737Y-84127000D01*
X63266268Y-84026046D01*
X63744351Y-83828017D01*
X64174615Y-83540524D01*
X64540524Y-83174615D01*
X64828017Y-82744351D01*
X65000000Y-82329148D01*
X65171983Y-82744351D01*
X65459476Y-83174615D01*
X65825385Y-83540524D01*
X66255649Y-83828017D01*
X66733732Y-84026046D01*
X67241263Y-84127000D01*
X67758737Y-84127000D01*
X68266268Y-84026046D01*
X68744351Y-83828017D01*
X69174615Y-83540524D01*
X69540524Y-83174615D01*
X69828017Y-82744351D01*
X70026046Y-82266268D01*
X70127000Y-81758737D01*
X70127000Y-81241263D01*
X70026046Y-80733732D01*
X69828017Y-80255649D01*
X69540524Y-79825385D01*
X69174615Y-79459476D01*
X68744351Y-79171983D01*
X68266268Y-78973954D01*
X67758737Y-78873000D01*
X67241263Y-78873000D01*
X66733732Y-78973954D01*
X66255649Y-79171983D01*
X65825385Y-79459476D01*
X65459476Y-79825385D01*
X65171983Y-80255649D01*
X65000000Y-80670852D01*
X64828017Y-80255649D01*
X64540524Y-79825385D01*
X64174615Y-79459476D01*
X63744351Y-79171983D01*
X63266268Y-78973954D01*
X62758737Y-78873000D01*
X62241263Y-78873000D01*
X61733732Y-78973954D01*
X61255649Y-79171983D01*
X60825385Y-79459476D01*
X60459476Y-79825385D01*
X60171983Y-80255649D01*
X60000000Y-80670852D01*
X59828017Y-80255649D01*
X59540524Y-79825385D01*
X59174615Y-79459476D01*
X58744351Y-79171983D01*
X58266268Y-78973954D01*
X57758737Y-78873000D01*
X57241263Y-78873000D01*
X56733732Y-78973954D01*
X56255649Y-79171983D01*
X55825385Y-79459476D01*
X55459476Y-79825385D01*
X55171983Y-80255649D01*
X55000000Y-80670852D01*
X54828017Y-80255649D01*
X54540524Y-79825385D01*
X54174615Y-79459476D01*
X53744351Y-79171983D01*
X53266268Y-78973954D01*
X52758737Y-78873000D01*
X52241263Y-78873000D01*
X51733732Y-78973954D01*
X51255649Y-79171983D01*
X50825385Y-79459476D01*
X50459476Y-79825385D01*
X50171983Y-80255649D01*
X50000000Y-80670852D01*
X49828017Y-80255649D01*
X49540524Y-79825385D01*
X49174615Y-79459476D01*
X48744351Y-79171983D01*
X48266268Y-78973954D01*
X47758737Y-78873000D01*
X47241263Y-78873000D01*
X46733732Y-78973954D01*
X46255649Y-79171983D01*
X45825385Y-79459476D01*
X45459476Y-79825385D01*
X45171983Y-80255649D01*
X45000000Y-80670852D01*
X44828017Y-80255649D01*
X44540524Y-79825385D01*
X44174615Y-79459476D01*
X43744351Y-79171983D01*
X43266268Y-78973954D01*
X42758737Y-78873000D01*
X42241263Y-78873000D01*
X41733732Y-78973954D01*
X41255649Y-79171983D01*
X40825385Y-79459476D01*
X40459476Y-79825385D01*
X40171983Y-80255649D01*
X39973954Y-80733732D01*
X39873000Y-81241263D01*
X30099000Y-81241263D01*
X30099000Y-53741263D01*
X39873000Y-53741263D01*
X39873000Y-54258737D01*
X39973954Y-54766268D01*
X40171983Y-55244351D01*
X40459476Y-55674615D01*
X40825385Y-56040524D01*
X41255649Y-56328017D01*
X41733732Y-56526046D01*
X42241263Y-56627000D01*
X42758737Y-56627000D01*
X43266268Y-56526046D01*
X43744351Y-56328017D01*
X44174615Y-56040524D01*
X44540524Y-55674615D01*
X44828017Y-55244351D01*
X45000000Y-54829148D01*
X45171983Y-55244351D01*
X45459476Y-55674615D01*
X45825385Y-56040524D01*
X46255649Y-56328017D01*
X46733732Y-56526046D01*
X47241263Y-56627000D01*
X47758737Y-56627000D01*
X48266268Y-56526046D01*
X48744351Y-56328017D01*
X49174615Y-56040524D01*
X49540524Y-55674615D01*
X49828017Y-55244351D01*
X50000000Y-54829148D01*
X50171983Y-55244351D01*
X50459476Y-55674615D01*
X50825385Y-56040524D01*
X51255649Y-56328017D01*
X51733732Y-56526046D01*
X52241263Y-56627000D01*
X52758737Y-56627000D01*
X53266268Y-56526046D01*
X53744351Y-56328017D01*
X54174615Y-56040524D01*
X54540524Y-55674615D01*
X54828017Y-55244351D01*
X55000000Y-54829148D01*
X55171983Y-55244351D01*
X55459476Y-55674615D01*
X55825385Y-56040524D01*
X56255649Y-56328017D01*
X56733732Y-56526046D01*
X57241263Y-56627000D01*
X57758737Y-56627000D01*
X58266268Y-56526046D01*
X58744351Y-56328017D01*
X59174615Y-56040524D01*
X59540524Y-55674615D01*
X59828017Y-55244351D01*
X60000000Y-54829148D01*
X60171983Y-55244351D01*
X60459476Y-55674615D01*
X60825385Y-56040524D01*
X61255649Y-56328017D01*
X61733732Y-56526046D01*
X62241263Y-56627000D01*
X62758737Y-56627000D01*
X63266268Y-56526046D01*
X63744351Y-56328017D01*
X64174615Y-56040524D01*
X64540524Y-55674615D01*
X64828017Y-55244351D01*
X65025000Y-54768793D01*
X65221983Y-55244351D01*
X65509476Y-55674615D01*
X65875385Y-56040524D01*
X66305649Y-56328017D01*
X66783732Y-56526046D01*
X67291263Y-56627000D01*
X67808737Y-56627000D01*
X68316268Y-56526046D01*
X68794351Y-56328017D01*
X69224615Y-56040524D01*
X69590524Y-55674615D01*
X69878017Y-55244351D01*
X70076046Y-54766268D01*
X70177000Y-54258737D01*
X70177000Y-54200000D01*
X92464463Y-54200000D01*
X92498531Y-54545902D01*
X92599427Y-54878512D01*
X92763274Y-55185047D01*
X92983774Y-55453726D01*
X93029429Y-55491194D01*
X93013263Y-55530367D01*
X93006809Y-55576495D01*
X93131015Y-55773000D01*
X93437245Y-55773000D01*
X93558988Y-55838073D01*
X93763134Y-55900000D01*
X93558988Y-55961927D01*
X93437245Y-56027000D01*
X93131015Y-56027000D01*
X93006809Y-56223505D01*
X93013263Y-56269633D01*
X93029429Y-56308806D01*
X92983774Y-56346274D01*
X92763274Y-56614953D01*
X92599427Y-56921488D01*
X92498531Y-57254098D01*
X92464463Y-57600000D01*
X92498531Y-57945902D01*
X92599427Y-58278512D01*
X92691090Y-58450000D01*
X92599427Y-58621488D01*
X92498531Y-58954098D01*
X92464463Y-59300000D01*
X92498531Y-59645902D01*
X92599427Y-59978512D01*
X92763274Y-60285047D01*
X92983774Y-60553726D01*
X93252453Y-60774226D01*
X93558988Y-60938073D01*
X93891598Y-61038969D01*
X94150821Y-61064500D01*
X94849179Y-61064500D01*
X95108402Y-61038969D01*
X95441012Y-60938073D01*
X95747547Y-60774226D01*
X96016226Y-60553726D01*
X96236726Y-60285047D01*
X96400573Y-59978512D01*
X96501469Y-59645902D01*
X96535537Y-59300000D01*
X96501469Y-58954098D01*
X96400573Y-58621488D01*
X96308910Y-58450000D01*
X96400573Y-58278512D01*
X96501469Y-57945902D01*
X96535537Y-57600000D01*
X96501469Y-57254098D01*
X96400573Y-56921488D01*
X96236726Y-56614953D01*
X96016226Y-56346274D01*
X95970571Y-56308806D01*
X95986737Y-56269633D01*
X95993191Y-56223505D01*
X95868985Y-56027000D01*
X95562755Y-56027000D01*
X95443033Y-55963007D01*
X113722612Y-55963007D01*
X114500000Y-56740395D01*
X115277388Y-55963007D01*
X115211863Y-55724140D01*
X114964884Y-55608240D01*
X114700040Y-55542750D01*
X114427508Y-55530188D01*
X114157762Y-55571035D01*
X113901168Y-55663723D01*
X113788137Y-55724140D01*
X113722612Y-55963007D01*
X95443033Y-55963007D01*
X95441012Y-55961927D01*
X95236866Y-55900000D01*
X95441012Y-55838073D01*
X95562755Y-55773000D01*
X95868985Y-55773000D01*
X95993191Y-55576495D01*
X95986737Y-55530367D01*
X95970571Y-55491194D01*
X96016226Y-55453726D01*
X96236726Y-55185047D01*
X96400573Y-54878512D01*
X96501469Y-54545902D01*
X96535537Y-54200000D01*
X96501469Y-53854098D01*
X96426667Y-53607508D01*
X96446250Y-53570871D01*
X96510693Y-53358431D01*
X96532453Y-53137500D01*
X96532453Y-51862500D01*
X96510693Y-51641569D01*
X96446250Y-51429129D01*
X96341600Y-51233343D01*
X96200765Y-51061735D01*
X96029157Y-50920900D01*
X95833371Y-50816250D01*
X95620931Y-50751807D01*
X95400000Y-50730047D01*
X93600000Y-50730047D01*
X93379069Y-50751807D01*
X93166629Y-50816250D01*
X92970843Y-50920900D01*
X92799235Y-51061735D01*
X92658400Y-51233343D01*
X92553750Y-51429129D01*
X92489307Y-51641569D01*
X92467547Y-51862500D01*
X92467547Y-53137500D01*
X92489307Y-53358431D01*
X92553750Y-53570871D01*
X92573333Y-53607508D01*
X92498531Y-53854098D01*
X92464463Y-54200000D01*
X70177000Y-54200000D01*
X70177000Y-53741263D01*
X70076046Y-53233732D01*
X69878017Y-52755649D01*
X69590524Y-52325385D01*
X69224615Y-51959476D01*
X68794351Y-51671983D01*
X68316268Y-51473954D01*
X67808737Y-51373000D01*
X67291263Y-51373000D01*
X66783732Y-51473954D01*
X66305649Y-51671983D01*
X65875385Y-51959476D01*
X65509476Y-52325385D01*
X65221983Y-52755649D01*
X65025000Y-53231207D01*
X64828017Y-52755649D01*
X64540524Y-52325385D01*
X64174615Y-51959476D01*
X63744351Y-51671983D01*
X63266268Y-51473954D01*
X62758737Y-51373000D01*
X62241263Y-51373000D01*
X61733732Y-51473954D01*
X61255649Y-51671983D01*
X60825385Y-51959476D01*
X60459476Y-52325385D01*
X60171983Y-52755649D01*
X60000000Y-53170852D01*
X59828017Y-52755649D01*
X59540524Y-52325385D01*
X59174615Y-51959476D01*
X58744351Y-51671983D01*
X58266268Y-51473954D01*
X57758737Y-51373000D01*
X57241263Y-51373000D01*
X56733732Y-51473954D01*
X56255649Y-51671983D01*
X55825385Y-51959476D01*
X55459476Y-52325385D01*
X55171983Y-52755649D01*
X55000000Y-53170852D01*
X54828017Y-52755649D01*
X54540524Y-52325385D01*
X54174615Y-51959476D01*
X53744351Y-51671983D01*
X53266268Y-51473954D01*
X52758737Y-51373000D01*
X52241263Y-51373000D01*
X51733732Y-51473954D01*
X51255649Y-51671983D01*
X50825385Y-51959476D01*
X50459476Y-52325385D01*
X50171983Y-52755649D01*
X50000000Y-53170852D01*
X49828017Y-52755649D01*
X49540524Y-52325385D01*
X49174615Y-51959476D01*
X48744351Y-51671983D01*
X48266268Y-51473954D01*
X47758737Y-51373000D01*
X47241263Y-51373000D01*
X46733732Y-51473954D01*
X46255649Y-51671983D01*
X45825385Y-51959476D01*
X45459476Y-52325385D01*
X45171983Y-52755649D01*
X45000000Y-53170852D01*
X44828017Y-52755649D01*
X44540524Y-52325385D01*
X44174615Y-51959476D01*
X43744351Y-51671983D01*
X43266268Y-51473954D01*
X42758737Y-51373000D01*
X42241263Y-51373000D01*
X41733732Y-51473954D01*
X41255649Y-51671983D01*
X40825385Y-51959476D01*
X40459476Y-52325385D01*
X40171983Y-52755649D01*
X39973954Y-53233732D01*
X39873000Y-53741263D01*
X30099000Y-53741263D01*
X30099000Y-50000000D01*
X101367547Y-50000000D01*
X101367547Y-52000000D01*
X101389307Y-52220931D01*
X101453750Y-52433371D01*
X101558400Y-52629157D01*
X101699235Y-52800765D01*
X101870843Y-52941600D01*
X102066629Y-53046250D01*
X102279069Y-53110693D01*
X102500000Y-53132453D01*
X104500000Y-53132453D01*
X104720931Y-53110693D01*
X104933371Y-53046250D01*
X105129157Y-52941600D01*
X105300765Y-52800765D01*
X105441600Y-52629157D01*
X105546250Y-52433371D01*
X105610693Y-52220931D01*
X105632453Y-52000000D01*
X105632453Y-51380434D01*
X106989876Y-51380434D01*
X107046498Y-51567107D01*
X107186601Y-51855382D01*
X107380252Y-52110785D01*
X107620008Y-52323501D01*
X107896656Y-52485356D01*
X108199565Y-52590129D01*
X108453000Y-52471315D01*
X108453000Y-51127000D01*
X108707000Y-51127000D01*
X108707000Y-52471315D01*
X108960435Y-52590129D01*
X109263344Y-52485356D01*
X109539992Y-52323501D01*
X109736630Y-52149040D01*
X121108091Y-52149040D01*
X121202930Y-52413881D01*
X121347615Y-52655131D01*
X121536586Y-52863519D01*
X121762580Y-53031037D01*
X122016913Y-53151246D01*
X122150961Y-53191904D01*
X122373000Y-53069915D01*
X122373000Y-51927000D01*
X122627000Y-51927000D01*
X122627000Y-53069915D01*
X122849039Y-53191904D01*
X122983087Y-53151246D01*
X123237420Y-53031037D01*
X123463414Y-52863519D01*
X123652385Y-52655131D01*
X123797070Y-52413881D01*
X123891909Y-52149040D01*
X123770624Y-51927000D01*
X122627000Y-51927000D01*
X122373000Y-51927000D01*
X121229376Y-51927000D01*
X121108091Y-52149040D01*
X109736630Y-52149040D01*
X109779748Y-52110785D01*
X109973399Y-51855382D01*
X110113502Y-51567107D01*
X110148731Y-51450960D01*
X121108091Y-51450960D01*
X121229376Y-51673000D01*
X122373000Y-51673000D01*
X122373000Y-50530085D01*
X122627000Y-50530085D01*
X122627000Y-51673000D01*
X123770624Y-51673000D01*
X123891909Y-51450960D01*
X123797070Y-51186119D01*
X123652385Y-50944869D01*
X123463414Y-50736481D01*
X123237420Y-50568963D01*
X122983087Y-50448754D01*
X122849039Y-50408096D01*
X122627000Y-50530085D01*
X122373000Y-50530085D01*
X122150961Y-50408096D01*
X122016913Y-50448754D01*
X121762580Y-50568963D01*
X121536586Y-50736481D01*
X121347615Y-50944869D01*
X121202930Y-51186119D01*
X121108091Y-51450960D01*
X110148731Y-51450960D01*
X110170124Y-51380434D01*
X110050777Y-51127000D01*
X108707000Y-51127000D01*
X108453000Y-51127000D01*
X107109223Y-51127000D01*
X106989876Y-51380434D01*
X105632453Y-51380434D01*
X105632453Y-50619566D01*
X106989876Y-50619566D01*
X107109223Y-50873000D01*
X108453000Y-50873000D01*
X108453000Y-49528685D01*
X108707000Y-49528685D01*
X108707000Y-50873000D01*
X110050777Y-50873000D01*
X110170124Y-50619566D01*
X110113502Y-50432893D01*
X109973399Y-50144618D01*
X109779748Y-49889215D01*
X109539992Y-49676499D01*
X109263344Y-49514644D01*
X108960435Y-49409871D01*
X108707000Y-49528685D01*
X108453000Y-49528685D01*
X108199565Y-49409871D01*
X107896656Y-49514644D01*
X107620008Y-49676499D01*
X107380252Y-49889215D01*
X107186601Y-50144618D01*
X107046498Y-50432893D01*
X106989876Y-50619566D01*
X105632453Y-50619566D01*
X105632453Y-50000000D01*
X105610693Y-49779069D01*
X105546250Y-49566629D01*
X105441600Y-49370843D01*
X105300765Y-49199235D01*
X105129157Y-49058400D01*
X104933371Y-48953750D01*
X104720931Y-48889307D01*
X104500000Y-48867547D01*
X102500000Y-48867547D01*
X102279069Y-48889307D01*
X102066629Y-48953750D01*
X101870843Y-49058400D01*
X101699235Y-49199235D01*
X101558400Y-49370843D01*
X101453750Y-49566629D01*
X101389307Y-49779069D01*
X101367547Y-50000000D01*
X30099000Y-50000000D01*
X30099000Y-33268000D01*
X32248715Y-33268000D01*
X32248715Y-43172000D01*
X61731286Y-43172000D01*
X61731286Y-41000000D01*
X92367547Y-41000000D01*
X92367547Y-43000000D01*
X92389307Y-43220931D01*
X92453750Y-43433371D01*
X92558400Y-43629157D01*
X92699235Y-43800765D01*
X92870843Y-43941600D01*
X93066629Y-44046250D01*
X93279069Y-44110693D01*
X93500000Y-44132453D01*
X95500000Y-44132453D01*
X95720931Y-44110693D01*
X95933371Y-44046250D01*
X96129157Y-43941600D01*
X96300765Y-43800765D01*
X96441600Y-43629157D01*
X96546250Y-43433371D01*
X96610693Y-43220931D01*
X96632453Y-43000000D01*
X96632453Y-41810207D01*
X103073000Y-41810207D01*
X103073000Y-42189793D01*
X103147053Y-42562085D01*
X103292315Y-42912777D01*
X103503201Y-43228391D01*
X103771609Y-43496799D01*
X104087223Y-43707685D01*
X104437915Y-43852947D01*
X104810207Y-43927000D01*
X105189793Y-43927000D01*
X105562085Y-43852947D01*
X105912777Y-43707685D01*
X106228391Y-43496799D01*
X106496799Y-43228391D01*
X106707685Y-42912777D01*
X106852947Y-42562085D01*
X106927000Y-42189793D01*
X106927000Y-41810207D01*
X106852947Y-41437915D01*
X106707685Y-41087223D01*
X106496799Y-40771609D01*
X106228391Y-40503201D01*
X105912777Y-40292315D01*
X105562085Y-40147053D01*
X105189793Y-40073000D01*
X104810207Y-40073000D01*
X104437915Y-40147053D01*
X104087223Y-40292315D01*
X103771609Y-40503201D01*
X103503201Y-40771609D01*
X103292315Y-41087223D01*
X103147053Y-41437915D01*
X103073000Y-41810207D01*
X96632453Y-41810207D01*
X96632453Y-41000000D01*
X96610693Y-40779069D01*
X96546250Y-40566629D01*
X96441600Y-40370843D01*
X96300765Y-40199235D01*
X96129157Y-40058400D01*
X95933371Y-39953750D01*
X95720931Y-39889307D01*
X95500000Y-39867547D01*
X93500000Y-39867547D01*
X93279069Y-39889307D01*
X93066629Y-39953750D01*
X92870843Y-40058400D01*
X92699235Y-40199235D01*
X92558400Y-40370843D01*
X92453750Y-40566629D01*
X92389307Y-40779069D01*
X92367547Y-41000000D01*
X61731286Y-41000000D01*
X61731286Y-38135413D01*
X93544192Y-38135413D01*
X93639956Y-38399814D01*
X93929571Y-38540704D01*
X94241108Y-38622384D01*
X94562595Y-38641718D01*
X94881675Y-38597961D01*
X95186088Y-38492795D01*
X95360044Y-38399814D01*
X95455808Y-38135413D01*
X95313097Y-37992702D01*
X104186903Y-37992702D01*
X104258486Y-38236671D01*
X104513996Y-38357571D01*
X104788184Y-38426300D01*
X105070512Y-38440217D01*
X105350130Y-38398787D01*
X105616292Y-38303603D01*
X105741514Y-38236671D01*
X105813097Y-37992702D01*
X105000000Y-37179605D01*
X104186903Y-37992702D01*
X95313097Y-37992702D01*
X94500000Y-37179605D01*
X93544192Y-38135413D01*
X61731286Y-38135413D01*
X61731286Y-37062595D01*
X92858282Y-37062595D01*
X92902039Y-37381675D01*
X93007205Y-37686088D01*
X93100186Y-37860044D01*
X93364587Y-37955808D01*
X94320395Y-37000000D01*
X94679605Y-37000000D01*
X95635413Y-37955808D01*
X95899814Y-37860044D01*
X96040704Y-37570429D01*
X96122384Y-37258892D01*
X96133713Y-37070512D01*
X103559783Y-37070512D01*
X103601213Y-37350130D01*
X103696397Y-37616292D01*
X103763329Y-37741514D01*
X104007298Y-37813097D01*
X104820395Y-37000000D01*
X105179605Y-37000000D01*
X105992702Y-37813097D01*
X106236671Y-37741514D01*
X106357571Y-37486004D01*
X106426300Y-37211816D01*
X106440217Y-36929488D01*
X106398787Y-36649870D01*
X106303603Y-36383708D01*
X106236671Y-36258486D01*
X105992702Y-36186903D01*
X105179605Y-37000000D01*
X104820395Y-37000000D01*
X104007298Y-36186903D01*
X103763329Y-36258486D01*
X103642429Y-36513996D01*
X103573700Y-36788184D01*
X103559783Y-37070512D01*
X96133713Y-37070512D01*
X96141718Y-36937405D01*
X96097961Y-36618325D01*
X95992795Y-36313912D01*
X95899814Y-36139956D01*
X95635413Y-36044192D01*
X94679605Y-37000000D01*
X94320395Y-37000000D01*
X93364587Y-36044192D01*
X93100186Y-36139956D01*
X92959296Y-36429571D01*
X92877616Y-36741108D01*
X92858282Y-37062595D01*
X61731286Y-37062595D01*
X61731286Y-35864587D01*
X93544192Y-35864587D01*
X94500000Y-36820395D01*
X95313097Y-36007298D01*
X104186903Y-36007298D01*
X105000000Y-36820395D01*
X105813097Y-36007298D01*
X105741514Y-35763329D01*
X105486004Y-35642429D01*
X105211816Y-35573700D01*
X104929488Y-35559783D01*
X104649870Y-35601213D01*
X104383708Y-35696397D01*
X104258486Y-35763329D01*
X104186903Y-36007298D01*
X95313097Y-36007298D01*
X95455808Y-35864587D01*
X95360044Y-35600186D01*
X95070429Y-35459296D01*
X94758892Y-35377616D01*
X94437405Y-35358282D01*
X94118325Y-35402039D01*
X93813912Y-35507205D01*
X93639956Y-35600186D01*
X93544192Y-35864587D01*
X61731286Y-35864587D01*
X61731286Y-33268000D01*
X32248715Y-33268000D01*
X30099000Y-33268000D01*
X30099000Y-28575000D01*
X136017000Y-28575000D01*
X136017000Y-105029000D01*
M02*
