G04 #@! TF.GenerationSoftware,KiCad,Pcbnew,5.1.3-ffb9f22~84~ubuntu16.04.1*
G04 #@! TF.CreationDate,2019-08-02T01:01:21-03:00*
G04 #@! TF.ProjectId,buck30v15v,6275636b-3330-4763-9135-762e6b696361,rev?*
G04 #@! TF.SameCoordinates,Original*
G04 #@! TF.FileFunction,Copper,L2,Bot*
G04 #@! TF.FilePolarity,Positive*
%FSLAX46Y46*%
G04 Gerber Fmt 4.6, Leading zero omitted, Abs format (unit mm)*
G04 Created by KiCad (PCBNEW 5.1.3-ffb9f22~84~ubuntu16.04.1) date 2019-08-02 01:01:21*
%MOMM*%
%LPD*%
G04 APERTURE LIST*
%ADD10R,2.000000X2.000000*%
%ADD11C,2.000000*%
%ADD12C,1.600000*%
%ADD13O,2.000000X2.000000*%
%ADD14R,2.200000X2.200000*%
%ADD15O,2.200000X2.200000*%
%ADD16R,1.800000X1.800000*%
%ADD17C,1.800000*%
%ADD18C,2.600000*%
%ADD19R,2.600000X2.600000*%
%ADD20C,3.000000*%
%ADD21C,1.500000*%
%ADD22R,1.500000X1.500000*%
%ADD23O,1.600000X1.600000*%
%ADD24C,2.400000*%
%ADD25O,2.400000X2.400000*%
%ADD26C,1.440000*%
%ADD27R,1.800000X1.275000*%
%ADD28O,1.800000X1.275000*%
%ADD29C,3.100000*%
%ADD30C,0.250000*%
%ADD31C,1.000000*%
%ADD32C,1.500000*%
%ADD33C,1.250000*%
%ADD34C,2.000000*%
%ADD35C,0.254000*%
G04 APERTURE END LIST*
D10*
X94500000Y-42000000D03*
D11*
X94500000Y-37000000D03*
D12*
X105000000Y-42000000D03*
X105000000Y-37000000D03*
D11*
X94500000Y-71500000D03*
D10*
X89500000Y-71500000D03*
D12*
X94500000Y-82000000D03*
X89500000Y-82000000D03*
D10*
X103500000Y-51000000D03*
D13*
X108580000Y-51000000D03*
D14*
X122500000Y-78500000D03*
D15*
X122500000Y-68340000D03*
D16*
X59000000Y-95500000D03*
D17*
X56460000Y-95500000D03*
D18*
X122936000Y-117348000D03*
D19*
X117856000Y-117348000D03*
X62992000Y-117348000D03*
D18*
X68072000Y-117348000D03*
D20*
X62500000Y-81500000D03*
X57500000Y-81500000D03*
X52500000Y-81500000D03*
X47500000Y-81500000D03*
X62500000Y-54000000D03*
X57500000Y-54000000D03*
X52500000Y-54000000D03*
X47500000Y-54000000D03*
X42500000Y-81500000D03*
X67500000Y-81500000D03*
X67550000Y-54000000D03*
X42500000Y-54000000D03*
D21*
X114500000Y-59460000D03*
X114500000Y-56920000D03*
D22*
X114500000Y-62000000D03*
D23*
X71500000Y-108200000D03*
D12*
X71500000Y-95500000D03*
X90000000Y-108000000D03*
D23*
X90000000Y-95300000D03*
X64500000Y-108200000D03*
D12*
X64500000Y-95500000D03*
D24*
X32004000Y-105664000D03*
D25*
X59944000Y-105664000D03*
D12*
X122500000Y-96000000D03*
D23*
X122500000Y-83300000D03*
D12*
X130500000Y-72500000D03*
D23*
X130500000Y-59800000D03*
X122500000Y-51800000D03*
D12*
X122500000Y-64500000D03*
D26*
X78000000Y-108000000D03*
X80540000Y-108000000D03*
X83080000Y-108000000D03*
D27*
X94500000Y-52500000D03*
D28*
X94500000Y-54200000D03*
X94500000Y-55900000D03*
X94500000Y-57600000D03*
X94500000Y-59300000D03*
D20*
X54864000Y-117348000D03*
X32264000Y-117348000D03*
D29*
X25000000Y-120000000D03*
X25000000Y-33500000D03*
X141500000Y-33500000D03*
X141500000Y-120000000D03*
D12*
X115500000Y-51000000D03*
X115500000Y-37000000D03*
X100500000Y-71500000D03*
X74676000Y-117348000D03*
X111760000Y-117348000D03*
X103500000Y-59000000D03*
X90500000Y-59500000D03*
X118500000Y-59800000D03*
X85500000Y-58000000D03*
X80500000Y-102500000D03*
X89000000Y-57600000D03*
D30*
X123080000Y-96580000D02*
X122500000Y-96000000D01*
D31*
X122500000Y-96000000D02*
X130500000Y-96000000D01*
X130500000Y-96000000D02*
X130500000Y-72500000D01*
X130500000Y-72500000D02*
X133500000Y-72500000D01*
D30*
X95750000Y-42000000D02*
X105000000Y-42000000D01*
X94500000Y-42000000D02*
X95750000Y-42000000D01*
X94500000Y-52500000D02*
X94500000Y-42000000D01*
D31*
X133500000Y-30000000D02*
X88000000Y-30000000D01*
D30*
X88000000Y-42000000D02*
X94500000Y-42000000D01*
D31*
X133500000Y-32000000D02*
X133500000Y-35000000D01*
D30*
X133500000Y-35000000D02*
X133500000Y-34500000D01*
D31*
X133500000Y-72500000D02*
X133500000Y-35000000D01*
D30*
X88000000Y-32000000D02*
X88000000Y-42000000D01*
X133500000Y-32000000D02*
X133500000Y-30000000D01*
X88000000Y-32000000D02*
X88000000Y-30000000D01*
X94500000Y-82000000D02*
X94500000Y-71500000D01*
X94500000Y-71500000D02*
X94500000Y-62000000D01*
X94500000Y-62000000D02*
X95575001Y-60924999D01*
X110424999Y-60924999D02*
X110424999Y-57075001D01*
X110580000Y-56920000D02*
X114500000Y-56920000D01*
X110424999Y-57075001D02*
X110580000Y-56920000D01*
X119620000Y-51800000D02*
X122500000Y-51800000D01*
X114500000Y-56920000D02*
X119620000Y-51800000D01*
X118820000Y-51000000D02*
X115500000Y-51000000D01*
X119620000Y-51800000D02*
X118820000Y-51000000D01*
X103680000Y-55900000D02*
X108580000Y-51000000D01*
X98900000Y-60900000D02*
X98924999Y-60924999D01*
X98900000Y-55900000D02*
X103680000Y-55900000D01*
D31*
X94500000Y-55900000D02*
X98900000Y-55900000D01*
D30*
X95575001Y-60924999D02*
X98924999Y-60924999D01*
X98900000Y-55900000D02*
X98900000Y-60900000D01*
X98924999Y-60924999D02*
X110424999Y-60924999D01*
X108580000Y-51000000D02*
X108580000Y-49585787D01*
X108000000Y-37500000D02*
X107500000Y-37000000D01*
X108580000Y-49585787D02*
X108000000Y-49005787D01*
D31*
X108000000Y-49005787D02*
X108000000Y-37500000D01*
X95914213Y-37000000D02*
X105000000Y-37000000D01*
D30*
X94500000Y-37000000D02*
X95914213Y-37000000D01*
D31*
X122500000Y-51800000D02*
X122500000Y-37500000D01*
X122000000Y-37000000D02*
X115500000Y-37000000D01*
D30*
X106500000Y-37000000D02*
X105000000Y-37000000D01*
X107500000Y-37000000D02*
X106500000Y-37000000D01*
X94300000Y-95300000D02*
X94500000Y-95500000D01*
X90000000Y-95300000D02*
X94300000Y-95300000D01*
X94500000Y-82000000D02*
X94500000Y-95500000D01*
X122000000Y-37000000D02*
X122500000Y-37500000D01*
X110500000Y-65000000D02*
X110500000Y-61000000D01*
X115500000Y-51000000D02*
X108580000Y-51000000D01*
D31*
X115500000Y-37000000D02*
X106500000Y-37000000D01*
D30*
X44621320Y-81500000D02*
X47500000Y-81500000D01*
X42500000Y-81500000D02*
X44621320Y-81500000D01*
X49621320Y-81500000D02*
X52500000Y-81500000D01*
X47500000Y-81500000D02*
X49621320Y-81500000D01*
X54621320Y-81500000D02*
X57500000Y-81500000D01*
X52500000Y-81500000D02*
X54621320Y-81500000D01*
X59621320Y-81500000D02*
X62500000Y-81500000D01*
X57500000Y-81500000D02*
X59621320Y-81500000D01*
X89500000Y-72750000D02*
X89500000Y-82000000D01*
X89500000Y-71500000D02*
X89500000Y-72750000D01*
X68000000Y-82000000D02*
X67500000Y-81500000D01*
X71500000Y-82500000D02*
X71500000Y-95500000D01*
X89500000Y-82000000D02*
X72000000Y-82000000D01*
X72000000Y-82000000D02*
X71500000Y-82500000D01*
X72000000Y-82000000D02*
X68000000Y-82000000D01*
X71500000Y-95500000D02*
X68000000Y-95500000D01*
X68000000Y-95500000D02*
X68000000Y-93000000D01*
X65378680Y-81500000D02*
X62500000Y-81500000D01*
X67500000Y-81500000D02*
X65378680Y-81500000D01*
X42450000Y-54000000D02*
X47500000Y-54000000D01*
X47500000Y-54000000D02*
X52500000Y-54000000D01*
X52500000Y-54000000D02*
X57500000Y-54000000D01*
X59621320Y-54000000D02*
X62500000Y-54000000D01*
X57500000Y-54000000D02*
X59621320Y-54000000D01*
D31*
X99050000Y-54200000D02*
X95650000Y-54200000D01*
D30*
X67700000Y-54200000D02*
X67500000Y-54000000D01*
D31*
X94500000Y-54200000D02*
X67700000Y-54200000D01*
D30*
X94500000Y-54200000D02*
X95650000Y-54200000D01*
X67500000Y-54000000D02*
X62500000Y-54000000D01*
D31*
X102250000Y-51000000D02*
X99050000Y-54200000D01*
D32*
X103500000Y-51000000D02*
X102250000Y-51000000D01*
D33*
X122500000Y-78500000D02*
X122500000Y-83300000D01*
X122500000Y-66784366D02*
X122500000Y-64500000D01*
D30*
X122500000Y-68340000D02*
X122500000Y-66784366D01*
D33*
X120000000Y-62000000D02*
X122500000Y-64500000D01*
X114500000Y-62000000D02*
X120000000Y-62000000D01*
D31*
X64500000Y-95500000D02*
X59000000Y-95500000D01*
D30*
X114840000Y-59800000D02*
X114500000Y-59460000D01*
D33*
X130500000Y-59800000D02*
X118500000Y-59800000D01*
X118500000Y-59800000D02*
X114840000Y-59800000D01*
D30*
X90700000Y-59300000D02*
X90500000Y-59500000D01*
D31*
X94500000Y-59300000D02*
X90700000Y-59300000D01*
D30*
X77800000Y-108200000D02*
X78000000Y-108000000D01*
D31*
X71500000Y-108200000D02*
X77800000Y-108200000D01*
X83080000Y-108000000D02*
X90000000Y-108000000D01*
D30*
X80540000Y-102540000D02*
X80500000Y-102500000D01*
D31*
X80540000Y-108000000D02*
X80540000Y-102540000D01*
X94500000Y-57600000D02*
X87900000Y-57600000D01*
D34*
X87900000Y-57600000D02*
X85900000Y-57600000D01*
D30*
X85500000Y-58000000D02*
X85900000Y-57600000D01*
D31*
X54864000Y-117348000D02*
X62992000Y-117348000D01*
D35*
G36*
X122373000Y-50365000D02*
G01*
X122372998Y-50365000D01*
X122372998Y-50530084D01*
X122150961Y-50408096D01*
X122016913Y-50448754D01*
X121762580Y-50568963D01*
X121536586Y-50736481D01*
X121347615Y-50944869D01*
X121202930Y-51186119D01*
X121108091Y-51450960D01*
X121229376Y-51673000D01*
X122373000Y-51673000D01*
X122373000Y-51873000D01*
X109960041Y-51873000D01*
X109973399Y-51855382D01*
X110113502Y-51567107D01*
X110170124Y-51380434D01*
X110050777Y-51127000D01*
X108707000Y-51127000D01*
X108707000Y-51147000D01*
X108627000Y-51147000D01*
X108627000Y-50853000D01*
X108707000Y-50853000D01*
X108707000Y-50873000D01*
X110050777Y-50873000D01*
X110170124Y-50619566D01*
X110113502Y-50432893D01*
X109973399Y-50144618D01*
X109779748Y-49889215D01*
X109539992Y-49676499D01*
X109263344Y-49514644D01*
X108960435Y-49409871D01*
X108707002Y-49528684D01*
X108707002Y-49365000D01*
X108627000Y-49365000D01*
X108627000Y-36627000D01*
X122373000Y-36627000D01*
X122373000Y-50365000D01*
X122373000Y-50365000D01*
G37*
X122373000Y-50365000D02*
X122372998Y-50365000D01*
X122372998Y-50530084D01*
X122150961Y-50408096D01*
X122016913Y-50448754D01*
X121762580Y-50568963D01*
X121536586Y-50736481D01*
X121347615Y-50944869D01*
X121202930Y-51186119D01*
X121108091Y-51450960D01*
X121229376Y-51673000D01*
X122373000Y-51673000D01*
X122373000Y-51873000D01*
X109960041Y-51873000D01*
X109973399Y-51855382D01*
X110113502Y-51567107D01*
X110170124Y-51380434D01*
X110050777Y-51127000D01*
X108707000Y-51127000D01*
X108707000Y-51147000D01*
X108627000Y-51147000D01*
X108627000Y-50853000D01*
X108707000Y-50853000D01*
X108707000Y-50873000D01*
X110050777Y-50873000D01*
X110170124Y-50619566D01*
X110113502Y-50432893D01*
X109973399Y-50144618D01*
X109779748Y-49889215D01*
X109539992Y-49676499D01*
X109263344Y-49514644D01*
X108960435Y-49409871D01*
X108707002Y-49528684D01*
X108707002Y-49365000D01*
X108627000Y-49365000D01*
X108627000Y-36627000D01*
X122373000Y-36627000D01*
X122373000Y-50365000D01*
G36*
X121178514Y-51579885D02*
G01*
X121229376Y-51673000D01*
X122373000Y-51673000D01*
X122373000Y-51653000D01*
X122627000Y-51653000D01*
X122627000Y-51673000D01*
X123770624Y-51673000D01*
X123795751Y-51627000D01*
X124873000Y-51627000D01*
X124873000Y-56873000D01*
X115888637Y-56873000D01*
X115889812Y-56847508D01*
X115848965Y-56577762D01*
X115756277Y-56321168D01*
X115695860Y-56208137D01*
X115456993Y-56142612D01*
X114726605Y-56873000D01*
X114273395Y-56873000D01*
X113543007Y-56142612D01*
X113304140Y-56208137D01*
X113188240Y-56455116D01*
X113122750Y-56719960D01*
X113115696Y-56873000D01*
X108627000Y-56873000D01*
X108627000Y-55963007D01*
X113722612Y-55963007D01*
X114500000Y-56740395D01*
X115277388Y-55963007D01*
X115211863Y-55724140D01*
X114964884Y-55608240D01*
X114700040Y-55542750D01*
X114427508Y-55530188D01*
X114157762Y-55571035D01*
X113901168Y-55663723D01*
X113788137Y-55724140D01*
X113722612Y-55963007D01*
X108627000Y-55963007D01*
X108627000Y-52635000D01*
X108707002Y-52635000D01*
X108707002Y-52471316D01*
X108960435Y-52590129D01*
X109263344Y-52485356D01*
X109539992Y-52323501D01*
X109736630Y-52149040D01*
X121108091Y-52149040D01*
X121202930Y-52413881D01*
X121347615Y-52655131D01*
X121536586Y-52863519D01*
X121762580Y-53031037D01*
X122016913Y-53151246D01*
X122150961Y-53191904D01*
X122373000Y-53069915D01*
X122373000Y-51927000D01*
X122627000Y-51927000D01*
X122627000Y-53069915D01*
X122849039Y-53191904D01*
X122983087Y-53151246D01*
X123237420Y-53031037D01*
X123463414Y-52863519D01*
X123652385Y-52655131D01*
X123797070Y-52413881D01*
X123891909Y-52149040D01*
X123770624Y-51927000D01*
X122627000Y-51927000D01*
X122373000Y-51927000D01*
X121229376Y-51927000D01*
X121108091Y-52149040D01*
X109736630Y-52149040D01*
X109779748Y-52110785D01*
X109973399Y-51855382D01*
X110113502Y-51567107D01*
X110170124Y-51380434D01*
X110077344Y-51183415D01*
X121178514Y-51579885D01*
X121178514Y-51579885D01*
G37*
X121178514Y-51579885D02*
X121229376Y-51673000D01*
X122373000Y-51673000D01*
X122373000Y-51653000D01*
X122627000Y-51653000D01*
X122627000Y-51673000D01*
X123770624Y-51673000D01*
X123795751Y-51627000D01*
X124873000Y-51627000D01*
X124873000Y-56873000D01*
X115888637Y-56873000D01*
X115889812Y-56847508D01*
X115848965Y-56577762D01*
X115756277Y-56321168D01*
X115695860Y-56208137D01*
X115456993Y-56142612D01*
X114726605Y-56873000D01*
X114273395Y-56873000D01*
X113543007Y-56142612D01*
X113304140Y-56208137D01*
X113188240Y-56455116D01*
X113122750Y-56719960D01*
X113115696Y-56873000D01*
X108627000Y-56873000D01*
X108627000Y-55963007D01*
X113722612Y-55963007D01*
X114500000Y-56740395D01*
X115277388Y-55963007D01*
X115211863Y-55724140D01*
X114964884Y-55608240D01*
X114700040Y-55542750D01*
X114427508Y-55530188D01*
X114157762Y-55571035D01*
X113901168Y-55663723D01*
X113788137Y-55724140D01*
X113722612Y-55963007D01*
X108627000Y-55963007D01*
X108627000Y-52635000D01*
X108707002Y-52635000D01*
X108707002Y-52471316D01*
X108960435Y-52590129D01*
X109263344Y-52485356D01*
X109539992Y-52323501D01*
X109736630Y-52149040D01*
X121108091Y-52149040D01*
X121202930Y-52413881D01*
X121347615Y-52655131D01*
X121536586Y-52863519D01*
X121762580Y-53031037D01*
X122016913Y-53151246D01*
X122150961Y-53191904D01*
X122373000Y-53069915D01*
X122373000Y-51927000D01*
X122627000Y-51927000D01*
X122627000Y-53069915D01*
X122849039Y-53191904D01*
X122983087Y-53151246D01*
X123237420Y-53031037D01*
X123463414Y-52863519D01*
X123652385Y-52655131D01*
X123797070Y-52413881D01*
X123891909Y-52149040D01*
X123770624Y-51927000D01*
X122627000Y-51927000D01*
X122373000Y-51927000D01*
X121229376Y-51927000D01*
X121108091Y-52149040D01*
X109736630Y-52149040D01*
X109779748Y-52110785D01*
X109973399Y-51855382D01*
X110113502Y-51567107D01*
X110170124Y-51380434D01*
X110077344Y-51183415D01*
X121178514Y-51579885D01*
G36*
X108707000Y-51134474D02*
G01*
X108707000Y-51147000D01*
X108627000Y-51147000D01*
X108627000Y-51131617D01*
X108707000Y-51134474D01*
X108707000Y-51134474D01*
G37*
X108707000Y-51134474D02*
X108707000Y-51147000D01*
X108627000Y-51147000D01*
X108627000Y-51131617D01*
X108707000Y-51134474D01*
G36*
X108707000Y-52471315D02*
G01*
X108960435Y-52590129D01*
X109263344Y-52485356D01*
X109539992Y-52323501D01*
X109779748Y-52110785D01*
X109973399Y-51855382D01*
X110113502Y-51567107D01*
X110170124Y-51380434D01*
X110050778Y-51127002D01*
X110215000Y-51127002D01*
X110215000Y-51127000D01*
X110373000Y-51127000D01*
X110373000Y-60873000D01*
X97627000Y-60873000D01*
X97627000Y-56127000D01*
X103500000Y-56127000D01*
X103524776Y-56124560D01*
X103548601Y-56117333D01*
X103570557Y-56105597D01*
X103589803Y-56089803D01*
X107480171Y-52199435D01*
X107620008Y-52323501D01*
X107896656Y-52485356D01*
X108199565Y-52590129D01*
X108453000Y-52471315D01*
X108453000Y-51226606D01*
X108552606Y-51127000D01*
X108707000Y-51127000D01*
X108707000Y-52471315D01*
X108707000Y-52471315D01*
G37*
X108707000Y-52471315D02*
X108960435Y-52590129D01*
X109263344Y-52485356D01*
X109539992Y-52323501D01*
X109779748Y-52110785D01*
X109973399Y-51855382D01*
X110113502Y-51567107D01*
X110170124Y-51380434D01*
X110050778Y-51127002D01*
X110215000Y-51127002D01*
X110215000Y-51127000D01*
X110373000Y-51127000D01*
X110373000Y-60873000D01*
X97627000Y-60873000D01*
X97627000Y-56127000D01*
X103500000Y-56127000D01*
X103524776Y-56124560D01*
X103548601Y-56117333D01*
X103570557Y-56105597D01*
X103589803Y-56089803D01*
X107480171Y-52199435D01*
X107620008Y-52323501D01*
X107896656Y-52485356D01*
X108199565Y-52590129D01*
X108453000Y-52471315D01*
X108453000Y-51226606D01*
X108552606Y-51127000D01*
X108707000Y-51127000D01*
X108707000Y-52471315D01*
G36*
X104373000Y-55873000D02*
G01*
X99127000Y-55873000D01*
X99127000Y-55627000D01*
X104373000Y-55627000D01*
X104373000Y-55873000D01*
X104373000Y-55873000D01*
G37*
X104373000Y-55873000D02*
X99127000Y-55873000D01*
X99127000Y-55627000D01*
X104373000Y-55627000D01*
X104373000Y-55873000D01*
G36*
X110373000Y-65000000D02*
G01*
X110375440Y-65024776D01*
X110382667Y-65048601D01*
X110394403Y-65070557D01*
X110410197Y-65089803D01*
X110429443Y-65105597D01*
X110451399Y-65117333D01*
X110475224Y-65124560D01*
X110500000Y-65127000D01*
X119253000Y-65127000D01*
X119253000Y-115419481D01*
X119156000Y-115409928D01*
X118141750Y-115413000D01*
X117983000Y-115571750D01*
X117983000Y-117221000D01*
X118003000Y-117221000D01*
X118003000Y-117475000D01*
X117983000Y-117475000D01*
X117983000Y-119124250D01*
X118141750Y-119283000D01*
X119156000Y-119286072D01*
X119253000Y-119276519D01*
X119253000Y-122301000D01*
X94328619Y-122301000D01*
X94346399Y-118648000D01*
X115917928Y-118648000D01*
X115930188Y-118772482D01*
X115966498Y-118892180D01*
X116025463Y-119002494D01*
X116104815Y-119099185D01*
X116201506Y-119178537D01*
X116311820Y-119237502D01*
X116431518Y-119273812D01*
X116556000Y-119286072D01*
X117570250Y-119283000D01*
X117729000Y-119124250D01*
X117729000Y-117475000D01*
X116079750Y-117475000D01*
X115921000Y-117633750D01*
X115917928Y-118648000D01*
X94346399Y-118648000D01*
X94359054Y-116048000D01*
X115917928Y-116048000D01*
X115921000Y-117062250D01*
X116079750Y-117221000D01*
X117729000Y-117221000D01*
X117729000Y-115571750D01*
X117570250Y-115413000D01*
X116556000Y-115409928D01*
X116431518Y-115422188D01*
X116311820Y-115458498D01*
X116201506Y-115517463D01*
X116104815Y-115596815D01*
X116025463Y-115693506D01*
X115966498Y-115803820D01*
X115930188Y-115923518D01*
X115917928Y-116048000D01*
X94359054Y-116048000D01*
X94517786Y-83437618D01*
X94570512Y-83440217D01*
X94850130Y-83398787D01*
X95116292Y-83303603D01*
X95241514Y-83236671D01*
X95313097Y-82992702D01*
X94523794Y-82203399D01*
X94524784Y-82000000D01*
X94679605Y-82000000D01*
X95492702Y-82813097D01*
X95736671Y-82741514D01*
X95857571Y-82486004D01*
X95926300Y-82211816D01*
X95940217Y-81929488D01*
X95898787Y-81649870D01*
X95803603Y-81383708D01*
X95736671Y-81258486D01*
X95492702Y-81186903D01*
X94679605Y-82000000D01*
X94524784Y-82000000D01*
X94525784Y-81794611D01*
X95313097Y-81007298D01*
X95241514Y-80763329D01*
X94986004Y-80642429D01*
X94711816Y-80573700D01*
X94531770Y-80564825D01*
X94567905Y-73140990D01*
X94881675Y-73097961D01*
X95186088Y-72992795D01*
X95360044Y-72899814D01*
X95455808Y-72635413D01*
X94574655Y-71754260D01*
X94575892Y-71500000D01*
X94679605Y-71500000D01*
X95635413Y-72455808D01*
X95899814Y-72360044D01*
X96040704Y-72070429D01*
X96122384Y-71758892D01*
X96141718Y-71437405D01*
X96097961Y-71118325D01*
X95992795Y-70813912D01*
X95899814Y-70639956D01*
X95635413Y-70544192D01*
X94679605Y-71500000D01*
X94575892Y-71500000D01*
X94577142Y-71243253D01*
X95455808Y-70364587D01*
X95360044Y-70100186D01*
X95070429Y-69959296D01*
X94758892Y-69877616D01*
X94583841Y-69867089D01*
X94626383Y-61127000D01*
X110373000Y-61127000D01*
X110373000Y-65000000D01*
X110373000Y-65000000D01*
G37*
X110373000Y-65000000D02*
X110375440Y-65024776D01*
X110382667Y-65048601D01*
X110394403Y-65070557D01*
X110410197Y-65089803D01*
X110429443Y-65105597D01*
X110451399Y-65117333D01*
X110475224Y-65124560D01*
X110500000Y-65127000D01*
X119253000Y-65127000D01*
X119253000Y-115419481D01*
X119156000Y-115409928D01*
X118141750Y-115413000D01*
X117983000Y-115571750D01*
X117983000Y-117221000D01*
X118003000Y-117221000D01*
X118003000Y-117475000D01*
X117983000Y-117475000D01*
X117983000Y-119124250D01*
X118141750Y-119283000D01*
X119156000Y-119286072D01*
X119253000Y-119276519D01*
X119253000Y-122301000D01*
X94328619Y-122301000D01*
X94346399Y-118648000D01*
X115917928Y-118648000D01*
X115930188Y-118772482D01*
X115966498Y-118892180D01*
X116025463Y-119002494D01*
X116104815Y-119099185D01*
X116201506Y-119178537D01*
X116311820Y-119237502D01*
X116431518Y-119273812D01*
X116556000Y-119286072D01*
X117570250Y-119283000D01*
X117729000Y-119124250D01*
X117729000Y-117475000D01*
X116079750Y-117475000D01*
X115921000Y-117633750D01*
X115917928Y-118648000D01*
X94346399Y-118648000D01*
X94359054Y-116048000D01*
X115917928Y-116048000D01*
X115921000Y-117062250D01*
X116079750Y-117221000D01*
X117729000Y-117221000D01*
X117729000Y-115571750D01*
X117570250Y-115413000D01*
X116556000Y-115409928D01*
X116431518Y-115422188D01*
X116311820Y-115458498D01*
X116201506Y-115517463D01*
X116104815Y-115596815D01*
X116025463Y-115693506D01*
X115966498Y-115803820D01*
X115930188Y-115923518D01*
X115917928Y-116048000D01*
X94359054Y-116048000D01*
X94517786Y-83437618D01*
X94570512Y-83440217D01*
X94850130Y-83398787D01*
X95116292Y-83303603D01*
X95241514Y-83236671D01*
X95313097Y-82992702D01*
X94523794Y-82203399D01*
X94524784Y-82000000D01*
X94679605Y-82000000D01*
X95492702Y-82813097D01*
X95736671Y-82741514D01*
X95857571Y-82486004D01*
X95926300Y-82211816D01*
X95940217Y-81929488D01*
X95898787Y-81649870D01*
X95803603Y-81383708D01*
X95736671Y-81258486D01*
X95492702Y-81186903D01*
X94679605Y-82000000D01*
X94524784Y-82000000D01*
X94525784Y-81794611D01*
X95313097Y-81007298D01*
X95241514Y-80763329D01*
X94986004Y-80642429D01*
X94711816Y-80573700D01*
X94531770Y-80564825D01*
X94567905Y-73140990D01*
X94881675Y-73097961D01*
X95186088Y-72992795D01*
X95360044Y-72899814D01*
X95455808Y-72635413D01*
X94574655Y-71754260D01*
X94575892Y-71500000D01*
X94679605Y-71500000D01*
X95635413Y-72455808D01*
X95899814Y-72360044D01*
X96040704Y-72070429D01*
X96122384Y-71758892D01*
X96141718Y-71437405D01*
X96097961Y-71118325D01*
X95992795Y-70813912D01*
X95899814Y-70639956D01*
X95635413Y-70544192D01*
X94679605Y-71500000D01*
X94575892Y-71500000D01*
X94577142Y-71243253D01*
X95455808Y-70364587D01*
X95360044Y-70100186D01*
X95070429Y-69959296D01*
X94758892Y-69877616D01*
X94583841Y-69867089D01*
X94626383Y-61127000D01*
X110373000Y-61127000D01*
X110373000Y-65000000D01*
G36*
X124873000Y-52873000D02*
G01*
X123450623Y-52873000D01*
X123463414Y-52863519D01*
X123652385Y-52655131D01*
X123797070Y-52413881D01*
X123891909Y-52149040D01*
X123770624Y-51927000D01*
X122627000Y-51927000D01*
X122627000Y-51947000D01*
X122373000Y-51947000D01*
X122373000Y-51927000D01*
X122353000Y-51927000D01*
X122353000Y-51673000D01*
X122373000Y-51673000D01*
X122373000Y-50530085D01*
X122627000Y-50530085D01*
X122627000Y-51673000D01*
X123770624Y-51673000D01*
X123891909Y-51450960D01*
X123797070Y-51186119D01*
X123652385Y-50944869D01*
X123463414Y-50736481D01*
X123237420Y-50568963D01*
X122983087Y-50448754D01*
X122849039Y-50408096D01*
X122627000Y-50530085D01*
X122373000Y-50530085D01*
X122150961Y-50408096D01*
X122016913Y-50448754D01*
X121762580Y-50568963D01*
X121536586Y-50736481D01*
X121347615Y-50944869D01*
X121202930Y-51186119D01*
X121127000Y-51398156D01*
X121127000Y-39500000D01*
X121124560Y-39475224D01*
X121117333Y-39451399D01*
X121105597Y-39429443D01*
X121089803Y-39410197D01*
X121070557Y-39394403D01*
X121048601Y-39382667D01*
X121024776Y-39375440D01*
X121000000Y-39373000D01*
X92627000Y-39373000D01*
X92627000Y-38135413D01*
X93544192Y-38135413D01*
X93639956Y-38399814D01*
X93929571Y-38540704D01*
X94241108Y-38622384D01*
X94562595Y-38641718D01*
X94881675Y-38597961D01*
X95186088Y-38492795D01*
X95360044Y-38399814D01*
X95455808Y-38135413D01*
X95313097Y-37992702D01*
X104186903Y-37992702D01*
X104258486Y-38236671D01*
X104513996Y-38357571D01*
X104788184Y-38426300D01*
X105070512Y-38440217D01*
X105350130Y-38398787D01*
X105616292Y-38303603D01*
X105741514Y-38236671D01*
X105813097Y-37992702D01*
X105000000Y-37179605D01*
X104186903Y-37992702D01*
X95313097Y-37992702D01*
X94500000Y-37179605D01*
X93544192Y-38135413D01*
X92627000Y-38135413D01*
X92627000Y-37062595D01*
X92858282Y-37062595D01*
X92902039Y-37381675D01*
X93007205Y-37686088D01*
X93100186Y-37860044D01*
X93364587Y-37955808D01*
X94320395Y-37000000D01*
X94679605Y-37000000D01*
X95635413Y-37955808D01*
X95899814Y-37860044D01*
X96040704Y-37570429D01*
X96122384Y-37258892D01*
X96133713Y-37070512D01*
X103559783Y-37070512D01*
X103601213Y-37350130D01*
X103696397Y-37616292D01*
X103763329Y-37741514D01*
X104007298Y-37813097D01*
X104820395Y-37000000D01*
X105179605Y-37000000D01*
X105992702Y-37813097D01*
X106236671Y-37741514D01*
X106357571Y-37486004D01*
X106426300Y-37211816D01*
X106440217Y-36929488D01*
X106398787Y-36649870D01*
X106303603Y-36383708D01*
X106236671Y-36258486D01*
X105992702Y-36186903D01*
X105179605Y-37000000D01*
X104820395Y-37000000D01*
X104007298Y-36186903D01*
X103763329Y-36258486D01*
X103642429Y-36513996D01*
X103573700Y-36788184D01*
X103559783Y-37070512D01*
X96133713Y-37070512D01*
X96141718Y-36937405D01*
X96097961Y-36618325D01*
X95992795Y-36313912D01*
X95899814Y-36139956D01*
X95635413Y-36044192D01*
X94679605Y-37000000D01*
X94320395Y-37000000D01*
X93364587Y-36044192D01*
X93100186Y-36139956D01*
X92959296Y-36429571D01*
X92877616Y-36741108D01*
X92858282Y-37062595D01*
X92627000Y-37062595D01*
X92627000Y-35864587D01*
X93544192Y-35864587D01*
X94500000Y-36820395D01*
X95313097Y-36007298D01*
X104186903Y-36007298D01*
X105000000Y-36820395D01*
X105813097Y-36007298D01*
X105741514Y-35763329D01*
X105486004Y-35642429D01*
X105211816Y-35573700D01*
X104929488Y-35559783D01*
X104649870Y-35601213D01*
X104383708Y-35696397D01*
X104258486Y-35763329D01*
X104186903Y-36007298D01*
X95313097Y-36007298D01*
X95455808Y-35864587D01*
X95360044Y-35600186D01*
X95070429Y-35459296D01*
X94758892Y-35377616D01*
X94437405Y-35358282D01*
X94118325Y-35402039D01*
X93813912Y-35507205D01*
X93639956Y-35600186D01*
X93544192Y-35864587D01*
X92627000Y-35864587D01*
X92627000Y-34127000D01*
X124873000Y-34127000D01*
X124873000Y-52873000D01*
X124873000Y-52873000D01*
G37*
X124873000Y-52873000D02*
X123450623Y-52873000D01*
X123463414Y-52863519D01*
X123652385Y-52655131D01*
X123797070Y-52413881D01*
X123891909Y-52149040D01*
X123770624Y-51927000D01*
X122627000Y-51927000D01*
X122627000Y-51947000D01*
X122373000Y-51947000D01*
X122373000Y-51927000D01*
X122353000Y-51927000D01*
X122353000Y-51673000D01*
X122373000Y-51673000D01*
X122373000Y-50530085D01*
X122627000Y-50530085D01*
X122627000Y-51673000D01*
X123770624Y-51673000D01*
X123891909Y-51450960D01*
X123797070Y-51186119D01*
X123652385Y-50944869D01*
X123463414Y-50736481D01*
X123237420Y-50568963D01*
X122983087Y-50448754D01*
X122849039Y-50408096D01*
X122627000Y-50530085D01*
X122373000Y-50530085D01*
X122150961Y-50408096D01*
X122016913Y-50448754D01*
X121762580Y-50568963D01*
X121536586Y-50736481D01*
X121347615Y-50944869D01*
X121202930Y-51186119D01*
X121127000Y-51398156D01*
X121127000Y-39500000D01*
X121124560Y-39475224D01*
X121117333Y-39451399D01*
X121105597Y-39429443D01*
X121089803Y-39410197D01*
X121070557Y-39394403D01*
X121048601Y-39382667D01*
X121024776Y-39375440D01*
X121000000Y-39373000D01*
X92627000Y-39373000D01*
X92627000Y-38135413D01*
X93544192Y-38135413D01*
X93639956Y-38399814D01*
X93929571Y-38540704D01*
X94241108Y-38622384D01*
X94562595Y-38641718D01*
X94881675Y-38597961D01*
X95186088Y-38492795D01*
X95360044Y-38399814D01*
X95455808Y-38135413D01*
X95313097Y-37992702D01*
X104186903Y-37992702D01*
X104258486Y-38236671D01*
X104513996Y-38357571D01*
X104788184Y-38426300D01*
X105070512Y-38440217D01*
X105350130Y-38398787D01*
X105616292Y-38303603D01*
X105741514Y-38236671D01*
X105813097Y-37992702D01*
X105000000Y-37179605D01*
X104186903Y-37992702D01*
X95313097Y-37992702D01*
X94500000Y-37179605D01*
X93544192Y-38135413D01*
X92627000Y-38135413D01*
X92627000Y-37062595D01*
X92858282Y-37062595D01*
X92902039Y-37381675D01*
X93007205Y-37686088D01*
X93100186Y-37860044D01*
X93364587Y-37955808D01*
X94320395Y-37000000D01*
X94679605Y-37000000D01*
X95635413Y-37955808D01*
X95899814Y-37860044D01*
X96040704Y-37570429D01*
X96122384Y-37258892D01*
X96133713Y-37070512D01*
X103559783Y-37070512D01*
X103601213Y-37350130D01*
X103696397Y-37616292D01*
X103763329Y-37741514D01*
X104007298Y-37813097D01*
X104820395Y-37000000D01*
X105179605Y-37000000D01*
X105992702Y-37813097D01*
X106236671Y-37741514D01*
X106357571Y-37486004D01*
X106426300Y-37211816D01*
X106440217Y-36929488D01*
X106398787Y-36649870D01*
X106303603Y-36383708D01*
X106236671Y-36258486D01*
X105992702Y-36186903D01*
X105179605Y-37000000D01*
X104820395Y-37000000D01*
X104007298Y-36186903D01*
X103763329Y-36258486D01*
X103642429Y-36513996D01*
X103573700Y-36788184D01*
X103559783Y-37070512D01*
X96133713Y-37070512D01*
X96141718Y-36937405D01*
X96097961Y-36618325D01*
X95992795Y-36313912D01*
X95899814Y-36139956D01*
X95635413Y-36044192D01*
X94679605Y-37000000D01*
X94320395Y-37000000D01*
X93364587Y-36044192D01*
X93100186Y-36139956D01*
X92959296Y-36429571D01*
X92877616Y-36741108D01*
X92858282Y-37062595D01*
X92627000Y-37062595D01*
X92627000Y-35864587D01*
X93544192Y-35864587D01*
X94500000Y-36820395D01*
X95313097Y-36007298D01*
X104186903Y-36007298D01*
X105000000Y-36820395D01*
X105813097Y-36007298D01*
X105741514Y-35763329D01*
X105486004Y-35642429D01*
X105211816Y-35573700D01*
X104929488Y-35559783D01*
X104649870Y-35601213D01*
X104383708Y-35696397D01*
X104258486Y-35763329D01*
X104186903Y-36007298D01*
X95313097Y-36007298D01*
X95455808Y-35864587D01*
X95360044Y-35600186D01*
X95070429Y-35459296D01*
X94758892Y-35377616D01*
X94437405Y-35358282D01*
X94118325Y-35402039D01*
X93813912Y-35507205D01*
X93639956Y-35600186D01*
X93544192Y-35864587D01*
X92627000Y-35864587D01*
X92627000Y-34127000D01*
X124873000Y-34127000D01*
X124873000Y-52873000D01*
G36*
X121202930Y-52413881D02*
G01*
X121347615Y-52655131D01*
X121536586Y-52863519D01*
X121549377Y-52873000D01*
X121127000Y-52873000D01*
X121127000Y-52201844D01*
X121202930Y-52413881D01*
X121202930Y-52413881D01*
G37*
X121202930Y-52413881D02*
X121347615Y-52655131D01*
X121536586Y-52863519D01*
X121549377Y-52873000D01*
X121127000Y-52873000D01*
X121127000Y-52201844D01*
X121202930Y-52413881D01*
G36*
X121127000Y-52114423D02*
G01*
X121127000Y-51927002D01*
X121229375Y-51927002D01*
X121127000Y-52114423D01*
X121127000Y-52114423D01*
G37*
X121127000Y-52114423D02*
X121127000Y-51927002D01*
X121229375Y-51927002D01*
X121127000Y-52114423D01*
G36*
X121229375Y-51672998D02*
G01*
X121127000Y-51672998D01*
X121127000Y-51485577D01*
X121229375Y-51672998D01*
X121229375Y-51672998D01*
G37*
X121229375Y-51672998D02*
X121127000Y-51672998D01*
X121127000Y-51485577D01*
X121229375Y-51672998D01*
G36*
X77873000Y-61373131D02*
G01*
X29727000Y-61422869D01*
X29727000Y-55491653D01*
X41187952Y-55491653D01*
X41343962Y-55807214D01*
X41718745Y-55998020D01*
X42123551Y-56112044D01*
X42542824Y-56144902D01*
X42960451Y-56095334D01*
X43360383Y-55965243D01*
X43656038Y-55807214D01*
X43812048Y-55491653D01*
X46187952Y-55491653D01*
X46343962Y-55807214D01*
X46718745Y-55998020D01*
X47123551Y-56112044D01*
X47542824Y-56144902D01*
X47960451Y-56095334D01*
X48360383Y-55965243D01*
X48656038Y-55807214D01*
X48812048Y-55491653D01*
X51187952Y-55491653D01*
X51343962Y-55807214D01*
X51718745Y-55998020D01*
X52123551Y-56112044D01*
X52542824Y-56144902D01*
X52960451Y-56095334D01*
X53360383Y-55965243D01*
X53656038Y-55807214D01*
X53812048Y-55491653D01*
X56187952Y-55491653D01*
X56343962Y-55807214D01*
X56718745Y-55998020D01*
X57123551Y-56112044D01*
X57542824Y-56144902D01*
X57960451Y-56095334D01*
X58360383Y-55965243D01*
X58656038Y-55807214D01*
X58812048Y-55491653D01*
X61187952Y-55491653D01*
X61343962Y-55807214D01*
X61718745Y-55998020D01*
X62123551Y-56112044D01*
X62542824Y-56144902D01*
X62960451Y-56095334D01*
X63360383Y-55965243D01*
X63656038Y-55807214D01*
X63812048Y-55491653D01*
X66237952Y-55491653D01*
X66393962Y-55807214D01*
X66768745Y-55998020D01*
X67173551Y-56112044D01*
X67592824Y-56144902D01*
X68010451Y-56095334D01*
X68410383Y-55965243D01*
X68706038Y-55807214D01*
X68862048Y-55491653D01*
X67550000Y-54179605D01*
X66237952Y-55491653D01*
X63812048Y-55491653D01*
X62500000Y-54179605D01*
X61187952Y-55491653D01*
X58812048Y-55491653D01*
X57500000Y-54179605D01*
X56187952Y-55491653D01*
X53812048Y-55491653D01*
X52500000Y-54179605D01*
X51187952Y-55491653D01*
X48812048Y-55491653D01*
X47500000Y-54179605D01*
X46187952Y-55491653D01*
X43812048Y-55491653D01*
X42500000Y-54179605D01*
X41187952Y-55491653D01*
X29727000Y-55491653D01*
X29727000Y-54042824D01*
X40355098Y-54042824D01*
X40404666Y-54460451D01*
X40534757Y-54860383D01*
X40692786Y-55156038D01*
X41008347Y-55312048D01*
X42320395Y-54000000D01*
X42679605Y-54000000D01*
X43991653Y-55312048D01*
X44307214Y-55156038D01*
X44498020Y-54781255D01*
X44612044Y-54376449D01*
X44638189Y-54042824D01*
X45355098Y-54042824D01*
X45404666Y-54460451D01*
X45534757Y-54860383D01*
X45692786Y-55156038D01*
X46008347Y-55312048D01*
X47320395Y-54000000D01*
X47679605Y-54000000D01*
X48991653Y-55312048D01*
X49307214Y-55156038D01*
X49498020Y-54781255D01*
X49612044Y-54376449D01*
X49638189Y-54042824D01*
X50355098Y-54042824D01*
X50404666Y-54460451D01*
X50534757Y-54860383D01*
X50692786Y-55156038D01*
X51008347Y-55312048D01*
X52320395Y-54000000D01*
X52679605Y-54000000D01*
X53991653Y-55312048D01*
X54307214Y-55156038D01*
X54498020Y-54781255D01*
X54612044Y-54376449D01*
X54638189Y-54042824D01*
X55355098Y-54042824D01*
X55404666Y-54460451D01*
X55534757Y-54860383D01*
X55692786Y-55156038D01*
X56008347Y-55312048D01*
X57320395Y-54000000D01*
X57679605Y-54000000D01*
X58991653Y-55312048D01*
X59307214Y-55156038D01*
X59498020Y-54781255D01*
X59612044Y-54376449D01*
X59638189Y-54042824D01*
X60355098Y-54042824D01*
X60404666Y-54460451D01*
X60534757Y-54860383D01*
X60692786Y-55156038D01*
X61008347Y-55312048D01*
X62320395Y-54000000D01*
X62679605Y-54000000D01*
X63991653Y-55312048D01*
X64307214Y-55156038D01*
X64498020Y-54781255D01*
X64612044Y-54376449D01*
X64638189Y-54042824D01*
X65405098Y-54042824D01*
X65454666Y-54460451D01*
X65584757Y-54860383D01*
X65742786Y-55156038D01*
X66058347Y-55312048D01*
X67370395Y-54000000D01*
X67729605Y-54000000D01*
X69041653Y-55312048D01*
X69357214Y-55156038D01*
X69548020Y-54781255D01*
X69662044Y-54376449D01*
X69694902Y-53957176D01*
X69645334Y-53539549D01*
X69515243Y-53139617D01*
X69357214Y-52843962D01*
X69041653Y-52687952D01*
X67729605Y-54000000D01*
X67370395Y-54000000D01*
X66058347Y-52687952D01*
X65742786Y-52843962D01*
X65551980Y-53218745D01*
X65437956Y-53623551D01*
X65405098Y-54042824D01*
X64638189Y-54042824D01*
X64644902Y-53957176D01*
X64595334Y-53539549D01*
X64465243Y-53139617D01*
X64307214Y-52843962D01*
X63991653Y-52687952D01*
X62679605Y-54000000D01*
X62320395Y-54000000D01*
X61008347Y-52687952D01*
X60692786Y-52843962D01*
X60501980Y-53218745D01*
X60387956Y-53623551D01*
X60355098Y-54042824D01*
X59638189Y-54042824D01*
X59644902Y-53957176D01*
X59595334Y-53539549D01*
X59465243Y-53139617D01*
X59307214Y-52843962D01*
X58991653Y-52687952D01*
X57679605Y-54000000D01*
X57320395Y-54000000D01*
X56008347Y-52687952D01*
X55692786Y-52843962D01*
X55501980Y-53218745D01*
X55387956Y-53623551D01*
X55355098Y-54042824D01*
X54638189Y-54042824D01*
X54644902Y-53957176D01*
X54595334Y-53539549D01*
X54465243Y-53139617D01*
X54307214Y-52843962D01*
X53991653Y-52687952D01*
X52679605Y-54000000D01*
X52320395Y-54000000D01*
X51008347Y-52687952D01*
X50692786Y-52843962D01*
X50501980Y-53218745D01*
X50387956Y-53623551D01*
X50355098Y-54042824D01*
X49638189Y-54042824D01*
X49644902Y-53957176D01*
X49595334Y-53539549D01*
X49465243Y-53139617D01*
X49307214Y-52843962D01*
X48991653Y-52687952D01*
X47679605Y-54000000D01*
X47320395Y-54000000D01*
X46008347Y-52687952D01*
X45692786Y-52843962D01*
X45501980Y-53218745D01*
X45387956Y-53623551D01*
X45355098Y-54042824D01*
X44638189Y-54042824D01*
X44644902Y-53957176D01*
X44595334Y-53539549D01*
X44465243Y-53139617D01*
X44307214Y-52843962D01*
X43991653Y-52687952D01*
X42679605Y-54000000D01*
X42320395Y-54000000D01*
X41008347Y-52687952D01*
X40692786Y-52843962D01*
X40501980Y-53218745D01*
X40387956Y-53623551D01*
X40355098Y-54042824D01*
X29727000Y-54042824D01*
X29727000Y-52508347D01*
X41187952Y-52508347D01*
X42500000Y-53820395D01*
X43812048Y-52508347D01*
X46187952Y-52508347D01*
X47500000Y-53820395D01*
X48812048Y-52508347D01*
X51187952Y-52508347D01*
X52500000Y-53820395D01*
X53812048Y-52508347D01*
X56187952Y-52508347D01*
X57500000Y-53820395D01*
X58812048Y-52508347D01*
X61187952Y-52508347D01*
X62500000Y-53820395D01*
X63812048Y-52508347D01*
X66237952Y-52508347D01*
X67550000Y-53820395D01*
X68862048Y-52508347D01*
X68706038Y-52192786D01*
X68331255Y-52001980D01*
X67926449Y-51887956D01*
X67507176Y-51855098D01*
X67089549Y-51904666D01*
X66689617Y-52034757D01*
X66393962Y-52192786D01*
X66237952Y-52508347D01*
X63812048Y-52508347D01*
X63656038Y-52192786D01*
X63281255Y-52001980D01*
X62876449Y-51887956D01*
X62457176Y-51855098D01*
X62039549Y-51904666D01*
X61639617Y-52034757D01*
X61343962Y-52192786D01*
X61187952Y-52508347D01*
X58812048Y-52508347D01*
X58656038Y-52192786D01*
X58281255Y-52001980D01*
X57876449Y-51887956D01*
X57457176Y-51855098D01*
X57039549Y-51904666D01*
X56639617Y-52034757D01*
X56343962Y-52192786D01*
X56187952Y-52508347D01*
X53812048Y-52508347D01*
X53656038Y-52192786D01*
X53281255Y-52001980D01*
X52876449Y-51887956D01*
X52457176Y-51855098D01*
X52039549Y-51904666D01*
X51639617Y-52034757D01*
X51343962Y-52192786D01*
X51187952Y-52508347D01*
X48812048Y-52508347D01*
X48656038Y-52192786D01*
X48281255Y-52001980D01*
X47876449Y-51887956D01*
X47457176Y-51855098D01*
X47039549Y-51904666D01*
X46639617Y-52034757D01*
X46343962Y-52192786D01*
X46187952Y-52508347D01*
X43812048Y-52508347D01*
X43656038Y-52192786D01*
X43281255Y-52001980D01*
X42876449Y-51887956D01*
X42457176Y-51855098D01*
X42039549Y-51904666D01*
X41639617Y-52034757D01*
X41343962Y-52192786D01*
X41187952Y-52508347D01*
X29727000Y-52508347D01*
X29727000Y-50176869D01*
X77873000Y-50127131D01*
X77873000Y-61373131D01*
X77873000Y-61373131D01*
G37*
X77873000Y-61373131D02*
X29727000Y-61422869D01*
X29727000Y-55491653D01*
X41187952Y-55491653D01*
X41343962Y-55807214D01*
X41718745Y-55998020D01*
X42123551Y-56112044D01*
X42542824Y-56144902D01*
X42960451Y-56095334D01*
X43360383Y-55965243D01*
X43656038Y-55807214D01*
X43812048Y-55491653D01*
X46187952Y-55491653D01*
X46343962Y-55807214D01*
X46718745Y-55998020D01*
X47123551Y-56112044D01*
X47542824Y-56144902D01*
X47960451Y-56095334D01*
X48360383Y-55965243D01*
X48656038Y-55807214D01*
X48812048Y-55491653D01*
X51187952Y-55491653D01*
X51343962Y-55807214D01*
X51718745Y-55998020D01*
X52123551Y-56112044D01*
X52542824Y-56144902D01*
X52960451Y-56095334D01*
X53360383Y-55965243D01*
X53656038Y-55807214D01*
X53812048Y-55491653D01*
X56187952Y-55491653D01*
X56343962Y-55807214D01*
X56718745Y-55998020D01*
X57123551Y-56112044D01*
X57542824Y-56144902D01*
X57960451Y-56095334D01*
X58360383Y-55965243D01*
X58656038Y-55807214D01*
X58812048Y-55491653D01*
X61187952Y-55491653D01*
X61343962Y-55807214D01*
X61718745Y-55998020D01*
X62123551Y-56112044D01*
X62542824Y-56144902D01*
X62960451Y-56095334D01*
X63360383Y-55965243D01*
X63656038Y-55807214D01*
X63812048Y-55491653D01*
X66237952Y-55491653D01*
X66393962Y-55807214D01*
X66768745Y-55998020D01*
X67173551Y-56112044D01*
X67592824Y-56144902D01*
X68010451Y-56095334D01*
X68410383Y-55965243D01*
X68706038Y-55807214D01*
X68862048Y-55491653D01*
X67550000Y-54179605D01*
X66237952Y-55491653D01*
X63812048Y-55491653D01*
X62500000Y-54179605D01*
X61187952Y-55491653D01*
X58812048Y-55491653D01*
X57500000Y-54179605D01*
X56187952Y-55491653D01*
X53812048Y-55491653D01*
X52500000Y-54179605D01*
X51187952Y-55491653D01*
X48812048Y-55491653D01*
X47500000Y-54179605D01*
X46187952Y-55491653D01*
X43812048Y-55491653D01*
X42500000Y-54179605D01*
X41187952Y-55491653D01*
X29727000Y-55491653D01*
X29727000Y-54042824D01*
X40355098Y-54042824D01*
X40404666Y-54460451D01*
X40534757Y-54860383D01*
X40692786Y-55156038D01*
X41008347Y-55312048D01*
X42320395Y-54000000D01*
X42679605Y-54000000D01*
X43991653Y-55312048D01*
X44307214Y-55156038D01*
X44498020Y-54781255D01*
X44612044Y-54376449D01*
X44638189Y-54042824D01*
X45355098Y-54042824D01*
X45404666Y-54460451D01*
X45534757Y-54860383D01*
X45692786Y-55156038D01*
X46008347Y-55312048D01*
X47320395Y-54000000D01*
X47679605Y-54000000D01*
X48991653Y-55312048D01*
X49307214Y-55156038D01*
X49498020Y-54781255D01*
X49612044Y-54376449D01*
X49638189Y-54042824D01*
X50355098Y-54042824D01*
X50404666Y-54460451D01*
X50534757Y-54860383D01*
X50692786Y-55156038D01*
X51008347Y-55312048D01*
X52320395Y-54000000D01*
X52679605Y-54000000D01*
X53991653Y-55312048D01*
X54307214Y-55156038D01*
X54498020Y-54781255D01*
X54612044Y-54376449D01*
X54638189Y-54042824D01*
X55355098Y-54042824D01*
X55404666Y-54460451D01*
X55534757Y-54860383D01*
X55692786Y-55156038D01*
X56008347Y-55312048D01*
X57320395Y-54000000D01*
X57679605Y-54000000D01*
X58991653Y-55312048D01*
X59307214Y-55156038D01*
X59498020Y-54781255D01*
X59612044Y-54376449D01*
X59638189Y-54042824D01*
X60355098Y-54042824D01*
X60404666Y-54460451D01*
X60534757Y-54860383D01*
X60692786Y-55156038D01*
X61008347Y-55312048D01*
X62320395Y-54000000D01*
X62679605Y-54000000D01*
X63991653Y-55312048D01*
X64307214Y-55156038D01*
X64498020Y-54781255D01*
X64612044Y-54376449D01*
X64638189Y-54042824D01*
X65405098Y-54042824D01*
X65454666Y-54460451D01*
X65584757Y-54860383D01*
X65742786Y-55156038D01*
X66058347Y-55312048D01*
X67370395Y-54000000D01*
X67729605Y-54000000D01*
X69041653Y-55312048D01*
X69357214Y-55156038D01*
X69548020Y-54781255D01*
X69662044Y-54376449D01*
X69694902Y-53957176D01*
X69645334Y-53539549D01*
X69515243Y-53139617D01*
X69357214Y-52843962D01*
X69041653Y-52687952D01*
X67729605Y-54000000D01*
X67370395Y-54000000D01*
X66058347Y-52687952D01*
X65742786Y-52843962D01*
X65551980Y-53218745D01*
X65437956Y-53623551D01*
X65405098Y-54042824D01*
X64638189Y-54042824D01*
X64644902Y-53957176D01*
X64595334Y-53539549D01*
X64465243Y-53139617D01*
X64307214Y-52843962D01*
X63991653Y-52687952D01*
X62679605Y-54000000D01*
X62320395Y-54000000D01*
X61008347Y-52687952D01*
X60692786Y-52843962D01*
X60501980Y-53218745D01*
X60387956Y-53623551D01*
X60355098Y-54042824D01*
X59638189Y-54042824D01*
X59644902Y-53957176D01*
X59595334Y-53539549D01*
X59465243Y-53139617D01*
X59307214Y-52843962D01*
X58991653Y-52687952D01*
X57679605Y-54000000D01*
X57320395Y-54000000D01*
X56008347Y-52687952D01*
X55692786Y-52843962D01*
X55501980Y-53218745D01*
X55387956Y-53623551D01*
X55355098Y-54042824D01*
X54638189Y-54042824D01*
X54644902Y-53957176D01*
X54595334Y-53539549D01*
X54465243Y-53139617D01*
X54307214Y-52843962D01*
X53991653Y-52687952D01*
X52679605Y-54000000D01*
X52320395Y-54000000D01*
X51008347Y-52687952D01*
X50692786Y-52843962D01*
X50501980Y-53218745D01*
X50387956Y-53623551D01*
X50355098Y-54042824D01*
X49638189Y-54042824D01*
X49644902Y-53957176D01*
X49595334Y-53539549D01*
X49465243Y-53139617D01*
X49307214Y-52843962D01*
X48991653Y-52687952D01*
X47679605Y-54000000D01*
X47320395Y-54000000D01*
X46008347Y-52687952D01*
X45692786Y-52843962D01*
X45501980Y-53218745D01*
X45387956Y-53623551D01*
X45355098Y-54042824D01*
X44638189Y-54042824D01*
X44644902Y-53957176D01*
X44595334Y-53539549D01*
X44465243Y-53139617D01*
X44307214Y-52843962D01*
X43991653Y-52687952D01*
X42679605Y-54000000D01*
X42320395Y-54000000D01*
X41008347Y-52687952D01*
X40692786Y-52843962D01*
X40501980Y-53218745D01*
X40387956Y-53623551D01*
X40355098Y-54042824D01*
X29727000Y-54042824D01*
X29727000Y-52508347D01*
X41187952Y-52508347D01*
X42500000Y-53820395D01*
X43812048Y-52508347D01*
X46187952Y-52508347D01*
X47500000Y-53820395D01*
X48812048Y-52508347D01*
X51187952Y-52508347D01*
X52500000Y-53820395D01*
X53812048Y-52508347D01*
X56187952Y-52508347D01*
X57500000Y-53820395D01*
X58812048Y-52508347D01*
X61187952Y-52508347D01*
X62500000Y-53820395D01*
X63812048Y-52508347D01*
X66237952Y-52508347D01*
X67550000Y-53820395D01*
X68862048Y-52508347D01*
X68706038Y-52192786D01*
X68331255Y-52001980D01*
X67926449Y-51887956D01*
X67507176Y-51855098D01*
X67089549Y-51904666D01*
X66689617Y-52034757D01*
X66393962Y-52192786D01*
X66237952Y-52508347D01*
X63812048Y-52508347D01*
X63656038Y-52192786D01*
X63281255Y-52001980D01*
X62876449Y-51887956D01*
X62457176Y-51855098D01*
X62039549Y-51904666D01*
X61639617Y-52034757D01*
X61343962Y-52192786D01*
X61187952Y-52508347D01*
X58812048Y-52508347D01*
X58656038Y-52192786D01*
X58281255Y-52001980D01*
X57876449Y-51887956D01*
X57457176Y-51855098D01*
X57039549Y-51904666D01*
X56639617Y-52034757D01*
X56343962Y-52192786D01*
X56187952Y-52508347D01*
X53812048Y-52508347D01*
X53656038Y-52192786D01*
X53281255Y-52001980D01*
X52876449Y-51887956D01*
X52457176Y-51855098D01*
X52039549Y-51904666D01*
X51639617Y-52034757D01*
X51343962Y-52192786D01*
X51187952Y-52508347D01*
X48812048Y-52508347D01*
X48656038Y-52192786D01*
X48281255Y-52001980D01*
X47876449Y-51887956D01*
X47457176Y-51855098D01*
X47039549Y-51904666D01*
X46639617Y-52034757D01*
X46343962Y-52192786D01*
X46187952Y-52508347D01*
X43812048Y-52508347D01*
X43656038Y-52192786D01*
X43281255Y-52001980D01*
X42876449Y-51887956D01*
X42457176Y-51855098D01*
X42039549Y-51904666D01*
X41639617Y-52034757D01*
X41343962Y-52192786D01*
X41187952Y-52508347D01*
X29727000Y-52508347D01*
X29727000Y-50176869D01*
X77873000Y-50127131D01*
X77873000Y-61373131D01*
G36*
X77873000Y-61373000D02*
G01*
X30127000Y-61373000D01*
X30127000Y-55491653D01*
X41187952Y-55491653D01*
X41343962Y-55807214D01*
X41718745Y-55998020D01*
X42123551Y-56112044D01*
X42542824Y-56144902D01*
X42960451Y-56095334D01*
X43360383Y-55965243D01*
X43656038Y-55807214D01*
X43812048Y-55491653D01*
X46187952Y-55491653D01*
X46343962Y-55807214D01*
X46718745Y-55998020D01*
X47123551Y-56112044D01*
X47542824Y-56144902D01*
X47960451Y-56095334D01*
X48360383Y-55965243D01*
X48656038Y-55807214D01*
X48812048Y-55491653D01*
X51187952Y-55491653D01*
X51343962Y-55807214D01*
X51718745Y-55998020D01*
X52123551Y-56112044D01*
X52542824Y-56144902D01*
X52960451Y-56095334D01*
X53360383Y-55965243D01*
X53656038Y-55807214D01*
X53812048Y-55491653D01*
X56187952Y-55491653D01*
X56343962Y-55807214D01*
X56718745Y-55998020D01*
X57123551Y-56112044D01*
X57542824Y-56144902D01*
X57960451Y-56095334D01*
X58360383Y-55965243D01*
X58656038Y-55807214D01*
X58812048Y-55491653D01*
X61187952Y-55491653D01*
X61343962Y-55807214D01*
X61718745Y-55998020D01*
X62123551Y-56112044D01*
X62542824Y-56144902D01*
X62960451Y-56095334D01*
X63360383Y-55965243D01*
X63656038Y-55807214D01*
X63812048Y-55491653D01*
X66237952Y-55491653D01*
X66393962Y-55807214D01*
X66768745Y-55998020D01*
X67173551Y-56112044D01*
X67592824Y-56144902D01*
X68010451Y-56095334D01*
X68410383Y-55965243D01*
X68706038Y-55807214D01*
X68862048Y-55491653D01*
X67550000Y-54179605D01*
X66237952Y-55491653D01*
X63812048Y-55491653D01*
X62500000Y-54179605D01*
X61187952Y-55491653D01*
X58812048Y-55491653D01*
X57500000Y-54179605D01*
X56187952Y-55491653D01*
X53812048Y-55491653D01*
X52500000Y-54179605D01*
X51187952Y-55491653D01*
X48812048Y-55491653D01*
X47500000Y-54179605D01*
X46187952Y-55491653D01*
X43812048Y-55491653D01*
X42500000Y-54179605D01*
X41187952Y-55491653D01*
X30127000Y-55491653D01*
X30127000Y-54042824D01*
X40355098Y-54042824D01*
X40404666Y-54460451D01*
X40534757Y-54860383D01*
X40692786Y-55156038D01*
X41008347Y-55312048D01*
X42320395Y-54000000D01*
X42679605Y-54000000D01*
X43991653Y-55312048D01*
X44307214Y-55156038D01*
X44498020Y-54781255D01*
X44612044Y-54376449D01*
X44638189Y-54042824D01*
X45355098Y-54042824D01*
X45404666Y-54460451D01*
X45534757Y-54860383D01*
X45692786Y-55156038D01*
X46008347Y-55312048D01*
X47320395Y-54000000D01*
X47679605Y-54000000D01*
X48991653Y-55312048D01*
X49307214Y-55156038D01*
X49498020Y-54781255D01*
X49612044Y-54376449D01*
X49638189Y-54042824D01*
X50355098Y-54042824D01*
X50404666Y-54460451D01*
X50534757Y-54860383D01*
X50692786Y-55156038D01*
X51008347Y-55312048D01*
X52320395Y-54000000D01*
X52679605Y-54000000D01*
X53991653Y-55312048D01*
X54307214Y-55156038D01*
X54498020Y-54781255D01*
X54612044Y-54376449D01*
X54638189Y-54042824D01*
X55355098Y-54042824D01*
X55404666Y-54460451D01*
X55534757Y-54860383D01*
X55692786Y-55156038D01*
X56008347Y-55312048D01*
X57320395Y-54000000D01*
X57679605Y-54000000D01*
X58991653Y-55312048D01*
X59307214Y-55156038D01*
X59498020Y-54781255D01*
X59612044Y-54376449D01*
X59638189Y-54042824D01*
X60355098Y-54042824D01*
X60404666Y-54460451D01*
X60534757Y-54860383D01*
X60692786Y-55156038D01*
X61008347Y-55312048D01*
X62320395Y-54000000D01*
X62679605Y-54000000D01*
X63991653Y-55312048D01*
X64307214Y-55156038D01*
X64498020Y-54781255D01*
X64612044Y-54376449D01*
X64638189Y-54042824D01*
X65405098Y-54042824D01*
X65454666Y-54460451D01*
X65584757Y-54860383D01*
X65742786Y-55156038D01*
X66058347Y-55312048D01*
X67370395Y-54000000D01*
X67729605Y-54000000D01*
X69041653Y-55312048D01*
X69357214Y-55156038D01*
X69548020Y-54781255D01*
X69662044Y-54376449D01*
X69694902Y-53957176D01*
X69645334Y-53539549D01*
X69515243Y-53139617D01*
X69357214Y-52843962D01*
X69041653Y-52687952D01*
X67729605Y-54000000D01*
X67370395Y-54000000D01*
X66058347Y-52687952D01*
X65742786Y-52843962D01*
X65551980Y-53218745D01*
X65437956Y-53623551D01*
X65405098Y-54042824D01*
X64638189Y-54042824D01*
X64644902Y-53957176D01*
X64595334Y-53539549D01*
X64465243Y-53139617D01*
X64307214Y-52843962D01*
X63991653Y-52687952D01*
X62679605Y-54000000D01*
X62320395Y-54000000D01*
X61008347Y-52687952D01*
X60692786Y-52843962D01*
X60501980Y-53218745D01*
X60387956Y-53623551D01*
X60355098Y-54042824D01*
X59638189Y-54042824D01*
X59644902Y-53957176D01*
X59595334Y-53539549D01*
X59465243Y-53139617D01*
X59307214Y-52843962D01*
X58991653Y-52687952D01*
X57679605Y-54000000D01*
X57320395Y-54000000D01*
X56008347Y-52687952D01*
X55692786Y-52843962D01*
X55501980Y-53218745D01*
X55387956Y-53623551D01*
X55355098Y-54042824D01*
X54638189Y-54042824D01*
X54644902Y-53957176D01*
X54595334Y-53539549D01*
X54465243Y-53139617D01*
X54307214Y-52843962D01*
X53991653Y-52687952D01*
X52679605Y-54000000D01*
X52320395Y-54000000D01*
X51008347Y-52687952D01*
X50692786Y-52843962D01*
X50501980Y-53218745D01*
X50387956Y-53623551D01*
X50355098Y-54042824D01*
X49638189Y-54042824D01*
X49644902Y-53957176D01*
X49595334Y-53539549D01*
X49465243Y-53139617D01*
X49307214Y-52843962D01*
X48991653Y-52687952D01*
X47679605Y-54000000D01*
X47320395Y-54000000D01*
X46008347Y-52687952D01*
X45692786Y-52843962D01*
X45501980Y-53218745D01*
X45387956Y-53623551D01*
X45355098Y-54042824D01*
X44638189Y-54042824D01*
X44644902Y-53957176D01*
X44595334Y-53539549D01*
X44465243Y-53139617D01*
X44307214Y-52843962D01*
X43991653Y-52687952D01*
X42679605Y-54000000D01*
X42320395Y-54000000D01*
X41008347Y-52687952D01*
X40692786Y-52843962D01*
X40501980Y-53218745D01*
X40387956Y-53623551D01*
X40355098Y-54042824D01*
X30127000Y-54042824D01*
X30127000Y-52508347D01*
X41187952Y-52508347D01*
X42500000Y-53820395D01*
X43812048Y-52508347D01*
X46187952Y-52508347D01*
X47500000Y-53820395D01*
X48812048Y-52508347D01*
X51187952Y-52508347D01*
X52500000Y-53820395D01*
X53812048Y-52508347D01*
X56187952Y-52508347D01*
X57500000Y-53820395D01*
X58812048Y-52508347D01*
X61187952Y-52508347D01*
X62500000Y-53820395D01*
X63812048Y-52508347D01*
X66237952Y-52508347D01*
X67550000Y-53820395D01*
X68862048Y-52508347D01*
X68706038Y-52192786D01*
X68331255Y-52001980D01*
X67926449Y-51887956D01*
X67507176Y-51855098D01*
X67089549Y-51904666D01*
X66689617Y-52034757D01*
X66393962Y-52192786D01*
X66237952Y-52508347D01*
X63812048Y-52508347D01*
X63656038Y-52192786D01*
X63281255Y-52001980D01*
X62876449Y-51887956D01*
X62457176Y-51855098D01*
X62039549Y-51904666D01*
X61639617Y-52034757D01*
X61343962Y-52192786D01*
X61187952Y-52508347D01*
X58812048Y-52508347D01*
X58656038Y-52192786D01*
X58281255Y-52001980D01*
X57876449Y-51887956D01*
X57457176Y-51855098D01*
X57039549Y-51904666D01*
X56639617Y-52034757D01*
X56343962Y-52192786D01*
X56187952Y-52508347D01*
X53812048Y-52508347D01*
X53656038Y-52192786D01*
X53281255Y-52001980D01*
X52876449Y-51887956D01*
X52457176Y-51855098D01*
X52039549Y-51904666D01*
X51639617Y-52034757D01*
X51343962Y-52192786D01*
X51187952Y-52508347D01*
X48812048Y-52508347D01*
X48656038Y-52192786D01*
X48281255Y-52001980D01*
X47876449Y-51887956D01*
X47457176Y-51855098D01*
X47039549Y-51904666D01*
X46639617Y-52034757D01*
X46343962Y-52192786D01*
X46187952Y-52508347D01*
X43812048Y-52508347D01*
X43656038Y-52192786D01*
X43281255Y-52001980D01*
X42876449Y-51887956D01*
X42457176Y-51855098D01*
X42039549Y-51904666D01*
X41639617Y-52034757D01*
X41343962Y-52192786D01*
X41187952Y-52508347D01*
X30127000Y-52508347D01*
X30127000Y-50127000D01*
X77873000Y-50127000D01*
X77873000Y-61373000D01*
X77873000Y-61373000D01*
G37*
X77873000Y-61373000D02*
X30127000Y-61373000D01*
X30127000Y-55491653D01*
X41187952Y-55491653D01*
X41343962Y-55807214D01*
X41718745Y-55998020D01*
X42123551Y-56112044D01*
X42542824Y-56144902D01*
X42960451Y-56095334D01*
X43360383Y-55965243D01*
X43656038Y-55807214D01*
X43812048Y-55491653D01*
X46187952Y-55491653D01*
X46343962Y-55807214D01*
X46718745Y-55998020D01*
X47123551Y-56112044D01*
X47542824Y-56144902D01*
X47960451Y-56095334D01*
X48360383Y-55965243D01*
X48656038Y-55807214D01*
X48812048Y-55491653D01*
X51187952Y-55491653D01*
X51343962Y-55807214D01*
X51718745Y-55998020D01*
X52123551Y-56112044D01*
X52542824Y-56144902D01*
X52960451Y-56095334D01*
X53360383Y-55965243D01*
X53656038Y-55807214D01*
X53812048Y-55491653D01*
X56187952Y-55491653D01*
X56343962Y-55807214D01*
X56718745Y-55998020D01*
X57123551Y-56112044D01*
X57542824Y-56144902D01*
X57960451Y-56095334D01*
X58360383Y-55965243D01*
X58656038Y-55807214D01*
X58812048Y-55491653D01*
X61187952Y-55491653D01*
X61343962Y-55807214D01*
X61718745Y-55998020D01*
X62123551Y-56112044D01*
X62542824Y-56144902D01*
X62960451Y-56095334D01*
X63360383Y-55965243D01*
X63656038Y-55807214D01*
X63812048Y-55491653D01*
X66237952Y-55491653D01*
X66393962Y-55807214D01*
X66768745Y-55998020D01*
X67173551Y-56112044D01*
X67592824Y-56144902D01*
X68010451Y-56095334D01*
X68410383Y-55965243D01*
X68706038Y-55807214D01*
X68862048Y-55491653D01*
X67550000Y-54179605D01*
X66237952Y-55491653D01*
X63812048Y-55491653D01*
X62500000Y-54179605D01*
X61187952Y-55491653D01*
X58812048Y-55491653D01*
X57500000Y-54179605D01*
X56187952Y-55491653D01*
X53812048Y-55491653D01*
X52500000Y-54179605D01*
X51187952Y-55491653D01*
X48812048Y-55491653D01*
X47500000Y-54179605D01*
X46187952Y-55491653D01*
X43812048Y-55491653D01*
X42500000Y-54179605D01*
X41187952Y-55491653D01*
X30127000Y-55491653D01*
X30127000Y-54042824D01*
X40355098Y-54042824D01*
X40404666Y-54460451D01*
X40534757Y-54860383D01*
X40692786Y-55156038D01*
X41008347Y-55312048D01*
X42320395Y-54000000D01*
X42679605Y-54000000D01*
X43991653Y-55312048D01*
X44307214Y-55156038D01*
X44498020Y-54781255D01*
X44612044Y-54376449D01*
X44638189Y-54042824D01*
X45355098Y-54042824D01*
X45404666Y-54460451D01*
X45534757Y-54860383D01*
X45692786Y-55156038D01*
X46008347Y-55312048D01*
X47320395Y-54000000D01*
X47679605Y-54000000D01*
X48991653Y-55312048D01*
X49307214Y-55156038D01*
X49498020Y-54781255D01*
X49612044Y-54376449D01*
X49638189Y-54042824D01*
X50355098Y-54042824D01*
X50404666Y-54460451D01*
X50534757Y-54860383D01*
X50692786Y-55156038D01*
X51008347Y-55312048D01*
X52320395Y-54000000D01*
X52679605Y-54000000D01*
X53991653Y-55312048D01*
X54307214Y-55156038D01*
X54498020Y-54781255D01*
X54612044Y-54376449D01*
X54638189Y-54042824D01*
X55355098Y-54042824D01*
X55404666Y-54460451D01*
X55534757Y-54860383D01*
X55692786Y-55156038D01*
X56008347Y-55312048D01*
X57320395Y-54000000D01*
X57679605Y-54000000D01*
X58991653Y-55312048D01*
X59307214Y-55156038D01*
X59498020Y-54781255D01*
X59612044Y-54376449D01*
X59638189Y-54042824D01*
X60355098Y-54042824D01*
X60404666Y-54460451D01*
X60534757Y-54860383D01*
X60692786Y-55156038D01*
X61008347Y-55312048D01*
X62320395Y-54000000D01*
X62679605Y-54000000D01*
X63991653Y-55312048D01*
X64307214Y-55156038D01*
X64498020Y-54781255D01*
X64612044Y-54376449D01*
X64638189Y-54042824D01*
X65405098Y-54042824D01*
X65454666Y-54460451D01*
X65584757Y-54860383D01*
X65742786Y-55156038D01*
X66058347Y-55312048D01*
X67370395Y-54000000D01*
X67729605Y-54000000D01*
X69041653Y-55312048D01*
X69357214Y-55156038D01*
X69548020Y-54781255D01*
X69662044Y-54376449D01*
X69694902Y-53957176D01*
X69645334Y-53539549D01*
X69515243Y-53139617D01*
X69357214Y-52843962D01*
X69041653Y-52687952D01*
X67729605Y-54000000D01*
X67370395Y-54000000D01*
X66058347Y-52687952D01*
X65742786Y-52843962D01*
X65551980Y-53218745D01*
X65437956Y-53623551D01*
X65405098Y-54042824D01*
X64638189Y-54042824D01*
X64644902Y-53957176D01*
X64595334Y-53539549D01*
X64465243Y-53139617D01*
X64307214Y-52843962D01*
X63991653Y-52687952D01*
X62679605Y-54000000D01*
X62320395Y-54000000D01*
X61008347Y-52687952D01*
X60692786Y-52843962D01*
X60501980Y-53218745D01*
X60387956Y-53623551D01*
X60355098Y-54042824D01*
X59638189Y-54042824D01*
X59644902Y-53957176D01*
X59595334Y-53539549D01*
X59465243Y-53139617D01*
X59307214Y-52843962D01*
X58991653Y-52687952D01*
X57679605Y-54000000D01*
X57320395Y-54000000D01*
X56008347Y-52687952D01*
X55692786Y-52843962D01*
X55501980Y-53218745D01*
X55387956Y-53623551D01*
X55355098Y-54042824D01*
X54638189Y-54042824D01*
X54644902Y-53957176D01*
X54595334Y-53539549D01*
X54465243Y-53139617D01*
X54307214Y-52843962D01*
X53991653Y-52687952D01*
X52679605Y-54000000D01*
X52320395Y-54000000D01*
X51008347Y-52687952D01*
X50692786Y-52843962D01*
X50501980Y-53218745D01*
X50387956Y-53623551D01*
X50355098Y-54042824D01*
X49638189Y-54042824D01*
X49644902Y-53957176D01*
X49595334Y-53539549D01*
X49465243Y-53139617D01*
X49307214Y-52843962D01*
X48991653Y-52687952D01*
X47679605Y-54000000D01*
X47320395Y-54000000D01*
X46008347Y-52687952D01*
X45692786Y-52843962D01*
X45501980Y-53218745D01*
X45387956Y-53623551D01*
X45355098Y-54042824D01*
X44638189Y-54042824D01*
X44644902Y-53957176D01*
X44595334Y-53539549D01*
X44465243Y-53139617D01*
X44307214Y-52843962D01*
X43991653Y-52687952D01*
X42679605Y-54000000D01*
X42320395Y-54000000D01*
X41008347Y-52687952D01*
X40692786Y-52843962D01*
X40501980Y-53218745D01*
X40387956Y-53623551D01*
X40355098Y-54042824D01*
X30127000Y-54042824D01*
X30127000Y-52508347D01*
X41187952Y-52508347D01*
X42500000Y-53820395D01*
X43812048Y-52508347D01*
X46187952Y-52508347D01*
X47500000Y-53820395D01*
X48812048Y-52508347D01*
X51187952Y-52508347D01*
X52500000Y-53820395D01*
X53812048Y-52508347D01*
X56187952Y-52508347D01*
X57500000Y-53820395D01*
X58812048Y-52508347D01*
X61187952Y-52508347D01*
X62500000Y-53820395D01*
X63812048Y-52508347D01*
X66237952Y-52508347D01*
X67550000Y-53820395D01*
X68862048Y-52508347D01*
X68706038Y-52192786D01*
X68331255Y-52001980D01*
X67926449Y-51887956D01*
X67507176Y-51855098D01*
X67089549Y-51904666D01*
X66689617Y-52034757D01*
X66393962Y-52192786D01*
X66237952Y-52508347D01*
X63812048Y-52508347D01*
X63656038Y-52192786D01*
X63281255Y-52001980D01*
X62876449Y-51887956D01*
X62457176Y-51855098D01*
X62039549Y-51904666D01*
X61639617Y-52034757D01*
X61343962Y-52192786D01*
X61187952Y-52508347D01*
X58812048Y-52508347D01*
X58656038Y-52192786D01*
X58281255Y-52001980D01*
X57876449Y-51887956D01*
X57457176Y-51855098D01*
X57039549Y-51904666D01*
X56639617Y-52034757D01*
X56343962Y-52192786D01*
X56187952Y-52508347D01*
X53812048Y-52508347D01*
X53656038Y-52192786D01*
X53281255Y-52001980D01*
X52876449Y-51887956D01*
X52457176Y-51855098D01*
X52039549Y-51904666D01*
X51639617Y-52034757D01*
X51343962Y-52192786D01*
X51187952Y-52508347D01*
X48812048Y-52508347D01*
X48656038Y-52192786D01*
X48281255Y-52001980D01*
X47876449Y-51887956D01*
X47457176Y-51855098D01*
X47039549Y-51904666D01*
X46639617Y-52034757D01*
X46343962Y-52192786D01*
X46187952Y-52508347D01*
X43812048Y-52508347D01*
X43656038Y-52192786D01*
X43281255Y-52001980D01*
X42876449Y-51887956D01*
X42457176Y-51855098D01*
X42039549Y-51904666D01*
X41639617Y-52034757D01*
X41343962Y-52192786D01*
X41187952Y-52508347D01*
X30127000Y-52508347D01*
X30127000Y-50127000D01*
X77873000Y-50127000D01*
X77873000Y-61373000D01*
G36*
X77873000Y-61373000D02*
G01*
X30127000Y-61373000D01*
X30127000Y-55491653D01*
X41187952Y-55491653D01*
X41343962Y-55807214D01*
X41718745Y-55998020D01*
X42123551Y-56112044D01*
X42542824Y-56144902D01*
X42960451Y-56095334D01*
X43360383Y-55965243D01*
X43656038Y-55807214D01*
X43812048Y-55491653D01*
X46187952Y-55491653D01*
X46343962Y-55807214D01*
X46718745Y-55998020D01*
X47123551Y-56112044D01*
X47542824Y-56144902D01*
X47960451Y-56095334D01*
X48360383Y-55965243D01*
X48656038Y-55807214D01*
X48812048Y-55491653D01*
X51187952Y-55491653D01*
X51343962Y-55807214D01*
X51718745Y-55998020D01*
X52123551Y-56112044D01*
X52542824Y-56144902D01*
X52960451Y-56095334D01*
X53360383Y-55965243D01*
X53656038Y-55807214D01*
X53812048Y-55491653D01*
X56187952Y-55491653D01*
X56343962Y-55807214D01*
X56718745Y-55998020D01*
X57123551Y-56112044D01*
X57542824Y-56144902D01*
X57960451Y-56095334D01*
X58360383Y-55965243D01*
X58656038Y-55807214D01*
X58812048Y-55491653D01*
X61187952Y-55491653D01*
X61343962Y-55807214D01*
X61718745Y-55998020D01*
X62123551Y-56112044D01*
X62542824Y-56144902D01*
X62960451Y-56095334D01*
X63360383Y-55965243D01*
X63656038Y-55807214D01*
X63812048Y-55491653D01*
X66237952Y-55491653D01*
X66393962Y-55807214D01*
X66768745Y-55998020D01*
X67173551Y-56112044D01*
X67592824Y-56144902D01*
X68010451Y-56095334D01*
X68410383Y-55965243D01*
X68706038Y-55807214D01*
X68862048Y-55491653D01*
X67550000Y-54179605D01*
X66237952Y-55491653D01*
X63812048Y-55491653D01*
X62500000Y-54179605D01*
X61187952Y-55491653D01*
X58812048Y-55491653D01*
X57500000Y-54179605D01*
X56187952Y-55491653D01*
X53812048Y-55491653D01*
X52500000Y-54179605D01*
X51187952Y-55491653D01*
X48812048Y-55491653D01*
X47500000Y-54179605D01*
X46187952Y-55491653D01*
X43812048Y-55491653D01*
X42500000Y-54179605D01*
X41187952Y-55491653D01*
X30127000Y-55491653D01*
X30127000Y-54042824D01*
X40355098Y-54042824D01*
X40404666Y-54460451D01*
X40534757Y-54860383D01*
X40692786Y-55156038D01*
X41008347Y-55312048D01*
X42320395Y-54000000D01*
X42679605Y-54000000D01*
X43991653Y-55312048D01*
X44307214Y-55156038D01*
X44498020Y-54781255D01*
X44612044Y-54376449D01*
X44638189Y-54042824D01*
X45355098Y-54042824D01*
X45404666Y-54460451D01*
X45534757Y-54860383D01*
X45692786Y-55156038D01*
X46008347Y-55312048D01*
X47320395Y-54000000D01*
X47679605Y-54000000D01*
X48991653Y-55312048D01*
X49307214Y-55156038D01*
X49498020Y-54781255D01*
X49612044Y-54376449D01*
X49638189Y-54042824D01*
X50355098Y-54042824D01*
X50404666Y-54460451D01*
X50534757Y-54860383D01*
X50692786Y-55156038D01*
X51008347Y-55312048D01*
X52320395Y-54000000D01*
X52679605Y-54000000D01*
X53991653Y-55312048D01*
X54307214Y-55156038D01*
X54498020Y-54781255D01*
X54612044Y-54376449D01*
X54638189Y-54042824D01*
X55355098Y-54042824D01*
X55404666Y-54460451D01*
X55534757Y-54860383D01*
X55692786Y-55156038D01*
X56008347Y-55312048D01*
X57320395Y-54000000D01*
X57679605Y-54000000D01*
X58991653Y-55312048D01*
X59307214Y-55156038D01*
X59498020Y-54781255D01*
X59612044Y-54376449D01*
X59638189Y-54042824D01*
X60355098Y-54042824D01*
X60404666Y-54460451D01*
X60534757Y-54860383D01*
X60692786Y-55156038D01*
X61008347Y-55312048D01*
X62320395Y-54000000D01*
X62679605Y-54000000D01*
X63991653Y-55312048D01*
X64307214Y-55156038D01*
X64498020Y-54781255D01*
X64612044Y-54376449D01*
X64638189Y-54042824D01*
X65405098Y-54042824D01*
X65454666Y-54460451D01*
X65584757Y-54860383D01*
X65742786Y-55156038D01*
X66058347Y-55312048D01*
X67370395Y-54000000D01*
X67729605Y-54000000D01*
X69041653Y-55312048D01*
X69357214Y-55156038D01*
X69548020Y-54781255D01*
X69662044Y-54376449D01*
X69694902Y-53957176D01*
X69645334Y-53539549D01*
X69515243Y-53139617D01*
X69357214Y-52843962D01*
X69041653Y-52687952D01*
X67729605Y-54000000D01*
X67370395Y-54000000D01*
X66058347Y-52687952D01*
X65742786Y-52843962D01*
X65551980Y-53218745D01*
X65437956Y-53623551D01*
X65405098Y-54042824D01*
X64638189Y-54042824D01*
X64644902Y-53957176D01*
X64595334Y-53539549D01*
X64465243Y-53139617D01*
X64307214Y-52843962D01*
X63991653Y-52687952D01*
X62679605Y-54000000D01*
X62320395Y-54000000D01*
X61008347Y-52687952D01*
X60692786Y-52843962D01*
X60501980Y-53218745D01*
X60387956Y-53623551D01*
X60355098Y-54042824D01*
X59638189Y-54042824D01*
X59644902Y-53957176D01*
X59595334Y-53539549D01*
X59465243Y-53139617D01*
X59307214Y-52843962D01*
X58991653Y-52687952D01*
X57679605Y-54000000D01*
X57320395Y-54000000D01*
X56008347Y-52687952D01*
X55692786Y-52843962D01*
X55501980Y-53218745D01*
X55387956Y-53623551D01*
X55355098Y-54042824D01*
X54638189Y-54042824D01*
X54644902Y-53957176D01*
X54595334Y-53539549D01*
X54465243Y-53139617D01*
X54307214Y-52843962D01*
X53991653Y-52687952D01*
X52679605Y-54000000D01*
X52320395Y-54000000D01*
X51008347Y-52687952D01*
X50692786Y-52843962D01*
X50501980Y-53218745D01*
X50387956Y-53623551D01*
X50355098Y-54042824D01*
X49638189Y-54042824D01*
X49644902Y-53957176D01*
X49595334Y-53539549D01*
X49465243Y-53139617D01*
X49307214Y-52843962D01*
X48991653Y-52687952D01*
X47679605Y-54000000D01*
X47320395Y-54000000D01*
X46008347Y-52687952D01*
X45692786Y-52843962D01*
X45501980Y-53218745D01*
X45387956Y-53623551D01*
X45355098Y-54042824D01*
X44638189Y-54042824D01*
X44644902Y-53957176D01*
X44595334Y-53539549D01*
X44465243Y-53139617D01*
X44307214Y-52843962D01*
X43991653Y-52687952D01*
X42679605Y-54000000D01*
X42320395Y-54000000D01*
X41008347Y-52687952D01*
X40692786Y-52843962D01*
X40501980Y-53218745D01*
X40387956Y-53623551D01*
X40355098Y-54042824D01*
X30127000Y-54042824D01*
X30127000Y-52508347D01*
X41187952Y-52508347D01*
X42500000Y-53820395D01*
X43812048Y-52508347D01*
X46187952Y-52508347D01*
X47500000Y-53820395D01*
X48812048Y-52508347D01*
X51187952Y-52508347D01*
X52500000Y-53820395D01*
X53812048Y-52508347D01*
X56187952Y-52508347D01*
X57500000Y-53820395D01*
X58812048Y-52508347D01*
X61187952Y-52508347D01*
X62500000Y-53820395D01*
X63812048Y-52508347D01*
X66237952Y-52508347D01*
X67550000Y-53820395D01*
X68862048Y-52508347D01*
X68706038Y-52192786D01*
X68331255Y-52001980D01*
X67926449Y-51887956D01*
X67507176Y-51855098D01*
X67089549Y-51904666D01*
X66689617Y-52034757D01*
X66393962Y-52192786D01*
X66237952Y-52508347D01*
X63812048Y-52508347D01*
X63656038Y-52192786D01*
X63281255Y-52001980D01*
X62876449Y-51887956D01*
X62457176Y-51855098D01*
X62039549Y-51904666D01*
X61639617Y-52034757D01*
X61343962Y-52192786D01*
X61187952Y-52508347D01*
X58812048Y-52508347D01*
X58656038Y-52192786D01*
X58281255Y-52001980D01*
X57876449Y-51887956D01*
X57457176Y-51855098D01*
X57039549Y-51904666D01*
X56639617Y-52034757D01*
X56343962Y-52192786D01*
X56187952Y-52508347D01*
X53812048Y-52508347D01*
X53656038Y-52192786D01*
X53281255Y-52001980D01*
X52876449Y-51887956D01*
X52457176Y-51855098D01*
X52039549Y-51904666D01*
X51639617Y-52034757D01*
X51343962Y-52192786D01*
X51187952Y-52508347D01*
X48812048Y-52508347D01*
X48656038Y-52192786D01*
X48281255Y-52001980D01*
X47876449Y-51887956D01*
X47457176Y-51855098D01*
X47039549Y-51904666D01*
X46639617Y-52034757D01*
X46343962Y-52192786D01*
X46187952Y-52508347D01*
X43812048Y-52508347D01*
X43656038Y-52192786D01*
X43281255Y-52001980D01*
X42876449Y-51887956D01*
X42457176Y-51855098D01*
X42039549Y-51904666D01*
X41639617Y-52034757D01*
X41343962Y-52192786D01*
X41187952Y-52508347D01*
X30127000Y-52508347D01*
X30127000Y-50127000D01*
X77873000Y-50127000D01*
X77873000Y-61373000D01*
X77873000Y-61373000D01*
G37*
X77873000Y-61373000D02*
X30127000Y-61373000D01*
X30127000Y-55491653D01*
X41187952Y-55491653D01*
X41343962Y-55807214D01*
X41718745Y-55998020D01*
X42123551Y-56112044D01*
X42542824Y-56144902D01*
X42960451Y-56095334D01*
X43360383Y-55965243D01*
X43656038Y-55807214D01*
X43812048Y-55491653D01*
X46187952Y-55491653D01*
X46343962Y-55807214D01*
X46718745Y-55998020D01*
X47123551Y-56112044D01*
X47542824Y-56144902D01*
X47960451Y-56095334D01*
X48360383Y-55965243D01*
X48656038Y-55807214D01*
X48812048Y-55491653D01*
X51187952Y-55491653D01*
X51343962Y-55807214D01*
X51718745Y-55998020D01*
X52123551Y-56112044D01*
X52542824Y-56144902D01*
X52960451Y-56095334D01*
X53360383Y-55965243D01*
X53656038Y-55807214D01*
X53812048Y-55491653D01*
X56187952Y-55491653D01*
X56343962Y-55807214D01*
X56718745Y-55998020D01*
X57123551Y-56112044D01*
X57542824Y-56144902D01*
X57960451Y-56095334D01*
X58360383Y-55965243D01*
X58656038Y-55807214D01*
X58812048Y-55491653D01*
X61187952Y-55491653D01*
X61343962Y-55807214D01*
X61718745Y-55998020D01*
X62123551Y-56112044D01*
X62542824Y-56144902D01*
X62960451Y-56095334D01*
X63360383Y-55965243D01*
X63656038Y-55807214D01*
X63812048Y-55491653D01*
X66237952Y-55491653D01*
X66393962Y-55807214D01*
X66768745Y-55998020D01*
X67173551Y-56112044D01*
X67592824Y-56144902D01*
X68010451Y-56095334D01*
X68410383Y-55965243D01*
X68706038Y-55807214D01*
X68862048Y-55491653D01*
X67550000Y-54179605D01*
X66237952Y-55491653D01*
X63812048Y-55491653D01*
X62500000Y-54179605D01*
X61187952Y-55491653D01*
X58812048Y-55491653D01*
X57500000Y-54179605D01*
X56187952Y-55491653D01*
X53812048Y-55491653D01*
X52500000Y-54179605D01*
X51187952Y-55491653D01*
X48812048Y-55491653D01*
X47500000Y-54179605D01*
X46187952Y-55491653D01*
X43812048Y-55491653D01*
X42500000Y-54179605D01*
X41187952Y-55491653D01*
X30127000Y-55491653D01*
X30127000Y-54042824D01*
X40355098Y-54042824D01*
X40404666Y-54460451D01*
X40534757Y-54860383D01*
X40692786Y-55156038D01*
X41008347Y-55312048D01*
X42320395Y-54000000D01*
X42679605Y-54000000D01*
X43991653Y-55312048D01*
X44307214Y-55156038D01*
X44498020Y-54781255D01*
X44612044Y-54376449D01*
X44638189Y-54042824D01*
X45355098Y-54042824D01*
X45404666Y-54460451D01*
X45534757Y-54860383D01*
X45692786Y-55156038D01*
X46008347Y-55312048D01*
X47320395Y-54000000D01*
X47679605Y-54000000D01*
X48991653Y-55312048D01*
X49307214Y-55156038D01*
X49498020Y-54781255D01*
X49612044Y-54376449D01*
X49638189Y-54042824D01*
X50355098Y-54042824D01*
X50404666Y-54460451D01*
X50534757Y-54860383D01*
X50692786Y-55156038D01*
X51008347Y-55312048D01*
X52320395Y-54000000D01*
X52679605Y-54000000D01*
X53991653Y-55312048D01*
X54307214Y-55156038D01*
X54498020Y-54781255D01*
X54612044Y-54376449D01*
X54638189Y-54042824D01*
X55355098Y-54042824D01*
X55404666Y-54460451D01*
X55534757Y-54860383D01*
X55692786Y-55156038D01*
X56008347Y-55312048D01*
X57320395Y-54000000D01*
X57679605Y-54000000D01*
X58991653Y-55312048D01*
X59307214Y-55156038D01*
X59498020Y-54781255D01*
X59612044Y-54376449D01*
X59638189Y-54042824D01*
X60355098Y-54042824D01*
X60404666Y-54460451D01*
X60534757Y-54860383D01*
X60692786Y-55156038D01*
X61008347Y-55312048D01*
X62320395Y-54000000D01*
X62679605Y-54000000D01*
X63991653Y-55312048D01*
X64307214Y-55156038D01*
X64498020Y-54781255D01*
X64612044Y-54376449D01*
X64638189Y-54042824D01*
X65405098Y-54042824D01*
X65454666Y-54460451D01*
X65584757Y-54860383D01*
X65742786Y-55156038D01*
X66058347Y-55312048D01*
X67370395Y-54000000D01*
X67729605Y-54000000D01*
X69041653Y-55312048D01*
X69357214Y-55156038D01*
X69548020Y-54781255D01*
X69662044Y-54376449D01*
X69694902Y-53957176D01*
X69645334Y-53539549D01*
X69515243Y-53139617D01*
X69357214Y-52843962D01*
X69041653Y-52687952D01*
X67729605Y-54000000D01*
X67370395Y-54000000D01*
X66058347Y-52687952D01*
X65742786Y-52843962D01*
X65551980Y-53218745D01*
X65437956Y-53623551D01*
X65405098Y-54042824D01*
X64638189Y-54042824D01*
X64644902Y-53957176D01*
X64595334Y-53539549D01*
X64465243Y-53139617D01*
X64307214Y-52843962D01*
X63991653Y-52687952D01*
X62679605Y-54000000D01*
X62320395Y-54000000D01*
X61008347Y-52687952D01*
X60692786Y-52843962D01*
X60501980Y-53218745D01*
X60387956Y-53623551D01*
X60355098Y-54042824D01*
X59638189Y-54042824D01*
X59644902Y-53957176D01*
X59595334Y-53539549D01*
X59465243Y-53139617D01*
X59307214Y-52843962D01*
X58991653Y-52687952D01*
X57679605Y-54000000D01*
X57320395Y-54000000D01*
X56008347Y-52687952D01*
X55692786Y-52843962D01*
X55501980Y-53218745D01*
X55387956Y-53623551D01*
X55355098Y-54042824D01*
X54638189Y-54042824D01*
X54644902Y-53957176D01*
X54595334Y-53539549D01*
X54465243Y-53139617D01*
X54307214Y-52843962D01*
X53991653Y-52687952D01*
X52679605Y-54000000D01*
X52320395Y-54000000D01*
X51008347Y-52687952D01*
X50692786Y-52843962D01*
X50501980Y-53218745D01*
X50387956Y-53623551D01*
X50355098Y-54042824D01*
X49638189Y-54042824D01*
X49644902Y-53957176D01*
X49595334Y-53539549D01*
X49465243Y-53139617D01*
X49307214Y-52843962D01*
X48991653Y-52687952D01*
X47679605Y-54000000D01*
X47320395Y-54000000D01*
X46008347Y-52687952D01*
X45692786Y-52843962D01*
X45501980Y-53218745D01*
X45387956Y-53623551D01*
X45355098Y-54042824D01*
X44638189Y-54042824D01*
X44644902Y-53957176D01*
X44595334Y-53539549D01*
X44465243Y-53139617D01*
X44307214Y-52843962D01*
X43991653Y-52687952D01*
X42679605Y-54000000D01*
X42320395Y-54000000D01*
X41008347Y-52687952D01*
X40692786Y-52843962D01*
X40501980Y-53218745D01*
X40387956Y-53623551D01*
X40355098Y-54042824D01*
X30127000Y-54042824D01*
X30127000Y-52508347D01*
X41187952Y-52508347D01*
X42500000Y-53820395D01*
X43812048Y-52508347D01*
X46187952Y-52508347D01*
X47500000Y-53820395D01*
X48812048Y-52508347D01*
X51187952Y-52508347D01*
X52500000Y-53820395D01*
X53812048Y-52508347D01*
X56187952Y-52508347D01*
X57500000Y-53820395D01*
X58812048Y-52508347D01*
X61187952Y-52508347D01*
X62500000Y-53820395D01*
X63812048Y-52508347D01*
X66237952Y-52508347D01*
X67550000Y-53820395D01*
X68862048Y-52508347D01*
X68706038Y-52192786D01*
X68331255Y-52001980D01*
X67926449Y-51887956D01*
X67507176Y-51855098D01*
X67089549Y-51904666D01*
X66689617Y-52034757D01*
X66393962Y-52192786D01*
X66237952Y-52508347D01*
X63812048Y-52508347D01*
X63656038Y-52192786D01*
X63281255Y-52001980D01*
X62876449Y-51887956D01*
X62457176Y-51855098D01*
X62039549Y-51904666D01*
X61639617Y-52034757D01*
X61343962Y-52192786D01*
X61187952Y-52508347D01*
X58812048Y-52508347D01*
X58656038Y-52192786D01*
X58281255Y-52001980D01*
X57876449Y-51887956D01*
X57457176Y-51855098D01*
X57039549Y-51904666D01*
X56639617Y-52034757D01*
X56343962Y-52192786D01*
X56187952Y-52508347D01*
X53812048Y-52508347D01*
X53656038Y-52192786D01*
X53281255Y-52001980D01*
X52876449Y-51887956D01*
X52457176Y-51855098D01*
X52039549Y-51904666D01*
X51639617Y-52034757D01*
X51343962Y-52192786D01*
X51187952Y-52508347D01*
X48812048Y-52508347D01*
X48656038Y-52192786D01*
X48281255Y-52001980D01*
X47876449Y-51887956D01*
X47457176Y-51855098D01*
X47039549Y-51904666D01*
X46639617Y-52034757D01*
X46343962Y-52192786D01*
X46187952Y-52508347D01*
X43812048Y-52508347D01*
X43656038Y-52192786D01*
X43281255Y-52001980D01*
X42876449Y-51887956D01*
X42457176Y-51855098D01*
X42039549Y-51904666D01*
X41639617Y-52034757D01*
X41343962Y-52192786D01*
X41187952Y-52508347D01*
X30127000Y-52508347D01*
X30127000Y-50127000D01*
X77873000Y-50127000D01*
X77873000Y-61373000D01*
G36*
X87969463Y-70145506D02*
G01*
X87910498Y-70255820D01*
X87874188Y-70375518D01*
X87861928Y-70500000D01*
X87865000Y-71214250D01*
X88023750Y-71373000D01*
X89373000Y-71373000D01*
X89373000Y-71353000D01*
X89627000Y-71353000D01*
X89627000Y-71373000D01*
X89647000Y-71373000D01*
X89647000Y-71627000D01*
X89627000Y-71627000D01*
X89627000Y-72976250D01*
X89785750Y-73135000D01*
X90373000Y-73137526D01*
X90373000Y-80947393D01*
X90313097Y-81007296D01*
X90241514Y-80763329D01*
X89986004Y-80642429D01*
X89711816Y-80573700D01*
X89429488Y-80559783D01*
X89149870Y-80601213D01*
X88883708Y-80696397D01*
X88758486Y-80763329D01*
X88686903Y-81007298D01*
X89500000Y-81820395D01*
X89514143Y-81806253D01*
X89693748Y-81985858D01*
X89679605Y-82000000D01*
X89693748Y-82014143D01*
X89514143Y-82193748D01*
X89500000Y-82179605D01*
X88686903Y-82992702D01*
X88758486Y-83236671D01*
X89013996Y-83357571D01*
X89288184Y-83426300D01*
X89570512Y-83440217D01*
X89850130Y-83398787D01*
X90116292Y-83303603D01*
X90241514Y-83236671D01*
X90313097Y-82992704D01*
X90373000Y-83052607D01*
X90373000Y-90873000D01*
X85500000Y-90873000D01*
X85475224Y-90875440D01*
X85451399Y-90882667D01*
X85429443Y-90894403D01*
X85410197Y-90910197D01*
X85394403Y-90929443D01*
X85382667Y-90951399D01*
X85375440Y-90975224D01*
X85373000Y-91000000D01*
X85373000Y-97373000D01*
X68127000Y-97373000D01*
X68127000Y-96492702D01*
X70686903Y-96492702D01*
X70758486Y-96736671D01*
X71013996Y-96857571D01*
X71288184Y-96926300D01*
X71570512Y-96940217D01*
X71850130Y-96898787D01*
X72116292Y-96803603D01*
X72241514Y-96736671D01*
X72313097Y-96492702D01*
X71500000Y-95679605D01*
X70686903Y-96492702D01*
X68127000Y-96492702D01*
X68127000Y-95570512D01*
X70059783Y-95570512D01*
X70101213Y-95850130D01*
X70196397Y-96116292D01*
X70263329Y-96241514D01*
X70507298Y-96313097D01*
X71320395Y-95500000D01*
X71679605Y-95500000D01*
X72492702Y-96313097D01*
X72736671Y-96241514D01*
X72857571Y-95986004D01*
X72926300Y-95711816D01*
X72940217Y-95429488D01*
X72898787Y-95149870D01*
X72803603Y-94883708D01*
X72736671Y-94758486D01*
X72492702Y-94686903D01*
X71679605Y-95500000D01*
X71320395Y-95500000D01*
X70507298Y-94686903D01*
X70263329Y-94758486D01*
X70142429Y-95013996D01*
X70073700Y-95288184D01*
X70059783Y-95570512D01*
X68127000Y-95570512D01*
X68127000Y-94507298D01*
X70686903Y-94507298D01*
X71500000Y-95320395D01*
X72313097Y-94507298D01*
X72241514Y-94263329D01*
X71986004Y-94142429D01*
X71711816Y-94073700D01*
X71429488Y-94059783D01*
X71149870Y-94101213D01*
X70883708Y-94196397D01*
X70758486Y-94263329D01*
X70686903Y-94507298D01*
X68127000Y-94507298D01*
X68127000Y-93000000D01*
X68124560Y-92975224D01*
X68117333Y-92951399D01*
X68105597Y-92929443D01*
X68089803Y-92910197D01*
X68070557Y-92894403D01*
X68048601Y-92882667D01*
X68024776Y-92875440D01*
X68000000Y-92873000D01*
X54500445Y-92873000D01*
X49784969Y-92837004D01*
X49760175Y-92839255D01*
X49736296Y-92846300D01*
X49714251Y-92857868D01*
X49694886Y-92873515D01*
X49678945Y-92892639D01*
X49667042Y-92914505D01*
X49659633Y-92938273D01*
X49657000Y-92964000D01*
X49657000Y-110500000D01*
X49657734Y-110513637D01*
X49873000Y-112506841D01*
X49873000Y-121878114D01*
X49559997Y-122301000D01*
X29750942Y-122301000D01*
X29749359Y-118839653D01*
X30951952Y-118839653D01*
X31107962Y-119155214D01*
X31482745Y-119346020D01*
X31887551Y-119460044D01*
X32306824Y-119492902D01*
X32724451Y-119443334D01*
X33124383Y-119313243D01*
X33420038Y-119155214D01*
X33576048Y-118839653D01*
X32264000Y-117527605D01*
X30951952Y-118839653D01*
X29749359Y-118839653D01*
X29748695Y-117390824D01*
X30119098Y-117390824D01*
X30168666Y-117808451D01*
X30298757Y-118208383D01*
X30456786Y-118504038D01*
X30772347Y-118660048D01*
X32084395Y-117348000D01*
X32443605Y-117348000D01*
X33755653Y-118660048D01*
X34071214Y-118504038D01*
X34262020Y-118129255D01*
X34376044Y-117724449D01*
X34408902Y-117305176D01*
X34359334Y-116887549D01*
X34229243Y-116487617D01*
X34071214Y-116191962D01*
X33755653Y-116035952D01*
X32443605Y-117348000D01*
X32084395Y-117348000D01*
X30772347Y-116035952D01*
X30456786Y-116191962D01*
X30265980Y-116566745D01*
X30151956Y-116971551D01*
X30119098Y-117390824D01*
X29748695Y-117390824D01*
X29747993Y-115856347D01*
X30951952Y-115856347D01*
X32264000Y-117168395D01*
X33576048Y-115856347D01*
X33420038Y-115540786D01*
X33045255Y-115349980D01*
X32640449Y-115235956D01*
X32221176Y-115203098D01*
X31803549Y-115252666D01*
X31403617Y-115382757D01*
X31107962Y-115540786D01*
X30951952Y-115856347D01*
X29747993Y-115856347D01*
X29743912Y-106941980D01*
X30905626Y-106941980D01*
X31025514Y-107226836D01*
X31349210Y-107387699D01*
X31698069Y-107482322D01*
X32058684Y-107507067D01*
X32417198Y-107460985D01*
X32759833Y-107345846D01*
X32982486Y-107226836D01*
X33102374Y-106941980D01*
X32004000Y-105843605D01*
X30905626Y-106941980D01*
X29743912Y-106941980D01*
X29743352Y-105718684D01*
X30160933Y-105718684D01*
X30207015Y-106077198D01*
X30322154Y-106419833D01*
X30441164Y-106642486D01*
X30726020Y-106762374D01*
X31824395Y-105664000D01*
X32183605Y-105664000D01*
X33281980Y-106762374D01*
X33566836Y-106642486D01*
X33727699Y-106318790D01*
X33822322Y-105969931D01*
X33847067Y-105609316D01*
X33800985Y-105250802D01*
X33685846Y-104908167D01*
X33566836Y-104685514D01*
X33281980Y-104565626D01*
X32183605Y-105664000D01*
X31824395Y-105664000D01*
X30726020Y-104565626D01*
X30441164Y-104685514D01*
X30280301Y-105009210D01*
X30185678Y-105358069D01*
X30160933Y-105718684D01*
X29743352Y-105718684D01*
X29742742Y-104386020D01*
X30905626Y-104386020D01*
X32004000Y-105484395D01*
X33102374Y-104386020D01*
X32982486Y-104101164D01*
X32658790Y-103940301D01*
X32309931Y-103845678D01*
X31949316Y-103820933D01*
X31590802Y-103867015D01*
X31248167Y-103982154D01*
X31025514Y-104101164D01*
X30905626Y-104386020D01*
X29742742Y-104386020D01*
X29732949Y-82991653D01*
X41187952Y-82991653D01*
X41343962Y-83307214D01*
X41718745Y-83498020D01*
X42123551Y-83612044D01*
X42542824Y-83644902D01*
X42960451Y-83595334D01*
X43360383Y-83465243D01*
X43656038Y-83307214D01*
X43812048Y-82991653D01*
X46187952Y-82991653D01*
X46343962Y-83307214D01*
X46718745Y-83498020D01*
X47123551Y-83612044D01*
X47542824Y-83644902D01*
X47960451Y-83595334D01*
X48360383Y-83465243D01*
X48656038Y-83307214D01*
X48812048Y-82991653D01*
X51187952Y-82991653D01*
X51343962Y-83307214D01*
X51718745Y-83498020D01*
X52123551Y-83612044D01*
X52542824Y-83644902D01*
X52960451Y-83595334D01*
X53360383Y-83465243D01*
X53656038Y-83307214D01*
X53812048Y-82991653D01*
X56187952Y-82991653D01*
X56343962Y-83307214D01*
X56718745Y-83498020D01*
X57123551Y-83612044D01*
X57542824Y-83644902D01*
X57960451Y-83595334D01*
X58360383Y-83465243D01*
X58656038Y-83307214D01*
X58812048Y-82991653D01*
X61187952Y-82991653D01*
X61343962Y-83307214D01*
X61718745Y-83498020D01*
X62123551Y-83612044D01*
X62542824Y-83644902D01*
X62960451Y-83595334D01*
X63360383Y-83465243D01*
X63656038Y-83307214D01*
X63812048Y-82991653D01*
X66187952Y-82991653D01*
X66343962Y-83307214D01*
X66718745Y-83498020D01*
X67123551Y-83612044D01*
X67542824Y-83644902D01*
X67960451Y-83595334D01*
X68360383Y-83465243D01*
X68656038Y-83307214D01*
X68812048Y-82991653D01*
X67500000Y-81679605D01*
X66187952Y-82991653D01*
X63812048Y-82991653D01*
X62500000Y-81679605D01*
X61187952Y-82991653D01*
X58812048Y-82991653D01*
X57500000Y-81679605D01*
X56187952Y-82991653D01*
X53812048Y-82991653D01*
X52500000Y-81679605D01*
X51187952Y-82991653D01*
X48812048Y-82991653D01*
X47500000Y-81679605D01*
X46187952Y-82991653D01*
X43812048Y-82991653D01*
X42500000Y-81679605D01*
X41187952Y-82991653D01*
X29732949Y-82991653D01*
X29732285Y-81542824D01*
X40355098Y-81542824D01*
X40404666Y-81960451D01*
X40534757Y-82360383D01*
X40692786Y-82656038D01*
X41008347Y-82812048D01*
X42320395Y-81500000D01*
X42679605Y-81500000D01*
X43991653Y-82812048D01*
X44307214Y-82656038D01*
X44498020Y-82281255D01*
X44612044Y-81876449D01*
X44638189Y-81542824D01*
X45355098Y-81542824D01*
X45404666Y-81960451D01*
X45534757Y-82360383D01*
X45692786Y-82656038D01*
X46008347Y-82812048D01*
X47320395Y-81500000D01*
X47679605Y-81500000D01*
X48991653Y-82812048D01*
X49307214Y-82656038D01*
X49498020Y-82281255D01*
X49612044Y-81876449D01*
X49638189Y-81542824D01*
X50355098Y-81542824D01*
X50404666Y-81960451D01*
X50534757Y-82360383D01*
X50692786Y-82656038D01*
X51008347Y-82812048D01*
X52320395Y-81500000D01*
X52679605Y-81500000D01*
X53991653Y-82812048D01*
X54307214Y-82656038D01*
X54498020Y-82281255D01*
X54612044Y-81876449D01*
X54638189Y-81542824D01*
X55355098Y-81542824D01*
X55404666Y-81960451D01*
X55534757Y-82360383D01*
X55692786Y-82656038D01*
X56008347Y-82812048D01*
X57320395Y-81500000D01*
X57679605Y-81500000D01*
X58991653Y-82812048D01*
X59307214Y-82656038D01*
X59498020Y-82281255D01*
X59612044Y-81876449D01*
X59638189Y-81542824D01*
X60355098Y-81542824D01*
X60404666Y-81960451D01*
X60534757Y-82360383D01*
X60692786Y-82656038D01*
X61008347Y-82812048D01*
X62320395Y-81500000D01*
X62679605Y-81500000D01*
X63991653Y-82812048D01*
X64307214Y-82656038D01*
X64498020Y-82281255D01*
X64612044Y-81876449D01*
X64638189Y-81542824D01*
X65355098Y-81542824D01*
X65404666Y-81960451D01*
X65534757Y-82360383D01*
X65692786Y-82656038D01*
X66008347Y-82812048D01*
X67320395Y-81500000D01*
X67679605Y-81500000D01*
X68991653Y-82812048D01*
X69307214Y-82656038D01*
X69498020Y-82281255D01*
X69557381Y-82070512D01*
X88059783Y-82070512D01*
X88101213Y-82350130D01*
X88196397Y-82616292D01*
X88263329Y-82741514D01*
X88507298Y-82813097D01*
X89320395Y-82000000D01*
X88507298Y-81186903D01*
X88263329Y-81258486D01*
X88142429Y-81513996D01*
X88073700Y-81788184D01*
X88059783Y-82070512D01*
X69557381Y-82070512D01*
X69612044Y-81876449D01*
X69644902Y-81457176D01*
X69595334Y-81039549D01*
X69465243Y-80639617D01*
X69307214Y-80343962D01*
X68991653Y-80187952D01*
X67679605Y-81500000D01*
X67320395Y-81500000D01*
X66008347Y-80187952D01*
X65692786Y-80343962D01*
X65501980Y-80718745D01*
X65387956Y-81123551D01*
X65355098Y-81542824D01*
X64638189Y-81542824D01*
X64644902Y-81457176D01*
X64595334Y-81039549D01*
X64465243Y-80639617D01*
X64307214Y-80343962D01*
X63991653Y-80187952D01*
X62679605Y-81500000D01*
X62320395Y-81500000D01*
X61008347Y-80187952D01*
X60692786Y-80343962D01*
X60501980Y-80718745D01*
X60387956Y-81123551D01*
X60355098Y-81542824D01*
X59638189Y-81542824D01*
X59644902Y-81457176D01*
X59595334Y-81039549D01*
X59465243Y-80639617D01*
X59307214Y-80343962D01*
X58991653Y-80187952D01*
X57679605Y-81500000D01*
X57320395Y-81500000D01*
X56008347Y-80187952D01*
X55692786Y-80343962D01*
X55501980Y-80718745D01*
X55387956Y-81123551D01*
X55355098Y-81542824D01*
X54638189Y-81542824D01*
X54644902Y-81457176D01*
X54595334Y-81039549D01*
X54465243Y-80639617D01*
X54307214Y-80343962D01*
X53991653Y-80187952D01*
X52679605Y-81500000D01*
X52320395Y-81500000D01*
X51008347Y-80187952D01*
X50692786Y-80343962D01*
X50501980Y-80718745D01*
X50387956Y-81123551D01*
X50355098Y-81542824D01*
X49638189Y-81542824D01*
X49644902Y-81457176D01*
X49595334Y-81039549D01*
X49465243Y-80639617D01*
X49307214Y-80343962D01*
X48991653Y-80187952D01*
X47679605Y-81500000D01*
X47320395Y-81500000D01*
X46008347Y-80187952D01*
X45692786Y-80343962D01*
X45501980Y-80718745D01*
X45387956Y-81123551D01*
X45355098Y-81542824D01*
X44638189Y-81542824D01*
X44644902Y-81457176D01*
X44595334Y-81039549D01*
X44465243Y-80639617D01*
X44307214Y-80343962D01*
X43991653Y-80187952D01*
X42679605Y-81500000D01*
X42320395Y-81500000D01*
X41008347Y-80187952D01*
X40692786Y-80343962D01*
X40501980Y-80718745D01*
X40387956Y-81123551D01*
X40355098Y-81542824D01*
X29732285Y-81542824D01*
X29731583Y-80008347D01*
X41187952Y-80008347D01*
X42500000Y-81320395D01*
X43812048Y-80008347D01*
X46187952Y-80008347D01*
X47500000Y-81320395D01*
X48812048Y-80008347D01*
X51187952Y-80008347D01*
X52500000Y-81320395D01*
X53812048Y-80008347D01*
X56187952Y-80008347D01*
X57500000Y-81320395D01*
X58812048Y-80008347D01*
X61187952Y-80008347D01*
X62500000Y-81320395D01*
X63812048Y-80008347D01*
X66187952Y-80008347D01*
X67500000Y-81320395D01*
X68812048Y-80008347D01*
X68656038Y-79692786D01*
X68281255Y-79501980D01*
X67876449Y-79387956D01*
X67457176Y-79355098D01*
X67039549Y-79404666D01*
X66639617Y-79534757D01*
X66343962Y-79692786D01*
X66187952Y-80008347D01*
X63812048Y-80008347D01*
X63656038Y-79692786D01*
X63281255Y-79501980D01*
X62876449Y-79387956D01*
X62457176Y-79355098D01*
X62039549Y-79404666D01*
X61639617Y-79534757D01*
X61343962Y-79692786D01*
X61187952Y-80008347D01*
X58812048Y-80008347D01*
X58656038Y-79692786D01*
X58281255Y-79501980D01*
X57876449Y-79387956D01*
X57457176Y-79355098D01*
X57039549Y-79404666D01*
X56639617Y-79534757D01*
X56343962Y-79692786D01*
X56187952Y-80008347D01*
X53812048Y-80008347D01*
X53656038Y-79692786D01*
X53281255Y-79501980D01*
X52876449Y-79387956D01*
X52457176Y-79355098D01*
X52039549Y-79404666D01*
X51639617Y-79534757D01*
X51343962Y-79692786D01*
X51187952Y-80008347D01*
X48812048Y-80008347D01*
X48656038Y-79692786D01*
X48281255Y-79501980D01*
X47876449Y-79387956D01*
X47457176Y-79355098D01*
X47039549Y-79404666D01*
X46639617Y-79534757D01*
X46343962Y-79692786D01*
X46187952Y-80008347D01*
X43812048Y-80008347D01*
X43656038Y-79692786D01*
X43281255Y-79501980D01*
X42876449Y-79387956D01*
X42457176Y-79355098D01*
X42039549Y-79404666D01*
X41639617Y-79534757D01*
X41343962Y-79692786D01*
X41187952Y-80008347D01*
X29731583Y-80008347D01*
X29728145Y-72500000D01*
X87861928Y-72500000D01*
X87874188Y-72624482D01*
X87910498Y-72744180D01*
X87969463Y-72854494D01*
X88048815Y-72951185D01*
X88145506Y-73030537D01*
X88255820Y-73089502D01*
X88375518Y-73125812D01*
X88500000Y-73138072D01*
X89214250Y-73135000D01*
X89373000Y-72976250D01*
X89373000Y-71627000D01*
X88023750Y-71627000D01*
X87865000Y-71785750D01*
X87861928Y-72500000D01*
X29728145Y-72500000D01*
X29727058Y-70127000D01*
X87984650Y-70127000D01*
X87969463Y-70145506D01*
X87969463Y-70145506D01*
G37*
X87969463Y-70145506D02*
X87910498Y-70255820D01*
X87874188Y-70375518D01*
X87861928Y-70500000D01*
X87865000Y-71214250D01*
X88023750Y-71373000D01*
X89373000Y-71373000D01*
X89373000Y-71353000D01*
X89627000Y-71353000D01*
X89627000Y-71373000D01*
X89647000Y-71373000D01*
X89647000Y-71627000D01*
X89627000Y-71627000D01*
X89627000Y-72976250D01*
X89785750Y-73135000D01*
X90373000Y-73137526D01*
X90373000Y-80947393D01*
X90313097Y-81007296D01*
X90241514Y-80763329D01*
X89986004Y-80642429D01*
X89711816Y-80573700D01*
X89429488Y-80559783D01*
X89149870Y-80601213D01*
X88883708Y-80696397D01*
X88758486Y-80763329D01*
X88686903Y-81007298D01*
X89500000Y-81820395D01*
X89514143Y-81806253D01*
X89693748Y-81985858D01*
X89679605Y-82000000D01*
X89693748Y-82014143D01*
X89514143Y-82193748D01*
X89500000Y-82179605D01*
X88686903Y-82992702D01*
X88758486Y-83236671D01*
X89013996Y-83357571D01*
X89288184Y-83426300D01*
X89570512Y-83440217D01*
X89850130Y-83398787D01*
X90116292Y-83303603D01*
X90241514Y-83236671D01*
X90313097Y-82992704D01*
X90373000Y-83052607D01*
X90373000Y-90873000D01*
X85500000Y-90873000D01*
X85475224Y-90875440D01*
X85451399Y-90882667D01*
X85429443Y-90894403D01*
X85410197Y-90910197D01*
X85394403Y-90929443D01*
X85382667Y-90951399D01*
X85375440Y-90975224D01*
X85373000Y-91000000D01*
X85373000Y-97373000D01*
X68127000Y-97373000D01*
X68127000Y-96492702D01*
X70686903Y-96492702D01*
X70758486Y-96736671D01*
X71013996Y-96857571D01*
X71288184Y-96926300D01*
X71570512Y-96940217D01*
X71850130Y-96898787D01*
X72116292Y-96803603D01*
X72241514Y-96736671D01*
X72313097Y-96492702D01*
X71500000Y-95679605D01*
X70686903Y-96492702D01*
X68127000Y-96492702D01*
X68127000Y-95570512D01*
X70059783Y-95570512D01*
X70101213Y-95850130D01*
X70196397Y-96116292D01*
X70263329Y-96241514D01*
X70507298Y-96313097D01*
X71320395Y-95500000D01*
X71679605Y-95500000D01*
X72492702Y-96313097D01*
X72736671Y-96241514D01*
X72857571Y-95986004D01*
X72926300Y-95711816D01*
X72940217Y-95429488D01*
X72898787Y-95149870D01*
X72803603Y-94883708D01*
X72736671Y-94758486D01*
X72492702Y-94686903D01*
X71679605Y-95500000D01*
X71320395Y-95500000D01*
X70507298Y-94686903D01*
X70263329Y-94758486D01*
X70142429Y-95013996D01*
X70073700Y-95288184D01*
X70059783Y-95570512D01*
X68127000Y-95570512D01*
X68127000Y-94507298D01*
X70686903Y-94507298D01*
X71500000Y-95320395D01*
X72313097Y-94507298D01*
X72241514Y-94263329D01*
X71986004Y-94142429D01*
X71711816Y-94073700D01*
X71429488Y-94059783D01*
X71149870Y-94101213D01*
X70883708Y-94196397D01*
X70758486Y-94263329D01*
X70686903Y-94507298D01*
X68127000Y-94507298D01*
X68127000Y-93000000D01*
X68124560Y-92975224D01*
X68117333Y-92951399D01*
X68105597Y-92929443D01*
X68089803Y-92910197D01*
X68070557Y-92894403D01*
X68048601Y-92882667D01*
X68024776Y-92875440D01*
X68000000Y-92873000D01*
X54500445Y-92873000D01*
X49784969Y-92837004D01*
X49760175Y-92839255D01*
X49736296Y-92846300D01*
X49714251Y-92857868D01*
X49694886Y-92873515D01*
X49678945Y-92892639D01*
X49667042Y-92914505D01*
X49659633Y-92938273D01*
X49657000Y-92964000D01*
X49657000Y-110500000D01*
X49657734Y-110513637D01*
X49873000Y-112506841D01*
X49873000Y-121878114D01*
X49559997Y-122301000D01*
X29750942Y-122301000D01*
X29749359Y-118839653D01*
X30951952Y-118839653D01*
X31107962Y-119155214D01*
X31482745Y-119346020D01*
X31887551Y-119460044D01*
X32306824Y-119492902D01*
X32724451Y-119443334D01*
X33124383Y-119313243D01*
X33420038Y-119155214D01*
X33576048Y-118839653D01*
X32264000Y-117527605D01*
X30951952Y-118839653D01*
X29749359Y-118839653D01*
X29748695Y-117390824D01*
X30119098Y-117390824D01*
X30168666Y-117808451D01*
X30298757Y-118208383D01*
X30456786Y-118504038D01*
X30772347Y-118660048D01*
X32084395Y-117348000D01*
X32443605Y-117348000D01*
X33755653Y-118660048D01*
X34071214Y-118504038D01*
X34262020Y-118129255D01*
X34376044Y-117724449D01*
X34408902Y-117305176D01*
X34359334Y-116887549D01*
X34229243Y-116487617D01*
X34071214Y-116191962D01*
X33755653Y-116035952D01*
X32443605Y-117348000D01*
X32084395Y-117348000D01*
X30772347Y-116035952D01*
X30456786Y-116191962D01*
X30265980Y-116566745D01*
X30151956Y-116971551D01*
X30119098Y-117390824D01*
X29748695Y-117390824D01*
X29747993Y-115856347D01*
X30951952Y-115856347D01*
X32264000Y-117168395D01*
X33576048Y-115856347D01*
X33420038Y-115540786D01*
X33045255Y-115349980D01*
X32640449Y-115235956D01*
X32221176Y-115203098D01*
X31803549Y-115252666D01*
X31403617Y-115382757D01*
X31107962Y-115540786D01*
X30951952Y-115856347D01*
X29747993Y-115856347D01*
X29743912Y-106941980D01*
X30905626Y-106941980D01*
X31025514Y-107226836D01*
X31349210Y-107387699D01*
X31698069Y-107482322D01*
X32058684Y-107507067D01*
X32417198Y-107460985D01*
X32759833Y-107345846D01*
X32982486Y-107226836D01*
X33102374Y-106941980D01*
X32004000Y-105843605D01*
X30905626Y-106941980D01*
X29743912Y-106941980D01*
X29743352Y-105718684D01*
X30160933Y-105718684D01*
X30207015Y-106077198D01*
X30322154Y-106419833D01*
X30441164Y-106642486D01*
X30726020Y-106762374D01*
X31824395Y-105664000D01*
X32183605Y-105664000D01*
X33281980Y-106762374D01*
X33566836Y-106642486D01*
X33727699Y-106318790D01*
X33822322Y-105969931D01*
X33847067Y-105609316D01*
X33800985Y-105250802D01*
X33685846Y-104908167D01*
X33566836Y-104685514D01*
X33281980Y-104565626D01*
X32183605Y-105664000D01*
X31824395Y-105664000D01*
X30726020Y-104565626D01*
X30441164Y-104685514D01*
X30280301Y-105009210D01*
X30185678Y-105358069D01*
X30160933Y-105718684D01*
X29743352Y-105718684D01*
X29742742Y-104386020D01*
X30905626Y-104386020D01*
X32004000Y-105484395D01*
X33102374Y-104386020D01*
X32982486Y-104101164D01*
X32658790Y-103940301D01*
X32309931Y-103845678D01*
X31949316Y-103820933D01*
X31590802Y-103867015D01*
X31248167Y-103982154D01*
X31025514Y-104101164D01*
X30905626Y-104386020D01*
X29742742Y-104386020D01*
X29732949Y-82991653D01*
X41187952Y-82991653D01*
X41343962Y-83307214D01*
X41718745Y-83498020D01*
X42123551Y-83612044D01*
X42542824Y-83644902D01*
X42960451Y-83595334D01*
X43360383Y-83465243D01*
X43656038Y-83307214D01*
X43812048Y-82991653D01*
X46187952Y-82991653D01*
X46343962Y-83307214D01*
X46718745Y-83498020D01*
X47123551Y-83612044D01*
X47542824Y-83644902D01*
X47960451Y-83595334D01*
X48360383Y-83465243D01*
X48656038Y-83307214D01*
X48812048Y-82991653D01*
X51187952Y-82991653D01*
X51343962Y-83307214D01*
X51718745Y-83498020D01*
X52123551Y-83612044D01*
X52542824Y-83644902D01*
X52960451Y-83595334D01*
X53360383Y-83465243D01*
X53656038Y-83307214D01*
X53812048Y-82991653D01*
X56187952Y-82991653D01*
X56343962Y-83307214D01*
X56718745Y-83498020D01*
X57123551Y-83612044D01*
X57542824Y-83644902D01*
X57960451Y-83595334D01*
X58360383Y-83465243D01*
X58656038Y-83307214D01*
X58812048Y-82991653D01*
X61187952Y-82991653D01*
X61343962Y-83307214D01*
X61718745Y-83498020D01*
X62123551Y-83612044D01*
X62542824Y-83644902D01*
X62960451Y-83595334D01*
X63360383Y-83465243D01*
X63656038Y-83307214D01*
X63812048Y-82991653D01*
X66187952Y-82991653D01*
X66343962Y-83307214D01*
X66718745Y-83498020D01*
X67123551Y-83612044D01*
X67542824Y-83644902D01*
X67960451Y-83595334D01*
X68360383Y-83465243D01*
X68656038Y-83307214D01*
X68812048Y-82991653D01*
X67500000Y-81679605D01*
X66187952Y-82991653D01*
X63812048Y-82991653D01*
X62500000Y-81679605D01*
X61187952Y-82991653D01*
X58812048Y-82991653D01*
X57500000Y-81679605D01*
X56187952Y-82991653D01*
X53812048Y-82991653D01*
X52500000Y-81679605D01*
X51187952Y-82991653D01*
X48812048Y-82991653D01*
X47500000Y-81679605D01*
X46187952Y-82991653D01*
X43812048Y-82991653D01*
X42500000Y-81679605D01*
X41187952Y-82991653D01*
X29732949Y-82991653D01*
X29732285Y-81542824D01*
X40355098Y-81542824D01*
X40404666Y-81960451D01*
X40534757Y-82360383D01*
X40692786Y-82656038D01*
X41008347Y-82812048D01*
X42320395Y-81500000D01*
X42679605Y-81500000D01*
X43991653Y-82812048D01*
X44307214Y-82656038D01*
X44498020Y-82281255D01*
X44612044Y-81876449D01*
X44638189Y-81542824D01*
X45355098Y-81542824D01*
X45404666Y-81960451D01*
X45534757Y-82360383D01*
X45692786Y-82656038D01*
X46008347Y-82812048D01*
X47320395Y-81500000D01*
X47679605Y-81500000D01*
X48991653Y-82812048D01*
X49307214Y-82656038D01*
X49498020Y-82281255D01*
X49612044Y-81876449D01*
X49638189Y-81542824D01*
X50355098Y-81542824D01*
X50404666Y-81960451D01*
X50534757Y-82360383D01*
X50692786Y-82656038D01*
X51008347Y-82812048D01*
X52320395Y-81500000D01*
X52679605Y-81500000D01*
X53991653Y-82812048D01*
X54307214Y-82656038D01*
X54498020Y-82281255D01*
X54612044Y-81876449D01*
X54638189Y-81542824D01*
X55355098Y-81542824D01*
X55404666Y-81960451D01*
X55534757Y-82360383D01*
X55692786Y-82656038D01*
X56008347Y-82812048D01*
X57320395Y-81500000D01*
X57679605Y-81500000D01*
X58991653Y-82812048D01*
X59307214Y-82656038D01*
X59498020Y-82281255D01*
X59612044Y-81876449D01*
X59638189Y-81542824D01*
X60355098Y-81542824D01*
X60404666Y-81960451D01*
X60534757Y-82360383D01*
X60692786Y-82656038D01*
X61008347Y-82812048D01*
X62320395Y-81500000D01*
X62679605Y-81500000D01*
X63991653Y-82812048D01*
X64307214Y-82656038D01*
X64498020Y-82281255D01*
X64612044Y-81876449D01*
X64638189Y-81542824D01*
X65355098Y-81542824D01*
X65404666Y-81960451D01*
X65534757Y-82360383D01*
X65692786Y-82656038D01*
X66008347Y-82812048D01*
X67320395Y-81500000D01*
X67679605Y-81500000D01*
X68991653Y-82812048D01*
X69307214Y-82656038D01*
X69498020Y-82281255D01*
X69557381Y-82070512D01*
X88059783Y-82070512D01*
X88101213Y-82350130D01*
X88196397Y-82616292D01*
X88263329Y-82741514D01*
X88507298Y-82813097D01*
X89320395Y-82000000D01*
X88507298Y-81186903D01*
X88263329Y-81258486D01*
X88142429Y-81513996D01*
X88073700Y-81788184D01*
X88059783Y-82070512D01*
X69557381Y-82070512D01*
X69612044Y-81876449D01*
X69644902Y-81457176D01*
X69595334Y-81039549D01*
X69465243Y-80639617D01*
X69307214Y-80343962D01*
X68991653Y-80187952D01*
X67679605Y-81500000D01*
X67320395Y-81500000D01*
X66008347Y-80187952D01*
X65692786Y-80343962D01*
X65501980Y-80718745D01*
X65387956Y-81123551D01*
X65355098Y-81542824D01*
X64638189Y-81542824D01*
X64644902Y-81457176D01*
X64595334Y-81039549D01*
X64465243Y-80639617D01*
X64307214Y-80343962D01*
X63991653Y-80187952D01*
X62679605Y-81500000D01*
X62320395Y-81500000D01*
X61008347Y-80187952D01*
X60692786Y-80343962D01*
X60501980Y-80718745D01*
X60387956Y-81123551D01*
X60355098Y-81542824D01*
X59638189Y-81542824D01*
X59644902Y-81457176D01*
X59595334Y-81039549D01*
X59465243Y-80639617D01*
X59307214Y-80343962D01*
X58991653Y-80187952D01*
X57679605Y-81500000D01*
X57320395Y-81500000D01*
X56008347Y-80187952D01*
X55692786Y-80343962D01*
X55501980Y-80718745D01*
X55387956Y-81123551D01*
X55355098Y-81542824D01*
X54638189Y-81542824D01*
X54644902Y-81457176D01*
X54595334Y-81039549D01*
X54465243Y-80639617D01*
X54307214Y-80343962D01*
X53991653Y-80187952D01*
X52679605Y-81500000D01*
X52320395Y-81500000D01*
X51008347Y-80187952D01*
X50692786Y-80343962D01*
X50501980Y-80718745D01*
X50387956Y-81123551D01*
X50355098Y-81542824D01*
X49638189Y-81542824D01*
X49644902Y-81457176D01*
X49595334Y-81039549D01*
X49465243Y-80639617D01*
X49307214Y-80343962D01*
X48991653Y-80187952D01*
X47679605Y-81500000D01*
X47320395Y-81500000D01*
X46008347Y-80187952D01*
X45692786Y-80343962D01*
X45501980Y-80718745D01*
X45387956Y-81123551D01*
X45355098Y-81542824D01*
X44638189Y-81542824D01*
X44644902Y-81457176D01*
X44595334Y-81039549D01*
X44465243Y-80639617D01*
X44307214Y-80343962D01*
X43991653Y-80187952D01*
X42679605Y-81500000D01*
X42320395Y-81500000D01*
X41008347Y-80187952D01*
X40692786Y-80343962D01*
X40501980Y-80718745D01*
X40387956Y-81123551D01*
X40355098Y-81542824D01*
X29732285Y-81542824D01*
X29731583Y-80008347D01*
X41187952Y-80008347D01*
X42500000Y-81320395D01*
X43812048Y-80008347D01*
X46187952Y-80008347D01*
X47500000Y-81320395D01*
X48812048Y-80008347D01*
X51187952Y-80008347D01*
X52500000Y-81320395D01*
X53812048Y-80008347D01*
X56187952Y-80008347D01*
X57500000Y-81320395D01*
X58812048Y-80008347D01*
X61187952Y-80008347D01*
X62500000Y-81320395D01*
X63812048Y-80008347D01*
X66187952Y-80008347D01*
X67500000Y-81320395D01*
X68812048Y-80008347D01*
X68656038Y-79692786D01*
X68281255Y-79501980D01*
X67876449Y-79387956D01*
X67457176Y-79355098D01*
X67039549Y-79404666D01*
X66639617Y-79534757D01*
X66343962Y-79692786D01*
X66187952Y-80008347D01*
X63812048Y-80008347D01*
X63656038Y-79692786D01*
X63281255Y-79501980D01*
X62876449Y-79387956D01*
X62457176Y-79355098D01*
X62039549Y-79404666D01*
X61639617Y-79534757D01*
X61343962Y-79692786D01*
X61187952Y-80008347D01*
X58812048Y-80008347D01*
X58656038Y-79692786D01*
X58281255Y-79501980D01*
X57876449Y-79387956D01*
X57457176Y-79355098D01*
X57039549Y-79404666D01*
X56639617Y-79534757D01*
X56343962Y-79692786D01*
X56187952Y-80008347D01*
X53812048Y-80008347D01*
X53656038Y-79692786D01*
X53281255Y-79501980D01*
X52876449Y-79387956D01*
X52457176Y-79355098D01*
X52039549Y-79404666D01*
X51639617Y-79534757D01*
X51343962Y-79692786D01*
X51187952Y-80008347D01*
X48812048Y-80008347D01*
X48656038Y-79692786D01*
X48281255Y-79501980D01*
X47876449Y-79387956D01*
X47457176Y-79355098D01*
X47039549Y-79404666D01*
X46639617Y-79534757D01*
X46343962Y-79692786D01*
X46187952Y-80008347D01*
X43812048Y-80008347D01*
X43656038Y-79692786D01*
X43281255Y-79501980D01*
X42876449Y-79387956D01*
X42457176Y-79355098D01*
X42039549Y-79404666D01*
X41639617Y-79534757D01*
X41343962Y-79692786D01*
X41187952Y-80008347D01*
X29731583Y-80008347D01*
X29728145Y-72500000D01*
X87861928Y-72500000D01*
X87874188Y-72624482D01*
X87910498Y-72744180D01*
X87969463Y-72854494D01*
X88048815Y-72951185D01*
X88145506Y-73030537D01*
X88255820Y-73089502D01*
X88375518Y-73125812D01*
X88500000Y-73138072D01*
X89214250Y-73135000D01*
X89373000Y-72976250D01*
X89373000Y-71627000D01*
X88023750Y-71627000D01*
X87865000Y-71785750D01*
X87861928Y-72500000D01*
X29728145Y-72500000D01*
X29727058Y-70127000D01*
X87984650Y-70127000D01*
X87969463Y-70145506D01*
G36*
X90373000Y-65625962D02*
G01*
X90373000Y-69862474D01*
X89785750Y-69865000D01*
X89627000Y-70023750D01*
X89627000Y-71373000D01*
X89647000Y-71373000D01*
X89647000Y-71627000D01*
X89627000Y-71627000D01*
X89627000Y-71647000D01*
X89373000Y-71647000D01*
X89373000Y-71627000D01*
X88023750Y-71627000D01*
X87865000Y-71785750D01*
X87861928Y-72500000D01*
X87874188Y-72624482D01*
X87910498Y-72744180D01*
X87969463Y-72854494D01*
X87984650Y-72873000D01*
X30111191Y-72873000D01*
X29794791Y-70500000D01*
X87861928Y-70500000D01*
X87865000Y-71214250D01*
X88023750Y-71373000D01*
X89373000Y-71373000D01*
X89373000Y-70023750D01*
X89214250Y-69865000D01*
X88500000Y-69861928D01*
X88375518Y-69874188D01*
X88255820Y-69910498D01*
X88145506Y-69969463D01*
X88048815Y-70048815D01*
X87969463Y-70145506D01*
X87910498Y-70255820D01*
X87874188Y-70375518D01*
X87861928Y-70500000D01*
X29794791Y-70500000D01*
X29727000Y-69991570D01*
X29727000Y-65128047D01*
X90373000Y-65625962D01*
X90373000Y-65625962D01*
G37*
X90373000Y-65625962D02*
X90373000Y-69862474D01*
X89785750Y-69865000D01*
X89627000Y-70023750D01*
X89627000Y-71373000D01*
X89647000Y-71373000D01*
X89647000Y-71627000D01*
X89627000Y-71627000D01*
X89627000Y-71647000D01*
X89373000Y-71647000D01*
X89373000Y-71627000D01*
X88023750Y-71627000D01*
X87865000Y-71785750D01*
X87861928Y-72500000D01*
X87874188Y-72624482D01*
X87910498Y-72744180D01*
X87969463Y-72854494D01*
X87984650Y-72873000D01*
X30111191Y-72873000D01*
X29794791Y-70500000D01*
X87861928Y-70500000D01*
X87865000Y-71214250D01*
X88023750Y-71373000D01*
X89373000Y-71373000D01*
X89373000Y-70023750D01*
X89214250Y-69865000D01*
X88500000Y-69861928D01*
X88375518Y-69874188D01*
X88255820Y-69910498D01*
X88145506Y-69969463D01*
X88048815Y-70048815D01*
X87969463Y-70145506D01*
X87910498Y-70255820D01*
X87874188Y-70375518D01*
X87861928Y-70500000D01*
X29794791Y-70500000D01*
X29727000Y-69991570D01*
X29727000Y-65128047D01*
X90373000Y-65625962D01*
G36*
X90373000Y-65873000D02*
G01*
X30127000Y-65873000D01*
X30127000Y-65127000D01*
X90373000Y-65127000D01*
X90373000Y-65873000D01*
X90373000Y-65873000D01*
G37*
X90373000Y-65873000D02*
X30127000Y-65873000D01*
X30127000Y-65127000D01*
X90373000Y-65127000D01*
X90373000Y-65873000D01*
G36*
X136017000Y-122301000D02*
G01*
X121031000Y-122301000D01*
X121031000Y-118697224D01*
X121766381Y-118697224D01*
X121898317Y-118992312D01*
X122239045Y-119163159D01*
X122606557Y-119264250D01*
X122986729Y-119291701D01*
X123364951Y-119244457D01*
X123726690Y-119124333D01*
X123973683Y-118992312D01*
X124105619Y-118697224D01*
X122936000Y-117527605D01*
X121766381Y-118697224D01*
X121031000Y-118697224D01*
X121031000Y-117708558D01*
X121039543Y-117776951D01*
X121159667Y-118138690D01*
X121291688Y-118385683D01*
X121586776Y-118517619D01*
X122756395Y-117348000D01*
X123115605Y-117348000D01*
X124285224Y-118517619D01*
X124580312Y-118385683D01*
X124751159Y-118044955D01*
X124852250Y-117677443D01*
X124879701Y-117297271D01*
X124832457Y-116919049D01*
X124712333Y-116557310D01*
X124580312Y-116310317D01*
X124285224Y-116178381D01*
X123115605Y-117348000D01*
X122756395Y-117348000D01*
X121586776Y-116178381D01*
X121291688Y-116310317D01*
X121120841Y-116651045D01*
X121031000Y-116977658D01*
X121031000Y-115998776D01*
X121766381Y-115998776D01*
X122936000Y-117168395D01*
X124105619Y-115998776D01*
X123973683Y-115703688D01*
X123632955Y-115532841D01*
X123265443Y-115431750D01*
X122885271Y-115404299D01*
X122507049Y-115451543D01*
X122145310Y-115571667D01*
X121898317Y-115703688D01*
X121766381Y-115998776D01*
X121031000Y-115998776D01*
X121031000Y-96992702D01*
X121686903Y-96992702D01*
X121758486Y-97236671D01*
X122013996Y-97357571D01*
X122288184Y-97426300D01*
X122570512Y-97440217D01*
X122850130Y-97398787D01*
X123116292Y-97303603D01*
X123241514Y-97236671D01*
X123313097Y-96992702D01*
X122500000Y-96179605D01*
X121686903Y-96992702D01*
X121031000Y-96992702D01*
X121031000Y-96070512D01*
X121059783Y-96070512D01*
X121101213Y-96350130D01*
X121196397Y-96616292D01*
X121263329Y-96741514D01*
X121507298Y-96813097D01*
X122320395Y-96000000D01*
X122679605Y-96000000D01*
X123492702Y-96813097D01*
X123736671Y-96741514D01*
X123857571Y-96486004D01*
X123926300Y-96211816D01*
X123940217Y-95929488D01*
X123898787Y-95649870D01*
X123803603Y-95383708D01*
X123736671Y-95258486D01*
X123492702Y-95186903D01*
X122679605Y-96000000D01*
X122320395Y-96000000D01*
X121507298Y-95186903D01*
X121263329Y-95258486D01*
X121142429Y-95513996D01*
X121073700Y-95788184D01*
X121059783Y-96070512D01*
X121031000Y-96070512D01*
X121031000Y-95007298D01*
X121686903Y-95007298D01*
X122500000Y-95820395D01*
X123313097Y-95007298D01*
X123241514Y-94763329D01*
X122986004Y-94642429D01*
X122711816Y-94573700D01*
X122429488Y-94559783D01*
X122149870Y-94601213D01*
X121883708Y-94696397D01*
X121758486Y-94763329D01*
X121686903Y-95007298D01*
X121031000Y-95007298D01*
X121031000Y-88626103D01*
X136017000Y-88519903D01*
X136017000Y-122301000D01*
X136017000Y-122301000D01*
G37*
X136017000Y-122301000D02*
X121031000Y-122301000D01*
X121031000Y-118697224D01*
X121766381Y-118697224D01*
X121898317Y-118992312D01*
X122239045Y-119163159D01*
X122606557Y-119264250D01*
X122986729Y-119291701D01*
X123364951Y-119244457D01*
X123726690Y-119124333D01*
X123973683Y-118992312D01*
X124105619Y-118697224D01*
X122936000Y-117527605D01*
X121766381Y-118697224D01*
X121031000Y-118697224D01*
X121031000Y-117708558D01*
X121039543Y-117776951D01*
X121159667Y-118138690D01*
X121291688Y-118385683D01*
X121586776Y-118517619D01*
X122756395Y-117348000D01*
X123115605Y-117348000D01*
X124285224Y-118517619D01*
X124580312Y-118385683D01*
X124751159Y-118044955D01*
X124852250Y-117677443D01*
X124879701Y-117297271D01*
X124832457Y-116919049D01*
X124712333Y-116557310D01*
X124580312Y-116310317D01*
X124285224Y-116178381D01*
X123115605Y-117348000D01*
X122756395Y-117348000D01*
X121586776Y-116178381D01*
X121291688Y-116310317D01*
X121120841Y-116651045D01*
X121031000Y-116977658D01*
X121031000Y-115998776D01*
X121766381Y-115998776D01*
X122936000Y-117168395D01*
X124105619Y-115998776D01*
X123973683Y-115703688D01*
X123632955Y-115532841D01*
X123265443Y-115431750D01*
X122885271Y-115404299D01*
X122507049Y-115451543D01*
X122145310Y-115571667D01*
X121898317Y-115703688D01*
X121766381Y-115998776D01*
X121031000Y-115998776D01*
X121031000Y-96992702D01*
X121686903Y-96992702D01*
X121758486Y-97236671D01*
X122013996Y-97357571D01*
X122288184Y-97426300D01*
X122570512Y-97440217D01*
X122850130Y-97398787D01*
X123116292Y-97303603D01*
X123241514Y-97236671D01*
X123313097Y-96992702D01*
X122500000Y-96179605D01*
X121686903Y-96992702D01*
X121031000Y-96992702D01*
X121031000Y-96070512D01*
X121059783Y-96070512D01*
X121101213Y-96350130D01*
X121196397Y-96616292D01*
X121263329Y-96741514D01*
X121507298Y-96813097D01*
X122320395Y-96000000D01*
X122679605Y-96000000D01*
X123492702Y-96813097D01*
X123736671Y-96741514D01*
X123857571Y-96486004D01*
X123926300Y-96211816D01*
X123940217Y-95929488D01*
X123898787Y-95649870D01*
X123803603Y-95383708D01*
X123736671Y-95258486D01*
X123492702Y-95186903D01*
X122679605Y-96000000D01*
X122320395Y-96000000D01*
X121507298Y-95186903D01*
X121263329Y-95258486D01*
X121142429Y-95513996D01*
X121073700Y-95788184D01*
X121059783Y-96070512D01*
X121031000Y-96070512D01*
X121031000Y-95007298D01*
X121686903Y-95007298D01*
X122500000Y-95820395D01*
X123313097Y-95007298D01*
X123241514Y-94763329D01*
X122986004Y-94642429D01*
X122711816Y-94573700D01*
X122429488Y-94559783D01*
X122149870Y-94601213D01*
X121883708Y-94696397D01*
X121758486Y-94763329D01*
X121686903Y-95007298D01*
X121031000Y-95007298D01*
X121031000Y-88626103D01*
X136017000Y-88519903D01*
X136017000Y-122301000D01*
G36*
X136017000Y-88745828D02*
G01*
X121031000Y-88376095D01*
X121031000Y-86125971D01*
X136017000Y-86004038D01*
X136017000Y-88745828D01*
X136017000Y-88745828D01*
G37*
X136017000Y-88745828D02*
X121031000Y-88376095D01*
X121031000Y-86125971D01*
X136017000Y-86004038D01*
X136017000Y-88745828D01*
G36*
X136017000Y-85873000D02*
G01*
X127127000Y-85873000D01*
X127127000Y-73492702D01*
X129686903Y-73492702D01*
X129758486Y-73736671D01*
X130013996Y-73857571D01*
X130288184Y-73926300D01*
X130570512Y-73940217D01*
X130850130Y-73898787D01*
X131116292Y-73803603D01*
X131241514Y-73736671D01*
X131313097Y-73492702D01*
X130500000Y-72679605D01*
X129686903Y-73492702D01*
X127127000Y-73492702D01*
X127127000Y-72570512D01*
X129059783Y-72570512D01*
X129101213Y-72850130D01*
X129196397Y-73116292D01*
X129263329Y-73241514D01*
X129507298Y-73313097D01*
X130320395Y-72500000D01*
X130679605Y-72500000D01*
X131492702Y-73313097D01*
X131736671Y-73241514D01*
X131857571Y-72986004D01*
X131926300Y-72711816D01*
X131940217Y-72429488D01*
X131898787Y-72149870D01*
X131803603Y-71883708D01*
X131736671Y-71758486D01*
X131492702Y-71686903D01*
X130679605Y-72500000D01*
X130320395Y-72500000D01*
X129507298Y-71686903D01*
X129263329Y-71758486D01*
X129142429Y-72013996D01*
X129073700Y-72288184D01*
X129059783Y-72570512D01*
X127127000Y-72570512D01*
X127127000Y-71507298D01*
X129686903Y-71507298D01*
X130500000Y-72320395D01*
X131313097Y-71507298D01*
X131241514Y-71263329D01*
X130986004Y-71142429D01*
X130711816Y-71073700D01*
X130429488Y-71059783D01*
X130149870Y-71101213D01*
X129883708Y-71196397D01*
X129758486Y-71263329D01*
X129686903Y-71507298D01*
X127127000Y-71507298D01*
X127127000Y-64127223D01*
X131571778Y-64135000D01*
X131572222Y-64135000D01*
X136017000Y-64127223D01*
X136017000Y-85873000D01*
X136017000Y-85873000D01*
G37*
X136017000Y-85873000D02*
X127127000Y-85873000D01*
X127127000Y-73492702D01*
X129686903Y-73492702D01*
X129758486Y-73736671D01*
X130013996Y-73857571D01*
X130288184Y-73926300D01*
X130570512Y-73940217D01*
X130850130Y-73898787D01*
X131116292Y-73803603D01*
X131241514Y-73736671D01*
X131313097Y-73492702D01*
X130500000Y-72679605D01*
X129686903Y-73492702D01*
X127127000Y-73492702D01*
X127127000Y-72570512D01*
X129059783Y-72570512D01*
X129101213Y-72850130D01*
X129196397Y-73116292D01*
X129263329Y-73241514D01*
X129507298Y-73313097D01*
X130320395Y-72500000D01*
X130679605Y-72500000D01*
X131492702Y-73313097D01*
X131736671Y-73241514D01*
X131857571Y-72986004D01*
X131926300Y-72711816D01*
X131940217Y-72429488D01*
X131898787Y-72149870D01*
X131803603Y-71883708D01*
X131736671Y-71758486D01*
X131492702Y-71686903D01*
X130679605Y-72500000D01*
X130320395Y-72500000D01*
X129507298Y-71686903D01*
X129263329Y-71758486D01*
X129142429Y-72013996D01*
X129073700Y-72288184D01*
X129059783Y-72570512D01*
X127127000Y-72570512D01*
X127127000Y-71507298D01*
X129686903Y-71507298D01*
X130500000Y-72320395D01*
X131313097Y-71507298D01*
X131241514Y-71263329D01*
X130986004Y-71142429D01*
X130711816Y-71073700D01*
X130429488Y-71059783D01*
X130149870Y-71101213D01*
X129883708Y-71196397D01*
X129758486Y-71263329D01*
X129686903Y-71507298D01*
X127127000Y-71507298D01*
X127127000Y-64127223D01*
X131571778Y-64135000D01*
X131572222Y-64135000D01*
X136017000Y-64127223D01*
X136017000Y-85873000D01*
G36*
X136017000Y-63873000D02*
G01*
X133127000Y-63873000D01*
X133127000Y-57000000D01*
X133124560Y-56975224D01*
X133117333Y-56951399D01*
X133105597Y-56929443D01*
X133089803Y-56910197D01*
X133070557Y-56894403D01*
X133048601Y-56882667D01*
X133024776Y-56875440D01*
X133000000Y-56873000D01*
X127127000Y-56873000D01*
X127127000Y-34127000D01*
X136017000Y-34127000D01*
X136017000Y-63873000D01*
X136017000Y-63873000D01*
G37*
X136017000Y-63873000D02*
X133127000Y-63873000D01*
X133127000Y-57000000D01*
X133124560Y-56975224D01*
X133117333Y-56951399D01*
X133105597Y-56929443D01*
X133089803Y-56910197D01*
X133070557Y-56894403D01*
X133048601Y-56882667D01*
X133024776Y-56875440D01*
X133000000Y-56873000D01*
X127127000Y-56873000D01*
X127127000Y-34127000D01*
X136017000Y-34127000D01*
X136017000Y-63873000D01*
G36*
X135956410Y-33873000D02*
G01*
X127127000Y-33873000D01*
X127127000Y-32004000D01*
X127124560Y-31979224D01*
X127117333Y-31955399D01*
X127105597Y-31933443D01*
X127089803Y-31914197D01*
X127070557Y-31898403D01*
X127048601Y-31886667D01*
X127024776Y-31879440D01*
X127000000Y-31877000D01*
X89500000Y-31877000D01*
X89475224Y-31879440D01*
X89451399Y-31886667D01*
X89429443Y-31898403D01*
X89410197Y-31914197D01*
X89394403Y-31933443D01*
X89382667Y-31955399D01*
X89375440Y-31979224D01*
X89373000Y-32004000D01*
X89373000Y-41500000D01*
X89375440Y-41524776D01*
X89382667Y-41548601D01*
X89394403Y-41570557D01*
X89410197Y-41589803D01*
X89429443Y-41605597D01*
X89451399Y-41617333D01*
X89475224Y-41624560D01*
X89500000Y-41627000D01*
X92864625Y-41627000D01*
X92865000Y-41714250D01*
X93023750Y-41873000D01*
X94373000Y-41873000D01*
X94373000Y-41853000D01*
X94627000Y-41853000D01*
X94627000Y-41873000D01*
X95976250Y-41873000D01*
X96135000Y-41714250D01*
X96135375Y-41627000D01*
X103614103Y-41627000D01*
X103573700Y-41788184D01*
X103559783Y-42070512D01*
X103601213Y-42350130D01*
X103696397Y-42616292D01*
X103763329Y-42741514D01*
X104007298Y-42813097D01*
X104820395Y-42000000D01*
X104806253Y-41985858D01*
X104985858Y-41806253D01*
X105000000Y-41820395D01*
X105014143Y-41806253D01*
X105193748Y-41985858D01*
X105179605Y-42000000D01*
X105193748Y-42014143D01*
X105014143Y-42193748D01*
X105000000Y-42179605D01*
X104186903Y-42992702D01*
X104258486Y-43236671D01*
X104513996Y-43357571D01*
X104788184Y-43426300D01*
X105070512Y-43440217D01*
X105350130Y-43398787D01*
X105616292Y-43303603D01*
X105741514Y-43236671D01*
X105813097Y-42992704D01*
X105873000Y-43052607D01*
X105873000Y-47373000D01*
X97000000Y-47373000D01*
X96975224Y-47375440D01*
X96951399Y-47382667D01*
X96929443Y-47394403D01*
X96910197Y-47410197D01*
X96894403Y-47429443D01*
X96882667Y-47451399D01*
X96875440Y-47475224D01*
X96873000Y-47500000D01*
X96873000Y-52873000D01*
X96035762Y-52873000D01*
X96035000Y-52785750D01*
X95876250Y-52627000D01*
X94627000Y-52627000D01*
X94627000Y-52647000D01*
X94373000Y-52647000D01*
X94373000Y-52627000D01*
X93123750Y-52627000D01*
X92965000Y-52785750D01*
X92964238Y-52873000D01*
X80627000Y-52873000D01*
X80627000Y-51862500D01*
X92961928Y-51862500D01*
X92965000Y-52214250D01*
X93123750Y-52373000D01*
X94373000Y-52373000D01*
X94373000Y-51386250D01*
X94627000Y-51386250D01*
X94627000Y-52373000D01*
X95876250Y-52373000D01*
X96035000Y-52214250D01*
X96038072Y-51862500D01*
X96025812Y-51738018D01*
X95989502Y-51618320D01*
X95930537Y-51508006D01*
X95851185Y-51411315D01*
X95754494Y-51331963D01*
X95644180Y-51272998D01*
X95524482Y-51236688D01*
X95400000Y-51224428D01*
X94785750Y-51227500D01*
X94627000Y-51386250D01*
X94373000Y-51386250D01*
X94214250Y-51227500D01*
X93600000Y-51224428D01*
X93475518Y-51236688D01*
X93355820Y-51272998D01*
X93245506Y-51331963D01*
X93148815Y-51411315D01*
X93069463Y-51508006D01*
X93010498Y-51618320D01*
X92974188Y-51738018D01*
X92961928Y-51862500D01*
X80627000Y-51862500D01*
X80627000Y-47000000D01*
X80624560Y-46975224D01*
X80617333Y-46951399D01*
X80605597Y-46929443D01*
X80589803Y-46910197D01*
X80570557Y-46894403D01*
X80548601Y-46882667D01*
X80524776Y-46875440D01*
X80500000Y-46873000D01*
X65127000Y-46873000D01*
X65127000Y-45500511D01*
X65145183Y-43000000D01*
X92861928Y-43000000D01*
X92874188Y-43124482D01*
X92910498Y-43244180D01*
X92969463Y-43354494D01*
X93048815Y-43451185D01*
X93145506Y-43530537D01*
X93255820Y-43589502D01*
X93375518Y-43625812D01*
X93500000Y-43638072D01*
X94214250Y-43635000D01*
X94373000Y-43476250D01*
X94373000Y-42127000D01*
X94627000Y-42127000D01*
X94627000Y-43476250D01*
X94785750Y-43635000D01*
X95500000Y-43638072D01*
X95624482Y-43625812D01*
X95744180Y-43589502D01*
X95854494Y-43530537D01*
X95951185Y-43451185D01*
X96030537Y-43354494D01*
X96089502Y-43244180D01*
X96125812Y-43124482D01*
X96138072Y-43000000D01*
X96135000Y-42285750D01*
X95976250Y-42127000D01*
X94627000Y-42127000D01*
X94373000Y-42127000D01*
X93023750Y-42127000D01*
X92865000Y-42285750D01*
X92861928Y-43000000D01*
X65145183Y-43000000D01*
X65250080Y-28575000D01*
X136015574Y-28575000D01*
X135956410Y-33873000D01*
X135956410Y-33873000D01*
G37*
X135956410Y-33873000D02*
X127127000Y-33873000D01*
X127127000Y-32004000D01*
X127124560Y-31979224D01*
X127117333Y-31955399D01*
X127105597Y-31933443D01*
X127089803Y-31914197D01*
X127070557Y-31898403D01*
X127048601Y-31886667D01*
X127024776Y-31879440D01*
X127000000Y-31877000D01*
X89500000Y-31877000D01*
X89475224Y-31879440D01*
X89451399Y-31886667D01*
X89429443Y-31898403D01*
X89410197Y-31914197D01*
X89394403Y-31933443D01*
X89382667Y-31955399D01*
X89375440Y-31979224D01*
X89373000Y-32004000D01*
X89373000Y-41500000D01*
X89375440Y-41524776D01*
X89382667Y-41548601D01*
X89394403Y-41570557D01*
X89410197Y-41589803D01*
X89429443Y-41605597D01*
X89451399Y-41617333D01*
X89475224Y-41624560D01*
X89500000Y-41627000D01*
X92864625Y-41627000D01*
X92865000Y-41714250D01*
X93023750Y-41873000D01*
X94373000Y-41873000D01*
X94373000Y-41853000D01*
X94627000Y-41853000D01*
X94627000Y-41873000D01*
X95976250Y-41873000D01*
X96135000Y-41714250D01*
X96135375Y-41627000D01*
X103614103Y-41627000D01*
X103573700Y-41788184D01*
X103559783Y-42070512D01*
X103601213Y-42350130D01*
X103696397Y-42616292D01*
X103763329Y-42741514D01*
X104007298Y-42813097D01*
X104820395Y-42000000D01*
X104806253Y-41985858D01*
X104985858Y-41806253D01*
X105000000Y-41820395D01*
X105014143Y-41806253D01*
X105193748Y-41985858D01*
X105179605Y-42000000D01*
X105193748Y-42014143D01*
X105014143Y-42193748D01*
X105000000Y-42179605D01*
X104186903Y-42992702D01*
X104258486Y-43236671D01*
X104513996Y-43357571D01*
X104788184Y-43426300D01*
X105070512Y-43440217D01*
X105350130Y-43398787D01*
X105616292Y-43303603D01*
X105741514Y-43236671D01*
X105813097Y-42992704D01*
X105873000Y-43052607D01*
X105873000Y-47373000D01*
X97000000Y-47373000D01*
X96975224Y-47375440D01*
X96951399Y-47382667D01*
X96929443Y-47394403D01*
X96910197Y-47410197D01*
X96894403Y-47429443D01*
X96882667Y-47451399D01*
X96875440Y-47475224D01*
X96873000Y-47500000D01*
X96873000Y-52873000D01*
X96035762Y-52873000D01*
X96035000Y-52785750D01*
X95876250Y-52627000D01*
X94627000Y-52627000D01*
X94627000Y-52647000D01*
X94373000Y-52647000D01*
X94373000Y-52627000D01*
X93123750Y-52627000D01*
X92965000Y-52785750D01*
X92964238Y-52873000D01*
X80627000Y-52873000D01*
X80627000Y-51862500D01*
X92961928Y-51862500D01*
X92965000Y-52214250D01*
X93123750Y-52373000D01*
X94373000Y-52373000D01*
X94373000Y-51386250D01*
X94627000Y-51386250D01*
X94627000Y-52373000D01*
X95876250Y-52373000D01*
X96035000Y-52214250D01*
X96038072Y-51862500D01*
X96025812Y-51738018D01*
X95989502Y-51618320D01*
X95930537Y-51508006D01*
X95851185Y-51411315D01*
X95754494Y-51331963D01*
X95644180Y-51272998D01*
X95524482Y-51236688D01*
X95400000Y-51224428D01*
X94785750Y-51227500D01*
X94627000Y-51386250D01*
X94373000Y-51386250D01*
X94214250Y-51227500D01*
X93600000Y-51224428D01*
X93475518Y-51236688D01*
X93355820Y-51272998D01*
X93245506Y-51331963D01*
X93148815Y-51411315D01*
X93069463Y-51508006D01*
X93010498Y-51618320D01*
X92974188Y-51738018D01*
X92961928Y-51862500D01*
X80627000Y-51862500D01*
X80627000Y-47000000D01*
X80624560Y-46975224D01*
X80617333Y-46951399D01*
X80605597Y-46929443D01*
X80589803Y-46910197D01*
X80570557Y-46894403D01*
X80548601Y-46882667D01*
X80524776Y-46875440D01*
X80500000Y-46873000D01*
X65127000Y-46873000D01*
X65127000Y-45500511D01*
X65145183Y-43000000D01*
X92861928Y-43000000D01*
X92874188Y-43124482D01*
X92910498Y-43244180D01*
X92969463Y-43354494D01*
X93048815Y-43451185D01*
X93145506Y-43530537D01*
X93255820Y-43589502D01*
X93375518Y-43625812D01*
X93500000Y-43638072D01*
X94214250Y-43635000D01*
X94373000Y-43476250D01*
X94373000Y-42127000D01*
X94627000Y-42127000D01*
X94627000Y-43476250D01*
X94785750Y-43635000D01*
X95500000Y-43638072D01*
X95624482Y-43625812D01*
X95744180Y-43589502D01*
X95854494Y-43530537D01*
X95951185Y-43451185D01*
X96030537Y-43354494D01*
X96089502Y-43244180D01*
X96125812Y-43124482D01*
X96138072Y-43000000D01*
X96135000Y-42285750D01*
X95976250Y-42127000D01*
X94627000Y-42127000D01*
X94373000Y-42127000D01*
X93023750Y-42127000D01*
X92865000Y-42285750D01*
X92861928Y-43000000D01*
X65145183Y-43000000D01*
X65250080Y-28575000D01*
X136015574Y-28575000D01*
X135956410Y-33873000D01*
G36*
X89873000Y-93865000D02*
G01*
X89872998Y-93865000D01*
X89872998Y-94030084D01*
X89650961Y-93908096D01*
X89516913Y-93948754D01*
X89262580Y-94068963D01*
X89036586Y-94236481D01*
X88847615Y-94444869D01*
X88702930Y-94686119D01*
X88608091Y-94950960D01*
X88729376Y-95173000D01*
X89873000Y-95173000D01*
X89873000Y-95427000D01*
X88729376Y-95427000D01*
X88608091Y-95649040D01*
X88702930Y-95913881D01*
X88847615Y-96155131D01*
X89036586Y-96363519D01*
X89262580Y-96531037D01*
X89516913Y-96651246D01*
X89650961Y-96691904D01*
X89872998Y-96569916D01*
X89872998Y-96735000D01*
X89873000Y-96735000D01*
X89873000Y-96873000D01*
X88127000Y-96873000D01*
X88127000Y-93627000D01*
X89873000Y-93627000D01*
X89873000Y-93865000D01*
X89873000Y-93865000D01*
G37*
X89873000Y-93865000D02*
X89872998Y-93865000D01*
X89872998Y-94030084D01*
X89650961Y-93908096D01*
X89516913Y-93948754D01*
X89262580Y-94068963D01*
X89036586Y-94236481D01*
X88847615Y-94444869D01*
X88702930Y-94686119D01*
X88608091Y-94950960D01*
X88729376Y-95173000D01*
X89873000Y-95173000D01*
X89873000Y-95427000D01*
X88729376Y-95427000D01*
X88608091Y-95649040D01*
X88702930Y-95913881D01*
X88847615Y-96155131D01*
X89036586Y-96363519D01*
X89262580Y-96531037D01*
X89516913Y-96651246D01*
X89650961Y-96691904D01*
X89872998Y-96569916D01*
X89872998Y-96735000D01*
X89873000Y-96735000D01*
X89873000Y-96873000D01*
X88127000Y-96873000D01*
X88127000Y-93627000D01*
X89873000Y-93627000D01*
X89873000Y-93865000D01*
G36*
X65913000Y-46863035D02*
G01*
X29727000Y-46872965D01*
X29727000Y-28575000D01*
X65913000Y-28575000D01*
X65913000Y-46863035D01*
X65913000Y-46863035D01*
G37*
X65913000Y-46863035D02*
X29727000Y-46872965D01*
X29727000Y-28575000D01*
X65913000Y-28575000D01*
X65913000Y-46863035D01*
G36*
X96373000Y-102373000D02*
G01*
X88127000Y-102373000D01*
X88127000Y-95649040D01*
X88608091Y-95649040D01*
X88702930Y-95913881D01*
X88847615Y-96155131D01*
X89036586Y-96363519D01*
X89262580Y-96531037D01*
X89516913Y-96651246D01*
X89650961Y-96691904D01*
X89873000Y-96569915D01*
X89873000Y-95427000D01*
X90127000Y-95427000D01*
X90127000Y-96569915D01*
X90349039Y-96691904D01*
X90483087Y-96651246D01*
X90737420Y-96531037D01*
X90963414Y-96363519D01*
X91152385Y-96155131D01*
X91297070Y-95913881D01*
X91391909Y-95649040D01*
X91270624Y-95427000D01*
X90127000Y-95427000D01*
X89873000Y-95427000D01*
X88729376Y-95427000D01*
X88608091Y-95649040D01*
X88127000Y-95649040D01*
X88127000Y-94950960D01*
X88608091Y-94950960D01*
X88729376Y-95173000D01*
X89873000Y-95173000D01*
X89873000Y-94030085D01*
X90127000Y-94030085D01*
X90127000Y-95173000D01*
X91270624Y-95173000D01*
X91391909Y-94950960D01*
X91297070Y-94686119D01*
X91152385Y-94444869D01*
X90963414Y-94236481D01*
X90737420Y-94068963D01*
X90483087Y-93948754D01*
X90349039Y-93908096D01*
X90127000Y-94030085D01*
X89873000Y-94030085D01*
X89650961Y-93908096D01*
X89516913Y-93948754D01*
X89262580Y-94068963D01*
X89036586Y-94236481D01*
X88847615Y-94444869D01*
X88702930Y-94686119D01*
X88608091Y-94950960D01*
X88127000Y-94950960D01*
X88127000Y-93627000D01*
X93000000Y-93627000D01*
X93024776Y-93624560D01*
X93048601Y-93617333D01*
X93070557Y-93605597D01*
X93089803Y-93589803D01*
X93105597Y-93570557D01*
X93117333Y-93548601D01*
X93124560Y-93524776D01*
X93127000Y-93500000D01*
X93127000Y-82992702D01*
X93686903Y-82992702D01*
X93758486Y-83236671D01*
X94013996Y-83357571D01*
X94288184Y-83426300D01*
X94570512Y-83440217D01*
X94850130Y-83398787D01*
X95116292Y-83303603D01*
X95241514Y-83236671D01*
X95313097Y-82992702D01*
X94500000Y-82179605D01*
X93686903Y-82992702D01*
X93127000Y-82992702D01*
X93127000Y-82422238D01*
X93196397Y-82616292D01*
X93263329Y-82741514D01*
X93507298Y-82813097D01*
X94320395Y-82000000D01*
X94679605Y-82000000D01*
X95492702Y-82813097D01*
X95736671Y-82741514D01*
X95857571Y-82486004D01*
X95926300Y-82211816D01*
X95940217Y-81929488D01*
X95898787Y-81649870D01*
X95803603Y-81383708D01*
X95736671Y-81258486D01*
X95492702Y-81186903D01*
X94679605Y-82000000D01*
X94320395Y-82000000D01*
X93507298Y-81186903D01*
X93263329Y-81258486D01*
X93142429Y-81513996D01*
X93127000Y-81575549D01*
X93127000Y-81007298D01*
X93686903Y-81007298D01*
X94500000Y-81820395D01*
X95313097Y-81007298D01*
X95241514Y-80763329D01*
X94986004Y-80642429D01*
X94711816Y-80573700D01*
X94429488Y-80559783D01*
X94149870Y-80601213D01*
X93883708Y-80696397D01*
X93758486Y-80763329D01*
X93686903Y-81007298D01*
X93127000Y-81007298D01*
X93127000Y-72635413D01*
X93544192Y-72635413D01*
X93639956Y-72899814D01*
X93929571Y-73040704D01*
X94241108Y-73122384D01*
X94562595Y-73141718D01*
X94881675Y-73097961D01*
X95186088Y-72992795D01*
X95360044Y-72899814D01*
X95455808Y-72635413D01*
X94500000Y-71679605D01*
X93544192Y-72635413D01*
X93127000Y-72635413D01*
X93127000Y-72369756D01*
X93364587Y-72455808D01*
X94320395Y-71500000D01*
X94679605Y-71500000D01*
X95635413Y-72455808D01*
X95899814Y-72360044D01*
X96040704Y-72070429D01*
X96122384Y-71758892D01*
X96141718Y-71437405D01*
X96097961Y-71118325D01*
X95992795Y-70813912D01*
X95899814Y-70639956D01*
X95635413Y-70544192D01*
X94679605Y-71500000D01*
X94320395Y-71500000D01*
X93364587Y-70544192D01*
X93127000Y-70630244D01*
X93127000Y-70364587D01*
X93544192Y-70364587D01*
X94500000Y-71320395D01*
X95455808Y-70364587D01*
X95360044Y-70100186D01*
X95070429Y-69959296D01*
X94758892Y-69877616D01*
X94437405Y-69858282D01*
X94118325Y-69902039D01*
X93813912Y-70007205D01*
X93639956Y-70100186D01*
X93544192Y-70364587D01*
X93127000Y-70364587D01*
X93127000Y-61127000D01*
X96373000Y-61127000D01*
X96373000Y-102373000D01*
X96373000Y-102373000D01*
G37*
X96373000Y-102373000D02*
X88127000Y-102373000D01*
X88127000Y-95649040D01*
X88608091Y-95649040D01*
X88702930Y-95913881D01*
X88847615Y-96155131D01*
X89036586Y-96363519D01*
X89262580Y-96531037D01*
X89516913Y-96651246D01*
X89650961Y-96691904D01*
X89873000Y-96569915D01*
X89873000Y-95427000D01*
X90127000Y-95427000D01*
X90127000Y-96569915D01*
X90349039Y-96691904D01*
X90483087Y-96651246D01*
X90737420Y-96531037D01*
X90963414Y-96363519D01*
X91152385Y-96155131D01*
X91297070Y-95913881D01*
X91391909Y-95649040D01*
X91270624Y-95427000D01*
X90127000Y-95427000D01*
X89873000Y-95427000D01*
X88729376Y-95427000D01*
X88608091Y-95649040D01*
X88127000Y-95649040D01*
X88127000Y-94950960D01*
X88608091Y-94950960D01*
X88729376Y-95173000D01*
X89873000Y-95173000D01*
X89873000Y-94030085D01*
X90127000Y-94030085D01*
X90127000Y-95173000D01*
X91270624Y-95173000D01*
X91391909Y-94950960D01*
X91297070Y-94686119D01*
X91152385Y-94444869D01*
X90963414Y-94236481D01*
X90737420Y-94068963D01*
X90483087Y-93948754D01*
X90349039Y-93908096D01*
X90127000Y-94030085D01*
X89873000Y-94030085D01*
X89650961Y-93908096D01*
X89516913Y-93948754D01*
X89262580Y-94068963D01*
X89036586Y-94236481D01*
X88847615Y-94444869D01*
X88702930Y-94686119D01*
X88608091Y-94950960D01*
X88127000Y-94950960D01*
X88127000Y-93627000D01*
X93000000Y-93627000D01*
X93024776Y-93624560D01*
X93048601Y-93617333D01*
X93070557Y-93605597D01*
X93089803Y-93589803D01*
X93105597Y-93570557D01*
X93117333Y-93548601D01*
X93124560Y-93524776D01*
X93127000Y-93500000D01*
X93127000Y-82992702D01*
X93686903Y-82992702D01*
X93758486Y-83236671D01*
X94013996Y-83357571D01*
X94288184Y-83426300D01*
X94570512Y-83440217D01*
X94850130Y-83398787D01*
X95116292Y-83303603D01*
X95241514Y-83236671D01*
X95313097Y-82992702D01*
X94500000Y-82179605D01*
X93686903Y-82992702D01*
X93127000Y-82992702D01*
X93127000Y-82422238D01*
X93196397Y-82616292D01*
X93263329Y-82741514D01*
X93507298Y-82813097D01*
X94320395Y-82000000D01*
X94679605Y-82000000D01*
X95492702Y-82813097D01*
X95736671Y-82741514D01*
X95857571Y-82486004D01*
X95926300Y-82211816D01*
X95940217Y-81929488D01*
X95898787Y-81649870D01*
X95803603Y-81383708D01*
X95736671Y-81258486D01*
X95492702Y-81186903D01*
X94679605Y-82000000D01*
X94320395Y-82000000D01*
X93507298Y-81186903D01*
X93263329Y-81258486D01*
X93142429Y-81513996D01*
X93127000Y-81575549D01*
X93127000Y-81007298D01*
X93686903Y-81007298D01*
X94500000Y-81820395D01*
X95313097Y-81007298D01*
X95241514Y-80763329D01*
X94986004Y-80642429D01*
X94711816Y-80573700D01*
X94429488Y-80559783D01*
X94149870Y-80601213D01*
X93883708Y-80696397D01*
X93758486Y-80763329D01*
X93686903Y-81007298D01*
X93127000Y-81007298D01*
X93127000Y-72635413D01*
X93544192Y-72635413D01*
X93639956Y-72899814D01*
X93929571Y-73040704D01*
X94241108Y-73122384D01*
X94562595Y-73141718D01*
X94881675Y-73097961D01*
X95186088Y-72992795D01*
X95360044Y-72899814D01*
X95455808Y-72635413D01*
X94500000Y-71679605D01*
X93544192Y-72635413D01*
X93127000Y-72635413D01*
X93127000Y-72369756D01*
X93364587Y-72455808D01*
X94320395Y-71500000D01*
X94679605Y-71500000D01*
X95635413Y-72455808D01*
X95899814Y-72360044D01*
X96040704Y-72070429D01*
X96122384Y-71758892D01*
X96141718Y-71437405D01*
X96097961Y-71118325D01*
X95992795Y-70813912D01*
X95899814Y-70639956D01*
X95635413Y-70544192D01*
X94679605Y-71500000D01*
X94320395Y-71500000D01*
X93364587Y-70544192D01*
X93127000Y-70630244D01*
X93127000Y-70364587D01*
X93544192Y-70364587D01*
X94500000Y-71320395D01*
X95455808Y-70364587D01*
X95360044Y-70100186D01*
X95070429Y-69959296D01*
X94758892Y-69877616D01*
X94437405Y-69858282D01*
X94118325Y-69902039D01*
X93813912Y-70007205D01*
X93639956Y-70100186D01*
X93544192Y-70364587D01*
X93127000Y-70364587D01*
X93127000Y-61127000D01*
X96373000Y-61127000D01*
X96373000Y-102373000D01*
G36*
X64897000Y-115854910D02*
G01*
X64881502Y-115803820D01*
X64822537Y-115693506D01*
X64743185Y-115596815D01*
X64646494Y-115517463D01*
X64536180Y-115458498D01*
X64416482Y-115422188D01*
X64292000Y-115409928D01*
X63277750Y-115413000D01*
X63119000Y-115571750D01*
X63119000Y-117221000D01*
X63139000Y-117221000D01*
X63139000Y-117475000D01*
X63119000Y-117475000D01*
X63119000Y-119124250D01*
X63277750Y-119283000D01*
X64292000Y-119286072D01*
X64416482Y-119273812D01*
X64536180Y-119237502D01*
X64646494Y-119178537D01*
X64743185Y-119099185D01*
X64822537Y-119002494D01*
X64881502Y-118892180D01*
X64897000Y-118841090D01*
X64897000Y-122301000D01*
X52884606Y-122301000D01*
X52451000Y-121867394D01*
X52451000Y-118839653D01*
X53551952Y-118839653D01*
X53707962Y-119155214D01*
X54082745Y-119346020D01*
X54487551Y-119460044D01*
X54906824Y-119492902D01*
X55324451Y-119443334D01*
X55724383Y-119313243D01*
X56020038Y-119155214D01*
X56176048Y-118839653D01*
X54864000Y-117527605D01*
X53551952Y-118839653D01*
X52451000Y-118839653D01*
X52451000Y-117390824D01*
X52719098Y-117390824D01*
X52768666Y-117808451D01*
X52898757Y-118208383D01*
X53056786Y-118504038D01*
X53372347Y-118660048D01*
X54684395Y-117348000D01*
X55043605Y-117348000D01*
X56355653Y-118660048D01*
X56380022Y-118648000D01*
X61053928Y-118648000D01*
X61066188Y-118772482D01*
X61102498Y-118892180D01*
X61161463Y-119002494D01*
X61240815Y-119099185D01*
X61337506Y-119178537D01*
X61447820Y-119237502D01*
X61567518Y-119273812D01*
X61692000Y-119286072D01*
X62706250Y-119283000D01*
X62865000Y-119124250D01*
X62865000Y-117475000D01*
X61215750Y-117475000D01*
X61057000Y-117633750D01*
X61053928Y-118648000D01*
X56380022Y-118648000D01*
X56671214Y-118504038D01*
X56862020Y-118129255D01*
X56976044Y-117724449D01*
X57008902Y-117305176D01*
X56959334Y-116887549D01*
X56829243Y-116487617D01*
X56671214Y-116191962D01*
X56380023Y-116048000D01*
X61053928Y-116048000D01*
X61057000Y-117062250D01*
X61215750Y-117221000D01*
X62865000Y-117221000D01*
X62865000Y-115571750D01*
X62706250Y-115413000D01*
X61692000Y-115409928D01*
X61567518Y-115422188D01*
X61447820Y-115458498D01*
X61337506Y-115517463D01*
X61240815Y-115596815D01*
X61161463Y-115693506D01*
X61102498Y-115803820D01*
X61066188Y-115923518D01*
X61053928Y-116048000D01*
X56380023Y-116048000D01*
X56355653Y-116035952D01*
X55043605Y-117348000D01*
X54684395Y-117348000D01*
X53372347Y-116035952D01*
X53056786Y-116191962D01*
X52865980Y-116566745D01*
X52751956Y-116971551D01*
X52719098Y-117390824D01*
X52451000Y-117390824D01*
X52451000Y-115856347D01*
X53551952Y-115856347D01*
X54864000Y-117168395D01*
X56176048Y-115856347D01*
X56020038Y-115540786D01*
X55645255Y-115349980D01*
X55240449Y-115235956D01*
X54821176Y-115203098D01*
X54403549Y-115252666D01*
X54003617Y-115382757D01*
X53707962Y-115540786D01*
X53551952Y-115856347D01*
X52451000Y-115856347D01*
X52451000Y-114935000D01*
X64897000Y-114935000D01*
X64897000Y-115854910D01*
X64897000Y-115854910D01*
G37*
X64897000Y-115854910D02*
X64881502Y-115803820D01*
X64822537Y-115693506D01*
X64743185Y-115596815D01*
X64646494Y-115517463D01*
X64536180Y-115458498D01*
X64416482Y-115422188D01*
X64292000Y-115409928D01*
X63277750Y-115413000D01*
X63119000Y-115571750D01*
X63119000Y-117221000D01*
X63139000Y-117221000D01*
X63139000Y-117475000D01*
X63119000Y-117475000D01*
X63119000Y-119124250D01*
X63277750Y-119283000D01*
X64292000Y-119286072D01*
X64416482Y-119273812D01*
X64536180Y-119237502D01*
X64646494Y-119178537D01*
X64743185Y-119099185D01*
X64822537Y-119002494D01*
X64881502Y-118892180D01*
X64897000Y-118841090D01*
X64897000Y-122301000D01*
X52884606Y-122301000D01*
X52451000Y-121867394D01*
X52451000Y-118839653D01*
X53551952Y-118839653D01*
X53707962Y-119155214D01*
X54082745Y-119346020D01*
X54487551Y-119460044D01*
X54906824Y-119492902D01*
X55324451Y-119443334D01*
X55724383Y-119313243D01*
X56020038Y-119155214D01*
X56176048Y-118839653D01*
X54864000Y-117527605D01*
X53551952Y-118839653D01*
X52451000Y-118839653D01*
X52451000Y-117390824D01*
X52719098Y-117390824D01*
X52768666Y-117808451D01*
X52898757Y-118208383D01*
X53056786Y-118504038D01*
X53372347Y-118660048D01*
X54684395Y-117348000D01*
X55043605Y-117348000D01*
X56355653Y-118660048D01*
X56380022Y-118648000D01*
X61053928Y-118648000D01*
X61066188Y-118772482D01*
X61102498Y-118892180D01*
X61161463Y-119002494D01*
X61240815Y-119099185D01*
X61337506Y-119178537D01*
X61447820Y-119237502D01*
X61567518Y-119273812D01*
X61692000Y-119286072D01*
X62706250Y-119283000D01*
X62865000Y-119124250D01*
X62865000Y-117475000D01*
X61215750Y-117475000D01*
X61057000Y-117633750D01*
X61053928Y-118648000D01*
X56380022Y-118648000D01*
X56671214Y-118504038D01*
X56862020Y-118129255D01*
X56976044Y-117724449D01*
X57008902Y-117305176D01*
X56959334Y-116887549D01*
X56829243Y-116487617D01*
X56671214Y-116191962D01*
X56380023Y-116048000D01*
X61053928Y-116048000D01*
X61057000Y-117062250D01*
X61215750Y-117221000D01*
X62865000Y-117221000D01*
X62865000Y-115571750D01*
X62706250Y-115413000D01*
X61692000Y-115409928D01*
X61567518Y-115422188D01*
X61447820Y-115458498D01*
X61337506Y-115517463D01*
X61240815Y-115596815D01*
X61161463Y-115693506D01*
X61102498Y-115803820D01*
X61066188Y-115923518D01*
X61053928Y-116048000D01*
X56380023Y-116048000D01*
X56355653Y-116035952D01*
X55043605Y-117348000D01*
X54684395Y-117348000D01*
X53372347Y-116035952D01*
X53056786Y-116191962D01*
X52865980Y-116566745D01*
X52751956Y-116971551D01*
X52719098Y-117390824D01*
X52451000Y-117390824D01*
X52451000Y-115856347D01*
X53551952Y-115856347D01*
X54864000Y-117168395D01*
X56176048Y-115856347D01*
X56020038Y-115540786D01*
X55645255Y-115349980D01*
X55240449Y-115235956D01*
X54821176Y-115203098D01*
X54403549Y-115252666D01*
X54003617Y-115382757D01*
X53707962Y-115540786D01*
X53551952Y-115856347D01*
X52451000Y-115856347D01*
X52451000Y-114935000D01*
X64897000Y-114935000D01*
X64897000Y-115854910D01*
G36*
X56769000Y-93994546D02*
G01*
X56695358Y-93975635D01*
X56393447Y-93959009D01*
X56094093Y-94001603D01*
X55808801Y-94101778D01*
X55659208Y-94181739D01*
X55575525Y-94435920D01*
X56460000Y-95320395D01*
X56474143Y-95306253D01*
X56653748Y-95485858D01*
X56639605Y-95500000D01*
X56653748Y-95514143D01*
X56474143Y-95693748D01*
X56460000Y-95679605D01*
X55575525Y-96564080D01*
X55659208Y-96818261D01*
X55931775Y-96949158D01*
X56224642Y-97024365D01*
X56526553Y-97040991D01*
X56769000Y-97006494D01*
X56769000Y-97917000D01*
X49911000Y-97917000D01*
X49911000Y-95566553D01*
X54919009Y-95566553D01*
X54961603Y-95865907D01*
X55061778Y-96151199D01*
X55141739Y-96300792D01*
X55395920Y-96384475D01*
X56280395Y-95500000D01*
X55395920Y-94615525D01*
X55141739Y-94699208D01*
X55010842Y-94971775D01*
X54935635Y-95264642D01*
X54919009Y-95566553D01*
X49911000Y-95566553D01*
X49911000Y-92583000D01*
X56769000Y-92583000D01*
X56769000Y-93994546D01*
X56769000Y-93994546D01*
G37*
X56769000Y-93994546D02*
X56695358Y-93975635D01*
X56393447Y-93959009D01*
X56094093Y-94001603D01*
X55808801Y-94101778D01*
X55659208Y-94181739D01*
X55575525Y-94435920D01*
X56460000Y-95320395D01*
X56474143Y-95306253D01*
X56653748Y-95485858D01*
X56639605Y-95500000D01*
X56653748Y-95514143D01*
X56474143Y-95693748D01*
X56460000Y-95679605D01*
X55575525Y-96564080D01*
X55659208Y-96818261D01*
X55931775Y-96949158D01*
X56224642Y-97024365D01*
X56526553Y-97040991D01*
X56769000Y-97006494D01*
X56769000Y-97917000D01*
X49911000Y-97917000D01*
X49911000Y-95566553D01*
X54919009Y-95566553D01*
X54961603Y-95865907D01*
X55061778Y-96151199D01*
X55141739Y-96300792D01*
X55395920Y-96384475D01*
X56280395Y-95500000D01*
X55395920Y-94615525D01*
X55141739Y-94699208D01*
X55010842Y-94971775D01*
X54935635Y-95264642D01*
X54919009Y-95566553D01*
X49911000Y-95566553D01*
X49911000Y-92583000D01*
X56769000Y-92583000D01*
X56769000Y-93994546D01*
G36*
X67945000Y-110744000D02*
G01*
X67947440Y-110768776D01*
X67954667Y-110792601D01*
X67966403Y-110814557D01*
X67982197Y-110833803D01*
X68001443Y-110849597D01*
X68023399Y-110861333D01*
X68047224Y-110868560D01*
X68072000Y-110871000D01*
X94361000Y-110871000D01*
X94361000Y-122301000D01*
X66675000Y-122301000D01*
X66675000Y-118697224D01*
X66902381Y-118697224D01*
X67034317Y-118992312D01*
X67375045Y-119163159D01*
X67742557Y-119264250D01*
X68122729Y-119291701D01*
X68500951Y-119244457D01*
X68862690Y-119124333D01*
X69109683Y-118992312D01*
X69241619Y-118697224D01*
X68072000Y-117527605D01*
X66902381Y-118697224D01*
X66675000Y-118697224D01*
X66675000Y-118496258D01*
X66722776Y-118517619D01*
X67892395Y-117348000D01*
X68251605Y-117348000D01*
X69421224Y-118517619D01*
X69716312Y-118385683D01*
X69887159Y-118044955D01*
X69988250Y-117677443D01*
X70015701Y-117297271D01*
X69968457Y-116919049D01*
X69848333Y-116557310D01*
X69716312Y-116310317D01*
X69421224Y-116178381D01*
X68251605Y-117348000D01*
X67892395Y-117348000D01*
X66722776Y-116178381D01*
X66675000Y-116199742D01*
X66675000Y-115998776D01*
X66902381Y-115998776D01*
X68072000Y-117168395D01*
X69241619Y-115998776D01*
X69109683Y-115703688D01*
X68768955Y-115532841D01*
X68401443Y-115431750D01*
X68021271Y-115404299D01*
X67643049Y-115451543D01*
X67281310Y-115571667D01*
X67034317Y-115703688D01*
X66902381Y-115998776D01*
X66675000Y-115998776D01*
X66675000Y-112776000D01*
X66672560Y-112751224D01*
X66665333Y-112727399D01*
X66653597Y-112705443D01*
X66637803Y-112686197D01*
X66618557Y-112670403D01*
X66596601Y-112658667D01*
X66572776Y-112651440D01*
X66548000Y-112649000D01*
X53467000Y-112649000D01*
X53467000Y-108549040D01*
X63108091Y-108549040D01*
X63202930Y-108813881D01*
X63347615Y-109055131D01*
X63536586Y-109263519D01*
X63762580Y-109431037D01*
X64016913Y-109551246D01*
X64150961Y-109591904D01*
X64373000Y-109469915D01*
X64373000Y-108327000D01*
X64627000Y-108327000D01*
X64627000Y-109469915D01*
X64849039Y-109591904D01*
X64983087Y-109551246D01*
X65237420Y-109431037D01*
X65463414Y-109263519D01*
X65652385Y-109055131D01*
X65797070Y-108813881D01*
X65891909Y-108549040D01*
X65770624Y-108327000D01*
X64627000Y-108327000D01*
X64373000Y-108327000D01*
X63229376Y-108327000D01*
X63108091Y-108549040D01*
X53467000Y-108549040D01*
X53467000Y-107850960D01*
X63108091Y-107850960D01*
X63229376Y-108073000D01*
X64373000Y-108073000D01*
X64373000Y-106930085D01*
X64627000Y-106930085D01*
X64627000Y-108073000D01*
X65770624Y-108073000D01*
X65891909Y-107850960D01*
X65797070Y-107586119D01*
X65652385Y-107344869D01*
X65463414Y-107136481D01*
X65237420Y-106968963D01*
X64983087Y-106848754D01*
X64849039Y-106808096D01*
X64627000Y-106930085D01*
X64373000Y-106930085D01*
X64150961Y-106808096D01*
X64016913Y-106848754D01*
X63762580Y-106968963D01*
X63536586Y-107136481D01*
X63347615Y-107344869D01*
X63202930Y-107586119D01*
X63108091Y-107850960D01*
X53467000Y-107850960D01*
X53467000Y-106075805D01*
X58155805Y-106075805D01*
X58228379Y-106315066D01*
X58388361Y-106637257D01*
X58608125Y-106922046D01*
X58879226Y-107158489D01*
X59191246Y-107337500D01*
X59532194Y-107452199D01*
X59817000Y-107335854D01*
X59817000Y-105791000D01*
X60071000Y-105791000D01*
X60071000Y-107335854D01*
X60355806Y-107452199D01*
X60696754Y-107337500D01*
X61008774Y-107158489D01*
X61279875Y-106922046D01*
X61499639Y-106637257D01*
X61659621Y-106315066D01*
X61732195Y-106075805D01*
X61615432Y-105791000D01*
X60071000Y-105791000D01*
X59817000Y-105791000D01*
X58272568Y-105791000D01*
X58155805Y-106075805D01*
X53467000Y-106075805D01*
X53467000Y-105252195D01*
X58155805Y-105252195D01*
X58272568Y-105537000D01*
X59817000Y-105537000D01*
X59817000Y-103992146D01*
X60071000Y-103992146D01*
X60071000Y-105537000D01*
X61615432Y-105537000D01*
X61732195Y-105252195D01*
X61659621Y-105012934D01*
X61499639Y-104690743D01*
X61279875Y-104405954D01*
X61008774Y-104169511D01*
X60696754Y-103990500D01*
X60355806Y-103875801D01*
X60071000Y-103992146D01*
X59817000Y-103992146D01*
X59532194Y-103875801D01*
X59191246Y-103990500D01*
X58879226Y-104169511D01*
X58608125Y-104405954D01*
X58388361Y-104690743D01*
X58228379Y-105012934D01*
X58155805Y-105252195D01*
X53467000Y-105252195D01*
X53467000Y-100711000D01*
X67945000Y-100711000D01*
X67945000Y-110744000D01*
X67945000Y-110744000D01*
G37*
X67945000Y-110744000D02*
X67947440Y-110768776D01*
X67954667Y-110792601D01*
X67966403Y-110814557D01*
X67982197Y-110833803D01*
X68001443Y-110849597D01*
X68023399Y-110861333D01*
X68047224Y-110868560D01*
X68072000Y-110871000D01*
X94361000Y-110871000D01*
X94361000Y-122301000D01*
X66675000Y-122301000D01*
X66675000Y-118697224D01*
X66902381Y-118697224D01*
X67034317Y-118992312D01*
X67375045Y-119163159D01*
X67742557Y-119264250D01*
X68122729Y-119291701D01*
X68500951Y-119244457D01*
X68862690Y-119124333D01*
X69109683Y-118992312D01*
X69241619Y-118697224D01*
X68072000Y-117527605D01*
X66902381Y-118697224D01*
X66675000Y-118697224D01*
X66675000Y-118496258D01*
X66722776Y-118517619D01*
X67892395Y-117348000D01*
X68251605Y-117348000D01*
X69421224Y-118517619D01*
X69716312Y-118385683D01*
X69887159Y-118044955D01*
X69988250Y-117677443D01*
X70015701Y-117297271D01*
X69968457Y-116919049D01*
X69848333Y-116557310D01*
X69716312Y-116310317D01*
X69421224Y-116178381D01*
X68251605Y-117348000D01*
X67892395Y-117348000D01*
X66722776Y-116178381D01*
X66675000Y-116199742D01*
X66675000Y-115998776D01*
X66902381Y-115998776D01*
X68072000Y-117168395D01*
X69241619Y-115998776D01*
X69109683Y-115703688D01*
X68768955Y-115532841D01*
X68401443Y-115431750D01*
X68021271Y-115404299D01*
X67643049Y-115451543D01*
X67281310Y-115571667D01*
X67034317Y-115703688D01*
X66902381Y-115998776D01*
X66675000Y-115998776D01*
X66675000Y-112776000D01*
X66672560Y-112751224D01*
X66665333Y-112727399D01*
X66653597Y-112705443D01*
X66637803Y-112686197D01*
X66618557Y-112670403D01*
X66596601Y-112658667D01*
X66572776Y-112651440D01*
X66548000Y-112649000D01*
X53467000Y-112649000D01*
X53467000Y-108549040D01*
X63108091Y-108549040D01*
X63202930Y-108813881D01*
X63347615Y-109055131D01*
X63536586Y-109263519D01*
X63762580Y-109431037D01*
X64016913Y-109551246D01*
X64150961Y-109591904D01*
X64373000Y-109469915D01*
X64373000Y-108327000D01*
X64627000Y-108327000D01*
X64627000Y-109469915D01*
X64849039Y-109591904D01*
X64983087Y-109551246D01*
X65237420Y-109431037D01*
X65463414Y-109263519D01*
X65652385Y-109055131D01*
X65797070Y-108813881D01*
X65891909Y-108549040D01*
X65770624Y-108327000D01*
X64627000Y-108327000D01*
X64373000Y-108327000D01*
X63229376Y-108327000D01*
X63108091Y-108549040D01*
X53467000Y-108549040D01*
X53467000Y-107850960D01*
X63108091Y-107850960D01*
X63229376Y-108073000D01*
X64373000Y-108073000D01*
X64373000Y-106930085D01*
X64627000Y-106930085D01*
X64627000Y-108073000D01*
X65770624Y-108073000D01*
X65891909Y-107850960D01*
X65797070Y-107586119D01*
X65652385Y-107344869D01*
X65463414Y-107136481D01*
X65237420Y-106968963D01*
X64983087Y-106848754D01*
X64849039Y-106808096D01*
X64627000Y-106930085D01*
X64373000Y-106930085D01*
X64150961Y-106808096D01*
X64016913Y-106848754D01*
X63762580Y-106968963D01*
X63536586Y-107136481D01*
X63347615Y-107344869D01*
X63202930Y-107586119D01*
X63108091Y-107850960D01*
X53467000Y-107850960D01*
X53467000Y-106075805D01*
X58155805Y-106075805D01*
X58228379Y-106315066D01*
X58388361Y-106637257D01*
X58608125Y-106922046D01*
X58879226Y-107158489D01*
X59191246Y-107337500D01*
X59532194Y-107452199D01*
X59817000Y-107335854D01*
X59817000Y-105791000D01*
X60071000Y-105791000D01*
X60071000Y-107335854D01*
X60355806Y-107452199D01*
X60696754Y-107337500D01*
X61008774Y-107158489D01*
X61279875Y-106922046D01*
X61499639Y-106637257D01*
X61659621Y-106315066D01*
X61732195Y-106075805D01*
X61615432Y-105791000D01*
X60071000Y-105791000D01*
X59817000Y-105791000D01*
X58272568Y-105791000D01*
X58155805Y-106075805D01*
X53467000Y-106075805D01*
X53467000Y-105252195D01*
X58155805Y-105252195D01*
X58272568Y-105537000D01*
X59817000Y-105537000D01*
X59817000Y-103992146D01*
X60071000Y-103992146D01*
X60071000Y-105537000D01*
X61615432Y-105537000D01*
X61732195Y-105252195D01*
X61659621Y-105012934D01*
X61499639Y-104690743D01*
X61279875Y-104405954D01*
X61008774Y-104169511D01*
X60696754Y-103990500D01*
X60355806Y-103875801D01*
X60071000Y-103992146D01*
X59817000Y-103992146D01*
X59532194Y-103875801D01*
X59191246Y-103990500D01*
X58879226Y-104169511D01*
X58608125Y-104405954D01*
X58388361Y-104690743D01*
X58228379Y-105012934D01*
X58155805Y-105252195D01*
X53467000Y-105252195D01*
X53467000Y-100711000D01*
X67945000Y-100711000D01*
X67945000Y-110744000D01*
G36*
X105373000Y-51947394D02*
G01*
X105095288Y-52225106D01*
X105125812Y-52124482D01*
X105138072Y-52000000D01*
X105135000Y-51285750D01*
X104976250Y-51127000D01*
X103627000Y-51127000D01*
X103627000Y-52476250D01*
X103785750Y-52635000D01*
X104500000Y-52638072D01*
X104624482Y-52625812D01*
X104725106Y-52595288D01*
X102947394Y-54373000D01*
X99470997Y-54373000D01*
X99218948Y-54296542D01*
X98979925Y-54273000D01*
X98627000Y-54273000D01*
X98627000Y-52000000D01*
X101861928Y-52000000D01*
X101874188Y-52124482D01*
X101910498Y-52244180D01*
X101969463Y-52354494D01*
X102048815Y-52451185D01*
X102145506Y-52530537D01*
X102255820Y-52589502D01*
X102375518Y-52625812D01*
X102500000Y-52638072D01*
X103214250Y-52635000D01*
X103373000Y-52476250D01*
X103373000Y-51127000D01*
X102023750Y-51127000D01*
X101865000Y-51285750D01*
X101861928Y-52000000D01*
X98627000Y-52000000D01*
X98627000Y-50000000D01*
X101861928Y-50000000D01*
X101865000Y-50714250D01*
X102023750Y-50873000D01*
X103373000Y-50873000D01*
X103373000Y-49523750D01*
X103627000Y-49523750D01*
X103627000Y-50873000D01*
X104976250Y-50873000D01*
X105135000Y-50714250D01*
X105138072Y-50000000D01*
X105125812Y-49875518D01*
X105089502Y-49755820D01*
X105030537Y-49645506D01*
X104951185Y-49548815D01*
X104854494Y-49469463D01*
X104744180Y-49410498D01*
X104624482Y-49374188D01*
X104500000Y-49361928D01*
X103785750Y-49365000D01*
X103627000Y-49523750D01*
X103373000Y-49523750D01*
X103214250Y-49365000D01*
X102500000Y-49361928D01*
X102375518Y-49374188D01*
X102255820Y-49410498D01*
X102145506Y-49469463D01*
X102048815Y-49548815D01*
X101969463Y-49645506D01*
X101910498Y-49755820D01*
X101874188Y-49875518D01*
X101861928Y-50000000D01*
X98627000Y-50000000D01*
X98627000Y-49127000D01*
X105373000Y-49127000D01*
X105373000Y-51947394D01*
X105373000Y-51947394D01*
G37*
X105373000Y-51947394D02*
X105095288Y-52225106D01*
X105125812Y-52124482D01*
X105138072Y-52000000D01*
X105135000Y-51285750D01*
X104976250Y-51127000D01*
X103627000Y-51127000D01*
X103627000Y-52476250D01*
X103785750Y-52635000D01*
X104500000Y-52638072D01*
X104624482Y-52625812D01*
X104725106Y-52595288D01*
X102947394Y-54373000D01*
X99470997Y-54373000D01*
X99218948Y-54296542D01*
X98979925Y-54273000D01*
X98627000Y-54273000D01*
X98627000Y-52000000D01*
X101861928Y-52000000D01*
X101874188Y-52124482D01*
X101910498Y-52244180D01*
X101969463Y-52354494D01*
X102048815Y-52451185D01*
X102145506Y-52530537D01*
X102255820Y-52589502D01*
X102375518Y-52625812D01*
X102500000Y-52638072D01*
X103214250Y-52635000D01*
X103373000Y-52476250D01*
X103373000Y-51127000D01*
X102023750Y-51127000D01*
X101865000Y-51285750D01*
X101861928Y-52000000D01*
X98627000Y-52000000D01*
X98627000Y-50000000D01*
X101861928Y-50000000D01*
X101865000Y-50714250D01*
X102023750Y-50873000D01*
X103373000Y-50873000D01*
X103373000Y-49523750D01*
X103627000Y-49523750D01*
X103627000Y-50873000D01*
X104976250Y-50873000D01*
X105135000Y-50714250D01*
X105138072Y-50000000D01*
X105125812Y-49875518D01*
X105089502Y-49755820D01*
X105030537Y-49645506D01*
X104951185Y-49548815D01*
X104854494Y-49469463D01*
X104744180Y-49410498D01*
X104624482Y-49374188D01*
X104500000Y-49361928D01*
X103785750Y-49365000D01*
X103627000Y-49523750D01*
X103373000Y-49523750D01*
X103214250Y-49365000D01*
X102500000Y-49361928D01*
X102375518Y-49374188D01*
X102255820Y-49410498D01*
X102145506Y-49469463D01*
X102048815Y-49548815D01*
X101969463Y-49645506D01*
X101910498Y-49755820D01*
X101874188Y-49875518D01*
X101861928Y-50000000D01*
X98627000Y-50000000D01*
X98627000Y-49127000D01*
X105373000Y-49127000D01*
X105373000Y-51947394D01*
G36*
X92873000Y-54421510D02*
G01*
X90970020Y-55373000D01*
X77627000Y-55373000D01*
X77627000Y-54127000D01*
X92873000Y-54127000D01*
X92873000Y-54421510D01*
X92873000Y-54421510D01*
G37*
X92873000Y-54421510D02*
X90970020Y-55373000D01*
X77627000Y-55373000D01*
X77627000Y-54127000D01*
X92873000Y-54127000D01*
X92873000Y-54421510D01*
M02*
