G04 #@! TF.GenerationSoftware,KiCad,Pcbnew,5.1.3-ffb9f22~84~ubuntu16.04.1*
G04 #@! TF.CreationDate,2019-08-02T01:04:20-03:00*
G04 #@! TF.ProjectId,boost-30v-15v,626f6f73-742d-4333-9076-2d3135762e6b,rev?*
G04 #@! TF.SameCoordinates,Original*
G04 #@! TF.FileFunction,Copper,L1,Top*
G04 #@! TF.FilePolarity,Positive*
%FSLAX46Y46*%
G04 Gerber Fmt 4.6, Leading zero omitted, Abs format (unit mm)*
G04 Created by KiCad (PCBNEW 5.1.3-ffb9f22~84~ubuntu16.04.1) date 2019-08-02 01:04:20*
%MOMM*%
%LPD*%
G04 APERTURE LIST*
%ADD10C,0.300000*%
%ADD11C,1.600000*%
%ADD12C,2.000000*%
%ADD13R,2.000000X2.000000*%
%ADD14O,2.000000X2.000000*%
%ADD15R,1.600000X1.600000*%
%ADD16O,1.600000X1.600000*%
%ADD17C,3.000000*%
%ADD18R,2.600000X2.600000*%
%ADD19C,2.600000*%
%ADD20O,1.500000X1.050000*%
%ADD21R,1.500000X1.050000*%
%ADD22C,1.400000*%
%ADD23O,1.400000X1.400000*%
%ADD24C,1.440000*%
%ADD25R,1.275000X1.800000*%
%ADD26O,1.275000X1.800000*%
%ADD27R,1.800000X1.800000*%
%ADD28C,1.800000*%
%ADD29C,2.400000*%
%ADD30O,2.400000X2.400000*%
%ADD31C,3.100000*%
%ADD32C,1.250000*%
%ADD33C,0.254000*%
G04 APERTURE END LIST*
D10*
X55928571Y-82342857D02*
X56142857Y-82414285D01*
X56214285Y-82485714D01*
X56285714Y-82628571D01*
X56285714Y-82842857D01*
X56214285Y-82985714D01*
X56142857Y-83057142D01*
X55999999Y-83128571D01*
X55428571Y-83128571D01*
X55428571Y-81628571D01*
X55928571Y-81628571D01*
X56071428Y-81700000D01*
X56142857Y-81771428D01*
X56214285Y-81914285D01*
X56214285Y-82057142D01*
X56142857Y-82200000D01*
X56071428Y-82271428D01*
X55928571Y-82342857D01*
X55428571Y-82342857D01*
X57142857Y-83128571D02*
X56999999Y-83057142D01*
X56928571Y-82985714D01*
X56857142Y-82842857D01*
X56857142Y-82414285D01*
X56928571Y-82271428D01*
X56999999Y-82200000D01*
X57142857Y-82128571D01*
X57357142Y-82128571D01*
X57499999Y-82200000D01*
X57571428Y-82271428D01*
X57642857Y-82414285D01*
X57642857Y-82842857D01*
X57571428Y-82985714D01*
X57499999Y-83057142D01*
X57357142Y-83128571D01*
X57142857Y-83128571D01*
X58499999Y-83128571D02*
X58357142Y-83057142D01*
X58285714Y-82985714D01*
X58214285Y-82842857D01*
X58214285Y-82414285D01*
X58285714Y-82271428D01*
X58357142Y-82200000D01*
X58499999Y-82128571D01*
X58714285Y-82128571D01*
X58857142Y-82200000D01*
X58928571Y-82271428D01*
X58999999Y-82414285D01*
X58999999Y-82842857D01*
X58928571Y-82985714D01*
X58857142Y-83057142D01*
X58714285Y-83128571D01*
X58499999Y-83128571D01*
X59571428Y-83057142D02*
X59714285Y-83128571D01*
X59999999Y-83128571D01*
X60142857Y-83057142D01*
X60214285Y-82914285D01*
X60214285Y-82842857D01*
X60142857Y-82700000D01*
X59999999Y-82628571D01*
X59785714Y-82628571D01*
X59642857Y-82557142D01*
X59571428Y-82414285D01*
X59571428Y-82342857D01*
X59642857Y-82200000D01*
X59785714Y-82128571D01*
X59999999Y-82128571D01*
X60142857Y-82200000D01*
X60642857Y-82128571D02*
X61214285Y-82128571D01*
X60857142Y-81628571D02*
X60857142Y-82914285D01*
X60928571Y-83057142D01*
X61071428Y-83128571D01*
X61214285Y-83128571D01*
X62785714Y-83057142D02*
X62999999Y-83128571D01*
X63357142Y-83128571D01*
X63500000Y-83057142D01*
X63571428Y-82985714D01*
X63642857Y-82842857D01*
X63642857Y-82700000D01*
X63571428Y-82557142D01*
X63500000Y-82485714D01*
X63357142Y-82414285D01*
X63071428Y-82342857D01*
X62928571Y-82271428D01*
X62857142Y-82200000D01*
X62785714Y-82057142D01*
X62785714Y-81914285D01*
X62857142Y-81771428D01*
X62928571Y-81700000D01*
X63071428Y-81628571D01*
X63428571Y-81628571D01*
X63642857Y-81700000D01*
X64285714Y-83128571D02*
X64285714Y-81628571D01*
X64785714Y-82700000D01*
X65285714Y-81628571D01*
X65285714Y-83128571D01*
X65999999Y-83128571D02*
X65999999Y-81628571D01*
X66571428Y-81628571D01*
X66714285Y-81700000D01*
X66785714Y-81771428D01*
X66857142Y-81914285D01*
X66857142Y-82128571D01*
X66785714Y-82271428D01*
X66714285Y-82342857D01*
X66571428Y-82414285D01*
X65999999Y-82414285D01*
X67428571Y-83057142D02*
X67642857Y-83128571D01*
X68000000Y-83128571D01*
X68142857Y-83057142D01*
X68214285Y-82985714D01*
X68285714Y-82842857D01*
X68285714Y-82700000D01*
X68214285Y-82557142D01*
X68142857Y-82485714D01*
X68000000Y-82414285D01*
X67714285Y-82342857D01*
X67571428Y-82271428D01*
X67500000Y-82200000D01*
X67428571Y-82057142D01*
X67428571Y-81914285D01*
X67500000Y-81771428D01*
X67571428Y-81700000D01*
X67714285Y-81628571D01*
X68071428Y-81628571D01*
X68285714Y-81700000D01*
X70071428Y-82557142D02*
X71214285Y-82557142D01*
X71785714Y-81628571D02*
X72714285Y-81628571D01*
X72214285Y-82200000D01*
X72428571Y-82200000D01*
X72571428Y-82271428D01*
X72642857Y-82342857D01*
X72714285Y-82485714D01*
X72714285Y-82842857D01*
X72642857Y-82985714D01*
X72571428Y-83057142D01*
X72428571Y-83128571D01*
X72000000Y-83128571D01*
X71857142Y-83057142D01*
X71785714Y-82985714D01*
X73642857Y-81628571D02*
X73785714Y-81628571D01*
X73928571Y-81700000D01*
X74000000Y-81771428D01*
X74071428Y-81914285D01*
X74142857Y-82200000D01*
X74142857Y-82557142D01*
X74071428Y-82842857D01*
X74000000Y-82985714D01*
X73928571Y-83057142D01*
X73785714Y-83128571D01*
X73642857Y-83128571D01*
X73500000Y-83057142D01*
X73428571Y-82985714D01*
X73357142Y-82842857D01*
X73285714Y-82557142D01*
X73285714Y-82200000D01*
X73357142Y-81914285D01*
X73428571Y-81771428D01*
X73500000Y-81700000D01*
X73642857Y-81628571D01*
X74642857Y-82128571D02*
X75000000Y-83128571D01*
X75357142Y-82128571D01*
X76857142Y-82128571D02*
X77428571Y-82128571D01*
X77071428Y-81628571D02*
X77071428Y-82914285D01*
X77142857Y-83057142D01*
X77285714Y-83128571D01*
X77428571Y-83128571D01*
X78142857Y-83128571D02*
X78000000Y-83057142D01*
X77928571Y-82985714D01*
X77857142Y-82842857D01*
X77857142Y-82414285D01*
X77928571Y-82271428D01*
X78000000Y-82200000D01*
X78142857Y-82128571D01*
X78357142Y-82128571D01*
X78500000Y-82200000D01*
X78571428Y-82271428D01*
X78642857Y-82414285D01*
X78642857Y-82842857D01*
X78571428Y-82985714D01*
X78500000Y-83057142D01*
X78357142Y-83128571D01*
X78142857Y-83128571D01*
X80428571Y-82557142D02*
X81571428Y-82557142D01*
X83071428Y-83128571D02*
X82214285Y-83128571D01*
X82642857Y-83128571D02*
X82642857Y-81628571D01*
X82500000Y-81842857D01*
X82357142Y-81985714D01*
X82214285Y-82057142D01*
X84428571Y-81628571D02*
X83714285Y-81628571D01*
X83642857Y-82342857D01*
X83714285Y-82271428D01*
X83857142Y-82200000D01*
X84214285Y-82200000D01*
X84357142Y-82271428D01*
X84428571Y-82342857D01*
X84500000Y-82485714D01*
X84500000Y-82842857D01*
X84428571Y-82985714D01*
X84357142Y-83057142D01*
X84214285Y-83128571D01*
X83857142Y-83128571D01*
X83714285Y-83057142D01*
X83642857Y-82985714D01*
X85000000Y-82128571D02*
X85357142Y-83128571D01*
X85714285Y-82128571D01*
X61892857Y-85678571D02*
X61178571Y-85678571D01*
X61178571Y-84178571D01*
X62392857Y-85678571D02*
X62392857Y-84678571D01*
X62392857Y-84178571D02*
X62321428Y-84250000D01*
X62392857Y-84321428D01*
X62464285Y-84250000D01*
X62392857Y-84178571D01*
X62392857Y-84321428D01*
X63749999Y-85678571D02*
X63749999Y-84892857D01*
X63678571Y-84750000D01*
X63535714Y-84678571D01*
X63249999Y-84678571D01*
X63107142Y-84750000D01*
X63749999Y-85607142D02*
X63607142Y-85678571D01*
X63249999Y-85678571D01*
X63107142Y-85607142D01*
X63035714Y-85464285D01*
X63035714Y-85321428D01*
X63107142Y-85178571D01*
X63249999Y-85107142D01*
X63607142Y-85107142D01*
X63749999Y-85035714D01*
X65107142Y-84678571D02*
X65107142Y-85678571D01*
X64464285Y-84678571D02*
X64464285Y-85464285D01*
X64535714Y-85607142D01*
X64678571Y-85678571D01*
X64892857Y-85678571D01*
X65035714Y-85607142D01*
X65107142Y-85535714D01*
X66464285Y-85678571D02*
X66464285Y-84178571D01*
X66464285Y-85607142D02*
X66321428Y-85678571D01*
X66035714Y-85678571D01*
X65892857Y-85607142D01*
X65821428Y-85535714D01*
X65749999Y-85392857D01*
X65749999Y-84964285D01*
X65821428Y-84821428D01*
X65892857Y-84750000D01*
X66035714Y-84678571D01*
X66321428Y-84678571D01*
X66464285Y-84750000D01*
X67821428Y-85678571D02*
X67821428Y-84892857D01*
X67750000Y-84750000D01*
X67607142Y-84678571D01*
X67321428Y-84678571D01*
X67178571Y-84750000D01*
X67821428Y-85607142D02*
X67678571Y-85678571D01*
X67321428Y-85678571D01*
X67178571Y-85607142D01*
X67107142Y-85464285D01*
X67107142Y-85321428D01*
X67178571Y-85178571D01*
X67321428Y-85107142D01*
X67678571Y-85107142D01*
X67821428Y-85035714D01*
X68321428Y-84678571D02*
X68892857Y-84678571D01*
X68535714Y-84178571D02*
X68535714Y-85464285D01*
X68607142Y-85607142D01*
X68750000Y-85678571D01*
X68892857Y-85678571D01*
X70535714Y-85107142D02*
X71678571Y-85107142D01*
X73535714Y-85678571D02*
X73535714Y-84178571D01*
X74035714Y-85250000D01*
X74535714Y-84178571D01*
X74535714Y-85678571D01*
X75892857Y-84678571D02*
X75892857Y-85678571D01*
X75250000Y-84678571D02*
X75250000Y-85464285D01*
X75321428Y-85607142D01*
X75464285Y-85678571D01*
X75678571Y-85678571D01*
X75821428Y-85607142D01*
X75892857Y-85535714D01*
X76607142Y-84678571D02*
X76607142Y-85678571D01*
X76607142Y-84821428D02*
X76678571Y-84750000D01*
X76821428Y-84678571D01*
X77035714Y-84678571D01*
X77178571Y-84750000D01*
X77250000Y-84892857D01*
X77250000Y-85678571D01*
X76535714Y-84321428D02*
X76607142Y-84250000D01*
X76750000Y-84178571D01*
X77035714Y-84321428D01*
X77178571Y-84250000D01*
X77250000Y-84178571D01*
X78178571Y-85678571D02*
X78035714Y-85607142D01*
X77964285Y-85535714D01*
X77892857Y-85392857D01*
X77892857Y-84964285D01*
X77964285Y-84821428D01*
X78035714Y-84750000D01*
X78178571Y-84678571D01*
X78392857Y-84678571D01*
X78535714Y-84750000D01*
X78607142Y-84821428D01*
X78678571Y-84964285D01*
X78678571Y-85392857D01*
X78607142Y-85535714D01*
X78535714Y-85607142D01*
X78392857Y-85678571D01*
X78178571Y-85678571D01*
X79178571Y-84678571D02*
X79964285Y-84678571D01*
X79178571Y-85678571D01*
X79964285Y-85678571D01*
X68321428Y-87442857D02*
X67821428Y-87442857D01*
X67821428Y-88228571D02*
X67821428Y-86728571D01*
X68535714Y-86728571D01*
X69107142Y-88228571D02*
X69107142Y-87228571D01*
X69107142Y-86728571D02*
X69035714Y-86800000D01*
X69107142Y-86871428D01*
X69178571Y-86800000D01*
X69107142Y-86728571D01*
X69107142Y-86871428D01*
X70464285Y-87228571D02*
X70464285Y-88228571D01*
X69821428Y-87228571D02*
X69821428Y-88014285D01*
X69892857Y-88157142D01*
X70035714Y-88228571D01*
X70250000Y-88228571D01*
X70392857Y-88157142D01*
X70464285Y-88085714D01*
X71178571Y-88228571D02*
X71178571Y-86728571D01*
X71178571Y-87300000D02*
X71321428Y-87228571D01*
X71607142Y-87228571D01*
X71750000Y-87300000D01*
X71821428Y-87371428D01*
X71892857Y-87514285D01*
X71892857Y-87942857D01*
X71821428Y-88085714D01*
X71750000Y-88157142D01*
X71607142Y-88228571D01*
X71321428Y-88228571D01*
X71178571Y-88157142D01*
X73178571Y-88228571D02*
X73178571Y-87442857D01*
X73107142Y-87300000D01*
X72964285Y-87228571D01*
X72678571Y-87228571D01*
X72535714Y-87300000D01*
X73178571Y-88157142D02*
X73035714Y-88228571D01*
X72678571Y-88228571D01*
X72535714Y-88157142D01*
X72464285Y-88014285D01*
X72464285Y-87871428D01*
X72535714Y-87728571D01*
X72678571Y-87657142D01*
X73035714Y-87657142D01*
X73178571Y-87585714D01*
D11*
X65500000Y-119000000D03*
X58000000Y-119000000D03*
D12*
X75000000Y-131500000D03*
D13*
X80000000Y-131500000D03*
D11*
X80000000Y-142000000D03*
X75000000Y-142000000D03*
D13*
X95000000Y-121500000D03*
D12*
X100000000Y-121500000D03*
D11*
X95000000Y-129000000D03*
X100000000Y-129000000D03*
D13*
X92500000Y-113000000D03*
D14*
X92500000Y-107920000D03*
D15*
X62500000Y-105500000D03*
D16*
X70120000Y-105500000D03*
D17*
X107500000Y-159000000D03*
X130100000Y-159000000D03*
D18*
X68500000Y-159000000D03*
D19*
X73580000Y-159000000D03*
X100080000Y-159000000D03*
D18*
X95000000Y-159000000D03*
D17*
X113000000Y-120000000D03*
X113000000Y-94950000D03*
X140500000Y-95000000D03*
X140500000Y-120000000D03*
X113000000Y-115000000D03*
X113000000Y-110000000D03*
X113000000Y-105000000D03*
X113000000Y-100000000D03*
X140500000Y-115000000D03*
X140500000Y-110000000D03*
X140500000Y-105000000D03*
X140500000Y-100000000D03*
D20*
X79500000Y-110270000D03*
X79500000Y-111540000D03*
D21*
X79500000Y-109000000D03*
D22*
X72500000Y-123000000D03*
D23*
X72500000Y-115380000D03*
X86380000Y-95000000D03*
D22*
X94000000Y-95000000D03*
D23*
X86380000Y-99500000D03*
D22*
X94000000Y-99500000D03*
X64500000Y-100000000D03*
D23*
X56880000Y-100000000D03*
D22*
X64500000Y-110500000D03*
D23*
X56880000Y-110500000D03*
D24*
X80000000Y-100000000D03*
X77460000Y-100000000D03*
X74920000Y-100000000D03*
D25*
X78000000Y-121000000D03*
D26*
X79700000Y-121000000D03*
X81400000Y-121000000D03*
X83100000Y-121000000D03*
X84800000Y-121000000D03*
D27*
X97500000Y-136000000D03*
D28*
X94960000Y-136000000D03*
D29*
X95000000Y-146000000D03*
D30*
X122940000Y-146000000D03*
D22*
X102000000Y-136000000D03*
D23*
X109620000Y-136000000D03*
D31*
X148000000Y-79000000D03*
X56500000Y-79000000D03*
X56500000Y-163500000D03*
X148000000Y-163500000D03*
D11*
X97500000Y-113000000D03*
X97500000Y-99500000D03*
X79500000Y-105500000D03*
X86500000Y-103000000D03*
X70000000Y-102500000D03*
X102500000Y-115000000D03*
X89000000Y-159000000D03*
X79000000Y-159000000D03*
X89500000Y-121000000D03*
X85000000Y-126500000D03*
X83500000Y-138000000D03*
X99000000Y-84500000D03*
X89500000Y-88500000D03*
D32*
X97500000Y-99500000D02*
X97500000Y-113000000D01*
X70000000Y-102500000D02*
X70000000Y-91500000D01*
X70000000Y-91500000D02*
X97500000Y-91500000D01*
X97500000Y-91500000D02*
X102500000Y-96500000D01*
X102500000Y-96500000D02*
X102500000Y-115000000D01*
X79500000Y-105500000D02*
X86500000Y-105500000D01*
X86500000Y-105500000D02*
X86500000Y-103000000D01*
D33*
G36*
X145459167Y-78138773D02*
G01*
X145425875Y-78219148D01*
X145323000Y-78736338D01*
X145323000Y-79263662D01*
X145425875Y-79780852D01*
X145627673Y-80268035D01*
X145920638Y-80706488D01*
X146293512Y-81079362D01*
X146731965Y-81372327D01*
X147219148Y-81574125D01*
X147736338Y-81677000D01*
X148263662Y-81677000D01*
X148780852Y-81574125D01*
X148861227Y-81540833D01*
X149873000Y-82552606D01*
X149873000Y-159943820D01*
X148789019Y-160929258D01*
X148780852Y-160925875D01*
X148263662Y-160823000D01*
X147736338Y-160823000D01*
X147219148Y-160925875D01*
X146731965Y-161127673D01*
X146293512Y-161420638D01*
X145920638Y-161793512D01*
X145627673Y-162231965D01*
X145425875Y-162719148D01*
X145323000Y-163236338D01*
X145323000Y-163763662D01*
X145376318Y-164031712D01*
X144450902Y-164873000D01*
X60052606Y-164873000D01*
X59138222Y-163958616D01*
X59177000Y-163763662D01*
X59177000Y-163236338D01*
X59074125Y-162719148D01*
X58872327Y-162231965D01*
X58579362Y-161793512D01*
X58206488Y-161420638D01*
X57768035Y-161127673D01*
X57280852Y-160925875D01*
X56763662Y-160823000D01*
X56236338Y-160823000D01*
X56041384Y-160861778D01*
X55127000Y-159947394D01*
X55127000Y-157700000D01*
X66067547Y-157700000D01*
X66067547Y-160300000D01*
X66089307Y-160520931D01*
X66153750Y-160733371D01*
X66258400Y-160929157D01*
X66399235Y-161100765D01*
X66570843Y-161241600D01*
X66766629Y-161346250D01*
X66979069Y-161410693D01*
X67200000Y-161432453D01*
X69800000Y-161432453D01*
X70020931Y-161410693D01*
X70233371Y-161346250D01*
X70429157Y-161241600D01*
X70600765Y-161100765D01*
X70741600Y-160929157D01*
X70846250Y-160733371D01*
X70910693Y-160520931D01*
X70927604Y-160349224D01*
X72410381Y-160349224D01*
X72542317Y-160644312D01*
X72883045Y-160815159D01*
X73250557Y-160916250D01*
X73630729Y-160943701D01*
X74008951Y-160896457D01*
X74370690Y-160776333D01*
X74617683Y-160644312D01*
X74749619Y-160349224D01*
X74700395Y-160300000D01*
X93061928Y-160300000D01*
X93074188Y-160424482D01*
X93110498Y-160544180D01*
X93169463Y-160654494D01*
X93248815Y-160751185D01*
X93345506Y-160830537D01*
X93455820Y-160889502D01*
X93575518Y-160925812D01*
X93700000Y-160938072D01*
X94714250Y-160935000D01*
X94873000Y-160776250D01*
X94873000Y-159127000D01*
X95127000Y-159127000D01*
X95127000Y-160776250D01*
X95285750Y-160935000D01*
X96300000Y-160938072D01*
X96424482Y-160925812D01*
X96544180Y-160889502D01*
X96654494Y-160830537D01*
X96751185Y-160751185D01*
X96830537Y-160654494D01*
X96889502Y-160544180D01*
X96925812Y-160424482D01*
X96938072Y-160300000D01*
X96935000Y-159285750D01*
X96776250Y-159127000D01*
X95127000Y-159127000D01*
X94873000Y-159127000D01*
X93223750Y-159127000D01*
X93065000Y-159285750D01*
X93061928Y-160300000D01*
X74700395Y-160300000D01*
X73580000Y-159179605D01*
X72410381Y-160349224D01*
X70927604Y-160349224D01*
X70932453Y-160300000D01*
X70932453Y-159050729D01*
X71636299Y-159050729D01*
X71683543Y-159428951D01*
X71803667Y-159790690D01*
X71935688Y-160037683D01*
X72230776Y-160169619D01*
X73400395Y-159000000D01*
X73759605Y-159000000D01*
X74929224Y-160169619D01*
X75224312Y-160037683D01*
X75395159Y-159696955D01*
X75496250Y-159329443D01*
X75523701Y-158949271D01*
X75476457Y-158571049D01*
X75356333Y-158209310D01*
X75224312Y-157962317D01*
X74929224Y-157830381D01*
X73759605Y-159000000D01*
X73400395Y-159000000D01*
X72230776Y-157830381D01*
X71935688Y-157962317D01*
X71764841Y-158303045D01*
X71663750Y-158670557D01*
X71636299Y-159050729D01*
X70932453Y-159050729D01*
X70932453Y-157700000D01*
X70927605Y-157650776D01*
X72410381Y-157650776D01*
X73580000Y-158820395D01*
X74700395Y-157700000D01*
X93061928Y-157700000D01*
X93065000Y-158714250D01*
X93223750Y-158873000D01*
X94873000Y-158873000D01*
X94873000Y-157223750D01*
X95127000Y-157223750D01*
X95127000Y-158873000D01*
X96776250Y-158873000D01*
X96888289Y-158760961D01*
X97653000Y-158760961D01*
X97653000Y-159239039D01*
X97746268Y-159707930D01*
X97929221Y-160149615D01*
X98194826Y-160547122D01*
X98532878Y-160885174D01*
X98930385Y-161150779D01*
X99372070Y-161333732D01*
X99840961Y-161427000D01*
X100319039Y-161427000D01*
X100787930Y-161333732D01*
X101229615Y-161150779D01*
X101627122Y-160885174D01*
X101965174Y-160547122D01*
X102230779Y-160149615D01*
X102413732Y-159707930D01*
X102507000Y-159239039D01*
X102507000Y-158760961D01*
X102503082Y-158741263D01*
X104873000Y-158741263D01*
X104873000Y-159258737D01*
X104973954Y-159766268D01*
X105171983Y-160244351D01*
X105459476Y-160674615D01*
X105825385Y-161040524D01*
X106255649Y-161328017D01*
X106733732Y-161526046D01*
X107241263Y-161627000D01*
X107758737Y-161627000D01*
X108266268Y-161526046D01*
X108744351Y-161328017D01*
X109174615Y-161040524D01*
X109540524Y-160674615D01*
X109828017Y-160244351D01*
X110026046Y-159766268D01*
X110127000Y-159258737D01*
X110127000Y-158741263D01*
X127473000Y-158741263D01*
X127473000Y-159258737D01*
X127573954Y-159766268D01*
X127771983Y-160244351D01*
X128059476Y-160674615D01*
X128425385Y-161040524D01*
X128855649Y-161328017D01*
X129333732Y-161526046D01*
X129841263Y-161627000D01*
X130358737Y-161627000D01*
X130866268Y-161526046D01*
X131344351Y-161328017D01*
X131774615Y-161040524D01*
X132140524Y-160674615D01*
X132428017Y-160244351D01*
X132626046Y-159766268D01*
X132727000Y-159258737D01*
X132727000Y-158741263D01*
X132626046Y-158233732D01*
X132428017Y-157755649D01*
X132140524Y-157325385D01*
X131774615Y-156959476D01*
X131344351Y-156671983D01*
X130866268Y-156473954D01*
X130358737Y-156373000D01*
X129841263Y-156373000D01*
X129333732Y-156473954D01*
X128855649Y-156671983D01*
X128425385Y-156959476D01*
X128059476Y-157325385D01*
X127771983Y-157755649D01*
X127573954Y-158233732D01*
X127473000Y-158741263D01*
X110127000Y-158741263D01*
X110026046Y-158233732D01*
X109828017Y-157755649D01*
X109540524Y-157325385D01*
X109174615Y-156959476D01*
X108744351Y-156671983D01*
X108266268Y-156473954D01*
X107758737Y-156373000D01*
X107241263Y-156373000D01*
X106733732Y-156473954D01*
X106255649Y-156671983D01*
X105825385Y-156959476D01*
X105459476Y-157325385D01*
X105171983Y-157755649D01*
X104973954Y-158233732D01*
X104873000Y-158741263D01*
X102503082Y-158741263D01*
X102413732Y-158292070D01*
X102230779Y-157850385D01*
X101965174Y-157452878D01*
X101627122Y-157114826D01*
X101229615Y-156849221D01*
X100787930Y-156666268D01*
X100319039Y-156573000D01*
X99840961Y-156573000D01*
X99372070Y-156666268D01*
X98930385Y-156849221D01*
X98532878Y-157114826D01*
X98194826Y-157452878D01*
X97929221Y-157850385D01*
X97746268Y-158292070D01*
X97653000Y-158760961D01*
X96888289Y-158760961D01*
X96935000Y-158714250D01*
X96938072Y-157700000D01*
X96925812Y-157575518D01*
X96889502Y-157455820D01*
X96830537Y-157345506D01*
X96751185Y-157248815D01*
X96654494Y-157169463D01*
X96544180Y-157110498D01*
X96424482Y-157074188D01*
X96300000Y-157061928D01*
X95285750Y-157065000D01*
X95127000Y-157223750D01*
X94873000Y-157223750D01*
X94714250Y-157065000D01*
X93700000Y-157061928D01*
X93575518Y-157074188D01*
X93455820Y-157110498D01*
X93345506Y-157169463D01*
X93248815Y-157248815D01*
X93169463Y-157345506D01*
X93110498Y-157455820D01*
X93074188Y-157575518D01*
X93061928Y-157700000D01*
X74700395Y-157700000D01*
X74749619Y-157650776D01*
X74617683Y-157355688D01*
X74276955Y-157184841D01*
X73909443Y-157083750D01*
X73529271Y-157056299D01*
X73151049Y-157103543D01*
X72789310Y-157223667D01*
X72542317Y-157355688D01*
X72410381Y-157650776D01*
X70927605Y-157650776D01*
X70910693Y-157479069D01*
X70846250Y-157266629D01*
X70741600Y-157070843D01*
X70600765Y-156899235D01*
X70429157Y-156758400D01*
X70233371Y-156653750D01*
X70020931Y-156589307D01*
X69800000Y-156567547D01*
X67200000Y-156567547D01*
X66979069Y-156589307D01*
X66766629Y-156653750D01*
X66570843Y-156758400D01*
X66399235Y-156899235D01*
X66258400Y-157070843D01*
X66153750Y-157266629D01*
X66089307Y-157479069D01*
X66067547Y-157700000D01*
X55127000Y-157700000D01*
X55127000Y-147277980D01*
X93901626Y-147277980D01*
X94021514Y-147562836D01*
X94345210Y-147723699D01*
X94694069Y-147818322D01*
X95054684Y-147843067D01*
X95413198Y-147796985D01*
X95755833Y-147681846D01*
X95978486Y-147562836D01*
X96098374Y-147277980D01*
X95000000Y-146179605D01*
X93901626Y-147277980D01*
X55127000Y-147277980D01*
X55127000Y-146054684D01*
X93156933Y-146054684D01*
X93203015Y-146413198D01*
X93318154Y-146755833D01*
X93437164Y-146978486D01*
X93722020Y-147098374D01*
X94820395Y-146000000D01*
X95179605Y-146000000D01*
X96277980Y-147098374D01*
X96562836Y-146978486D01*
X96723699Y-146654790D01*
X96818322Y-146305931D01*
X96839314Y-146000000D01*
X120601741Y-146000000D01*
X120646670Y-146456172D01*
X120779730Y-146894813D01*
X120995809Y-147299067D01*
X121286601Y-147653399D01*
X121640933Y-147944191D01*
X122045187Y-148160270D01*
X122483828Y-148293330D01*
X122825685Y-148327000D01*
X123054315Y-148327000D01*
X123396172Y-148293330D01*
X123834813Y-148160270D01*
X124239067Y-147944191D01*
X124593399Y-147653399D01*
X124884191Y-147299067D01*
X125100270Y-146894813D01*
X125233330Y-146456172D01*
X125278259Y-146000000D01*
X125233330Y-145543828D01*
X125100270Y-145105187D01*
X124884191Y-144700933D01*
X124593399Y-144346601D01*
X124239067Y-144055809D01*
X123834813Y-143839730D01*
X123396172Y-143706670D01*
X123054315Y-143673000D01*
X122825685Y-143673000D01*
X122483828Y-143706670D01*
X122045187Y-143839730D01*
X121640933Y-144055809D01*
X121286601Y-144346601D01*
X120995809Y-144700933D01*
X120779730Y-145105187D01*
X120646670Y-145543828D01*
X120601741Y-146000000D01*
X96839314Y-146000000D01*
X96843067Y-145945316D01*
X96796985Y-145586802D01*
X96681846Y-145244167D01*
X96562836Y-145021514D01*
X96277980Y-144901626D01*
X95179605Y-146000000D01*
X94820395Y-146000000D01*
X93722020Y-144901626D01*
X93437164Y-145021514D01*
X93276301Y-145345210D01*
X93181678Y-145694069D01*
X93156933Y-146054684D01*
X55127000Y-146054684D01*
X55127000Y-144722020D01*
X93901626Y-144722020D01*
X95000000Y-145820395D01*
X96098374Y-144722020D01*
X95978486Y-144437164D01*
X95654790Y-144276301D01*
X95305931Y-144181678D01*
X94945316Y-144156933D01*
X94586802Y-144203015D01*
X94244167Y-144318154D01*
X94021514Y-144437164D01*
X93901626Y-144722020D01*
X55127000Y-144722020D01*
X55127000Y-141810207D01*
X73073000Y-141810207D01*
X73073000Y-142189793D01*
X73147053Y-142562085D01*
X73292315Y-142912777D01*
X73503201Y-143228391D01*
X73771609Y-143496799D01*
X74087223Y-143707685D01*
X74437915Y-143852947D01*
X74810207Y-143927000D01*
X75189793Y-143927000D01*
X75562085Y-143852947D01*
X75912777Y-143707685D01*
X76228391Y-143496799D01*
X76496799Y-143228391D01*
X76654280Y-142992702D01*
X79186903Y-142992702D01*
X79258486Y-143236671D01*
X79513996Y-143357571D01*
X79788184Y-143426300D01*
X80070512Y-143440217D01*
X80350130Y-143398787D01*
X80616292Y-143303603D01*
X80741514Y-143236671D01*
X80813097Y-142992702D01*
X80000000Y-142179605D01*
X79186903Y-142992702D01*
X76654280Y-142992702D01*
X76707685Y-142912777D01*
X76852947Y-142562085D01*
X76927000Y-142189793D01*
X76927000Y-142070512D01*
X78559783Y-142070512D01*
X78601213Y-142350130D01*
X78696397Y-142616292D01*
X78763329Y-142741514D01*
X79007298Y-142813097D01*
X79820395Y-142000000D01*
X80179605Y-142000000D01*
X80992702Y-142813097D01*
X81236671Y-142741514D01*
X81357571Y-142486004D01*
X81426300Y-142211816D01*
X81440217Y-141929488D01*
X81398787Y-141649870D01*
X81303603Y-141383708D01*
X81236671Y-141258486D01*
X80992702Y-141186903D01*
X80179605Y-142000000D01*
X79820395Y-142000000D01*
X79007298Y-141186903D01*
X78763329Y-141258486D01*
X78642429Y-141513996D01*
X78573700Y-141788184D01*
X78559783Y-142070512D01*
X76927000Y-142070512D01*
X76927000Y-141810207D01*
X76852947Y-141437915D01*
X76707685Y-141087223D01*
X76654281Y-141007298D01*
X79186903Y-141007298D01*
X80000000Y-141820395D01*
X80813097Y-141007298D01*
X80741514Y-140763329D01*
X80486004Y-140642429D01*
X80211816Y-140573700D01*
X79929488Y-140559783D01*
X79649870Y-140601213D01*
X79383708Y-140696397D01*
X79258486Y-140763329D01*
X79186903Y-141007298D01*
X76654281Y-141007298D01*
X76496799Y-140771609D01*
X76228391Y-140503201D01*
X75912777Y-140292315D01*
X75562085Y-140147053D01*
X75189793Y-140073000D01*
X74810207Y-140073000D01*
X74437915Y-140147053D01*
X74087223Y-140292315D01*
X73771609Y-140503201D01*
X73503201Y-140771609D01*
X73292315Y-141087223D01*
X73147053Y-141437915D01*
X73073000Y-141810207D01*
X55127000Y-141810207D01*
X55127000Y-136066553D01*
X93419009Y-136066553D01*
X93461603Y-136365907D01*
X93561778Y-136651199D01*
X93641739Y-136800792D01*
X93895920Y-136884475D01*
X94780395Y-136000000D01*
X93895920Y-135115525D01*
X93641739Y-135199208D01*
X93510842Y-135471775D01*
X93435635Y-135764642D01*
X93419009Y-136066553D01*
X55127000Y-136066553D01*
X55127000Y-134935920D01*
X94075525Y-134935920D01*
X94960000Y-135820395D01*
X94974143Y-135806253D01*
X95153748Y-135985858D01*
X95139605Y-136000000D01*
X95153748Y-136014143D01*
X94974143Y-136193748D01*
X94960000Y-136179605D01*
X94075525Y-137064080D01*
X94159208Y-137318261D01*
X94431775Y-137449158D01*
X94724642Y-137524365D01*
X95026553Y-137540991D01*
X95325907Y-137498397D01*
X95592014Y-137404958D01*
X95658400Y-137529157D01*
X95799235Y-137700765D01*
X95970843Y-137841600D01*
X96166629Y-137946250D01*
X96379069Y-138010693D01*
X96600000Y-138032453D01*
X98400000Y-138032453D01*
X98620931Y-138010693D01*
X98833371Y-137946250D01*
X99029157Y-137841600D01*
X99200765Y-137700765D01*
X99341600Y-137529157D01*
X99446250Y-137333371D01*
X99510693Y-137120931D01*
X99532453Y-136900000D01*
X99532453Y-135820056D01*
X100173000Y-135820056D01*
X100173000Y-136179944D01*
X100243211Y-136532916D01*
X100380934Y-136865409D01*
X100580876Y-137164645D01*
X100835355Y-137419124D01*
X101134591Y-137619066D01*
X101467084Y-137756789D01*
X101820056Y-137827000D01*
X102179944Y-137827000D01*
X102532916Y-137756789D01*
X102865409Y-137619066D01*
X103164645Y-137419124D01*
X103419124Y-137164645D01*
X103619066Y-136865409D01*
X103756789Y-136532916D01*
X103827000Y-136179944D01*
X103827000Y-136000000D01*
X107784160Y-136000000D01*
X107819435Y-136358155D01*
X107923905Y-136702546D01*
X108093555Y-137019938D01*
X108321865Y-137298135D01*
X108600062Y-137526445D01*
X108917454Y-137696095D01*
X109261845Y-137800565D01*
X109530245Y-137827000D01*
X109709755Y-137827000D01*
X109978155Y-137800565D01*
X110322546Y-137696095D01*
X110639938Y-137526445D01*
X110918135Y-137298135D01*
X111146445Y-137019938D01*
X111316095Y-136702546D01*
X111420565Y-136358155D01*
X111455840Y-136000000D01*
X111420565Y-135641845D01*
X111316095Y-135297454D01*
X111146445Y-134980062D01*
X110918135Y-134701865D01*
X110639938Y-134473555D01*
X110322546Y-134303905D01*
X109978155Y-134199435D01*
X109709755Y-134173000D01*
X109530245Y-134173000D01*
X109261845Y-134199435D01*
X108917454Y-134303905D01*
X108600062Y-134473555D01*
X108321865Y-134701865D01*
X108093555Y-134980062D01*
X107923905Y-135297454D01*
X107819435Y-135641845D01*
X107784160Y-136000000D01*
X103827000Y-136000000D01*
X103827000Y-135820056D01*
X103756789Y-135467084D01*
X103619066Y-135134591D01*
X103419124Y-134835355D01*
X103164645Y-134580876D01*
X102865409Y-134380934D01*
X102532916Y-134243211D01*
X102179944Y-134173000D01*
X101820056Y-134173000D01*
X101467084Y-134243211D01*
X101134591Y-134380934D01*
X100835355Y-134580876D01*
X100580876Y-134835355D01*
X100380934Y-135134591D01*
X100243211Y-135467084D01*
X100173000Y-135820056D01*
X99532453Y-135820056D01*
X99532453Y-135100000D01*
X99510693Y-134879069D01*
X99446250Y-134666629D01*
X99341600Y-134470843D01*
X99200765Y-134299235D01*
X99029157Y-134158400D01*
X98833371Y-134053750D01*
X98620931Y-133989307D01*
X98400000Y-133967547D01*
X96600000Y-133967547D01*
X96379069Y-133989307D01*
X96166629Y-134053750D01*
X95970843Y-134158400D01*
X95799235Y-134299235D01*
X95658400Y-134470843D01*
X95589614Y-134599533D01*
X95488225Y-134550842D01*
X95195358Y-134475635D01*
X94893447Y-134459009D01*
X94594093Y-134501603D01*
X94308801Y-134601778D01*
X94159208Y-134681739D01*
X94075525Y-134935920D01*
X55127000Y-134935920D01*
X55127000Y-131290509D01*
X72873000Y-131290509D01*
X72873000Y-131709491D01*
X72954739Y-132120423D01*
X73115077Y-132507512D01*
X73347851Y-132855884D01*
X73644116Y-133152149D01*
X73992488Y-133384923D01*
X74379577Y-133545261D01*
X74790509Y-133627000D01*
X75209491Y-133627000D01*
X75620423Y-133545261D01*
X76007512Y-133384923D01*
X76355884Y-133152149D01*
X76652149Y-132855884D01*
X76884923Y-132507512D01*
X76888034Y-132500000D01*
X78361928Y-132500000D01*
X78374188Y-132624482D01*
X78410498Y-132744180D01*
X78469463Y-132854494D01*
X78548815Y-132951185D01*
X78645506Y-133030537D01*
X78755820Y-133089502D01*
X78875518Y-133125812D01*
X79000000Y-133138072D01*
X79714250Y-133135000D01*
X79873000Y-132976250D01*
X79873000Y-131627000D01*
X80127000Y-131627000D01*
X80127000Y-132976250D01*
X80285750Y-133135000D01*
X81000000Y-133138072D01*
X81124482Y-133125812D01*
X81244180Y-133089502D01*
X81354494Y-133030537D01*
X81451185Y-132951185D01*
X81530537Y-132854494D01*
X81589502Y-132744180D01*
X81625812Y-132624482D01*
X81638072Y-132500000D01*
X81635000Y-131785750D01*
X81476250Y-131627000D01*
X80127000Y-131627000D01*
X79873000Y-131627000D01*
X78523750Y-131627000D01*
X78365000Y-131785750D01*
X78361928Y-132500000D01*
X76888034Y-132500000D01*
X77045261Y-132120423D01*
X77127000Y-131709491D01*
X77127000Y-131290509D01*
X77045261Y-130879577D01*
X76888035Y-130500000D01*
X78361928Y-130500000D01*
X78365000Y-131214250D01*
X78523750Y-131373000D01*
X79873000Y-131373000D01*
X79873000Y-130023750D01*
X80127000Y-130023750D01*
X80127000Y-131373000D01*
X81476250Y-131373000D01*
X81635000Y-131214250D01*
X81638072Y-130500000D01*
X81625812Y-130375518D01*
X81589502Y-130255820D01*
X81530537Y-130145506D01*
X81451185Y-130048815D01*
X81382811Y-129992702D01*
X94186903Y-129992702D01*
X94258486Y-130236671D01*
X94513996Y-130357571D01*
X94788184Y-130426300D01*
X95070512Y-130440217D01*
X95350130Y-130398787D01*
X95616292Y-130303603D01*
X95741514Y-130236671D01*
X95813097Y-129992702D01*
X95000000Y-129179605D01*
X94186903Y-129992702D01*
X81382811Y-129992702D01*
X81354494Y-129969463D01*
X81244180Y-129910498D01*
X81124482Y-129874188D01*
X81000000Y-129861928D01*
X80285750Y-129865000D01*
X80127000Y-130023750D01*
X79873000Y-130023750D01*
X79714250Y-129865000D01*
X79000000Y-129861928D01*
X78875518Y-129874188D01*
X78755820Y-129910498D01*
X78645506Y-129969463D01*
X78548815Y-130048815D01*
X78469463Y-130145506D01*
X78410498Y-130255820D01*
X78374188Y-130375518D01*
X78361928Y-130500000D01*
X76888035Y-130500000D01*
X76884923Y-130492488D01*
X76652149Y-130144116D01*
X76355884Y-129847851D01*
X76007512Y-129615077D01*
X75620423Y-129454739D01*
X75209491Y-129373000D01*
X74790509Y-129373000D01*
X74379577Y-129454739D01*
X73992488Y-129615077D01*
X73644116Y-129847851D01*
X73347851Y-130144116D01*
X73115077Y-130492488D01*
X72954739Y-130879577D01*
X72873000Y-131290509D01*
X55127000Y-131290509D01*
X55127000Y-129070512D01*
X93559783Y-129070512D01*
X93601213Y-129350130D01*
X93696397Y-129616292D01*
X93763329Y-129741514D01*
X94007298Y-129813097D01*
X94820395Y-129000000D01*
X95179605Y-129000000D01*
X95992702Y-129813097D01*
X96236671Y-129741514D01*
X96357571Y-129486004D01*
X96426300Y-129211816D01*
X96440217Y-128929488D01*
X96422544Y-128810207D01*
X98073000Y-128810207D01*
X98073000Y-129189793D01*
X98147053Y-129562085D01*
X98292315Y-129912777D01*
X98503201Y-130228391D01*
X98771609Y-130496799D01*
X99087223Y-130707685D01*
X99437915Y-130852947D01*
X99810207Y-130927000D01*
X100189793Y-130927000D01*
X100562085Y-130852947D01*
X100912777Y-130707685D01*
X101228391Y-130496799D01*
X101496799Y-130228391D01*
X101707685Y-129912777D01*
X101852947Y-129562085D01*
X101927000Y-129189793D01*
X101927000Y-128810207D01*
X101852947Y-128437915D01*
X101707685Y-128087223D01*
X101496799Y-127771609D01*
X101228391Y-127503201D01*
X100912777Y-127292315D01*
X100562085Y-127147053D01*
X100189793Y-127073000D01*
X99810207Y-127073000D01*
X99437915Y-127147053D01*
X99087223Y-127292315D01*
X98771609Y-127503201D01*
X98503201Y-127771609D01*
X98292315Y-128087223D01*
X98147053Y-128437915D01*
X98073000Y-128810207D01*
X96422544Y-128810207D01*
X96398787Y-128649870D01*
X96303603Y-128383708D01*
X96236671Y-128258486D01*
X95992702Y-128186903D01*
X95179605Y-129000000D01*
X94820395Y-129000000D01*
X94007298Y-128186903D01*
X93763329Y-128258486D01*
X93642429Y-128513996D01*
X93573700Y-128788184D01*
X93559783Y-129070512D01*
X55127000Y-129070512D01*
X55127000Y-128007298D01*
X94186903Y-128007298D01*
X95000000Y-128820395D01*
X95813097Y-128007298D01*
X95741514Y-127763329D01*
X95486004Y-127642429D01*
X95211816Y-127573700D01*
X94929488Y-127559783D01*
X94649870Y-127601213D01*
X94383708Y-127696397D01*
X94258486Y-127763329D01*
X94186903Y-128007298D01*
X55127000Y-128007298D01*
X55127000Y-122820056D01*
X70673000Y-122820056D01*
X70673000Y-123179944D01*
X70743211Y-123532916D01*
X70880934Y-123865409D01*
X71080876Y-124164645D01*
X71335355Y-124419124D01*
X71634591Y-124619066D01*
X71967084Y-124756789D01*
X72320056Y-124827000D01*
X72679944Y-124827000D01*
X73032916Y-124756789D01*
X73365409Y-124619066D01*
X73664645Y-124419124D01*
X73919124Y-124164645D01*
X74119066Y-123865409D01*
X74256789Y-123532916D01*
X74327000Y-123179944D01*
X74327000Y-122820056D01*
X74256789Y-122467084D01*
X74119066Y-122134591D01*
X73919124Y-121835355D01*
X73664645Y-121580876D01*
X73365409Y-121380934D01*
X73032916Y-121243211D01*
X72679944Y-121173000D01*
X72320056Y-121173000D01*
X71967084Y-121243211D01*
X71634591Y-121380934D01*
X71335355Y-121580876D01*
X71080876Y-121835355D01*
X70880934Y-122134591D01*
X70743211Y-122467084D01*
X70673000Y-122820056D01*
X55127000Y-122820056D01*
X55127000Y-118810207D01*
X56073000Y-118810207D01*
X56073000Y-119189793D01*
X56147053Y-119562085D01*
X56292315Y-119912777D01*
X56503201Y-120228391D01*
X56771609Y-120496799D01*
X57087223Y-120707685D01*
X57437915Y-120852947D01*
X57810207Y-120927000D01*
X58189793Y-120927000D01*
X58562085Y-120852947D01*
X58912777Y-120707685D01*
X59228391Y-120496799D01*
X59496799Y-120228391D01*
X59707685Y-119912777D01*
X59852947Y-119562085D01*
X59927000Y-119189793D01*
X59927000Y-118810207D01*
X63573000Y-118810207D01*
X63573000Y-119189793D01*
X63647053Y-119562085D01*
X63792315Y-119912777D01*
X64003201Y-120228391D01*
X64271609Y-120496799D01*
X64587223Y-120707685D01*
X64937915Y-120852947D01*
X65310207Y-120927000D01*
X65689793Y-120927000D01*
X66062085Y-120852947D01*
X66412777Y-120707685D01*
X66728391Y-120496799D01*
X66996799Y-120228391D01*
X67082586Y-120100000D01*
X76230047Y-120100000D01*
X76230047Y-121900000D01*
X76251807Y-122120931D01*
X76316250Y-122333371D01*
X76420900Y-122529157D01*
X76561735Y-122700765D01*
X76733343Y-122841600D01*
X76929129Y-122946250D01*
X77141569Y-123010693D01*
X77362500Y-123032453D01*
X78637500Y-123032453D01*
X78858431Y-123010693D01*
X79070871Y-122946250D01*
X79107509Y-122926667D01*
X79354099Y-123001469D01*
X79700000Y-123035537D01*
X80045902Y-123001469D01*
X80378512Y-122900573D01*
X80550000Y-122808910D01*
X80721489Y-122900573D01*
X81054099Y-123001469D01*
X81400000Y-123035537D01*
X81745902Y-123001469D01*
X82078512Y-122900573D01*
X82250000Y-122808910D01*
X82421489Y-122900573D01*
X82754099Y-123001469D01*
X83100000Y-123035537D01*
X83445902Y-123001469D01*
X83778512Y-122900573D01*
X84085047Y-122736726D01*
X84353726Y-122516226D01*
X84367042Y-122500000D01*
X93361928Y-122500000D01*
X93374188Y-122624482D01*
X93410498Y-122744180D01*
X93469463Y-122854494D01*
X93548815Y-122951185D01*
X93645506Y-123030537D01*
X93755820Y-123089502D01*
X93875518Y-123125812D01*
X94000000Y-123138072D01*
X94714250Y-123135000D01*
X94873000Y-122976250D01*
X94873000Y-121627000D01*
X95127000Y-121627000D01*
X95127000Y-122976250D01*
X95285750Y-123135000D01*
X96000000Y-123138072D01*
X96124482Y-123125812D01*
X96244180Y-123089502D01*
X96354494Y-123030537D01*
X96451185Y-122951185D01*
X96530537Y-122854494D01*
X96589502Y-122744180D01*
X96625812Y-122624482D01*
X96638072Y-122500000D01*
X96635000Y-121785750D01*
X96476250Y-121627000D01*
X95127000Y-121627000D01*
X94873000Y-121627000D01*
X93523750Y-121627000D01*
X93365000Y-121785750D01*
X93361928Y-122500000D01*
X84367042Y-122500000D01*
X84391194Y-122470571D01*
X84430367Y-122486737D01*
X84476495Y-122493191D01*
X84673000Y-122368985D01*
X84673000Y-122062755D01*
X84738073Y-121941012D01*
X84838969Y-121608401D01*
X84864500Y-121349178D01*
X84864500Y-121127000D01*
X84927000Y-121127000D01*
X84927000Y-122368985D01*
X85123505Y-122493191D01*
X85169633Y-122486737D01*
X85401367Y-122391102D01*
X85609991Y-122252095D01*
X85787488Y-122075059D01*
X85927036Y-121866797D01*
X86023273Y-121635312D01*
X86072500Y-121389500D01*
X86072500Y-121127000D01*
X84927000Y-121127000D01*
X84864500Y-121127000D01*
X84864500Y-120650821D01*
X84838969Y-120391598D01*
X84738073Y-120058988D01*
X84673000Y-119937245D01*
X84673000Y-119631015D01*
X84927000Y-119631015D01*
X84927000Y-120873000D01*
X86072500Y-120873000D01*
X86072500Y-120610500D01*
X86050371Y-120500000D01*
X93361928Y-120500000D01*
X93365000Y-121214250D01*
X93523750Y-121373000D01*
X94873000Y-121373000D01*
X94873000Y-120023750D01*
X95127000Y-120023750D01*
X95127000Y-121373000D01*
X96476250Y-121373000D01*
X96558741Y-121290509D01*
X97873000Y-121290509D01*
X97873000Y-121709491D01*
X97954739Y-122120423D01*
X98115077Y-122507512D01*
X98347851Y-122855884D01*
X98644116Y-123152149D01*
X98992488Y-123384923D01*
X99379577Y-123545261D01*
X99790509Y-123627000D01*
X100209491Y-123627000D01*
X100620423Y-123545261D01*
X101007512Y-123384923D01*
X101355884Y-123152149D01*
X101652149Y-122855884D01*
X101884923Y-122507512D01*
X102045261Y-122120423D01*
X102127000Y-121709491D01*
X102127000Y-121290509D01*
X102045261Y-120879577D01*
X101884923Y-120492488D01*
X101652149Y-120144116D01*
X101355884Y-119847851D01*
X101007512Y-119615077D01*
X100620423Y-119454739D01*
X100209491Y-119373000D01*
X99790509Y-119373000D01*
X99379577Y-119454739D01*
X98992488Y-119615077D01*
X98644116Y-119847851D01*
X98347851Y-120144116D01*
X98115077Y-120492488D01*
X97954739Y-120879577D01*
X97873000Y-121290509D01*
X96558741Y-121290509D01*
X96635000Y-121214250D01*
X96638072Y-120500000D01*
X96625812Y-120375518D01*
X96589502Y-120255820D01*
X96530537Y-120145506D01*
X96451185Y-120048815D01*
X96354494Y-119969463D01*
X96244180Y-119910498D01*
X96124482Y-119874188D01*
X96000000Y-119861928D01*
X95285750Y-119865000D01*
X95127000Y-120023750D01*
X94873000Y-120023750D01*
X94714250Y-119865000D01*
X94000000Y-119861928D01*
X93875518Y-119874188D01*
X93755820Y-119910498D01*
X93645506Y-119969463D01*
X93548815Y-120048815D01*
X93469463Y-120145506D01*
X93410498Y-120255820D01*
X93374188Y-120375518D01*
X93361928Y-120500000D01*
X86050371Y-120500000D01*
X86023273Y-120364688D01*
X85927036Y-120133203D01*
X85787488Y-119924941D01*
X85609991Y-119747905D01*
X85401367Y-119608898D01*
X85169633Y-119513263D01*
X85123505Y-119506809D01*
X84927000Y-119631015D01*
X84673000Y-119631015D01*
X84476495Y-119506809D01*
X84430367Y-119513263D01*
X84391194Y-119529429D01*
X84353726Y-119483774D01*
X84085046Y-119263274D01*
X83778511Y-119099427D01*
X83445901Y-118998531D01*
X83100000Y-118964463D01*
X82754098Y-118998531D01*
X82421488Y-119099427D01*
X82250000Y-119191090D01*
X82078511Y-119099427D01*
X81745901Y-118998531D01*
X81400000Y-118964463D01*
X81054098Y-118998531D01*
X80721488Y-119099427D01*
X80550000Y-119191090D01*
X80378511Y-119099427D01*
X80045901Y-118998531D01*
X79700000Y-118964463D01*
X79354098Y-118998531D01*
X79107508Y-119073333D01*
X79070871Y-119053750D01*
X78858431Y-118989307D01*
X78637500Y-118967547D01*
X77362500Y-118967547D01*
X77141569Y-118989307D01*
X76929129Y-119053750D01*
X76733343Y-119158400D01*
X76561735Y-119299235D01*
X76420900Y-119470843D01*
X76316250Y-119666629D01*
X76251807Y-119879069D01*
X76230047Y-120100000D01*
X67082586Y-120100000D01*
X67207685Y-119912777D01*
X67352947Y-119562085D01*
X67427000Y-119189793D01*
X67427000Y-118810207D01*
X67352947Y-118437915D01*
X67207685Y-118087223D01*
X66996799Y-117771609D01*
X66728391Y-117503201D01*
X66412777Y-117292315D01*
X66062085Y-117147053D01*
X65689793Y-117073000D01*
X65310207Y-117073000D01*
X64937915Y-117147053D01*
X64587223Y-117292315D01*
X64271609Y-117503201D01*
X64003201Y-117771609D01*
X63792315Y-118087223D01*
X63647053Y-118437915D01*
X63573000Y-118810207D01*
X59927000Y-118810207D01*
X59852947Y-118437915D01*
X59707685Y-118087223D01*
X59496799Y-117771609D01*
X59228391Y-117503201D01*
X58912777Y-117292315D01*
X58562085Y-117147053D01*
X58189793Y-117073000D01*
X57810207Y-117073000D01*
X57437915Y-117147053D01*
X57087223Y-117292315D01*
X56771609Y-117503201D01*
X56503201Y-117771609D01*
X56292315Y-118087223D01*
X56147053Y-118437915D01*
X56073000Y-118810207D01*
X55127000Y-118810207D01*
X55127000Y-115380000D01*
X70664160Y-115380000D01*
X70699435Y-115738155D01*
X70803905Y-116082546D01*
X70973555Y-116399938D01*
X71201865Y-116678135D01*
X71480062Y-116906445D01*
X71797454Y-117076095D01*
X72141845Y-117180565D01*
X72410245Y-117207000D01*
X72589755Y-117207000D01*
X72858155Y-117180565D01*
X73202546Y-117076095D01*
X73519938Y-116906445D01*
X73798135Y-116678135D01*
X74026445Y-116399938D01*
X74196095Y-116082546D01*
X74300565Y-115738155D01*
X74335840Y-115380000D01*
X74300565Y-115021845D01*
X74196095Y-114677454D01*
X74026445Y-114360062D01*
X73798135Y-114081865D01*
X73698383Y-114000000D01*
X90861928Y-114000000D01*
X90874188Y-114124482D01*
X90910498Y-114244180D01*
X90969463Y-114354494D01*
X91048815Y-114451185D01*
X91145506Y-114530537D01*
X91255820Y-114589502D01*
X91375518Y-114625812D01*
X91500000Y-114638072D01*
X92214250Y-114635000D01*
X92373000Y-114476250D01*
X92373000Y-113127000D01*
X92627000Y-113127000D01*
X92627000Y-114476250D01*
X92785750Y-114635000D01*
X93500000Y-114638072D01*
X93624482Y-114625812D01*
X93744180Y-114589502D01*
X93854494Y-114530537D01*
X93951185Y-114451185D01*
X94030537Y-114354494D01*
X94089502Y-114244180D01*
X94125812Y-114124482D01*
X94138072Y-114000000D01*
X94135000Y-113285750D01*
X93976250Y-113127000D01*
X92627000Y-113127000D01*
X92373000Y-113127000D01*
X91023750Y-113127000D01*
X90865000Y-113285750D01*
X90861928Y-114000000D01*
X73698383Y-114000000D01*
X73519938Y-113853555D01*
X73202546Y-113683905D01*
X72858155Y-113579435D01*
X72589755Y-113553000D01*
X72410245Y-113553000D01*
X72141845Y-113579435D01*
X71797454Y-113683905D01*
X71480062Y-113853555D01*
X71201865Y-114081865D01*
X70973555Y-114360062D01*
X70803905Y-114677454D01*
X70699435Y-115021845D01*
X70664160Y-115380000D01*
X55127000Y-115380000D01*
X55127000Y-111014956D01*
X55183905Y-111202546D01*
X55353555Y-111519938D01*
X55581865Y-111798135D01*
X55860062Y-112026445D01*
X56177454Y-112196095D01*
X56521845Y-112300565D01*
X56790245Y-112327000D01*
X56969755Y-112327000D01*
X57238155Y-112300565D01*
X57582546Y-112196095D01*
X57899938Y-112026445D01*
X58178135Y-111798135D01*
X58406445Y-111519938D01*
X58576095Y-111202546D01*
X58680565Y-110858155D01*
X58715840Y-110500000D01*
X58698118Y-110320056D01*
X62673000Y-110320056D01*
X62673000Y-110679944D01*
X62743211Y-111032916D01*
X62880934Y-111365409D01*
X63080876Y-111664645D01*
X63335355Y-111919124D01*
X63634591Y-112119066D01*
X63967084Y-112256789D01*
X64320056Y-112327000D01*
X64679944Y-112327000D01*
X65032916Y-112256789D01*
X65365409Y-112119066D01*
X65664645Y-111919124D01*
X65919124Y-111664645D01*
X66119066Y-111365409D01*
X66256789Y-111032916D01*
X66327000Y-110679944D01*
X66327000Y-110320056D01*
X66256789Y-109967084D01*
X66119066Y-109634591D01*
X65919124Y-109335355D01*
X65664645Y-109080876D01*
X65365409Y-108880934D01*
X65032916Y-108743211D01*
X64679944Y-108673000D01*
X64320056Y-108673000D01*
X63967084Y-108743211D01*
X63634591Y-108880934D01*
X63335355Y-109080876D01*
X63080876Y-109335355D01*
X62880934Y-109634591D01*
X62743211Y-109967084D01*
X62673000Y-110320056D01*
X58698118Y-110320056D01*
X58680565Y-110141845D01*
X58576095Y-109797454D01*
X58406445Y-109480062D01*
X58178135Y-109201865D01*
X57899938Y-108973555D01*
X57582546Y-108803905D01*
X57238155Y-108699435D01*
X56969755Y-108673000D01*
X56790245Y-108673000D01*
X56521845Y-108699435D01*
X56177454Y-108803905D01*
X55860062Y-108973555D01*
X55581865Y-109201865D01*
X55353555Y-109480062D01*
X55183905Y-109797454D01*
X55127000Y-109985044D01*
X55127000Y-104700000D01*
X60567547Y-104700000D01*
X60567547Y-106300000D01*
X60589307Y-106520931D01*
X60653750Y-106733371D01*
X60758400Y-106929157D01*
X60899235Y-107100765D01*
X61070843Y-107241600D01*
X61266629Y-107346250D01*
X61479069Y-107410693D01*
X61700000Y-107432453D01*
X63300000Y-107432453D01*
X63520931Y-107410693D01*
X63733371Y-107346250D01*
X63929157Y-107241600D01*
X64100765Y-107100765D01*
X64241600Y-106929157D01*
X64346250Y-106733371D01*
X64410693Y-106520931D01*
X64432453Y-106300000D01*
X64432453Y-104700000D01*
X64410693Y-104479069D01*
X64346250Y-104266629D01*
X64241600Y-104070843D01*
X64100765Y-103899235D01*
X63929157Y-103758400D01*
X63733371Y-103653750D01*
X63520931Y-103589307D01*
X63300000Y-103567547D01*
X61700000Y-103567547D01*
X61479069Y-103589307D01*
X61266629Y-103653750D01*
X61070843Y-103758400D01*
X60899235Y-103899235D01*
X60758400Y-104070843D01*
X60653750Y-104266629D01*
X60589307Y-104479069D01*
X60567547Y-104700000D01*
X55127000Y-104700000D01*
X55127000Y-100514956D01*
X55183905Y-100702546D01*
X55353555Y-101019938D01*
X55581865Y-101298135D01*
X55860062Y-101526445D01*
X56177454Y-101696095D01*
X56521845Y-101800565D01*
X56790245Y-101827000D01*
X56969755Y-101827000D01*
X57238155Y-101800565D01*
X57582546Y-101696095D01*
X57899938Y-101526445D01*
X58178135Y-101298135D01*
X58406445Y-101019938D01*
X58576095Y-100702546D01*
X58680565Y-100358155D01*
X58715840Y-100000000D01*
X58698118Y-99820056D01*
X62673000Y-99820056D01*
X62673000Y-100179944D01*
X62743211Y-100532916D01*
X62880934Y-100865409D01*
X63080876Y-101164645D01*
X63335355Y-101419124D01*
X63634591Y-101619066D01*
X63967084Y-101756789D01*
X64320056Y-101827000D01*
X64679944Y-101827000D01*
X65032916Y-101756789D01*
X65365409Y-101619066D01*
X65664645Y-101419124D01*
X65919124Y-101164645D01*
X66119066Y-100865409D01*
X66256789Y-100532916D01*
X66327000Y-100179944D01*
X66327000Y-99820056D01*
X66256789Y-99467084D01*
X66119066Y-99134591D01*
X65919124Y-98835355D01*
X65664645Y-98580876D01*
X65365409Y-98380934D01*
X65032916Y-98243211D01*
X64679944Y-98173000D01*
X64320056Y-98173000D01*
X63967084Y-98243211D01*
X63634591Y-98380934D01*
X63335355Y-98580876D01*
X63080876Y-98835355D01*
X62880934Y-99134591D01*
X62743211Y-99467084D01*
X62673000Y-99820056D01*
X58698118Y-99820056D01*
X58680565Y-99641845D01*
X58576095Y-99297454D01*
X58406445Y-98980062D01*
X58178135Y-98701865D01*
X57899938Y-98473555D01*
X57582546Y-98303905D01*
X57238155Y-98199435D01*
X56969755Y-98173000D01*
X56790245Y-98173000D01*
X56521845Y-98199435D01*
X56177454Y-98303905D01*
X55860062Y-98473555D01*
X55581865Y-98701865D01*
X55353555Y-98980062D01*
X55183905Y-99297454D01*
X55127000Y-99485044D01*
X55127000Y-90072000D01*
X68978329Y-90072000D01*
X68755155Y-90255155D01*
X68536217Y-90521931D01*
X68373531Y-90826295D01*
X68273350Y-91156548D01*
X68239523Y-91500000D01*
X68248001Y-91586079D01*
X68248000Y-101694208D01*
X68147053Y-101937915D01*
X68073000Y-102310207D01*
X68073000Y-102689793D01*
X68147053Y-103062085D01*
X68292315Y-103412777D01*
X68503201Y-103728391D01*
X68771609Y-103996799D01*
X68850157Y-104049283D01*
X68750813Y-104130813D01*
X68510006Y-104424237D01*
X68331071Y-104759001D01*
X68220883Y-105122242D01*
X68183677Y-105500000D01*
X68220883Y-105877758D01*
X68331071Y-106240999D01*
X68510006Y-106575763D01*
X68750813Y-106869187D01*
X69044237Y-107109994D01*
X69379001Y-107288929D01*
X69742242Y-107399117D01*
X70025342Y-107427000D01*
X70214658Y-107427000D01*
X70497758Y-107399117D01*
X70860999Y-107288929D01*
X71195763Y-107109994D01*
X71489187Y-106869187D01*
X71729994Y-106575763D01*
X71908929Y-106240999D01*
X72019117Y-105877758D01*
X72056323Y-105500000D01*
X72037630Y-105310207D01*
X77573000Y-105310207D01*
X77573000Y-105689793D01*
X77647053Y-106062085D01*
X77792315Y-106412777D01*
X78003201Y-106728391D01*
X78271609Y-106996799D01*
X78587223Y-107207685D01*
X78912807Y-107342547D01*
X78750000Y-107342547D01*
X78529069Y-107364307D01*
X78316629Y-107428750D01*
X78120843Y-107533400D01*
X77949235Y-107674235D01*
X77808400Y-107845843D01*
X77703750Y-108041629D01*
X77639307Y-108254069D01*
X77617547Y-108475000D01*
X77617547Y-109525000D01*
X77639307Y-109745931D01*
X77673473Y-109858561D01*
X77646903Y-109946151D01*
X77615007Y-110270000D01*
X77646903Y-110593849D01*
X77741290Y-110905000D01*
X77646903Y-111216151D01*
X77615007Y-111540000D01*
X77646903Y-111863849D01*
X77741366Y-112175252D01*
X77894766Y-112462243D01*
X78101208Y-112713792D01*
X78352757Y-112920234D01*
X78639748Y-113073634D01*
X78951151Y-113168097D01*
X79193845Y-113192000D01*
X79806155Y-113192000D01*
X80048849Y-113168097D01*
X80360252Y-113073634D01*
X80647243Y-112920234D01*
X80898792Y-112713792D01*
X81105234Y-112462243D01*
X81258634Y-112175252D01*
X81311796Y-112000000D01*
X90861928Y-112000000D01*
X90865000Y-112714250D01*
X91023750Y-112873000D01*
X92373000Y-112873000D01*
X92373000Y-111523750D01*
X92627000Y-111523750D01*
X92627000Y-112873000D01*
X93976250Y-112873000D01*
X94135000Y-112714250D01*
X94138072Y-112000000D01*
X94125812Y-111875518D01*
X94089502Y-111755820D01*
X94030537Y-111645506D01*
X93951185Y-111548815D01*
X93854494Y-111469463D01*
X93744180Y-111410498D01*
X93624482Y-111374188D01*
X93500000Y-111361928D01*
X92785750Y-111365000D01*
X92627000Y-111523750D01*
X92373000Y-111523750D01*
X92214250Y-111365000D01*
X91500000Y-111361928D01*
X91375518Y-111374188D01*
X91255820Y-111410498D01*
X91145506Y-111469463D01*
X91048815Y-111548815D01*
X90969463Y-111645506D01*
X90910498Y-111755820D01*
X90874188Y-111875518D01*
X90861928Y-112000000D01*
X81311796Y-112000000D01*
X81353097Y-111863849D01*
X81384993Y-111540000D01*
X81353097Y-111216151D01*
X81258710Y-110905000D01*
X81353097Y-110593849D01*
X81384993Y-110270000D01*
X81353097Y-109946151D01*
X81326527Y-109858561D01*
X81360693Y-109745931D01*
X81382453Y-109525000D01*
X81382453Y-108475000D01*
X81360693Y-108254069D01*
X81296250Y-108041629D01*
X81231238Y-107920000D01*
X90362709Y-107920000D01*
X90403776Y-108336965D01*
X90525401Y-108737906D01*
X90722907Y-109107415D01*
X90988707Y-109431293D01*
X91312585Y-109697093D01*
X91682094Y-109894599D01*
X92083035Y-110016224D01*
X92395513Y-110047000D01*
X92604487Y-110047000D01*
X92916965Y-110016224D01*
X93317906Y-109894599D01*
X93687415Y-109697093D01*
X94011293Y-109431293D01*
X94277093Y-109107415D01*
X94474599Y-108737906D01*
X94596224Y-108336965D01*
X94637291Y-107920000D01*
X94596224Y-107503035D01*
X94474599Y-107102094D01*
X94277093Y-106732585D01*
X94011293Y-106408707D01*
X93687415Y-106142907D01*
X93317906Y-105945401D01*
X92916965Y-105823776D01*
X92604487Y-105793000D01*
X92395513Y-105793000D01*
X92083035Y-105823776D01*
X91682094Y-105945401D01*
X91312585Y-106142907D01*
X90988707Y-106408707D01*
X90722907Y-106732585D01*
X90525401Y-107102094D01*
X90403776Y-107503035D01*
X90362709Y-107920000D01*
X81231238Y-107920000D01*
X81191600Y-107845843D01*
X81050765Y-107674235D01*
X80879157Y-107533400D01*
X80683371Y-107428750D01*
X80470931Y-107364307D01*
X80250000Y-107342547D01*
X80087193Y-107342547D01*
X80305792Y-107252000D01*
X86413931Y-107252000D01*
X86500000Y-107260477D01*
X86586068Y-107252000D01*
X86586069Y-107252000D01*
X86843452Y-107226650D01*
X87173705Y-107126469D01*
X87478069Y-106963783D01*
X87744845Y-106744845D01*
X87963783Y-106478069D01*
X88126469Y-106173705D01*
X88226650Y-105843452D01*
X88260477Y-105500000D01*
X88252000Y-105413931D01*
X88252000Y-103805792D01*
X88352947Y-103562085D01*
X88427000Y-103189793D01*
X88427000Y-102810207D01*
X88352947Y-102437915D01*
X88207685Y-102087223D01*
X87996799Y-101771609D01*
X87728391Y-101503201D01*
X87412777Y-101292315D01*
X87125305Y-101173240D01*
X87399938Y-101026445D01*
X87678135Y-100798135D01*
X87906445Y-100519938D01*
X87959184Y-100421269D01*
X93258336Y-100421269D01*
X93317797Y-100655037D01*
X93556242Y-100765934D01*
X93811740Y-100828183D01*
X94074473Y-100839390D01*
X94334344Y-100799125D01*
X94581366Y-100708935D01*
X94682203Y-100655037D01*
X94741664Y-100421269D01*
X94000000Y-99679605D01*
X93258336Y-100421269D01*
X87959184Y-100421269D01*
X88076095Y-100202546D01*
X88180565Y-99858155D01*
X88208505Y-99574473D01*
X92660610Y-99574473D01*
X92700875Y-99834344D01*
X92791065Y-100081366D01*
X92844963Y-100182203D01*
X93078731Y-100241664D01*
X93820395Y-99500000D01*
X94179605Y-99500000D01*
X94921269Y-100241664D01*
X95155037Y-100182203D01*
X95265934Y-99943758D01*
X95328183Y-99688260D01*
X95339390Y-99425527D01*
X95299125Y-99165656D01*
X95208935Y-98918634D01*
X95155037Y-98817797D01*
X94921269Y-98758336D01*
X94179605Y-99500000D01*
X93820395Y-99500000D01*
X93078731Y-98758336D01*
X92844963Y-98817797D01*
X92734066Y-99056242D01*
X92671817Y-99311740D01*
X92660610Y-99574473D01*
X88208505Y-99574473D01*
X88215840Y-99500000D01*
X88180565Y-99141845D01*
X88076095Y-98797454D01*
X87959185Y-98578731D01*
X93258336Y-98578731D01*
X94000000Y-99320395D01*
X94741664Y-98578731D01*
X94682203Y-98344963D01*
X94443758Y-98234066D01*
X94188260Y-98171817D01*
X93925527Y-98160610D01*
X93665656Y-98200875D01*
X93418634Y-98291065D01*
X93317797Y-98344963D01*
X93258336Y-98578731D01*
X87959185Y-98578731D01*
X87906445Y-98480062D01*
X87678135Y-98201865D01*
X87399938Y-97973555D01*
X87082546Y-97803905D01*
X86738155Y-97699435D01*
X86469755Y-97673000D01*
X86290245Y-97673000D01*
X86021845Y-97699435D01*
X85677454Y-97803905D01*
X85360062Y-97973555D01*
X85081865Y-98201865D01*
X84853555Y-98480062D01*
X84683905Y-98797454D01*
X84579435Y-99141845D01*
X84544160Y-99500000D01*
X84579435Y-99858155D01*
X84683905Y-100202546D01*
X84853555Y-100519938D01*
X85081865Y-100798135D01*
X85360062Y-101026445D01*
X85677454Y-101196095D01*
X85759461Y-101220971D01*
X85587223Y-101292315D01*
X85271609Y-101503201D01*
X85003201Y-101771609D01*
X84792315Y-102087223D01*
X84647053Y-102437915D01*
X84573000Y-102810207D01*
X84573000Y-103189793D01*
X84647053Y-103562085D01*
X84724062Y-103748000D01*
X80305792Y-103748000D01*
X80062085Y-103647053D01*
X79689793Y-103573000D01*
X79310207Y-103573000D01*
X78937915Y-103647053D01*
X78587223Y-103792315D01*
X78271609Y-104003201D01*
X78003201Y-104271609D01*
X77792315Y-104587223D01*
X77647053Y-104937915D01*
X77573000Y-105310207D01*
X72037630Y-105310207D01*
X72019117Y-105122242D01*
X71908929Y-104759001D01*
X71729994Y-104424237D01*
X71489187Y-104130813D01*
X71272339Y-103952851D01*
X71496799Y-103728391D01*
X71707685Y-103412777D01*
X71852947Y-103062085D01*
X71927000Y-102689793D01*
X71927000Y-102310207D01*
X71852947Y-101937915D01*
X71752000Y-101694208D01*
X71752000Y-99818086D01*
X73073000Y-99818086D01*
X73073000Y-100181914D01*
X73143979Y-100538750D01*
X73283210Y-100874883D01*
X73485341Y-101177394D01*
X73742606Y-101434659D01*
X74045117Y-101636790D01*
X74381250Y-101776021D01*
X74738086Y-101847000D01*
X75101914Y-101847000D01*
X75458750Y-101776021D01*
X75794883Y-101636790D01*
X76097394Y-101434659D01*
X76190000Y-101342053D01*
X76282606Y-101434659D01*
X76585117Y-101636790D01*
X76921250Y-101776021D01*
X77278086Y-101847000D01*
X77641914Y-101847000D01*
X77998750Y-101776021D01*
X78334883Y-101636790D01*
X78637394Y-101434659D01*
X78730000Y-101342053D01*
X78822606Y-101434659D01*
X79125117Y-101636790D01*
X79461250Y-101776021D01*
X79818086Y-101847000D01*
X80181914Y-101847000D01*
X80538750Y-101776021D01*
X80874883Y-101636790D01*
X81177394Y-101434659D01*
X81434659Y-101177394D01*
X81636790Y-100874883D01*
X81776021Y-100538750D01*
X81847000Y-100181914D01*
X81847000Y-99818086D01*
X81776021Y-99461250D01*
X81636790Y-99125117D01*
X81434659Y-98822606D01*
X81177394Y-98565341D01*
X80874883Y-98363210D01*
X80538750Y-98223979D01*
X80181914Y-98153000D01*
X79818086Y-98153000D01*
X79461250Y-98223979D01*
X79125117Y-98363210D01*
X78822606Y-98565341D01*
X78730000Y-98657947D01*
X78637394Y-98565341D01*
X78334883Y-98363210D01*
X77998750Y-98223979D01*
X77641914Y-98153000D01*
X77278086Y-98153000D01*
X76921250Y-98223979D01*
X76585117Y-98363210D01*
X76282606Y-98565341D01*
X76190000Y-98657947D01*
X76097394Y-98565341D01*
X75794883Y-98363210D01*
X75458750Y-98223979D01*
X75101914Y-98153000D01*
X74738086Y-98153000D01*
X74381250Y-98223979D01*
X74045117Y-98363210D01*
X73742606Y-98565341D01*
X73485341Y-98822606D01*
X73283210Y-99125117D01*
X73143979Y-99461250D01*
X73073000Y-99818086D01*
X71752000Y-99818086D01*
X71752000Y-93252000D01*
X85848562Y-93252000D01*
X85677454Y-93303905D01*
X85360062Y-93473555D01*
X85081865Y-93701865D01*
X84853555Y-93980062D01*
X84683905Y-94297454D01*
X84579435Y-94641845D01*
X84544160Y-95000000D01*
X84579435Y-95358155D01*
X84683905Y-95702546D01*
X84853555Y-96019938D01*
X85081865Y-96298135D01*
X85360062Y-96526445D01*
X85677454Y-96696095D01*
X86021845Y-96800565D01*
X86290245Y-96827000D01*
X86469755Y-96827000D01*
X86738155Y-96800565D01*
X87082546Y-96696095D01*
X87399938Y-96526445D01*
X87678135Y-96298135D01*
X87906445Y-96019938D01*
X87959184Y-95921269D01*
X93258336Y-95921269D01*
X93317797Y-96155037D01*
X93556242Y-96265934D01*
X93811740Y-96328183D01*
X94074473Y-96339390D01*
X94334344Y-96299125D01*
X94581366Y-96208935D01*
X94682203Y-96155037D01*
X94741664Y-95921269D01*
X94000000Y-95179605D01*
X93258336Y-95921269D01*
X87959184Y-95921269D01*
X88076095Y-95702546D01*
X88180565Y-95358155D01*
X88208505Y-95074473D01*
X92660610Y-95074473D01*
X92700875Y-95334344D01*
X92791065Y-95581366D01*
X92844963Y-95682203D01*
X93078731Y-95741664D01*
X93820395Y-95000000D01*
X94179605Y-95000000D01*
X94921269Y-95741664D01*
X95155037Y-95682203D01*
X95265934Y-95443758D01*
X95328183Y-95188260D01*
X95339390Y-94925527D01*
X95299125Y-94665656D01*
X95208935Y-94418634D01*
X95155037Y-94317797D01*
X94921269Y-94258336D01*
X94179605Y-95000000D01*
X93820395Y-95000000D01*
X93078731Y-94258336D01*
X92844963Y-94317797D01*
X92734066Y-94556242D01*
X92671817Y-94811740D01*
X92660610Y-95074473D01*
X88208505Y-95074473D01*
X88215840Y-95000000D01*
X88180565Y-94641845D01*
X88076095Y-94297454D01*
X87959185Y-94078731D01*
X93258336Y-94078731D01*
X94000000Y-94820395D01*
X94741664Y-94078731D01*
X94682203Y-93844963D01*
X94443758Y-93734066D01*
X94188260Y-93671817D01*
X93925527Y-93660610D01*
X93665656Y-93700875D01*
X93418634Y-93791065D01*
X93317797Y-93844963D01*
X93258336Y-94078731D01*
X87959185Y-94078731D01*
X87906445Y-93980062D01*
X87678135Y-93701865D01*
X87399938Y-93473555D01*
X87082546Y-93303905D01*
X86911438Y-93252000D01*
X96774298Y-93252000D01*
X100748000Y-97225702D01*
X100748001Y-114194206D01*
X100647053Y-114437915D01*
X100573000Y-114810207D01*
X100573000Y-115189793D01*
X100647053Y-115562085D01*
X100792315Y-115912777D01*
X101003201Y-116228391D01*
X101271609Y-116496799D01*
X101587223Y-116707685D01*
X101937915Y-116852947D01*
X102310207Y-116927000D01*
X102689793Y-116927000D01*
X103062085Y-116852947D01*
X103412777Y-116707685D01*
X103728391Y-116496799D01*
X103996799Y-116228391D01*
X104207685Y-115912777D01*
X104352947Y-115562085D01*
X104427000Y-115189793D01*
X104427000Y-114810207D01*
X104352947Y-114437915D01*
X104252000Y-114194208D01*
X104252000Y-96586061D01*
X104260476Y-96500000D01*
X104252000Y-96413939D01*
X104252000Y-96413931D01*
X104226650Y-96156548D01*
X104126469Y-95826295D01*
X103963783Y-95521931D01*
X103744845Y-95255155D01*
X103677993Y-95200291D01*
X103168965Y-94691263D01*
X110373000Y-94691263D01*
X110373000Y-95208737D01*
X110473954Y-95716268D01*
X110671983Y-96194351D01*
X110959476Y-96624615D01*
X111325385Y-96990524D01*
X111755649Y-97278017D01*
X112231207Y-97475000D01*
X111755649Y-97671983D01*
X111325385Y-97959476D01*
X110959476Y-98325385D01*
X110671983Y-98755649D01*
X110473954Y-99233732D01*
X110373000Y-99741263D01*
X110373000Y-100258737D01*
X110473954Y-100766268D01*
X110671983Y-101244351D01*
X110959476Y-101674615D01*
X111325385Y-102040524D01*
X111755649Y-102328017D01*
X112170852Y-102500000D01*
X111755649Y-102671983D01*
X111325385Y-102959476D01*
X110959476Y-103325385D01*
X110671983Y-103755649D01*
X110473954Y-104233732D01*
X110373000Y-104741263D01*
X110373000Y-105258737D01*
X110473954Y-105766268D01*
X110671983Y-106244351D01*
X110959476Y-106674615D01*
X111325385Y-107040524D01*
X111755649Y-107328017D01*
X112170852Y-107500000D01*
X111755649Y-107671983D01*
X111325385Y-107959476D01*
X110959476Y-108325385D01*
X110671983Y-108755649D01*
X110473954Y-109233732D01*
X110373000Y-109741263D01*
X110373000Y-110258737D01*
X110473954Y-110766268D01*
X110671983Y-111244351D01*
X110959476Y-111674615D01*
X111325385Y-112040524D01*
X111755649Y-112328017D01*
X112170852Y-112500000D01*
X111755649Y-112671983D01*
X111325385Y-112959476D01*
X110959476Y-113325385D01*
X110671983Y-113755649D01*
X110473954Y-114233732D01*
X110373000Y-114741263D01*
X110373000Y-115258737D01*
X110473954Y-115766268D01*
X110671983Y-116244351D01*
X110959476Y-116674615D01*
X111325385Y-117040524D01*
X111755649Y-117328017D01*
X112170852Y-117500000D01*
X111755649Y-117671983D01*
X111325385Y-117959476D01*
X110959476Y-118325385D01*
X110671983Y-118755649D01*
X110473954Y-119233732D01*
X110373000Y-119741263D01*
X110373000Y-120258737D01*
X110473954Y-120766268D01*
X110671983Y-121244351D01*
X110959476Y-121674615D01*
X111325385Y-122040524D01*
X111755649Y-122328017D01*
X112233732Y-122526046D01*
X112741263Y-122627000D01*
X113258737Y-122627000D01*
X113766268Y-122526046D01*
X114244351Y-122328017D01*
X114674615Y-122040524D01*
X115040524Y-121674615D01*
X115328017Y-121244351D01*
X115526046Y-120766268D01*
X115627000Y-120258737D01*
X115627000Y-119741263D01*
X115526046Y-119233732D01*
X115328017Y-118755649D01*
X115040524Y-118325385D01*
X114674615Y-117959476D01*
X114244351Y-117671983D01*
X113829148Y-117500000D01*
X114244351Y-117328017D01*
X114674615Y-117040524D01*
X115040524Y-116674615D01*
X115328017Y-116244351D01*
X115526046Y-115766268D01*
X115627000Y-115258737D01*
X115627000Y-114741263D01*
X115526046Y-114233732D01*
X115328017Y-113755649D01*
X115040524Y-113325385D01*
X114674615Y-112959476D01*
X114244351Y-112671983D01*
X113829148Y-112500000D01*
X114244351Y-112328017D01*
X114674615Y-112040524D01*
X115040524Y-111674615D01*
X115328017Y-111244351D01*
X115526046Y-110766268D01*
X115627000Y-110258737D01*
X115627000Y-109741263D01*
X115526046Y-109233732D01*
X115328017Y-108755649D01*
X115040524Y-108325385D01*
X114674615Y-107959476D01*
X114244351Y-107671983D01*
X113829148Y-107500000D01*
X114244351Y-107328017D01*
X114674615Y-107040524D01*
X115040524Y-106674615D01*
X115328017Y-106244351D01*
X115526046Y-105766268D01*
X115627000Y-105258737D01*
X115627000Y-104741263D01*
X115526046Y-104233732D01*
X115328017Y-103755649D01*
X115040524Y-103325385D01*
X114674615Y-102959476D01*
X114244351Y-102671983D01*
X113829148Y-102500000D01*
X114244351Y-102328017D01*
X114674615Y-102040524D01*
X115040524Y-101674615D01*
X115328017Y-101244351D01*
X115526046Y-100766268D01*
X115627000Y-100258737D01*
X115627000Y-99741263D01*
X115526046Y-99233732D01*
X115328017Y-98755649D01*
X115040524Y-98325385D01*
X114674615Y-97959476D01*
X114244351Y-97671983D01*
X113768793Y-97475000D01*
X114244351Y-97278017D01*
X114674615Y-96990524D01*
X115040524Y-96624615D01*
X115328017Y-96194351D01*
X115526046Y-95716268D01*
X115627000Y-95208737D01*
X115627000Y-94741263D01*
X137873000Y-94741263D01*
X137873000Y-95258737D01*
X137973954Y-95766268D01*
X138171983Y-96244351D01*
X138459476Y-96674615D01*
X138825385Y-97040524D01*
X139255649Y-97328017D01*
X139670852Y-97500000D01*
X139255649Y-97671983D01*
X138825385Y-97959476D01*
X138459476Y-98325385D01*
X138171983Y-98755649D01*
X137973954Y-99233732D01*
X137873000Y-99741263D01*
X137873000Y-100258737D01*
X137973954Y-100766268D01*
X138171983Y-101244351D01*
X138459476Y-101674615D01*
X138825385Y-102040524D01*
X139255649Y-102328017D01*
X139670852Y-102500000D01*
X139255649Y-102671983D01*
X138825385Y-102959476D01*
X138459476Y-103325385D01*
X138171983Y-103755649D01*
X137973954Y-104233732D01*
X137873000Y-104741263D01*
X137873000Y-105258737D01*
X137973954Y-105766268D01*
X138171983Y-106244351D01*
X138459476Y-106674615D01*
X138825385Y-107040524D01*
X139255649Y-107328017D01*
X139670852Y-107500000D01*
X139255649Y-107671983D01*
X138825385Y-107959476D01*
X138459476Y-108325385D01*
X138171983Y-108755649D01*
X137973954Y-109233732D01*
X137873000Y-109741263D01*
X137873000Y-110258737D01*
X137973954Y-110766268D01*
X138171983Y-111244351D01*
X138459476Y-111674615D01*
X138825385Y-112040524D01*
X139255649Y-112328017D01*
X139670852Y-112500000D01*
X139255649Y-112671983D01*
X138825385Y-112959476D01*
X138459476Y-113325385D01*
X138171983Y-113755649D01*
X137973954Y-114233732D01*
X137873000Y-114741263D01*
X137873000Y-115258737D01*
X137973954Y-115766268D01*
X138171983Y-116244351D01*
X138459476Y-116674615D01*
X138825385Y-117040524D01*
X139255649Y-117328017D01*
X139670852Y-117500000D01*
X139255649Y-117671983D01*
X138825385Y-117959476D01*
X138459476Y-118325385D01*
X138171983Y-118755649D01*
X137973954Y-119233732D01*
X137873000Y-119741263D01*
X137873000Y-120258737D01*
X137973954Y-120766268D01*
X138171983Y-121244351D01*
X138459476Y-121674615D01*
X138825385Y-122040524D01*
X139255649Y-122328017D01*
X139733732Y-122526046D01*
X140241263Y-122627000D01*
X140758737Y-122627000D01*
X141266268Y-122526046D01*
X141744351Y-122328017D01*
X142174615Y-122040524D01*
X142540524Y-121674615D01*
X142828017Y-121244351D01*
X143026046Y-120766268D01*
X143127000Y-120258737D01*
X143127000Y-119741263D01*
X143026046Y-119233732D01*
X142828017Y-118755649D01*
X142540524Y-118325385D01*
X142174615Y-117959476D01*
X141744351Y-117671983D01*
X141329148Y-117500000D01*
X141744351Y-117328017D01*
X142174615Y-117040524D01*
X142540524Y-116674615D01*
X142828017Y-116244351D01*
X143026046Y-115766268D01*
X143127000Y-115258737D01*
X143127000Y-114741263D01*
X143026046Y-114233732D01*
X142828017Y-113755649D01*
X142540524Y-113325385D01*
X142174615Y-112959476D01*
X141744351Y-112671983D01*
X141329148Y-112500000D01*
X141744351Y-112328017D01*
X142174615Y-112040524D01*
X142540524Y-111674615D01*
X142828017Y-111244351D01*
X143026046Y-110766268D01*
X143127000Y-110258737D01*
X143127000Y-109741263D01*
X143026046Y-109233732D01*
X142828017Y-108755649D01*
X142540524Y-108325385D01*
X142174615Y-107959476D01*
X141744351Y-107671983D01*
X141329148Y-107500000D01*
X141744351Y-107328017D01*
X142174615Y-107040524D01*
X142540524Y-106674615D01*
X142828017Y-106244351D01*
X143026046Y-105766268D01*
X143127000Y-105258737D01*
X143127000Y-104741263D01*
X143026046Y-104233732D01*
X142828017Y-103755649D01*
X142540524Y-103325385D01*
X142174615Y-102959476D01*
X141744351Y-102671983D01*
X141329148Y-102500000D01*
X141744351Y-102328017D01*
X142174615Y-102040524D01*
X142540524Y-101674615D01*
X142828017Y-101244351D01*
X143026046Y-100766268D01*
X143127000Y-100258737D01*
X143127000Y-99741263D01*
X143026046Y-99233732D01*
X142828017Y-98755649D01*
X142540524Y-98325385D01*
X142174615Y-97959476D01*
X141744351Y-97671983D01*
X141329148Y-97500000D01*
X141744351Y-97328017D01*
X142174615Y-97040524D01*
X142540524Y-96674615D01*
X142828017Y-96244351D01*
X143026046Y-95766268D01*
X143127000Y-95258737D01*
X143127000Y-94741263D01*
X143026046Y-94233732D01*
X142828017Y-93755649D01*
X142540524Y-93325385D01*
X142174615Y-92959476D01*
X141744351Y-92671983D01*
X141266268Y-92473954D01*
X140758737Y-92373000D01*
X140241263Y-92373000D01*
X139733732Y-92473954D01*
X139255649Y-92671983D01*
X138825385Y-92959476D01*
X138459476Y-93325385D01*
X138171983Y-93755649D01*
X137973954Y-94233732D01*
X137873000Y-94741263D01*
X115627000Y-94741263D01*
X115627000Y-94691263D01*
X115526046Y-94183732D01*
X115328017Y-93705649D01*
X115040524Y-93275385D01*
X114674615Y-92909476D01*
X114244351Y-92621983D01*
X113766268Y-92423954D01*
X113258737Y-92323000D01*
X112741263Y-92323000D01*
X112233732Y-92423954D01*
X111755649Y-92621983D01*
X111325385Y-92909476D01*
X110959476Y-93275385D01*
X110671983Y-93705649D01*
X110473954Y-94183732D01*
X110373000Y-94691263D01*
X103168965Y-94691263D01*
X98799710Y-90322008D01*
X98744845Y-90255155D01*
X98478069Y-90036217D01*
X98173705Y-89873531D01*
X97843452Y-89773350D01*
X97586069Y-89748000D01*
X97586061Y-89748000D01*
X97500000Y-89739524D01*
X97413939Y-89748000D01*
X87205572Y-89748000D01*
X87205572Y-80168000D01*
X58913763Y-80168000D01*
X59074125Y-79780852D01*
X59177000Y-79263662D01*
X59177000Y-78736338D01*
X59138222Y-78541384D01*
X60052606Y-77627000D01*
X144947394Y-77627000D01*
X145459167Y-78138773D01*
X145459167Y-78138773D01*
G37*
X145459167Y-78138773D02*
X145425875Y-78219148D01*
X145323000Y-78736338D01*
X145323000Y-79263662D01*
X145425875Y-79780852D01*
X145627673Y-80268035D01*
X145920638Y-80706488D01*
X146293512Y-81079362D01*
X146731965Y-81372327D01*
X147219148Y-81574125D01*
X147736338Y-81677000D01*
X148263662Y-81677000D01*
X148780852Y-81574125D01*
X148861227Y-81540833D01*
X149873000Y-82552606D01*
X149873000Y-159943820D01*
X148789019Y-160929258D01*
X148780852Y-160925875D01*
X148263662Y-160823000D01*
X147736338Y-160823000D01*
X147219148Y-160925875D01*
X146731965Y-161127673D01*
X146293512Y-161420638D01*
X145920638Y-161793512D01*
X145627673Y-162231965D01*
X145425875Y-162719148D01*
X145323000Y-163236338D01*
X145323000Y-163763662D01*
X145376318Y-164031712D01*
X144450902Y-164873000D01*
X60052606Y-164873000D01*
X59138222Y-163958616D01*
X59177000Y-163763662D01*
X59177000Y-163236338D01*
X59074125Y-162719148D01*
X58872327Y-162231965D01*
X58579362Y-161793512D01*
X58206488Y-161420638D01*
X57768035Y-161127673D01*
X57280852Y-160925875D01*
X56763662Y-160823000D01*
X56236338Y-160823000D01*
X56041384Y-160861778D01*
X55127000Y-159947394D01*
X55127000Y-157700000D01*
X66067547Y-157700000D01*
X66067547Y-160300000D01*
X66089307Y-160520931D01*
X66153750Y-160733371D01*
X66258400Y-160929157D01*
X66399235Y-161100765D01*
X66570843Y-161241600D01*
X66766629Y-161346250D01*
X66979069Y-161410693D01*
X67200000Y-161432453D01*
X69800000Y-161432453D01*
X70020931Y-161410693D01*
X70233371Y-161346250D01*
X70429157Y-161241600D01*
X70600765Y-161100765D01*
X70741600Y-160929157D01*
X70846250Y-160733371D01*
X70910693Y-160520931D01*
X70927604Y-160349224D01*
X72410381Y-160349224D01*
X72542317Y-160644312D01*
X72883045Y-160815159D01*
X73250557Y-160916250D01*
X73630729Y-160943701D01*
X74008951Y-160896457D01*
X74370690Y-160776333D01*
X74617683Y-160644312D01*
X74749619Y-160349224D01*
X74700395Y-160300000D01*
X93061928Y-160300000D01*
X93074188Y-160424482D01*
X93110498Y-160544180D01*
X93169463Y-160654494D01*
X93248815Y-160751185D01*
X93345506Y-160830537D01*
X93455820Y-160889502D01*
X93575518Y-160925812D01*
X93700000Y-160938072D01*
X94714250Y-160935000D01*
X94873000Y-160776250D01*
X94873000Y-159127000D01*
X95127000Y-159127000D01*
X95127000Y-160776250D01*
X95285750Y-160935000D01*
X96300000Y-160938072D01*
X96424482Y-160925812D01*
X96544180Y-160889502D01*
X96654494Y-160830537D01*
X96751185Y-160751185D01*
X96830537Y-160654494D01*
X96889502Y-160544180D01*
X96925812Y-160424482D01*
X96938072Y-160300000D01*
X96935000Y-159285750D01*
X96776250Y-159127000D01*
X95127000Y-159127000D01*
X94873000Y-159127000D01*
X93223750Y-159127000D01*
X93065000Y-159285750D01*
X93061928Y-160300000D01*
X74700395Y-160300000D01*
X73580000Y-159179605D01*
X72410381Y-160349224D01*
X70927604Y-160349224D01*
X70932453Y-160300000D01*
X70932453Y-159050729D01*
X71636299Y-159050729D01*
X71683543Y-159428951D01*
X71803667Y-159790690D01*
X71935688Y-160037683D01*
X72230776Y-160169619D01*
X73400395Y-159000000D01*
X73759605Y-159000000D01*
X74929224Y-160169619D01*
X75224312Y-160037683D01*
X75395159Y-159696955D01*
X75496250Y-159329443D01*
X75523701Y-158949271D01*
X75476457Y-158571049D01*
X75356333Y-158209310D01*
X75224312Y-157962317D01*
X74929224Y-157830381D01*
X73759605Y-159000000D01*
X73400395Y-159000000D01*
X72230776Y-157830381D01*
X71935688Y-157962317D01*
X71764841Y-158303045D01*
X71663750Y-158670557D01*
X71636299Y-159050729D01*
X70932453Y-159050729D01*
X70932453Y-157700000D01*
X70927605Y-157650776D01*
X72410381Y-157650776D01*
X73580000Y-158820395D01*
X74700395Y-157700000D01*
X93061928Y-157700000D01*
X93065000Y-158714250D01*
X93223750Y-158873000D01*
X94873000Y-158873000D01*
X94873000Y-157223750D01*
X95127000Y-157223750D01*
X95127000Y-158873000D01*
X96776250Y-158873000D01*
X96888289Y-158760961D01*
X97653000Y-158760961D01*
X97653000Y-159239039D01*
X97746268Y-159707930D01*
X97929221Y-160149615D01*
X98194826Y-160547122D01*
X98532878Y-160885174D01*
X98930385Y-161150779D01*
X99372070Y-161333732D01*
X99840961Y-161427000D01*
X100319039Y-161427000D01*
X100787930Y-161333732D01*
X101229615Y-161150779D01*
X101627122Y-160885174D01*
X101965174Y-160547122D01*
X102230779Y-160149615D01*
X102413732Y-159707930D01*
X102507000Y-159239039D01*
X102507000Y-158760961D01*
X102503082Y-158741263D01*
X104873000Y-158741263D01*
X104873000Y-159258737D01*
X104973954Y-159766268D01*
X105171983Y-160244351D01*
X105459476Y-160674615D01*
X105825385Y-161040524D01*
X106255649Y-161328017D01*
X106733732Y-161526046D01*
X107241263Y-161627000D01*
X107758737Y-161627000D01*
X108266268Y-161526046D01*
X108744351Y-161328017D01*
X109174615Y-161040524D01*
X109540524Y-160674615D01*
X109828017Y-160244351D01*
X110026046Y-159766268D01*
X110127000Y-159258737D01*
X110127000Y-158741263D01*
X127473000Y-158741263D01*
X127473000Y-159258737D01*
X127573954Y-159766268D01*
X127771983Y-160244351D01*
X128059476Y-160674615D01*
X128425385Y-161040524D01*
X128855649Y-161328017D01*
X129333732Y-161526046D01*
X129841263Y-161627000D01*
X130358737Y-161627000D01*
X130866268Y-161526046D01*
X131344351Y-161328017D01*
X131774615Y-161040524D01*
X132140524Y-160674615D01*
X132428017Y-160244351D01*
X132626046Y-159766268D01*
X132727000Y-159258737D01*
X132727000Y-158741263D01*
X132626046Y-158233732D01*
X132428017Y-157755649D01*
X132140524Y-157325385D01*
X131774615Y-156959476D01*
X131344351Y-156671983D01*
X130866268Y-156473954D01*
X130358737Y-156373000D01*
X129841263Y-156373000D01*
X129333732Y-156473954D01*
X128855649Y-156671983D01*
X128425385Y-156959476D01*
X128059476Y-157325385D01*
X127771983Y-157755649D01*
X127573954Y-158233732D01*
X127473000Y-158741263D01*
X110127000Y-158741263D01*
X110026046Y-158233732D01*
X109828017Y-157755649D01*
X109540524Y-157325385D01*
X109174615Y-156959476D01*
X108744351Y-156671983D01*
X108266268Y-156473954D01*
X107758737Y-156373000D01*
X107241263Y-156373000D01*
X106733732Y-156473954D01*
X106255649Y-156671983D01*
X105825385Y-156959476D01*
X105459476Y-157325385D01*
X105171983Y-157755649D01*
X104973954Y-158233732D01*
X104873000Y-158741263D01*
X102503082Y-158741263D01*
X102413732Y-158292070D01*
X102230779Y-157850385D01*
X101965174Y-157452878D01*
X101627122Y-157114826D01*
X101229615Y-156849221D01*
X100787930Y-156666268D01*
X100319039Y-156573000D01*
X99840961Y-156573000D01*
X99372070Y-156666268D01*
X98930385Y-156849221D01*
X98532878Y-157114826D01*
X98194826Y-157452878D01*
X97929221Y-157850385D01*
X97746268Y-158292070D01*
X97653000Y-158760961D01*
X96888289Y-158760961D01*
X96935000Y-158714250D01*
X96938072Y-157700000D01*
X96925812Y-157575518D01*
X96889502Y-157455820D01*
X96830537Y-157345506D01*
X96751185Y-157248815D01*
X96654494Y-157169463D01*
X96544180Y-157110498D01*
X96424482Y-157074188D01*
X96300000Y-157061928D01*
X95285750Y-157065000D01*
X95127000Y-157223750D01*
X94873000Y-157223750D01*
X94714250Y-157065000D01*
X93700000Y-157061928D01*
X93575518Y-157074188D01*
X93455820Y-157110498D01*
X93345506Y-157169463D01*
X93248815Y-157248815D01*
X93169463Y-157345506D01*
X93110498Y-157455820D01*
X93074188Y-157575518D01*
X93061928Y-157700000D01*
X74700395Y-157700000D01*
X74749619Y-157650776D01*
X74617683Y-157355688D01*
X74276955Y-157184841D01*
X73909443Y-157083750D01*
X73529271Y-157056299D01*
X73151049Y-157103543D01*
X72789310Y-157223667D01*
X72542317Y-157355688D01*
X72410381Y-157650776D01*
X70927605Y-157650776D01*
X70910693Y-157479069D01*
X70846250Y-157266629D01*
X70741600Y-157070843D01*
X70600765Y-156899235D01*
X70429157Y-156758400D01*
X70233371Y-156653750D01*
X70020931Y-156589307D01*
X69800000Y-156567547D01*
X67200000Y-156567547D01*
X66979069Y-156589307D01*
X66766629Y-156653750D01*
X66570843Y-156758400D01*
X66399235Y-156899235D01*
X66258400Y-157070843D01*
X66153750Y-157266629D01*
X66089307Y-157479069D01*
X66067547Y-157700000D01*
X55127000Y-157700000D01*
X55127000Y-147277980D01*
X93901626Y-147277980D01*
X94021514Y-147562836D01*
X94345210Y-147723699D01*
X94694069Y-147818322D01*
X95054684Y-147843067D01*
X95413198Y-147796985D01*
X95755833Y-147681846D01*
X95978486Y-147562836D01*
X96098374Y-147277980D01*
X95000000Y-146179605D01*
X93901626Y-147277980D01*
X55127000Y-147277980D01*
X55127000Y-146054684D01*
X93156933Y-146054684D01*
X93203015Y-146413198D01*
X93318154Y-146755833D01*
X93437164Y-146978486D01*
X93722020Y-147098374D01*
X94820395Y-146000000D01*
X95179605Y-146000000D01*
X96277980Y-147098374D01*
X96562836Y-146978486D01*
X96723699Y-146654790D01*
X96818322Y-146305931D01*
X96839314Y-146000000D01*
X120601741Y-146000000D01*
X120646670Y-146456172D01*
X120779730Y-146894813D01*
X120995809Y-147299067D01*
X121286601Y-147653399D01*
X121640933Y-147944191D01*
X122045187Y-148160270D01*
X122483828Y-148293330D01*
X122825685Y-148327000D01*
X123054315Y-148327000D01*
X123396172Y-148293330D01*
X123834813Y-148160270D01*
X124239067Y-147944191D01*
X124593399Y-147653399D01*
X124884191Y-147299067D01*
X125100270Y-146894813D01*
X125233330Y-146456172D01*
X125278259Y-146000000D01*
X125233330Y-145543828D01*
X125100270Y-145105187D01*
X124884191Y-144700933D01*
X124593399Y-144346601D01*
X124239067Y-144055809D01*
X123834813Y-143839730D01*
X123396172Y-143706670D01*
X123054315Y-143673000D01*
X122825685Y-143673000D01*
X122483828Y-143706670D01*
X122045187Y-143839730D01*
X121640933Y-144055809D01*
X121286601Y-144346601D01*
X120995809Y-144700933D01*
X120779730Y-145105187D01*
X120646670Y-145543828D01*
X120601741Y-146000000D01*
X96839314Y-146000000D01*
X96843067Y-145945316D01*
X96796985Y-145586802D01*
X96681846Y-145244167D01*
X96562836Y-145021514D01*
X96277980Y-144901626D01*
X95179605Y-146000000D01*
X94820395Y-146000000D01*
X93722020Y-144901626D01*
X93437164Y-145021514D01*
X93276301Y-145345210D01*
X93181678Y-145694069D01*
X93156933Y-146054684D01*
X55127000Y-146054684D01*
X55127000Y-144722020D01*
X93901626Y-144722020D01*
X95000000Y-145820395D01*
X96098374Y-144722020D01*
X95978486Y-144437164D01*
X95654790Y-144276301D01*
X95305931Y-144181678D01*
X94945316Y-144156933D01*
X94586802Y-144203015D01*
X94244167Y-144318154D01*
X94021514Y-144437164D01*
X93901626Y-144722020D01*
X55127000Y-144722020D01*
X55127000Y-141810207D01*
X73073000Y-141810207D01*
X73073000Y-142189793D01*
X73147053Y-142562085D01*
X73292315Y-142912777D01*
X73503201Y-143228391D01*
X73771609Y-143496799D01*
X74087223Y-143707685D01*
X74437915Y-143852947D01*
X74810207Y-143927000D01*
X75189793Y-143927000D01*
X75562085Y-143852947D01*
X75912777Y-143707685D01*
X76228391Y-143496799D01*
X76496799Y-143228391D01*
X76654280Y-142992702D01*
X79186903Y-142992702D01*
X79258486Y-143236671D01*
X79513996Y-143357571D01*
X79788184Y-143426300D01*
X80070512Y-143440217D01*
X80350130Y-143398787D01*
X80616292Y-143303603D01*
X80741514Y-143236671D01*
X80813097Y-142992702D01*
X80000000Y-142179605D01*
X79186903Y-142992702D01*
X76654280Y-142992702D01*
X76707685Y-142912777D01*
X76852947Y-142562085D01*
X76927000Y-142189793D01*
X76927000Y-142070512D01*
X78559783Y-142070512D01*
X78601213Y-142350130D01*
X78696397Y-142616292D01*
X78763329Y-142741514D01*
X79007298Y-142813097D01*
X79820395Y-142000000D01*
X80179605Y-142000000D01*
X80992702Y-142813097D01*
X81236671Y-142741514D01*
X81357571Y-142486004D01*
X81426300Y-142211816D01*
X81440217Y-141929488D01*
X81398787Y-141649870D01*
X81303603Y-141383708D01*
X81236671Y-141258486D01*
X80992702Y-141186903D01*
X80179605Y-142000000D01*
X79820395Y-142000000D01*
X79007298Y-141186903D01*
X78763329Y-141258486D01*
X78642429Y-141513996D01*
X78573700Y-141788184D01*
X78559783Y-142070512D01*
X76927000Y-142070512D01*
X76927000Y-141810207D01*
X76852947Y-141437915D01*
X76707685Y-141087223D01*
X76654281Y-141007298D01*
X79186903Y-141007298D01*
X80000000Y-141820395D01*
X80813097Y-141007298D01*
X80741514Y-140763329D01*
X80486004Y-140642429D01*
X80211816Y-140573700D01*
X79929488Y-140559783D01*
X79649870Y-140601213D01*
X79383708Y-140696397D01*
X79258486Y-140763329D01*
X79186903Y-141007298D01*
X76654281Y-141007298D01*
X76496799Y-140771609D01*
X76228391Y-140503201D01*
X75912777Y-140292315D01*
X75562085Y-140147053D01*
X75189793Y-140073000D01*
X74810207Y-140073000D01*
X74437915Y-140147053D01*
X74087223Y-140292315D01*
X73771609Y-140503201D01*
X73503201Y-140771609D01*
X73292315Y-141087223D01*
X73147053Y-141437915D01*
X73073000Y-141810207D01*
X55127000Y-141810207D01*
X55127000Y-136066553D01*
X93419009Y-136066553D01*
X93461603Y-136365907D01*
X93561778Y-136651199D01*
X93641739Y-136800792D01*
X93895920Y-136884475D01*
X94780395Y-136000000D01*
X93895920Y-135115525D01*
X93641739Y-135199208D01*
X93510842Y-135471775D01*
X93435635Y-135764642D01*
X93419009Y-136066553D01*
X55127000Y-136066553D01*
X55127000Y-134935920D01*
X94075525Y-134935920D01*
X94960000Y-135820395D01*
X94974143Y-135806253D01*
X95153748Y-135985858D01*
X95139605Y-136000000D01*
X95153748Y-136014143D01*
X94974143Y-136193748D01*
X94960000Y-136179605D01*
X94075525Y-137064080D01*
X94159208Y-137318261D01*
X94431775Y-137449158D01*
X94724642Y-137524365D01*
X95026553Y-137540991D01*
X95325907Y-137498397D01*
X95592014Y-137404958D01*
X95658400Y-137529157D01*
X95799235Y-137700765D01*
X95970843Y-137841600D01*
X96166629Y-137946250D01*
X96379069Y-138010693D01*
X96600000Y-138032453D01*
X98400000Y-138032453D01*
X98620931Y-138010693D01*
X98833371Y-137946250D01*
X99029157Y-137841600D01*
X99200765Y-137700765D01*
X99341600Y-137529157D01*
X99446250Y-137333371D01*
X99510693Y-137120931D01*
X99532453Y-136900000D01*
X99532453Y-135820056D01*
X100173000Y-135820056D01*
X100173000Y-136179944D01*
X100243211Y-136532916D01*
X100380934Y-136865409D01*
X100580876Y-137164645D01*
X100835355Y-137419124D01*
X101134591Y-137619066D01*
X101467084Y-137756789D01*
X101820056Y-137827000D01*
X102179944Y-137827000D01*
X102532916Y-137756789D01*
X102865409Y-137619066D01*
X103164645Y-137419124D01*
X103419124Y-137164645D01*
X103619066Y-136865409D01*
X103756789Y-136532916D01*
X103827000Y-136179944D01*
X103827000Y-136000000D01*
X107784160Y-136000000D01*
X107819435Y-136358155D01*
X107923905Y-136702546D01*
X108093555Y-137019938D01*
X108321865Y-137298135D01*
X108600062Y-137526445D01*
X108917454Y-137696095D01*
X109261845Y-137800565D01*
X109530245Y-137827000D01*
X109709755Y-137827000D01*
X109978155Y-137800565D01*
X110322546Y-137696095D01*
X110639938Y-137526445D01*
X110918135Y-137298135D01*
X111146445Y-137019938D01*
X111316095Y-136702546D01*
X111420565Y-136358155D01*
X111455840Y-136000000D01*
X111420565Y-135641845D01*
X111316095Y-135297454D01*
X111146445Y-134980062D01*
X110918135Y-134701865D01*
X110639938Y-134473555D01*
X110322546Y-134303905D01*
X109978155Y-134199435D01*
X109709755Y-134173000D01*
X109530245Y-134173000D01*
X109261845Y-134199435D01*
X108917454Y-134303905D01*
X108600062Y-134473555D01*
X108321865Y-134701865D01*
X108093555Y-134980062D01*
X107923905Y-135297454D01*
X107819435Y-135641845D01*
X107784160Y-136000000D01*
X103827000Y-136000000D01*
X103827000Y-135820056D01*
X103756789Y-135467084D01*
X103619066Y-135134591D01*
X103419124Y-134835355D01*
X103164645Y-134580876D01*
X102865409Y-134380934D01*
X102532916Y-134243211D01*
X102179944Y-134173000D01*
X101820056Y-134173000D01*
X101467084Y-134243211D01*
X101134591Y-134380934D01*
X100835355Y-134580876D01*
X100580876Y-134835355D01*
X100380934Y-135134591D01*
X100243211Y-135467084D01*
X100173000Y-135820056D01*
X99532453Y-135820056D01*
X99532453Y-135100000D01*
X99510693Y-134879069D01*
X99446250Y-134666629D01*
X99341600Y-134470843D01*
X99200765Y-134299235D01*
X99029157Y-134158400D01*
X98833371Y-134053750D01*
X98620931Y-133989307D01*
X98400000Y-133967547D01*
X96600000Y-133967547D01*
X96379069Y-133989307D01*
X96166629Y-134053750D01*
X95970843Y-134158400D01*
X95799235Y-134299235D01*
X95658400Y-134470843D01*
X95589614Y-134599533D01*
X95488225Y-134550842D01*
X95195358Y-134475635D01*
X94893447Y-134459009D01*
X94594093Y-134501603D01*
X94308801Y-134601778D01*
X94159208Y-134681739D01*
X94075525Y-134935920D01*
X55127000Y-134935920D01*
X55127000Y-131290509D01*
X72873000Y-131290509D01*
X72873000Y-131709491D01*
X72954739Y-132120423D01*
X73115077Y-132507512D01*
X73347851Y-132855884D01*
X73644116Y-133152149D01*
X73992488Y-133384923D01*
X74379577Y-133545261D01*
X74790509Y-133627000D01*
X75209491Y-133627000D01*
X75620423Y-133545261D01*
X76007512Y-133384923D01*
X76355884Y-133152149D01*
X76652149Y-132855884D01*
X76884923Y-132507512D01*
X76888034Y-132500000D01*
X78361928Y-132500000D01*
X78374188Y-132624482D01*
X78410498Y-132744180D01*
X78469463Y-132854494D01*
X78548815Y-132951185D01*
X78645506Y-133030537D01*
X78755820Y-133089502D01*
X78875518Y-133125812D01*
X79000000Y-133138072D01*
X79714250Y-133135000D01*
X79873000Y-132976250D01*
X79873000Y-131627000D01*
X80127000Y-131627000D01*
X80127000Y-132976250D01*
X80285750Y-133135000D01*
X81000000Y-133138072D01*
X81124482Y-133125812D01*
X81244180Y-133089502D01*
X81354494Y-133030537D01*
X81451185Y-132951185D01*
X81530537Y-132854494D01*
X81589502Y-132744180D01*
X81625812Y-132624482D01*
X81638072Y-132500000D01*
X81635000Y-131785750D01*
X81476250Y-131627000D01*
X80127000Y-131627000D01*
X79873000Y-131627000D01*
X78523750Y-131627000D01*
X78365000Y-131785750D01*
X78361928Y-132500000D01*
X76888034Y-132500000D01*
X77045261Y-132120423D01*
X77127000Y-131709491D01*
X77127000Y-131290509D01*
X77045261Y-130879577D01*
X76888035Y-130500000D01*
X78361928Y-130500000D01*
X78365000Y-131214250D01*
X78523750Y-131373000D01*
X79873000Y-131373000D01*
X79873000Y-130023750D01*
X80127000Y-130023750D01*
X80127000Y-131373000D01*
X81476250Y-131373000D01*
X81635000Y-131214250D01*
X81638072Y-130500000D01*
X81625812Y-130375518D01*
X81589502Y-130255820D01*
X81530537Y-130145506D01*
X81451185Y-130048815D01*
X81382811Y-129992702D01*
X94186903Y-129992702D01*
X94258486Y-130236671D01*
X94513996Y-130357571D01*
X94788184Y-130426300D01*
X95070512Y-130440217D01*
X95350130Y-130398787D01*
X95616292Y-130303603D01*
X95741514Y-130236671D01*
X95813097Y-129992702D01*
X95000000Y-129179605D01*
X94186903Y-129992702D01*
X81382811Y-129992702D01*
X81354494Y-129969463D01*
X81244180Y-129910498D01*
X81124482Y-129874188D01*
X81000000Y-129861928D01*
X80285750Y-129865000D01*
X80127000Y-130023750D01*
X79873000Y-130023750D01*
X79714250Y-129865000D01*
X79000000Y-129861928D01*
X78875518Y-129874188D01*
X78755820Y-129910498D01*
X78645506Y-129969463D01*
X78548815Y-130048815D01*
X78469463Y-130145506D01*
X78410498Y-130255820D01*
X78374188Y-130375518D01*
X78361928Y-130500000D01*
X76888035Y-130500000D01*
X76884923Y-130492488D01*
X76652149Y-130144116D01*
X76355884Y-129847851D01*
X76007512Y-129615077D01*
X75620423Y-129454739D01*
X75209491Y-129373000D01*
X74790509Y-129373000D01*
X74379577Y-129454739D01*
X73992488Y-129615077D01*
X73644116Y-129847851D01*
X73347851Y-130144116D01*
X73115077Y-130492488D01*
X72954739Y-130879577D01*
X72873000Y-131290509D01*
X55127000Y-131290509D01*
X55127000Y-129070512D01*
X93559783Y-129070512D01*
X93601213Y-129350130D01*
X93696397Y-129616292D01*
X93763329Y-129741514D01*
X94007298Y-129813097D01*
X94820395Y-129000000D01*
X95179605Y-129000000D01*
X95992702Y-129813097D01*
X96236671Y-129741514D01*
X96357571Y-129486004D01*
X96426300Y-129211816D01*
X96440217Y-128929488D01*
X96422544Y-128810207D01*
X98073000Y-128810207D01*
X98073000Y-129189793D01*
X98147053Y-129562085D01*
X98292315Y-129912777D01*
X98503201Y-130228391D01*
X98771609Y-130496799D01*
X99087223Y-130707685D01*
X99437915Y-130852947D01*
X99810207Y-130927000D01*
X100189793Y-130927000D01*
X100562085Y-130852947D01*
X100912777Y-130707685D01*
X101228391Y-130496799D01*
X101496799Y-130228391D01*
X101707685Y-129912777D01*
X101852947Y-129562085D01*
X101927000Y-129189793D01*
X101927000Y-128810207D01*
X101852947Y-128437915D01*
X101707685Y-128087223D01*
X101496799Y-127771609D01*
X101228391Y-127503201D01*
X100912777Y-127292315D01*
X100562085Y-127147053D01*
X100189793Y-127073000D01*
X99810207Y-127073000D01*
X99437915Y-127147053D01*
X99087223Y-127292315D01*
X98771609Y-127503201D01*
X98503201Y-127771609D01*
X98292315Y-128087223D01*
X98147053Y-128437915D01*
X98073000Y-128810207D01*
X96422544Y-128810207D01*
X96398787Y-128649870D01*
X96303603Y-128383708D01*
X96236671Y-128258486D01*
X95992702Y-128186903D01*
X95179605Y-129000000D01*
X94820395Y-129000000D01*
X94007298Y-128186903D01*
X93763329Y-128258486D01*
X93642429Y-128513996D01*
X93573700Y-128788184D01*
X93559783Y-129070512D01*
X55127000Y-129070512D01*
X55127000Y-128007298D01*
X94186903Y-128007298D01*
X95000000Y-128820395D01*
X95813097Y-128007298D01*
X95741514Y-127763329D01*
X95486004Y-127642429D01*
X95211816Y-127573700D01*
X94929488Y-127559783D01*
X94649870Y-127601213D01*
X94383708Y-127696397D01*
X94258486Y-127763329D01*
X94186903Y-128007298D01*
X55127000Y-128007298D01*
X55127000Y-122820056D01*
X70673000Y-122820056D01*
X70673000Y-123179944D01*
X70743211Y-123532916D01*
X70880934Y-123865409D01*
X71080876Y-124164645D01*
X71335355Y-124419124D01*
X71634591Y-124619066D01*
X71967084Y-124756789D01*
X72320056Y-124827000D01*
X72679944Y-124827000D01*
X73032916Y-124756789D01*
X73365409Y-124619066D01*
X73664645Y-124419124D01*
X73919124Y-124164645D01*
X74119066Y-123865409D01*
X74256789Y-123532916D01*
X74327000Y-123179944D01*
X74327000Y-122820056D01*
X74256789Y-122467084D01*
X74119066Y-122134591D01*
X73919124Y-121835355D01*
X73664645Y-121580876D01*
X73365409Y-121380934D01*
X73032916Y-121243211D01*
X72679944Y-121173000D01*
X72320056Y-121173000D01*
X71967084Y-121243211D01*
X71634591Y-121380934D01*
X71335355Y-121580876D01*
X71080876Y-121835355D01*
X70880934Y-122134591D01*
X70743211Y-122467084D01*
X70673000Y-122820056D01*
X55127000Y-122820056D01*
X55127000Y-118810207D01*
X56073000Y-118810207D01*
X56073000Y-119189793D01*
X56147053Y-119562085D01*
X56292315Y-119912777D01*
X56503201Y-120228391D01*
X56771609Y-120496799D01*
X57087223Y-120707685D01*
X57437915Y-120852947D01*
X57810207Y-120927000D01*
X58189793Y-120927000D01*
X58562085Y-120852947D01*
X58912777Y-120707685D01*
X59228391Y-120496799D01*
X59496799Y-120228391D01*
X59707685Y-119912777D01*
X59852947Y-119562085D01*
X59927000Y-119189793D01*
X59927000Y-118810207D01*
X63573000Y-118810207D01*
X63573000Y-119189793D01*
X63647053Y-119562085D01*
X63792315Y-119912777D01*
X64003201Y-120228391D01*
X64271609Y-120496799D01*
X64587223Y-120707685D01*
X64937915Y-120852947D01*
X65310207Y-120927000D01*
X65689793Y-120927000D01*
X66062085Y-120852947D01*
X66412777Y-120707685D01*
X66728391Y-120496799D01*
X66996799Y-120228391D01*
X67082586Y-120100000D01*
X76230047Y-120100000D01*
X76230047Y-121900000D01*
X76251807Y-122120931D01*
X76316250Y-122333371D01*
X76420900Y-122529157D01*
X76561735Y-122700765D01*
X76733343Y-122841600D01*
X76929129Y-122946250D01*
X77141569Y-123010693D01*
X77362500Y-123032453D01*
X78637500Y-123032453D01*
X78858431Y-123010693D01*
X79070871Y-122946250D01*
X79107509Y-122926667D01*
X79354099Y-123001469D01*
X79700000Y-123035537D01*
X80045902Y-123001469D01*
X80378512Y-122900573D01*
X80550000Y-122808910D01*
X80721489Y-122900573D01*
X81054099Y-123001469D01*
X81400000Y-123035537D01*
X81745902Y-123001469D01*
X82078512Y-122900573D01*
X82250000Y-122808910D01*
X82421489Y-122900573D01*
X82754099Y-123001469D01*
X83100000Y-123035537D01*
X83445902Y-123001469D01*
X83778512Y-122900573D01*
X84085047Y-122736726D01*
X84353726Y-122516226D01*
X84367042Y-122500000D01*
X93361928Y-122500000D01*
X93374188Y-122624482D01*
X93410498Y-122744180D01*
X93469463Y-122854494D01*
X93548815Y-122951185D01*
X93645506Y-123030537D01*
X93755820Y-123089502D01*
X93875518Y-123125812D01*
X94000000Y-123138072D01*
X94714250Y-123135000D01*
X94873000Y-122976250D01*
X94873000Y-121627000D01*
X95127000Y-121627000D01*
X95127000Y-122976250D01*
X95285750Y-123135000D01*
X96000000Y-123138072D01*
X96124482Y-123125812D01*
X96244180Y-123089502D01*
X96354494Y-123030537D01*
X96451185Y-122951185D01*
X96530537Y-122854494D01*
X96589502Y-122744180D01*
X96625812Y-122624482D01*
X96638072Y-122500000D01*
X96635000Y-121785750D01*
X96476250Y-121627000D01*
X95127000Y-121627000D01*
X94873000Y-121627000D01*
X93523750Y-121627000D01*
X93365000Y-121785750D01*
X93361928Y-122500000D01*
X84367042Y-122500000D01*
X84391194Y-122470571D01*
X84430367Y-122486737D01*
X84476495Y-122493191D01*
X84673000Y-122368985D01*
X84673000Y-122062755D01*
X84738073Y-121941012D01*
X84838969Y-121608401D01*
X84864500Y-121349178D01*
X84864500Y-121127000D01*
X84927000Y-121127000D01*
X84927000Y-122368985D01*
X85123505Y-122493191D01*
X85169633Y-122486737D01*
X85401367Y-122391102D01*
X85609991Y-122252095D01*
X85787488Y-122075059D01*
X85927036Y-121866797D01*
X86023273Y-121635312D01*
X86072500Y-121389500D01*
X86072500Y-121127000D01*
X84927000Y-121127000D01*
X84864500Y-121127000D01*
X84864500Y-120650821D01*
X84838969Y-120391598D01*
X84738073Y-120058988D01*
X84673000Y-119937245D01*
X84673000Y-119631015D01*
X84927000Y-119631015D01*
X84927000Y-120873000D01*
X86072500Y-120873000D01*
X86072500Y-120610500D01*
X86050371Y-120500000D01*
X93361928Y-120500000D01*
X93365000Y-121214250D01*
X93523750Y-121373000D01*
X94873000Y-121373000D01*
X94873000Y-120023750D01*
X95127000Y-120023750D01*
X95127000Y-121373000D01*
X96476250Y-121373000D01*
X96558741Y-121290509D01*
X97873000Y-121290509D01*
X97873000Y-121709491D01*
X97954739Y-122120423D01*
X98115077Y-122507512D01*
X98347851Y-122855884D01*
X98644116Y-123152149D01*
X98992488Y-123384923D01*
X99379577Y-123545261D01*
X99790509Y-123627000D01*
X100209491Y-123627000D01*
X100620423Y-123545261D01*
X101007512Y-123384923D01*
X101355884Y-123152149D01*
X101652149Y-122855884D01*
X101884923Y-122507512D01*
X102045261Y-122120423D01*
X102127000Y-121709491D01*
X102127000Y-121290509D01*
X102045261Y-120879577D01*
X101884923Y-120492488D01*
X101652149Y-120144116D01*
X101355884Y-119847851D01*
X101007512Y-119615077D01*
X100620423Y-119454739D01*
X100209491Y-119373000D01*
X99790509Y-119373000D01*
X99379577Y-119454739D01*
X98992488Y-119615077D01*
X98644116Y-119847851D01*
X98347851Y-120144116D01*
X98115077Y-120492488D01*
X97954739Y-120879577D01*
X97873000Y-121290509D01*
X96558741Y-121290509D01*
X96635000Y-121214250D01*
X96638072Y-120500000D01*
X96625812Y-120375518D01*
X96589502Y-120255820D01*
X96530537Y-120145506D01*
X96451185Y-120048815D01*
X96354494Y-119969463D01*
X96244180Y-119910498D01*
X96124482Y-119874188D01*
X96000000Y-119861928D01*
X95285750Y-119865000D01*
X95127000Y-120023750D01*
X94873000Y-120023750D01*
X94714250Y-119865000D01*
X94000000Y-119861928D01*
X93875518Y-119874188D01*
X93755820Y-119910498D01*
X93645506Y-119969463D01*
X93548815Y-120048815D01*
X93469463Y-120145506D01*
X93410498Y-120255820D01*
X93374188Y-120375518D01*
X93361928Y-120500000D01*
X86050371Y-120500000D01*
X86023273Y-120364688D01*
X85927036Y-120133203D01*
X85787488Y-119924941D01*
X85609991Y-119747905D01*
X85401367Y-119608898D01*
X85169633Y-119513263D01*
X85123505Y-119506809D01*
X84927000Y-119631015D01*
X84673000Y-119631015D01*
X84476495Y-119506809D01*
X84430367Y-119513263D01*
X84391194Y-119529429D01*
X84353726Y-119483774D01*
X84085046Y-119263274D01*
X83778511Y-119099427D01*
X83445901Y-118998531D01*
X83100000Y-118964463D01*
X82754098Y-118998531D01*
X82421488Y-119099427D01*
X82250000Y-119191090D01*
X82078511Y-119099427D01*
X81745901Y-118998531D01*
X81400000Y-118964463D01*
X81054098Y-118998531D01*
X80721488Y-119099427D01*
X80550000Y-119191090D01*
X80378511Y-119099427D01*
X80045901Y-118998531D01*
X79700000Y-118964463D01*
X79354098Y-118998531D01*
X79107508Y-119073333D01*
X79070871Y-119053750D01*
X78858431Y-118989307D01*
X78637500Y-118967547D01*
X77362500Y-118967547D01*
X77141569Y-118989307D01*
X76929129Y-119053750D01*
X76733343Y-119158400D01*
X76561735Y-119299235D01*
X76420900Y-119470843D01*
X76316250Y-119666629D01*
X76251807Y-119879069D01*
X76230047Y-120100000D01*
X67082586Y-120100000D01*
X67207685Y-119912777D01*
X67352947Y-119562085D01*
X67427000Y-119189793D01*
X67427000Y-118810207D01*
X67352947Y-118437915D01*
X67207685Y-118087223D01*
X66996799Y-117771609D01*
X66728391Y-117503201D01*
X66412777Y-117292315D01*
X66062085Y-117147053D01*
X65689793Y-117073000D01*
X65310207Y-117073000D01*
X64937915Y-117147053D01*
X64587223Y-117292315D01*
X64271609Y-117503201D01*
X64003201Y-117771609D01*
X63792315Y-118087223D01*
X63647053Y-118437915D01*
X63573000Y-118810207D01*
X59927000Y-118810207D01*
X59852947Y-118437915D01*
X59707685Y-118087223D01*
X59496799Y-117771609D01*
X59228391Y-117503201D01*
X58912777Y-117292315D01*
X58562085Y-117147053D01*
X58189793Y-117073000D01*
X57810207Y-117073000D01*
X57437915Y-117147053D01*
X57087223Y-117292315D01*
X56771609Y-117503201D01*
X56503201Y-117771609D01*
X56292315Y-118087223D01*
X56147053Y-118437915D01*
X56073000Y-118810207D01*
X55127000Y-118810207D01*
X55127000Y-115380000D01*
X70664160Y-115380000D01*
X70699435Y-115738155D01*
X70803905Y-116082546D01*
X70973555Y-116399938D01*
X71201865Y-116678135D01*
X71480062Y-116906445D01*
X71797454Y-117076095D01*
X72141845Y-117180565D01*
X72410245Y-117207000D01*
X72589755Y-117207000D01*
X72858155Y-117180565D01*
X73202546Y-117076095D01*
X73519938Y-116906445D01*
X73798135Y-116678135D01*
X74026445Y-116399938D01*
X74196095Y-116082546D01*
X74300565Y-115738155D01*
X74335840Y-115380000D01*
X74300565Y-115021845D01*
X74196095Y-114677454D01*
X74026445Y-114360062D01*
X73798135Y-114081865D01*
X73698383Y-114000000D01*
X90861928Y-114000000D01*
X90874188Y-114124482D01*
X90910498Y-114244180D01*
X90969463Y-114354494D01*
X91048815Y-114451185D01*
X91145506Y-114530537D01*
X91255820Y-114589502D01*
X91375518Y-114625812D01*
X91500000Y-114638072D01*
X92214250Y-114635000D01*
X92373000Y-114476250D01*
X92373000Y-113127000D01*
X92627000Y-113127000D01*
X92627000Y-114476250D01*
X92785750Y-114635000D01*
X93500000Y-114638072D01*
X93624482Y-114625812D01*
X93744180Y-114589502D01*
X93854494Y-114530537D01*
X93951185Y-114451185D01*
X94030537Y-114354494D01*
X94089502Y-114244180D01*
X94125812Y-114124482D01*
X94138072Y-114000000D01*
X94135000Y-113285750D01*
X93976250Y-113127000D01*
X92627000Y-113127000D01*
X92373000Y-113127000D01*
X91023750Y-113127000D01*
X90865000Y-113285750D01*
X90861928Y-114000000D01*
X73698383Y-114000000D01*
X73519938Y-113853555D01*
X73202546Y-113683905D01*
X72858155Y-113579435D01*
X72589755Y-113553000D01*
X72410245Y-113553000D01*
X72141845Y-113579435D01*
X71797454Y-113683905D01*
X71480062Y-113853555D01*
X71201865Y-114081865D01*
X70973555Y-114360062D01*
X70803905Y-114677454D01*
X70699435Y-115021845D01*
X70664160Y-115380000D01*
X55127000Y-115380000D01*
X55127000Y-111014956D01*
X55183905Y-111202546D01*
X55353555Y-111519938D01*
X55581865Y-111798135D01*
X55860062Y-112026445D01*
X56177454Y-112196095D01*
X56521845Y-112300565D01*
X56790245Y-112327000D01*
X56969755Y-112327000D01*
X57238155Y-112300565D01*
X57582546Y-112196095D01*
X57899938Y-112026445D01*
X58178135Y-111798135D01*
X58406445Y-111519938D01*
X58576095Y-111202546D01*
X58680565Y-110858155D01*
X58715840Y-110500000D01*
X58698118Y-110320056D01*
X62673000Y-110320056D01*
X62673000Y-110679944D01*
X62743211Y-111032916D01*
X62880934Y-111365409D01*
X63080876Y-111664645D01*
X63335355Y-111919124D01*
X63634591Y-112119066D01*
X63967084Y-112256789D01*
X64320056Y-112327000D01*
X64679944Y-112327000D01*
X65032916Y-112256789D01*
X65365409Y-112119066D01*
X65664645Y-111919124D01*
X65919124Y-111664645D01*
X66119066Y-111365409D01*
X66256789Y-111032916D01*
X66327000Y-110679944D01*
X66327000Y-110320056D01*
X66256789Y-109967084D01*
X66119066Y-109634591D01*
X65919124Y-109335355D01*
X65664645Y-109080876D01*
X65365409Y-108880934D01*
X65032916Y-108743211D01*
X64679944Y-108673000D01*
X64320056Y-108673000D01*
X63967084Y-108743211D01*
X63634591Y-108880934D01*
X63335355Y-109080876D01*
X63080876Y-109335355D01*
X62880934Y-109634591D01*
X62743211Y-109967084D01*
X62673000Y-110320056D01*
X58698118Y-110320056D01*
X58680565Y-110141845D01*
X58576095Y-109797454D01*
X58406445Y-109480062D01*
X58178135Y-109201865D01*
X57899938Y-108973555D01*
X57582546Y-108803905D01*
X57238155Y-108699435D01*
X56969755Y-108673000D01*
X56790245Y-108673000D01*
X56521845Y-108699435D01*
X56177454Y-108803905D01*
X55860062Y-108973555D01*
X55581865Y-109201865D01*
X55353555Y-109480062D01*
X55183905Y-109797454D01*
X55127000Y-109985044D01*
X55127000Y-104700000D01*
X60567547Y-104700000D01*
X60567547Y-106300000D01*
X60589307Y-106520931D01*
X60653750Y-106733371D01*
X60758400Y-106929157D01*
X60899235Y-107100765D01*
X61070843Y-107241600D01*
X61266629Y-107346250D01*
X61479069Y-107410693D01*
X61700000Y-107432453D01*
X63300000Y-107432453D01*
X63520931Y-107410693D01*
X63733371Y-107346250D01*
X63929157Y-107241600D01*
X64100765Y-107100765D01*
X64241600Y-106929157D01*
X64346250Y-106733371D01*
X64410693Y-106520931D01*
X64432453Y-106300000D01*
X64432453Y-104700000D01*
X64410693Y-104479069D01*
X64346250Y-104266629D01*
X64241600Y-104070843D01*
X64100765Y-103899235D01*
X63929157Y-103758400D01*
X63733371Y-103653750D01*
X63520931Y-103589307D01*
X63300000Y-103567547D01*
X61700000Y-103567547D01*
X61479069Y-103589307D01*
X61266629Y-103653750D01*
X61070843Y-103758400D01*
X60899235Y-103899235D01*
X60758400Y-104070843D01*
X60653750Y-104266629D01*
X60589307Y-104479069D01*
X60567547Y-104700000D01*
X55127000Y-104700000D01*
X55127000Y-100514956D01*
X55183905Y-100702546D01*
X55353555Y-101019938D01*
X55581865Y-101298135D01*
X55860062Y-101526445D01*
X56177454Y-101696095D01*
X56521845Y-101800565D01*
X56790245Y-101827000D01*
X56969755Y-101827000D01*
X57238155Y-101800565D01*
X57582546Y-101696095D01*
X57899938Y-101526445D01*
X58178135Y-101298135D01*
X58406445Y-101019938D01*
X58576095Y-100702546D01*
X58680565Y-100358155D01*
X58715840Y-100000000D01*
X58698118Y-99820056D01*
X62673000Y-99820056D01*
X62673000Y-100179944D01*
X62743211Y-100532916D01*
X62880934Y-100865409D01*
X63080876Y-101164645D01*
X63335355Y-101419124D01*
X63634591Y-101619066D01*
X63967084Y-101756789D01*
X64320056Y-101827000D01*
X64679944Y-101827000D01*
X65032916Y-101756789D01*
X65365409Y-101619066D01*
X65664645Y-101419124D01*
X65919124Y-101164645D01*
X66119066Y-100865409D01*
X66256789Y-100532916D01*
X66327000Y-100179944D01*
X66327000Y-99820056D01*
X66256789Y-99467084D01*
X66119066Y-99134591D01*
X65919124Y-98835355D01*
X65664645Y-98580876D01*
X65365409Y-98380934D01*
X65032916Y-98243211D01*
X64679944Y-98173000D01*
X64320056Y-98173000D01*
X63967084Y-98243211D01*
X63634591Y-98380934D01*
X63335355Y-98580876D01*
X63080876Y-98835355D01*
X62880934Y-99134591D01*
X62743211Y-99467084D01*
X62673000Y-99820056D01*
X58698118Y-99820056D01*
X58680565Y-99641845D01*
X58576095Y-99297454D01*
X58406445Y-98980062D01*
X58178135Y-98701865D01*
X57899938Y-98473555D01*
X57582546Y-98303905D01*
X57238155Y-98199435D01*
X56969755Y-98173000D01*
X56790245Y-98173000D01*
X56521845Y-98199435D01*
X56177454Y-98303905D01*
X55860062Y-98473555D01*
X55581865Y-98701865D01*
X55353555Y-98980062D01*
X55183905Y-99297454D01*
X55127000Y-99485044D01*
X55127000Y-90072000D01*
X68978329Y-90072000D01*
X68755155Y-90255155D01*
X68536217Y-90521931D01*
X68373531Y-90826295D01*
X68273350Y-91156548D01*
X68239523Y-91500000D01*
X68248001Y-91586079D01*
X68248000Y-101694208D01*
X68147053Y-101937915D01*
X68073000Y-102310207D01*
X68073000Y-102689793D01*
X68147053Y-103062085D01*
X68292315Y-103412777D01*
X68503201Y-103728391D01*
X68771609Y-103996799D01*
X68850157Y-104049283D01*
X68750813Y-104130813D01*
X68510006Y-104424237D01*
X68331071Y-104759001D01*
X68220883Y-105122242D01*
X68183677Y-105500000D01*
X68220883Y-105877758D01*
X68331071Y-106240999D01*
X68510006Y-106575763D01*
X68750813Y-106869187D01*
X69044237Y-107109994D01*
X69379001Y-107288929D01*
X69742242Y-107399117D01*
X70025342Y-107427000D01*
X70214658Y-107427000D01*
X70497758Y-107399117D01*
X70860999Y-107288929D01*
X71195763Y-107109994D01*
X71489187Y-106869187D01*
X71729994Y-106575763D01*
X71908929Y-106240999D01*
X72019117Y-105877758D01*
X72056323Y-105500000D01*
X72037630Y-105310207D01*
X77573000Y-105310207D01*
X77573000Y-105689793D01*
X77647053Y-106062085D01*
X77792315Y-106412777D01*
X78003201Y-106728391D01*
X78271609Y-106996799D01*
X78587223Y-107207685D01*
X78912807Y-107342547D01*
X78750000Y-107342547D01*
X78529069Y-107364307D01*
X78316629Y-107428750D01*
X78120843Y-107533400D01*
X77949235Y-107674235D01*
X77808400Y-107845843D01*
X77703750Y-108041629D01*
X77639307Y-108254069D01*
X77617547Y-108475000D01*
X77617547Y-109525000D01*
X77639307Y-109745931D01*
X77673473Y-109858561D01*
X77646903Y-109946151D01*
X77615007Y-110270000D01*
X77646903Y-110593849D01*
X77741290Y-110905000D01*
X77646903Y-111216151D01*
X77615007Y-111540000D01*
X77646903Y-111863849D01*
X77741366Y-112175252D01*
X77894766Y-112462243D01*
X78101208Y-112713792D01*
X78352757Y-112920234D01*
X78639748Y-113073634D01*
X78951151Y-113168097D01*
X79193845Y-113192000D01*
X79806155Y-113192000D01*
X80048849Y-113168097D01*
X80360252Y-113073634D01*
X80647243Y-112920234D01*
X80898792Y-112713792D01*
X81105234Y-112462243D01*
X81258634Y-112175252D01*
X81311796Y-112000000D01*
X90861928Y-112000000D01*
X90865000Y-112714250D01*
X91023750Y-112873000D01*
X92373000Y-112873000D01*
X92373000Y-111523750D01*
X92627000Y-111523750D01*
X92627000Y-112873000D01*
X93976250Y-112873000D01*
X94135000Y-112714250D01*
X94138072Y-112000000D01*
X94125812Y-111875518D01*
X94089502Y-111755820D01*
X94030537Y-111645506D01*
X93951185Y-111548815D01*
X93854494Y-111469463D01*
X93744180Y-111410498D01*
X93624482Y-111374188D01*
X93500000Y-111361928D01*
X92785750Y-111365000D01*
X92627000Y-111523750D01*
X92373000Y-111523750D01*
X92214250Y-111365000D01*
X91500000Y-111361928D01*
X91375518Y-111374188D01*
X91255820Y-111410498D01*
X91145506Y-111469463D01*
X91048815Y-111548815D01*
X90969463Y-111645506D01*
X90910498Y-111755820D01*
X90874188Y-111875518D01*
X90861928Y-112000000D01*
X81311796Y-112000000D01*
X81353097Y-111863849D01*
X81384993Y-111540000D01*
X81353097Y-111216151D01*
X81258710Y-110905000D01*
X81353097Y-110593849D01*
X81384993Y-110270000D01*
X81353097Y-109946151D01*
X81326527Y-109858561D01*
X81360693Y-109745931D01*
X81382453Y-109525000D01*
X81382453Y-108475000D01*
X81360693Y-108254069D01*
X81296250Y-108041629D01*
X81231238Y-107920000D01*
X90362709Y-107920000D01*
X90403776Y-108336965D01*
X90525401Y-108737906D01*
X90722907Y-109107415D01*
X90988707Y-109431293D01*
X91312585Y-109697093D01*
X91682094Y-109894599D01*
X92083035Y-110016224D01*
X92395513Y-110047000D01*
X92604487Y-110047000D01*
X92916965Y-110016224D01*
X93317906Y-109894599D01*
X93687415Y-109697093D01*
X94011293Y-109431293D01*
X94277093Y-109107415D01*
X94474599Y-108737906D01*
X94596224Y-108336965D01*
X94637291Y-107920000D01*
X94596224Y-107503035D01*
X94474599Y-107102094D01*
X94277093Y-106732585D01*
X94011293Y-106408707D01*
X93687415Y-106142907D01*
X93317906Y-105945401D01*
X92916965Y-105823776D01*
X92604487Y-105793000D01*
X92395513Y-105793000D01*
X92083035Y-105823776D01*
X91682094Y-105945401D01*
X91312585Y-106142907D01*
X90988707Y-106408707D01*
X90722907Y-106732585D01*
X90525401Y-107102094D01*
X90403776Y-107503035D01*
X90362709Y-107920000D01*
X81231238Y-107920000D01*
X81191600Y-107845843D01*
X81050765Y-107674235D01*
X80879157Y-107533400D01*
X80683371Y-107428750D01*
X80470931Y-107364307D01*
X80250000Y-107342547D01*
X80087193Y-107342547D01*
X80305792Y-107252000D01*
X86413931Y-107252000D01*
X86500000Y-107260477D01*
X86586068Y-107252000D01*
X86586069Y-107252000D01*
X86843452Y-107226650D01*
X87173705Y-107126469D01*
X87478069Y-106963783D01*
X87744845Y-106744845D01*
X87963783Y-106478069D01*
X88126469Y-106173705D01*
X88226650Y-105843452D01*
X88260477Y-105500000D01*
X88252000Y-105413931D01*
X88252000Y-103805792D01*
X88352947Y-103562085D01*
X88427000Y-103189793D01*
X88427000Y-102810207D01*
X88352947Y-102437915D01*
X88207685Y-102087223D01*
X87996799Y-101771609D01*
X87728391Y-101503201D01*
X87412777Y-101292315D01*
X87125305Y-101173240D01*
X87399938Y-101026445D01*
X87678135Y-100798135D01*
X87906445Y-100519938D01*
X87959184Y-100421269D01*
X93258336Y-100421269D01*
X93317797Y-100655037D01*
X93556242Y-100765934D01*
X93811740Y-100828183D01*
X94074473Y-100839390D01*
X94334344Y-100799125D01*
X94581366Y-100708935D01*
X94682203Y-100655037D01*
X94741664Y-100421269D01*
X94000000Y-99679605D01*
X93258336Y-100421269D01*
X87959184Y-100421269D01*
X88076095Y-100202546D01*
X88180565Y-99858155D01*
X88208505Y-99574473D01*
X92660610Y-99574473D01*
X92700875Y-99834344D01*
X92791065Y-100081366D01*
X92844963Y-100182203D01*
X93078731Y-100241664D01*
X93820395Y-99500000D01*
X94179605Y-99500000D01*
X94921269Y-100241664D01*
X95155037Y-100182203D01*
X95265934Y-99943758D01*
X95328183Y-99688260D01*
X95339390Y-99425527D01*
X95299125Y-99165656D01*
X95208935Y-98918634D01*
X95155037Y-98817797D01*
X94921269Y-98758336D01*
X94179605Y-99500000D01*
X93820395Y-99500000D01*
X93078731Y-98758336D01*
X92844963Y-98817797D01*
X92734066Y-99056242D01*
X92671817Y-99311740D01*
X92660610Y-99574473D01*
X88208505Y-99574473D01*
X88215840Y-99500000D01*
X88180565Y-99141845D01*
X88076095Y-98797454D01*
X87959185Y-98578731D01*
X93258336Y-98578731D01*
X94000000Y-99320395D01*
X94741664Y-98578731D01*
X94682203Y-98344963D01*
X94443758Y-98234066D01*
X94188260Y-98171817D01*
X93925527Y-98160610D01*
X93665656Y-98200875D01*
X93418634Y-98291065D01*
X93317797Y-98344963D01*
X93258336Y-98578731D01*
X87959185Y-98578731D01*
X87906445Y-98480062D01*
X87678135Y-98201865D01*
X87399938Y-97973555D01*
X87082546Y-97803905D01*
X86738155Y-97699435D01*
X86469755Y-97673000D01*
X86290245Y-97673000D01*
X86021845Y-97699435D01*
X85677454Y-97803905D01*
X85360062Y-97973555D01*
X85081865Y-98201865D01*
X84853555Y-98480062D01*
X84683905Y-98797454D01*
X84579435Y-99141845D01*
X84544160Y-99500000D01*
X84579435Y-99858155D01*
X84683905Y-100202546D01*
X84853555Y-100519938D01*
X85081865Y-100798135D01*
X85360062Y-101026445D01*
X85677454Y-101196095D01*
X85759461Y-101220971D01*
X85587223Y-101292315D01*
X85271609Y-101503201D01*
X85003201Y-101771609D01*
X84792315Y-102087223D01*
X84647053Y-102437915D01*
X84573000Y-102810207D01*
X84573000Y-103189793D01*
X84647053Y-103562085D01*
X84724062Y-103748000D01*
X80305792Y-103748000D01*
X80062085Y-103647053D01*
X79689793Y-103573000D01*
X79310207Y-103573000D01*
X78937915Y-103647053D01*
X78587223Y-103792315D01*
X78271609Y-104003201D01*
X78003201Y-104271609D01*
X77792315Y-104587223D01*
X77647053Y-104937915D01*
X77573000Y-105310207D01*
X72037630Y-105310207D01*
X72019117Y-105122242D01*
X71908929Y-104759001D01*
X71729994Y-104424237D01*
X71489187Y-104130813D01*
X71272339Y-103952851D01*
X71496799Y-103728391D01*
X71707685Y-103412777D01*
X71852947Y-103062085D01*
X71927000Y-102689793D01*
X71927000Y-102310207D01*
X71852947Y-101937915D01*
X71752000Y-101694208D01*
X71752000Y-99818086D01*
X73073000Y-99818086D01*
X73073000Y-100181914D01*
X73143979Y-100538750D01*
X73283210Y-100874883D01*
X73485341Y-101177394D01*
X73742606Y-101434659D01*
X74045117Y-101636790D01*
X74381250Y-101776021D01*
X74738086Y-101847000D01*
X75101914Y-101847000D01*
X75458750Y-101776021D01*
X75794883Y-101636790D01*
X76097394Y-101434659D01*
X76190000Y-101342053D01*
X76282606Y-101434659D01*
X76585117Y-101636790D01*
X76921250Y-101776021D01*
X77278086Y-101847000D01*
X77641914Y-101847000D01*
X77998750Y-101776021D01*
X78334883Y-101636790D01*
X78637394Y-101434659D01*
X78730000Y-101342053D01*
X78822606Y-101434659D01*
X79125117Y-101636790D01*
X79461250Y-101776021D01*
X79818086Y-101847000D01*
X80181914Y-101847000D01*
X80538750Y-101776021D01*
X80874883Y-101636790D01*
X81177394Y-101434659D01*
X81434659Y-101177394D01*
X81636790Y-100874883D01*
X81776021Y-100538750D01*
X81847000Y-100181914D01*
X81847000Y-99818086D01*
X81776021Y-99461250D01*
X81636790Y-99125117D01*
X81434659Y-98822606D01*
X81177394Y-98565341D01*
X80874883Y-98363210D01*
X80538750Y-98223979D01*
X80181914Y-98153000D01*
X79818086Y-98153000D01*
X79461250Y-98223979D01*
X79125117Y-98363210D01*
X78822606Y-98565341D01*
X78730000Y-98657947D01*
X78637394Y-98565341D01*
X78334883Y-98363210D01*
X77998750Y-98223979D01*
X77641914Y-98153000D01*
X77278086Y-98153000D01*
X76921250Y-98223979D01*
X76585117Y-98363210D01*
X76282606Y-98565341D01*
X76190000Y-98657947D01*
X76097394Y-98565341D01*
X75794883Y-98363210D01*
X75458750Y-98223979D01*
X75101914Y-98153000D01*
X74738086Y-98153000D01*
X74381250Y-98223979D01*
X74045117Y-98363210D01*
X73742606Y-98565341D01*
X73485341Y-98822606D01*
X73283210Y-99125117D01*
X73143979Y-99461250D01*
X73073000Y-99818086D01*
X71752000Y-99818086D01*
X71752000Y-93252000D01*
X85848562Y-93252000D01*
X85677454Y-93303905D01*
X85360062Y-93473555D01*
X85081865Y-93701865D01*
X84853555Y-93980062D01*
X84683905Y-94297454D01*
X84579435Y-94641845D01*
X84544160Y-95000000D01*
X84579435Y-95358155D01*
X84683905Y-95702546D01*
X84853555Y-96019938D01*
X85081865Y-96298135D01*
X85360062Y-96526445D01*
X85677454Y-96696095D01*
X86021845Y-96800565D01*
X86290245Y-96827000D01*
X86469755Y-96827000D01*
X86738155Y-96800565D01*
X87082546Y-96696095D01*
X87399938Y-96526445D01*
X87678135Y-96298135D01*
X87906445Y-96019938D01*
X87959184Y-95921269D01*
X93258336Y-95921269D01*
X93317797Y-96155037D01*
X93556242Y-96265934D01*
X93811740Y-96328183D01*
X94074473Y-96339390D01*
X94334344Y-96299125D01*
X94581366Y-96208935D01*
X94682203Y-96155037D01*
X94741664Y-95921269D01*
X94000000Y-95179605D01*
X93258336Y-95921269D01*
X87959184Y-95921269D01*
X88076095Y-95702546D01*
X88180565Y-95358155D01*
X88208505Y-95074473D01*
X92660610Y-95074473D01*
X92700875Y-95334344D01*
X92791065Y-95581366D01*
X92844963Y-95682203D01*
X93078731Y-95741664D01*
X93820395Y-95000000D01*
X94179605Y-95000000D01*
X94921269Y-95741664D01*
X95155037Y-95682203D01*
X95265934Y-95443758D01*
X95328183Y-95188260D01*
X95339390Y-94925527D01*
X95299125Y-94665656D01*
X95208935Y-94418634D01*
X95155037Y-94317797D01*
X94921269Y-94258336D01*
X94179605Y-95000000D01*
X93820395Y-95000000D01*
X93078731Y-94258336D01*
X92844963Y-94317797D01*
X92734066Y-94556242D01*
X92671817Y-94811740D01*
X92660610Y-95074473D01*
X88208505Y-95074473D01*
X88215840Y-95000000D01*
X88180565Y-94641845D01*
X88076095Y-94297454D01*
X87959185Y-94078731D01*
X93258336Y-94078731D01*
X94000000Y-94820395D01*
X94741664Y-94078731D01*
X94682203Y-93844963D01*
X94443758Y-93734066D01*
X94188260Y-93671817D01*
X93925527Y-93660610D01*
X93665656Y-93700875D01*
X93418634Y-93791065D01*
X93317797Y-93844963D01*
X93258336Y-94078731D01*
X87959185Y-94078731D01*
X87906445Y-93980062D01*
X87678135Y-93701865D01*
X87399938Y-93473555D01*
X87082546Y-93303905D01*
X86911438Y-93252000D01*
X96774298Y-93252000D01*
X100748000Y-97225702D01*
X100748001Y-114194206D01*
X100647053Y-114437915D01*
X100573000Y-114810207D01*
X100573000Y-115189793D01*
X100647053Y-115562085D01*
X100792315Y-115912777D01*
X101003201Y-116228391D01*
X101271609Y-116496799D01*
X101587223Y-116707685D01*
X101937915Y-116852947D01*
X102310207Y-116927000D01*
X102689793Y-116927000D01*
X103062085Y-116852947D01*
X103412777Y-116707685D01*
X103728391Y-116496799D01*
X103996799Y-116228391D01*
X104207685Y-115912777D01*
X104352947Y-115562085D01*
X104427000Y-115189793D01*
X104427000Y-114810207D01*
X104352947Y-114437915D01*
X104252000Y-114194208D01*
X104252000Y-96586061D01*
X104260476Y-96500000D01*
X104252000Y-96413939D01*
X104252000Y-96413931D01*
X104226650Y-96156548D01*
X104126469Y-95826295D01*
X103963783Y-95521931D01*
X103744845Y-95255155D01*
X103677993Y-95200291D01*
X103168965Y-94691263D01*
X110373000Y-94691263D01*
X110373000Y-95208737D01*
X110473954Y-95716268D01*
X110671983Y-96194351D01*
X110959476Y-96624615D01*
X111325385Y-96990524D01*
X111755649Y-97278017D01*
X112231207Y-97475000D01*
X111755649Y-97671983D01*
X111325385Y-97959476D01*
X110959476Y-98325385D01*
X110671983Y-98755649D01*
X110473954Y-99233732D01*
X110373000Y-99741263D01*
X110373000Y-100258737D01*
X110473954Y-100766268D01*
X110671983Y-101244351D01*
X110959476Y-101674615D01*
X111325385Y-102040524D01*
X111755649Y-102328017D01*
X112170852Y-102500000D01*
X111755649Y-102671983D01*
X111325385Y-102959476D01*
X110959476Y-103325385D01*
X110671983Y-103755649D01*
X110473954Y-104233732D01*
X110373000Y-104741263D01*
X110373000Y-105258737D01*
X110473954Y-105766268D01*
X110671983Y-106244351D01*
X110959476Y-106674615D01*
X111325385Y-107040524D01*
X111755649Y-107328017D01*
X112170852Y-107500000D01*
X111755649Y-107671983D01*
X111325385Y-107959476D01*
X110959476Y-108325385D01*
X110671983Y-108755649D01*
X110473954Y-109233732D01*
X110373000Y-109741263D01*
X110373000Y-110258737D01*
X110473954Y-110766268D01*
X110671983Y-111244351D01*
X110959476Y-111674615D01*
X111325385Y-112040524D01*
X111755649Y-112328017D01*
X112170852Y-112500000D01*
X111755649Y-112671983D01*
X111325385Y-112959476D01*
X110959476Y-113325385D01*
X110671983Y-113755649D01*
X110473954Y-114233732D01*
X110373000Y-114741263D01*
X110373000Y-115258737D01*
X110473954Y-115766268D01*
X110671983Y-116244351D01*
X110959476Y-116674615D01*
X111325385Y-117040524D01*
X111755649Y-117328017D01*
X112170852Y-117500000D01*
X111755649Y-117671983D01*
X111325385Y-117959476D01*
X110959476Y-118325385D01*
X110671983Y-118755649D01*
X110473954Y-119233732D01*
X110373000Y-119741263D01*
X110373000Y-120258737D01*
X110473954Y-120766268D01*
X110671983Y-121244351D01*
X110959476Y-121674615D01*
X111325385Y-122040524D01*
X111755649Y-122328017D01*
X112233732Y-122526046D01*
X112741263Y-122627000D01*
X113258737Y-122627000D01*
X113766268Y-122526046D01*
X114244351Y-122328017D01*
X114674615Y-122040524D01*
X115040524Y-121674615D01*
X115328017Y-121244351D01*
X115526046Y-120766268D01*
X115627000Y-120258737D01*
X115627000Y-119741263D01*
X115526046Y-119233732D01*
X115328017Y-118755649D01*
X115040524Y-118325385D01*
X114674615Y-117959476D01*
X114244351Y-117671983D01*
X113829148Y-117500000D01*
X114244351Y-117328017D01*
X114674615Y-117040524D01*
X115040524Y-116674615D01*
X115328017Y-116244351D01*
X115526046Y-115766268D01*
X115627000Y-115258737D01*
X115627000Y-114741263D01*
X115526046Y-114233732D01*
X115328017Y-113755649D01*
X115040524Y-113325385D01*
X114674615Y-112959476D01*
X114244351Y-112671983D01*
X113829148Y-112500000D01*
X114244351Y-112328017D01*
X114674615Y-112040524D01*
X115040524Y-111674615D01*
X115328017Y-111244351D01*
X115526046Y-110766268D01*
X115627000Y-110258737D01*
X115627000Y-109741263D01*
X115526046Y-109233732D01*
X115328017Y-108755649D01*
X115040524Y-108325385D01*
X114674615Y-107959476D01*
X114244351Y-107671983D01*
X113829148Y-107500000D01*
X114244351Y-107328017D01*
X114674615Y-107040524D01*
X115040524Y-106674615D01*
X115328017Y-106244351D01*
X115526046Y-105766268D01*
X115627000Y-105258737D01*
X115627000Y-104741263D01*
X115526046Y-104233732D01*
X115328017Y-103755649D01*
X115040524Y-103325385D01*
X114674615Y-102959476D01*
X114244351Y-102671983D01*
X113829148Y-102500000D01*
X114244351Y-102328017D01*
X114674615Y-102040524D01*
X115040524Y-101674615D01*
X115328017Y-101244351D01*
X115526046Y-100766268D01*
X115627000Y-100258737D01*
X115627000Y-99741263D01*
X115526046Y-99233732D01*
X115328017Y-98755649D01*
X115040524Y-98325385D01*
X114674615Y-97959476D01*
X114244351Y-97671983D01*
X113768793Y-97475000D01*
X114244351Y-97278017D01*
X114674615Y-96990524D01*
X115040524Y-96624615D01*
X115328017Y-96194351D01*
X115526046Y-95716268D01*
X115627000Y-95208737D01*
X115627000Y-94741263D01*
X137873000Y-94741263D01*
X137873000Y-95258737D01*
X137973954Y-95766268D01*
X138171983Y-96244351D01*
X138459476Y-96674615D01*
X138825385Y-97040524D01*
X139255649Y-97328017D01*
X139670852Y-97500000D01*
X139255649Y-97671983D01*
X138825385Y-97959476D01*
X138459476Y-98325385D01*
X138171983Y-98755649D01*
X137973954Y-99233732D01*
X137873000Y-99741263D01*
X137873000Y-100258737D01*
X137973954Y-100766268D01*
X138171983Y-101244351D01*
X138459476Y-101674615D01*
X138825385Y-102040524D01*
X139255649Y-102328017D01*
X139670852Y-102500000D01*
X139255649Y-102671983D01*
X138825385Y-102959476D01*
X138459476Y-103325385D01*
X138171983Y-103755649D01*
X137973954Y-104233732D01*
X137873000Y-104741263D01*
X137873000Y-105258737D01*
X137973954Y-105766268D01*
X138171983Y-106244351D01*
X138459476Y-106674615D01*
X138825385Y-107040524D01*
X139255649Y-107328017D01*
X139670852Y-107500000D01*
X139255649Y-107671983D01*
X138825385Y-107959476D01*
X138459476Y-108325385D01*
X138171983Y-108755649D01*
X137973954Y-109233732D01*
X137873000Y-109741263D01*
X137873000Y-110258737D01*
X137973954Y-110766268D01*
X138171983Y-111244351D01*
X138459476Y-111674615D01*
X138825385Y-112040524D01*
X139255649Y-112328017D01*
X139670852Y-112500000D01*
X139255649Y-112671983D01*
X138825385Y-112959476D01*
X138459476Y-113325385D01*
X138171983Y-113755649D01*
X137973954Y-114233732D01*
X137873000Y-114741263D01*
X137873000Y-115258737D01*
X137973954Y-115766268D01*
X138171983Y-116244351D01*
X138459476Y-116674615D01*
X138825385Y-117040524D01*
X139255649Y-117328017D01*
X139670852Y-117500000D01*
X139255649Y-117671983D01*
X138825385Y-117959476D01*
X138459476Y-118325385D01*
X138171983Y-118755649D01*
X137973954Y-119233732D01*
X137873000Y-119741263D01*
X137873000Y-120258737D01*
X137973954Y-120766268D01*
X138171983Y-121244351D01*
X138459476Y-121674615D01*
X138825385Y-122040524D01*
X139255649Y-122328017D01*
X139733732Y-122526046D01*
X140241263Y-122627000D01*
X140758737Y-122627000D01*
X141266268Y-122526046D01*
X141744351Y-122328017D01*
X142174615Y-122040524D01*
X142540524Y-121674615D01*
X142828017Y-121244351D01*
X143026046Y-120766268D01*
X143127000Y-120258737D01*
X143127000Y-119741263D01*
X143026046Y-119233732D01*
X142828017Y-118755649D01*
X142540524Y-118325385D01*
X142174615Y-117959476D01*
X141744351Y-117671983D01*
X141329148Y-117500000D01*
X141744351Y-117328017D01*
X142174615Y-117040524D01*
X142540524Y-116674615D01*
X142828017Y-116244351D01*
X143026046Y-115766268D01*
X143127000Y-115258737D01*
X143127000Y-114741263D01*
X143026046Y-114233732D01*
X142828017Y-113755649D01*
X142540524Y-113325385D01*
X142174615Y-112959476D01*
X141744351Y-112671983D01*
X141329148Y-112500000D01*
X141744351Y-112328017D01*
X142174615Y-112040524D01*
X142540524Y-111674615D01*
X142828017Y-111244351D01*
X143026046Y-110766268D01*
X143127000Y-110258737D01*
X143127000Y-109741263D01*
X143026046Y-109233732D01*
X142828017Y-108755649D01*
X142540524Y-108325385D01*
X142174615Y-107959476D01*
X141744351Y-107671983D01*
X141329148Y-107500000D01*
X141744351Y-107328017D01*
X142174615Y-107040524D01*
X142540524Y-106674615D01*
X142828017Y-106244351D01*
X143026046Y-105766268D01*
X143127000Y-105258737D01*
X143127000Y-104741263D01*
X143026046Y-104233732D01*
X142828017Y-103755649D01*
X142540524Y-103325385D01*
X142174615Y-102959476D01*
X141744351Y-102671983D01*
X141329148Y-102500000D01*
X141744351Y-102328017D01*
X142174615Y-102040524D01*
X142540524Y-101674615D01*
X142828017Y-101244351D01*
X143026046Y-100766268D01*
X143127000Y-100258737D01*
X143127000Y-99741263D01*
X143026046Y-99233732D01*
X142828017Y-98755649D01*
X142540524Y-98325385D01*
X142174615Y-97959476D01*
X141744351Y-97671983D01*
X141329148Y-97500000D01*
X141744351Y-97328017D01*
X142174615Y-97040524D01*
X142540524Y-96674615D01*
X142828017Y-96244351D01*
X143026046Y-95766268D01*
X143127000Y-95258737D01*
X143127000Y-94741263D01*
X143026046Y-94233732D01*
X142828017Y-93755649D01*
X142540524Y-93325385D01*
X142174615Y-92959476D01*
X141744351Y-92671983D01*
X141266268Y-92473954D01*
X140758737Y-92373000D01*
X140241263Y-92373000D01*
X139733732Y-92473954D01*
X139255649Y-92671983D01*
X138825385Y-92959476D01*
X138459476Y-93325385D01*
X138171983Y-93755649D01*
X137973954Y-94233732D01*
X137873000Y-94741263D01*
X115627000Y-94741263D01*
X115627000Y-94691263D01*
X115526046Y-94183732D01*
X115328017Y-93705649D01*
X115040524Y-93275385D01*
X114674615Y-92909476D01*
X114244351Y-92621983D01*
X113766268Y-92423954D01*
X113258737Y-92323000D01*
X112741263Y-92323000D01*
X112233732Y-92423954D01*
X111755649Y-92621983D01*
X111325385Y-92909476D01*
X110959476Y-93275385D01*
X110671983Y-93705649D01*
X110473954Y-94183732D01*
X110373000Y-94691263D01*
X103168965Y-94691263D01*
X98799710Y-90322008D01*
X98744845Y-90255155D01*
X98478069Y-90036217D01*
X98173705Y-89873531D01*
X97843452Y-89773350D01*
X97586069Y-89748000D01*
X97586061Y-89748000D01*
X97500000Y-89739524D01*
X97413939Y-89748000D01*
X87205572Y-89748000D01*
X87205572Y-80168000D01*
X58913763Y-80168000D01*
X59074125Y-79780852D01*
X59177000Y-79263662D01*
X59177000Y-78736338D01*
X59138222Y-78541384D01*
X60052606Y-77627000D01*
X144947394Y-77627000D01*
X145459167Y-78138773D01*
M02*
