M48
;DRILL file {KiCad 4.0.7} date 06/26/19 05:05:56
;FORMAT={-:-/ absolute / metric / decimal}
FMAT,2
METRIC,TZ
T1C0.600
T2C0.700
T3C0.800
T4C1.000
T5C1.100
T6C1.200
T7C1.300
%
G90
G05
M71
T1
X58.071Y-113.157
X58.242Y-63.373
X58.242Y-65.373
X60.071Y-113.157
X74.244Y-88.221
X74.244Y-90.221
X80.55Y-107.442
X82.55Y-107.442
X84.557Y-97.358
X84.557Y-99.358
X103.378Y-46.101
X104.648Y-44.831
X104.648Y-47.371
X109.601Y-115.57
X109.601Y-118.11
X110.871Y-116.84
T2
X72.39Y-116.713
X72.39Y-124.333
X87.884Y-49.149
X89.408Y-114.427
X89.408Y-119.38
X89.408Y-124.587
X90.145Y-93.345
X90.145Y-100.965
X94.59Y-85.09
X94.59Y-91.491
X95.504Y-49.149
X97.028Y-114.427
X97.028Y-119.38
X97.028Y-124.587
X102.21Y-85.09
X102.21Y-91.491
X103.505Y-112.268
X103.505Y-119.888
X107.467Y-57.175
X112.395Y-39.751
X112.395Y-47.371
X115.087Y-57.175
X117.221Y-39.878
X117.221Y-46.228
X117.856Y-117.094
X117.856Y-123.952
X120.396Y-78.486
X124.841Y-39.878
X124.841Y-46.228
X125.476Y-117.094
X125.476Y-123.952
X128.016Y-78.486
X138.176Y-39.878
X140.97Y-100.33
X145.796Y-39.878
X148.59Y-100.33
X152.146Y-120.396
X153.67Y-39.751
X159.766Y-120.396
X161.29Y-39.751
T3
X64.516Y-112.776
X67.121Y-107.848
X69.621Y-107.848
X77.216Y-112.776
X79.375Y-118.745
X81.153Y-49.53
X81.915Y-118.745
X83.653Y-49.53
X83.922Y-66.599
X83.922Y-69.099
X84.455Y-118.745
X96.774Y-36.449
X96.774Y-44.069
X103.505Y-124.46
X107.061Y-91.567
X107.315Y-78.486
X107.315Y-85.217
X109.855Y-78.486
X111.125Y-124.46
X112.395Y-78.486
X113.411Y-71.374
X114.681Y-91.567
X114.935Y-85.217
X120.523Y-85.217
X120.523Y-91.567
X126.111Y-71.374
X128.143Y-85.217
X128.143Y-91.567
X129.667Y-39.624
X129.667Y-47.244
X130.429Y-109.474
X130.429Y-117.094
X136.779Y-70.993
X141.137Y-80.137
X143.637Y-80.137
X149.479Y-70.993
X149.733Y-80.137
X152.233Y-80.137
X153.289Y-70.993
X165.989Y-70.993
X170.815Y-72.009
X170.815Y-74.509
X170.815Y-78.232
X170.815Y-80.732
X170.815Y-84.368
X170.815Y-86.868
X170.815Y-90.464
X170.815Y-92.964
T4
X58.166Y-80.747
X60.503Y-56.083
X61.112Y-71.704
X62.357Y-116.459
X69.85Y-56.134
X71.806Y-80.747
X73.152Y-128.143
X73.152Y-130.683
X74.6Y-107.442
X77.343Y-72.238
X78.232Y-128.016
X78.232Y-130.556
X79.324Y-95.098
X81.204Y-90.932
X85.471Y-73.762
X85.547Y-80.213
X86.335Y-104.318
X89.611Y-77.343
X90.043Y-107.569
X90.119Y-90.83
X90.145Y-87.3
X90.17Y-130.937
X91.44Y-53.975
X91.694Y-61.341
X92.151Y-77.343
X92.583Y-107.569
X92.71Y-130.937
X94.234Y-61.341
X95.25Y-130.937
X96.571Y-74.93
X96.774Y-61.341
X96.901Y-100.33
X98.349Y-72.085
X98.679Y-65.38
X99.136Y-111.379
X99.187Y-95.936
X99.441Y-100.33
X100.076Y-130.937
X101.981Y-100.33
X104.394Y-51.41
X104.902Y-130.937
X105.283Y-33.02
X107.442Y-130.937
X107.823Y-33.02
X109.347Y-100.457
X109.576Y-65.126
X109.652Y-54.483
X109.855Y-51.613
X109.982Y-130.937
X110.363Y-33.02
X110.871Y-88.392
X112.395Y-51.613
X114.173Y-100.457
X115.697Y-130.81
X115.951Y-33.02
X116.078Y-109.982
X116.586Y-64.008
X118.618Y-109.982
X119.126Y-64.008
X119.173Y-100.457
X119.761Y-54.356
X120.523Y-130.81
X122.301Y-33.02
X122.301Y-54.356
X123.063Y-130.81
X124.841Y-33.02
X124.968Y-64.135
X125.603Y-130.81
X127.381Y-33.02
X127.508Y-64.135
X132.08Y-71.374
X132.08Y-73.914
X133.477Y-99.06
X136.271Y-130.81
X138.811Y-130.81
X139.319Y-33.02
X140.589Y-75.438
X141.351Y-130.81
X141.859Y-33.02
X144.399Y-33.02
X144.526Y-126.619
X147.193Y-95.631
X147.32Y-84.455
X149.225Y-36.703
X151.511Y-75.946
X151.511Y-89.408
X151.511Y-91.948
X153.289Y-130.81
X154.813Y-33.02
X155.829Y-130.81
X155.956Y-100.33
X157.353Y-33.02
X158.369Y-130.81
X159.893Y-33.02
X161.29Y-42.418
X161.798Y-76.708
X161.925Y-80.645
X161.925Y-85.725
X162.052Y-93.472
X162.052Y-98.552
X164.084Y-120.396
X165.735Y-58.674
T5
X94.234Y-54.483
X99.822Y-107.823
X101.854Y-54.483
X107.442Y-107.823
T6
X74.93Y-33.775
X74.93Y-41.275
X136.017Y-110.236
X136.779Y-48.514
X137.287Y-60.452
X162.687Y-60.452
X163.957Y-110.236
X164.719Y-48.514
X173.094Y-104.521
X173.221Y-122.555
X173.482Y-41.783
X173.482Y-59.817
X180.594Y-104.521
X180.721Y-122.555
X180.982Y-41.783
X180.982Y-59.817
T7
X56.933Y-124.813
X60.833Y-129.413
X63.733Y-122.313
X64.933Y-119.613
X68.133Y-128.913
X138.176Y-88.265
X138.176Y-93.265
X180.721Y-72.329
X180.721Y-77.329
X180.721Y-82.329
X180.721Y-87.329
X180.721Y-92.329
T0
M30
