G04 #@! TF.FileFunction,Copper,L2,Bot,Mixed*
%FSLAX46Y46*%
G04 Gerber Fmt 4.6, Leading zero omitted, Abs format (unit mm)*
G04 Created by KiCad (PCBNEW 4.0.7) date 06/25/19 11:17:45*
%MOMM*%
%LPD*%
G01*
G04 APERTURE LIST*
%ADD10C,0.100000*%
%ADD11C,0.150000*%
%ADD12R,1.200000X1.200000*%
%ADD13C,1.200000*%
%ADD14C,1.600000*%
%ADD15R,2.000000X2.000000*%
%ADD16C,2.000000*%
%ADD17R,2.400000X2.400000*%
%ADD18C,2.400000*%
%ADD19R,1.600000X1.600000*%
%ADD20O,1.600000X1.600000*%
%ADD21R,2.200000X2.200000*%
%ADD22O,2.200000X2.200000*%
%ADD23R,1.800000X1.800000*%
%ADD24O,1.800000X1.800000*%
%ADD25R,1.700000X1.700000*%
%ADD26O,1.700000X1.700000*%
%ADD27R,2.500000X2.500000*%
%ADD28C,2.500000*%
%ADD29C,1.440000*%
%ADD30C,1.000000*%
%ADD31R,1.000000X1.000000*%
%ADD32C,1.400000*%
%ADD33O,1.400000X1.400000*%
%ADD34O,4.000000X2.200000*%
%ADD35O,2.200000X4.000000*%
%ADD36O,2.400000X2.400000*%
%ADD37C,5.000000*%
G04 APERTURE END LIST*
D10*
D11*
X54864000Y-27432000D02*
X186817000Y-27432000D01*
X54864000Y-139573000D02*
X54864000Y-27432000D01*
X56007000Y-139573000D02*
X54864000Y-139573000D01*
X186817000Y-139573000D02*
X56007000Y-139573000D01*
X186817000Y-27432000D02*
X186817000Y-139573000D01*
D12*
X60071000Y-113157000D03*
D13*
X58071000Y-113157000D03*
D14*
X78613000Y-72644000D03*
X81113000Y-72644000D03*
D12*
X60198000Y-75565000D03*
D13*
X58198000Y-75565000D03*
D12*
X74930000Y-94615000D03*
D13*
X74930000Y-96615000D03*
D12*
X86360000Y-96266000D03*
D13*
X88360000Y-96266000D03*
D14*
X170815000Y-92964000D03*
X170815000Y-90464000D03*
X81153000Y-49530000D03*
X83653000Y-49530000D03*
D15*
X114173000Y-100457000D03*
D16*
X119173000Y-100457000D03*
D14*
X81026000Y-67056000D03*
X78526000Y-67056000D03*
D17*
X81153000Y-41275000D03*
D18*
X81153000Y-33775000D03*
D14*
X170815000Y-72009000D03*
X170815000Y-74509000D03*
D12*
X82550000Y-107442000D03*
D13*
X80550000Y-107442000D03*
D17*
X180594000Y-104521000D03*
D18*
X173094000Y-104521000D03*
D17*
X173482000Y-59817000D03*
D18*
X180982000Y-59817000D03*
D14*
X141605000Y-79121000D03*
X141605000Y-81621000D03*
D17*
X180721000Y-122555000D03*
D18*
X173221000Y-122555000D03*
D17*
X173482000Y-41783000D03*
D18*
X180982000Y-41783000D03*
D14*
X151511000Y-79121000D03*
X151511000Y-81621000D03*
X170815000Y-86868000D03*
X170815000Y-84368000D03*
X170815000Y-78232000D03*
X170815000Y-80732000D03*
D19*
X114935000Y-85217000D03*
D20*
X107315000Y-85217000D03*
D19*
X128143000Y-85217000D03*
D20*
X120523000Y-85217000D03*
D19*
X107061000Y-91567000D03*
D20*
X114681000Y-91567000D03*
D19*
X120523000Y-91567000D03*
D20*
X128143000Y-91567000D03*
D21*
X107442000Y-107823000D03*
D22*
X99822000Y-107823000D03*
D21*
X101854000Y-54483000D03*
D22*
X94234000Y-54483000D03*
D19*
X129667000Y-47244000D03*
D20*
X129667000Y-39624000D03*
D19*
X130429000Y-117094000D03*
D20*
X130429000Y-109474000D03*
D23*
X162052000Y-98552000D03*
D24*
X162052000Y-93472000D03*
D23*
X161925000Y-85725000D03*
D24*
X161925000Y-80645000D03*
D19*
X103505000Y-124460000D03*
D20*
X111125000Y-124460000D03*
D19*
X96774000Y-36449000D03*
D20*
X96774000Y-44069000D03*
D25*
X78232000Y-128016000D03*
D26*
X78232000Y-130556000D03*
D27*
X138176000Y-88265000D03*
D28*
X138176000Y-93265000D03*
X180721000Y-72329000D03*
X180721000Y-77329000D03*
X180721000Y-82329000D03*
D27*
X180721000Y-92329000D03*
D28*
X180721000Y-87329000D03*
D25*
X73152000Y-128143000D03*
D26*
X73152000Y-130683000D03*
D25*
X67437000Y-71374000D03*
D26*
X69977000Y-71374000D03*
D25*
X132080000Y-71374000D03*
D26*
X132080000Y-73914000D03*
D25*
X90043000Y-107569000D03*
D26*
X92583000Y-107569000D03*
D29*
X79375000Y-118745000D03*
X81915000Y-118745000D03*
X84455000Y-118745000D03*
X112395000Y-78486000D03*
X109855000Y-78486000D03*
X107315000Y-78486000D03*
D23*
X158369000Y-130810000D03*
D24*
X155829000Y-130810000D03*
X153289000Y-130810000D03*
D23*
X141351000Y-130810000D03*
D24*
X138811000Y-130810000D03*
X136271000Y-130810000D03*
D23*
X154813000Y-33020000D03*
D24*
X157353000Y-33020000D03*
X159893000Y-33020000D03*
D23*
X139319000Y-33020000D03*
D24*
X141859000Y-33020000D03*
X144399000Y-33020000D03*
D30*
X110871000Y-116840000D03*
X109601000Y-118110000D03*
D31*
X109601000Y-115570000D03*
D30*
X103378000Y-46101000D03*
X104648000Y-44831000D03*
D31*
X104648000Y-47371000D03*
D32*
X72390000Y-124333000D03*
D33*
X72390000Y-116713000D03*
D14*
X77216000Y-112776000D03*
D20*
X64516000Y-112776000D03*
D32*
X93853000Y-86741000D03*
D33*
X101473000Y-86741000D03*
D32*
X95123000Y-93726000D03*
D33*
X102743000Y-93726000D03*
D32*
X120396000Y-78486000D03*
D33*
X128016000Y-78486000D03*
D14*
X126111000Y-71374000D03*
D20*
X113411000Y-71374000D03*
D32*
X81407000Y-94488000D03*
D33*
X81407000Y-102108000D03*
D14*
X136779000Y-70993000D03*
D20*
X149479000Y-70993000D03*
D32*
X140970000Y-100330000D03*
D33*
X148590000Y-100330000D03*
D32*
X97028000Y-119380000D03*
D33*
X89408000Y-119380000D03*
D32*
X97028000Y-124587000D03*
D33*
X89408000Y-124587000D03*
D32*
X97028000Y-114427000D03*
D33*
X89408000Y-114427000D03*
D32*
X110744000Y-61468000D03*
D33*
X103124000Y-61468000D03*
D32*
X95504000Y-49149000D03*
D33*
X87884000Y-49149000D03*
D32*
X103505000Y-119888000D03*
D33*
X103505000Y-112268000D03*
D32*
X112395000Y-39751000D03*
D33*
X112395000Y-47371000D03*
D32*
X125476000Y-117094000D03*
D33*
X117856000Y-117094000D03*
D32*
X124841000Y-46228000D03*
D33*
X117221000Y-46228000D03*
D32*
X161290000Y-39751000D03*
D33*
X153670000Y-39751000D03*
D32*
X152146000Y-120396000D03*
D33*
X159766000Y-120396000D03*
D32*
X145796000Y-39878000D03*
D33*
X138176000Y-39878000D03*
D14*
X165989000Y-70993000D03*
D20*
X153289000Y-70993000D03*
D32*
X125476000Y-123952000D03*
D33*
X117856000Y-123952000D03*
D32*
X117221000Y-39878000D03*
D33*
X124841000Y-39878000D03*
D34*
X60833000Y-129413000D03*
D35*
X68133000Y-128913000D03*
D34*
X63733000Y-122313000D03*
X64933000Y-119613000D03*
D35*
X56933000Y-124813000D03*
D25*
X151511000Y-89408000D03*
D26*
X151511000Y-91948000D03*
D25*
X109855000Y-54483000D03*
D26*
X112395000Y-54483000D03*
D25*
X119761000Y-54356000D03*
D26*
X122301000Y-54356000D03*
D25*
X116078000Y-109982000D03*
D26*
X118618000Y-109982000D03*
D18*
X137287000Y-60452000D03*
D36*
X162687000Y-60452000D03*
D25*
X124968000Y-64135000D03*
D26*
X127508000Y-64135000D03*
D23*
X91694000Y-61341000D03*
D24*
X94234000Y-61341000D03*
X96774000Y-61341000D03*
D23*
X109982000Y-130937000D03*
D24*
X107442000Y-130937000D03*
X104902000Y-130937000D03*
D23*
X105283000Y-33020000D03*
D24*
X107823000Y-33020000D03*
X110363000Y-33020000D03*
D23*
X125603000Y-130810000D03*
D24*
X123063000Y-130810000D03*
X120523000Y-130810000D03*
D23*
X122301000Y-33020000D03*
D24*
X124841000Y-33020000D03*
X127381000Y-33020000D03*
D25*
X116586000Y-64008000D03*
D26*
X119126000Y-64008000D03*
D18*
X136779000Y-48514000D03*
D36*
X164719000Y-48514000D03*
D18*
X163957000Y-110236000D03*
D36*
X136017000Y-110236000D03*
D37*
X59690000Y-31369000D03*
X183007000Y-31115000D03*
X59055000Y-135763000D03*
X182626000Y-135763000D03*
D23*
X96901000Y-100330000D03*
D24*
X99441000Y-100330000D03*
X101981000Y-100330000D03*
D23*
X95250000Y-130937000D03*
D24*
X92710000Y-130937000D03*
X90170000Y-130937000D03*
M02*
